<svg width="41" height="40" viewBox="0 0 41 40" fill="none" xmlns="http://www.w3.org/2000/svg">
<rect x="1.16016" y="0.5" width="39" height="39" rx="11.5" stroke="#EDEEF1"/>
<path d="M16.1602 12.5L13.9102 15.5V26C13.9102 26.3978 14.0682 26.7794 14.3495 27.0607C14.6308 27.342 15.0123 27.5 15.4102 27.5H25.9102C26.308 27.5 26.6895 27.342 26.9708 27.0607C27.2521 26.7794 27.4102 26.3978 27.4102 26V15.5L25.1602 12.5H16.1602Z" stroke="#0B2238" stroke-width="1.5" stroke-linecap="round" stroke-linejoin="round"/>
<path d="M13.9102 15.5H27.4102" stroke="#0B2238" stroke-width="1.5" stroke-linecap="round" stroke-linejoin="round"/>
<path d="M23.6602 18.5C23.6602 19.2956 23.3441 20.0587 22.7815 20.6213C22.2189 21.1839 21.4558 21.5 20.6602 21.5C19.8645 21.5 19.1014 21.1839 18.5388 20.6213C17.9762 20.0587 17.6602 19.2956 17.6602 18.5" stroke="#0B2238" stroke-width="1.5" stroke-linecap="round" stroke-linejoin="round"/>
</svg>
