<svg width="20" height="20" viewBox="0 0 20 20" fill="none" xmlns="http://www.w3.org/2000/svg">
<path d="M9.99988 0C15.5149 0 19.9999 4.486 19.9999 10C19.9999 15.514 15.5149 20 9.99988 20C4.48588 20 -0.00012207 15.514 -0.00012207 10C-0.00012207 4.486 4.48588 0 9.99988 0Z" fill="white"/>
<path d="M8.55748 5.77929C8.74848 5.77929 8.94048 5.85229 9.08648 5.99829L12.5735 9.4683C12.7145 9.60929 12.7935 9.8003 12.7935 10.0003C12.7935 10.1993 12.7145 10.3903 12.5735 10.5313L9.08648 14.0033C8.79348 14.2953 8.31948 14.2953 8.02648 14.0013C7.73448 13.7073 7.73548 13.2323 8.02848 12.9403L10.9815 10.0003L8.02848 7.0603C7.73548 6.7683 7.73448 6.2943 8.02648 6.0003C8.17248 5.8523 8.36548 5.77929 8.55748 5.77929Z" fill="#B00909"/>
</svg>
