<svg width="70" height="70" viewBox="0 0 70 70" fill="none" xmlns="http://www.w3.org/2000/svg">
<rect width="70" height="70" rx="35" fill="#2576BC"/>
<path d="M45 22.5H25C24.337 22.5 23.7011 22.7634 23.2322 23.2322C22.7634 23.7011 22.5 24.337 22.5 25V32.35C22.5 43.895 32.2625 47.725 34.2188 48.3725C34.7253 48.5425 35.2735 48.5425 35.78 48.3725C37.7375 47.7225 47.5 43.895 47.5 32.35V25C47.5 24.337 47.2366 23.7011 46.7678 23.2322C46.2989 22.7634 45.663 22.5 45 22.5ZM44.5 32.35C44.5 41.5438 36.935 44.79 35 45.475C33.0662 44.7975 25.5 41.5512 25.5 32.3562V25.5H44.5V32.35ZM33.5 34.5V30C33.5 29.6022 33.658 29.2206 33.9393 28.9393C34.2206 28.658 34.6022 28.5 35 28.5C35.3978 28.5 35.7794 28.658 36.0607 28.9393C36.342 29.2206 36.5 29.6022 36.5 30V34.5C36.5 34.8978 36.342 35.2794 36.0607 35.5607C35.7794 35.842 35.3978 36 35 36C34.6022 36 34.2206 35.842 33.9393 35.5607C33.658 35.2794 33.5 34.8978 33.5 34.5ZM33 39.5C33 39.1044 33.1173 38.7178 33.3371 38.3889C33.5568 38.06 33.8692 37.8036 34.2346 37.6522C34.6001 37.5009 35.0022 37.4613 35.3902 37.5384C35.7781 37.6156 36.1345 37.8061 36.4142 38.0858C36.6939 38.3655 36.8844 38.7219 36.9616 39.1098C37.0387 39.4978 36.9991 39.8999 36.8478 40.2654C36.6964 40.6308 36.44 40.9432 36.1111 41.1629C35.7822 41.3827 35.3956 41.5 35 41.5C34.4696 41.5 33.9609 41.2893 33.5858 40.9142C33.2107 40.5391 33 40.0304 33 39.5Z" fill="white"/>
</svg>
