<svg width="265" height="229" viewBox="0 0 265 229" fill="none" xmlns="http://www.w3.org/2000/svg">
<g id="Frame" clip-path="url(#clip0_58_3115)">
<g id="Group">
<path id="Vector" d="M174.604 66.1745C176.204 64.3724 178.236 63.1432 180.409 62.139C185.856 59.6218 191.537 57.7719 197.366 56.3634C204.045 54.753 210.788 53.5257 217.64 52.9319C218.702 52.8389 219.779 52.9446 220.851 52.9533C220.873 53.1223 220.903 53.2933 220.925 53.4623C220.356 53.5963 219.795 53.8076 219.216 53.8594C209.595 54.729 200.152 56.5174 190.896 59.3022C186.765 60.5455 182.771 62.1555 178.973 64.2038C178.016 64.7188 177.2 65.4784 176.285 66.076C175.856 66.3549 175.36 66.5282 174.896 66.7459C174.795 66.5597 174.699 66.3708 174.604 66.1745Z" fill="black" fill-opacity="0.75"/>
<path id="Vector_2" d="M213.034 59.2414C217.457 56.5812 222.599 55.6447 227.524 53.6918C224.981 51.2526 221.765 50.0608 219.528 47.338C221.116 47.5566 226.929 51.2695 230.271 54.1256C227.249 55.1052 224.382 55.9952 221.539 56.9593C218.765 57.9021 216.023 58.9209 213.266 59.9041C213.187 59.6801 213.111 59.4608 213.034 59.2414Z" fill="black" fill-opacity="0.75"/>
<g id="Group_2">
<path id="Vector_3" d="M153.621 150.987C154.864 151.272 154.895 152.183 154.775 153.193C154.711 153.744 154.504 154.397 154.702 154.847C155.66 156.985 154.79 158.509 153.223 159.859C152.948 160.1 152.659 160.317 152.411 160.516C152.365 160.719 152.289 160.869 152.318 160.997C153.165 164.767 150.521 167.673 147.283 168.539C145.647 168.975 144.025 169.272 142.323 168.975C139.758 168.531 137.716 167.514 137.234 164.606C135.212 164.243 132.984 164.457 131.781 162.341C131.119 161.174 130.633 159.962 131.254 158.637C128.668 156.222 128.611 155.754 130.399 151.974C129.236 149.296 128.108 146.604 126.893 143.956C126.518 143.144 126.226 142.29 124.989 142.114C117.972 141.128 113.165 137.029 110.009 130.91C106.781 124.657 105.778 117.998 107.56 111.155C109.174 104.954 113.113 100.359 118.4 96.8172C124.366 92.8208 130.867 91.6835 137.842 92.9441C142.817 93.8477 147.451 95.6381 151.162 99.1657C157.508 105.193 160.144 112.615 159.085 121.33C158.407 126.891 156.052 131.644 152.26 135.734C151.723 136.314 151.317 137.012 150.84 137.664C151.633 139.646 152.461 141.514 153.131 143.435C153.953 145.783 153.712 146.343 151.417 147.322C150.15 147.866 148.8 148.231 147.46 148.584C142.736 149.832 138.021 151.105 133.263 152.209C131.842 152.54 131.174 153.522 130.537 154.504C129.738 155.749 130.865 157.3 132.501 157.309C133.219 157.315 133.971 157.182 134.658 156.961C140.144 155.217 145.751 153.793 150.884 151.092C151.851 150.584 152.826 150.034 153.663 149.344C154.271 148.842 154.655 148.075 155.101 147.478C155.688 148.3 155.696 148.91 154.905 149.8C154.529 150.224 154.094 150.6 153.689 150.997C147.264 154.186 140.589 156.716 133.583 158.303C132.574 158.534 132.252 158.996 132.529 160.172C133.331 160.148 134.135 160.248 134.874 160.072C139.131 159.07 143.414 158.122 147.604 156.894C149.386 156.373 151.071 155.338 152.631 154.293C153.704 153.586 154.605 152.475 153.621 150.987ZM144.471 148.165C146.583 147.586 148.714 147.095 150.782 146.397C152.462 145.829 152.631 145.373 152.07 143.803C151.607 142.502 151.134 141.182 150.472 139.971C149.414 138.041 149.885 136.477 151.327 135.03C151.584 134.769 151.84 134.508 152.074 134.229C158.175 126.968 159.796 118.737 156.836 109.808C154.139 101.681 148.225 96.7282 140.023 94.5824C130.321 92.0424 121.757 94.2332 114.644 101.382C111.286 104.757 108.848 108.693 108.209 113.571C107.239 120.931 108.701 127.657 113.125 133.69C116.126 137.779 120.029 140.367 125.107 140.961C126.379 141.111 127.093 141.696 127.57 142.782C128.362 144.588 129.159 146.393 129.992 148.183C130.509 149.295 131.092 150.37 131.669 151.511C133.802 150.894 135.745 150.337 137.642 149.787C137.666 149.535 137.732 149.378 137.688 149.259C136.325 145.561 135.064 141.823 133.548 138.188C132.144 134.821 129.893 132.063 126.72 130.119C125.603 129.434 124.509 128.68 123.506 127.834C120.461 125.265 120.76 122.633 124.256 120.746C124.447 120.643 124.651 120.55 124.855 120.47C126.794 119.689 128.923 119.551 130.853 118.657C131.556 118.332 132.587 118.596 133.438 118.745C133.989 118.841 134.498 119.212 134.871 119.391C137.358 116.181 138.432 116.075 142.201 118.409C142.61 118.172 143.042 117.91 143.485 117.667C145.528 116.557 146.865 116.97 147.996 119.027C149.144 121.124 148.439 123.043 147.293 124.796C146.261 126.376 145.106 127.928 143.779 129.258C141.553 131.497 141.265 134.084 141.909 136.949C142.754 140.639 143.598 144.329 144.471 148.165ZM127.594 120.814C126.652 121.094 125.869 121.226 125.178 121.55C122.009 123.035 121.757 124.88 124.455 127.13C125.572 128.066 126.81 128.863 128.037 129.653C130.556 131.278 132.529 133.414 133.824 136.091C134.931 138.387 135.845 140.776 136.762 143.157C137.536 145.182 138.189 147.257 138.947 149.473C140.548 149.094 141.932 148.765 143.41 148.414C143.282 147.691 143.204 147.122 143.07 146.565C142.333 143.516 141.53 140.486 140.838 137.429C140.096 134.145 140.212 131.023 142.917 128.514C143.447 128.02 143.934 127.463 144.351 126.87C145.27 125.562 146.184 124.244 147.01 122.871C147.612 121.871 147.516 120.759 147.099 119.689C146.64 118.505 145.767 117.981 144.76 118.267C143.393 118.649 142.861 119.445 143.069 120.793C143.115 121.08 143.218 121.365 143.232 121.652C143.288 122.705 142.788 123.338 141.949 123.296C141.085 123.255 140.608 122.615 140.743 121.609C140.792 121.248 140.884 120.887 141.007 120.547C141.339 119.621 140.938 119.025 140.206 118.507C138.582 117.356 137.214 117.844 136.408 119.903C136.861 120.469 137.339 121.015 137.758 121.601C138.253 122.294 138.595 123.137 137.895 123.792C137.418 124.237 136.496 124.694 136.02 124.511C135.415 124.277 134.87 123.463 134.641 122.786C134.407 122.074 134.579 121.222 134.577 120.295C133.184 119.957 131.899 119.176 130.515 120.125C131.091 121.122 131.693 121.96 132.078 122.886C132.549 124.018 132.117 125.04 131.274 125.872C130.499 126.638 129.069 126.899 128.226 126.471C127.131 125.911 126.987 124.89 127.066 123.841C127.133 122.981 127.357 122.13 127.594 120.814ZM153.903 155.083C147.46 159.21 140.017 159.995 132.748 161.702C133.853 163.366 135.479 163.424 137.039 163.182C140.489 162.639 143.927 161.977 147.346 161.239C148.684 160.949 149.988 160.404 151.23 159.818C153.464 158.755 154.229 157.353 153.903 155.083ZM138.425 164.42C138.586 166.197 139.68 167.07 141.272 167.569C143.78 168.36 146.192 167.952 148.497 166.948C150.636 166.014 151.779 163.453 151.322 161.434C147.035 162.428 142.741 163.421 138.425 164.42ZM130.37 122.047C130.241 121.976 129.725 121.484 129.202 121.479C128.931 121.478 128.588 122.317 128.396 122.822C128.245 123.211 128.152 123.703 128.259 124.093C128.388 124.589 128.645 125.294 129.012 125.421C129.435 125.566 130.171 125.31 130.536 124.974C131.329 124.24 131.286 123.318 130.37 122.047ZM136.079 123.668C137.331 122.381 137.315 122.321 135.635 121.453C135.784 122.189 135.896 122.764 136.079 123.668Z" fill="black" fill-opacity="0.75"/>
<path id="Vector_4" d="M91.8381 158.061C89.1809 161.27 86.7141 164.569 85.1682 168.454C83.6437 172.288 82.8321 176.282 82.5384 180.391C82.2422 184.538 82.2397 188.673 82.9079 192.873C85.2047 188.605 86.157 183.671 89.5007 179.977C87.2018 186.034 84.4412 191.9 82.6882 198.456C81.8144 195.292 79.0238 193.967 77.2507 191.754C76.6301 190.984 75.9726 190.247 75.5123 189.308C77.9126 190.293 79.2365 192.565 81.5723 194.177C81.557 193.314 81.5812 192.704 81.5233 192.104C80.9418 185.741 81.0268 179.413 82.5008 173.155C83.7479 167.862 86.0871 163.125 89.7471 159.067C90.4666 158.282 90.4537 158.27 91.8381 158.061Z" fill="black" fill-opacity="0.75"/>
<path id="Vector_5" d="M223.027 137.911C219.209 138.522 215.724 139.08 212.026 139.671C212.862 138.078 214.379 138.282 215.588 137.954C216.905 137.595 218.258 137.384 220.08 137.01C216.299 135.85 212.995 134.734 209.638 133.83C205.693 132.765 201.725 131.738 197.711 130.957C194.929 130.418 192.066 130.12 189.231 130.088C187.487 130.066 185.737 130.75 183.879 131.139C183.604 130.489 184.234 130.201 184.672 129.948C186.673 128.818 188.907 128.701 191.075 128.936C194.553 129.311 198.073 129.694 201.448 130.574C207.805 132.23 214.073 134.243 220.38 136.096C220.492 136.126 220.641 136.027 221.036 135.918C220.086 133.349 218.294 131.223 217.382 128.676C220.397 131.031 221.761 134.371 223.027 137.911Z" fill="black" fill-opacity="0.75"/>
<path id="Vector_6" d="M153.005 34.3366C155.398 30.8223 157.787 27.3229 160.272 23.6742C161.585 25.3622 161.883 27.5614 162.797 29.4607C163.725 31.3836 164.5 33.3765 165.142 35.4334C163.432 33.7107 162.457 31.5765 161.393 28.8976C157.602 39.8869 154.475 50.5174 154.513 61.8609C153.241 61.9178 153.382 61.0648 153.413 60.5203C153.56 57.8953 153.692 55.2663 154.007 52.6628C154.939 44.9992 157.27 37.6824 159.684 30.3923C159.913 29.702 160.281 29.0569 160.589 28.3959C160.975 27.5648 160.888 26.8496 160.066 26.2395C157.844 29.0084 156.393 32.3615 153.531 34.597C153.476 34.6418 153.284 34.4829 153.005 34.3366Z" fill="black" fill-opacity="0.75"/>
<path id="Vector_7" d="M97.2824 96.6782C96.2089 97.0785 95.686 96.3141 95.0315 95.9518C90.6243 93.5223 86.2806 90.9745 81.7906 88.7057C79.08 87.3352 76.1449 86.4016 72.9787 85.1436C73.3115 87.1217 74.7743 88.3408 74.4704 90.4544C73.0465 89.1941 72.8231 87.5794 71.9104 86.4441C70.9823 85.2927 70.1319 84.0587 69.0642 83.0569C67.9708 82.0322 66.6574 81.2349 65.3413 80.2699C71.6829 80.5853 77.883 80.8946 84.1296 81.2083C82.6904 82.127 82.5155 82.1716 77.0656 82.0753C74.6634 82.0321 72.268 81.8595 69.759 81.7399C70.3907 83.0186 71.2903 83.6534 72.5802 84.0189C80.5853 86.303 87.8998 90.0961 94.9105 94.5037C95.7808 95.055 96.8405 95.4782 97.2824 96.6782Z" fill="black" fill-opacity="0.75"/>
<path id="Vector_8" d="M32.6812 159.329C34.2629 158.19 35.7828 156.955 37.4316 155.921C47.3684 149.72 57.9611 144.796 68.6251 140.007C68.765 139.945 69.0164 140.119 69.2823 140.211C69.133 141.332 68.1426 141.496 67.4232 141.836C64.2591 143.33 61.0589 144.751 57.8704 146.203C50.4745 149.57 43.489 153.691 36.5097 157.833C35.3445 158.531 34.4313 159.698 32.6812 159.329Z" fill="black" fill-opacity="0.75"/>
<path id="Vector_9" d="M27.9773 162.904C28.7312 159.245 34.6183 151.907 40.4267 147.192C40.202 148.476 39.7115 149.223 38.3731 150.686C36.1075 153.161 33.8473 155.645 31.6587 158.188C30.8624 159.112 30.2791 160.22 29.395 161.546C33.4505 161.563 36.9381 160.39 40.5637 159.488C40.5362 159.962 40.5869 160.322 40.5062 160.356C36.5702 162.045 32.4186 162.698 27.9773 162.904Z" fill="black" fill-opacity="0.75"/>
<path id="Vector_10" d="M165.882 104.291C170.554 99.9755 175.119 95.5083 181.538 93.7966C181.64 93.9194 181.75 94.0443 181.852 94.1671C181.617 94.4538 181.434 94.898 181.128 94.9991C175.804 96.8373 171.777 100.618 167.488 104.01C167.105 104.312 166.638 104.513 166.209 104.76C166.105 104.601 165.996 104.445 165.882 104.291Z" fill="black" fill-opacity="0.75"/>
<path id="Vector_11" d="M126.622 83.7782C126.063 81.636 125.386 79.518 124.981 77.3496C124.498 74.7746 124.228 72.1575 123.929 69.552C123.852 68.8873 123.776 68.0596 125.047 67.8276C124.731 73.3101 126.8 78.3818 127.171 83.6747C126.988 83.7051 126.807 83.7403 126.622 83.7782Z" fill="black" fill-opacity="0.75"/>
<path id="Vector_12" d="M81.4426 109.06C81.9542 108.946 82.4726 108.704 82.9713 108.742C86.8612 109.08 90.7107 109.599 94.283 111.256C94.2554 111.403 94.2277 111.551 94.1954 111.702C89.9905 110.98 85.783 110.255 81.5781 109.534C81.5323 109.378 81.4837 109.218 81.4426 109.06Z" fill="black" fill-opacity="0.75"/>
<path id="Vector_13" d="M180.223 126.056C179.839 126.227 179.528 126.482 179.233 126.471C177.375 126.414 167.884 123.457 166.68 122.61C168.225 122.408 178.664 125.018 180.223 126.056Z" fill="black" fill-opacity="0.75"/>
<path id="Vector_14" d="M151.287 84.7364C152.979 80.736 156.461 77.1637 159.472 76.4792C159.138 78.0082 157.474 78.0156 156.789 79.0569C156.042 80.1969 155.017 81.1589 154.113 82.2012C153.278 83.1664 152.445 84.1241 151.61 85.0893C151.498 84.9719 151.394 84.8565 151.287 84.7364Z" fill="black" fill-opacity="0.75"/>
<path id="Vector_15" d="M100.897 132.533C98.681 135.832 96.0346 138.288 93.5573 140.885C93.4567 140.994 93.0645 140.825 92.7671 140.777C93.7893 138.669 98.7263 133.586 100.897 132.533Z" fill="black" fill-opacity="0.75"/>
<path id="Vector_16" d="M106.468 91.3375C103.481 89.3362 100.496 87.3396 97.5229 85.3181C97.4188 85.2464 97.4894 84.9234 97.4594 84.3825C101.346 85.7141 103.993 88.3879 106.755 90.9016C106.662 91.0435 106.566 91.1928 106.468 91.3375Z" fill="black" fill-opacity="0.75"/>
</g>
</g>
</g>
<defs>
<clipPath id="clip0_58_3115">
<rect width="229.581" height="130.31" fill="white" transform="translate(0.762695 115.767) rotate(-30)"/>
</clipPath>
</defs>
</svg>
