<svg width="435" height="253" viewBox="0 0 435 253" fill="none" xmlns="http://www.w3.org/2000/svg">
<g filter="url(#filter0_dddddd_58_3103)">
<rect x="80" width="275" height="73" rx="12" fill="white"/>
</g>
<path d="M153.798 20.712C153.798 20.796 153.854 20.852 153.938 20.852H155.212V28.86C155.212 28.944 155.268 29 155.352 29H156.752C156.836 29 156.892 28.944 156.892 28.86V19.438C156.892 19.354 156.836 19.284 156.752 19.284H153.938C153.854 19.284 153.798 19.354 153.798 19.438V20.712ZM158.319 24.142C158.319 27.138 159.747 29.126 161.875 29.126C164.003 29.126 165.417 27.138 165.417 24.142C165.417 21.146 164.003 19.158 161.875 19.158C159.747 19.158 158.319 21.146 158.319 24.142ZM159.999 24.142C159.999 22.154 160.741 20.824 161.875 20.824C162.981 20.824 163.737 22.154 163.737 24.142C163.737 26.13 162.995 27.46 161.875 27.46C160.741 27.46 159.999 26.144 159.999 24.142ZM166.673 24.142C166.673 27.138 168.101 29.126 170.229 29.126C172.357 29.126 173.771 27.138 173.771 24.142C173.771 21.146 172.357 19.158 170.229 19.158C168.101 19.158 166.673 21.146 166.673 24.142ZM168.353 24.142C168.353 22.154 169.095 20.824 170.229 20.824C171.335 20.824 172.091 22.154 172.091 24.142C172.091 26.13 171.349 27.46 170.229 27.46C169.095 27.46 168.353 26.144 168.353 24.142ZM174.69 21.314C174.69 22.756 175.656 23.708 177.098 23.708C178.54 23.708 179.492 22.756 179.492 21.314C179.492 19.858 178.54 18.906 177.098 18.906C175.656 18.906 174.69 19.858 174.69 21.314ZM176.146 21.314C176.146 20.74 176.524 20.362 177.098 20.362C177.658 20.362 178.036 20.74 178.036 21.314C178.036 21.874 177.658 22.252 177.098 22.252C176.524 22.252 176.146 21.874 176.146 21.314ZM181.928 26.732C181.928 26.172 182.306 25.794 182.88 25.794C183.44 25.794 183.818 26.172 183.818 26.732C183.818 27.306 183.44 27.684 182.88 27.684C182.306 27.684 181.928 27.306 181.928 26.732ZM180.472 26.746C180.472 28.188 181.438 29.14 182.88 29.14C184.322 29.14 185.274 28.188 185.274 26.746C185.274 25.29 184.322 24.338 182.88 24.338C181.438 24.338 180.472 25.29 180.472 26.746ZM176.496 28.818C176.426 28.93 176.468 29 176.608 29H177.896C177.966 29 178.05 28.958 178.078 28.902L183.636 19.046C183.692 18.962 183.636 18.892 183.524 18.892H182.222C182.152 18.892 182.082 18.92 182.04 18.99L176.496 28.818ZM189.983 29H193.455C195.471 29 196.773 27.838 196.745 26.102C196.731 24.968 196.143 24.128 195.163 23.68C195.793 23.232 196.157 22.588 196.143 21.846C196.129 20.278 194.911 19.284 193.021 19.284H189.983C189.899 19.284 189.843 19.34 189.843 19.438L189.829 28.86C189.829 28.944 189.899 29 189.983 29ZM193.483 24.464C194.379 24.464 195.065 24.94 195.065 25.892C195.065 26.802 194.407 27.404 193.357 27.418H191.509V24.464H193.483ZM191.509 20.866H192.881C193.889 20.866 194.463 21.286 194.463 21.972C194.463 22.714 194.029 23.218 193.021 23.218H191.509V20.866ZM198.026 26.228C198.026 28.09 199.02 29.154 200.49 29.168C201.456 29.168 202.198 28.762 202.688 28.118L202.842 28.86C202.87 28.944 202.926 29 203.01 29H204.046C204.13 29 204.186 28.944 204.186 28.86V22.574C204.186 22.49 204.13 22.434 204.046 22.434H202.744C202.646 22.434 202.59 22.49 202.59 22.574L202.604 25.64C202.534 26.984 201.82 27.642 201.022 27.656C200.14 27.656 199.622 27.138 199.622 25.934V22.574C199.622 22.49 199.566 22.434 199.482 22.434H198.166C198.082 22.434 198.026 22.49 198.026 22.574V26.228ZM205.54 28.412C205.792 28.608 206.772 29.126 208.074 29.126C209.628 29.14 210.678 28.328 210.65 27.026C210.608 25.864 209.824 25.374 208.368 25.024C207.528 24.828 207.122 24.66 207.108 24.282C207.108 24.002 207.5 23.764 208.088 23.764C208.172 23.764 208.242 23.764 208.326 23.778C209.012 23.848 209.46 24.128 209.656 24.24C209.684 24.254 209.712 24.254 209.74 24.254C209.782 24.254 209.838 24.226 209.852 24.184L210.384 23.176C210.426 23.106 210.398 23.022 210.342 22.966C210.118 22.798 209.292 22.294 208.158 22.28C206.674 22.266 205.47 23.022 205.526 24.338C205.554 25.346 206.212 25.934 207.542 26.298C208.452 26.564 209.054 26.718 209.054 27.138C209.054 27.628 208.158 27.656 207.836 27.656C207.094 27.6 206.52 27.292 206.226 27.124C206.198 27.11 206.17 27.096 206.142 27.096C206.1 27.096 206.058 27.124 206.03 27.166L205.498 28.216C205.456 28.286 205.47 28.37 205.54 28.412ZM213.528 22.56C213.528 22.476 213.472 22.434 213.388 22.434H212.086C211.988 22.42 211.932 22.49 211.932 22.574V28.86C211.932 28.944 211.988 29 212.072 29H213.388C213.472 29 213.528 28.944 213.528 28.86V22.56ZM211.694 20.194C211.694 20.81 212.114 21.23 212.73 21.23C213.36 21.23 213.752 20.81 213.752 20.194C213.752 19.578 213.36 19.172 212.73 19.172C212.114 19.172 211.694 19.578 211.694 20.194ZM215.199 28.86C215.199 28.944 215.255 29 215.339 29H216.655C216.725 29 216.795 28.944 216.795 28.86V25.808C216.837 24.87 217.285 23.876 218.363 23.876C219.133 23.876 219.679 24.394 219.679 25.5V28.86C219.679 28.944 219.735 29 219.819 29H221.135C221.219 29 221.275 28.944 221.275 28.86V25.206C221.275 23.344 220.253 22.266 218.769 22.266C217.803 22.266 217.117 22.672 216.697 23.33L216.543 22.574C216.529 22.49 216.473 22.434 216.375 22.434H215.339C215.255 22.434 215.199 22.49 215.199 22.574V28.86ZM224.156 25.164C224.324 24.352 224.926 23.806 225.892 23.806C226.858 23.806 227.46 24.352 227.628 25.164H224.156ZM224.184 26.354H229.154C229.252 26.354 229.294 26.298 229.294 26.214C229.308 23.54 227.95 22.308 225.892 22.308C223.862 22.308 222.49 23.68 222.49 25.724C222.49 27.768 223.89 29.154 225.976 29.14C227.11 29.14 228.02 28.846 228.636 28.188C228.692 28.118 228.678 28.034 228.622 27.978L227.796 27.124C227.768 27.096 227.74 27.082 227.698 27.082C227.656 27.082 227.614 27.096 227.558 27.138C227.25 27.432 226.732 27.642 226.06 27.656C225.052 27.656 224.394 27.124 224.184 26.354ZM230.245 28.412C230.497 28.608 231.477 29.126 232.779 29.126C234.333 29.14 235.383 28.328 235.355 27.026C235.313 25.864 234.529 25.374 233.073 25.024C232.233 24.828 231.827 24.66 231.813 24.282C231.813 24.002 232.205 23.764 232.793 23.764C232.877 23.764 232.947 23.764 233.031 23.778C233.717 23.848 234.165 24.128 234.361 24.24C234.389 24.254 234.417 24.254 234.445 24.254C234.487 24.254 234.543 24.226 234.557 24.184L235.089 23.176C235.131 23.106 235.103 23.022 235.047 22.966C234.823 22.798 233.997 22.294 232.863 22.28C231.379 22.266 230.175 23.022 230.231 24.338C230.259 25.346 230.917 25.934 232.247 26.298C233.157 26.564 233.759 26.718 233.759 27.138C233.759 27.628 232.863 27.656 232.541 27.656C231.799 27.6 231.225 27.292 230.931 27.124C230.903 27.11 230.875 27.096 230.847 27.096C230.805 27.096 230.763 27.124 230.735 27.166L230.203 28.216C230.161 28.286 230.175 28.37 230.245 28.412ZM236.329 28.412C236.581 28.608 237.561 29.126 238.863 29.126C240.417 29.14 241.467 28.328 241.439 27.026C241.397 25.864 240.613 25.374 239.157 25.024C238.317 24.828 237.911 24.66 237.897 24.282C237.897 24.002 238.289 23.764 238.877 23.764C238.961 23.764 239.031 23.764 239.115 23.778C239.801 23.848 240.249 24.128 240.445 24.24C240.473 24.254 240.501 24.254 240.529 24.254C240.571 24.254 240.627 24.226 240.641 24.184L241.173 23.176C241.215 23.106 241.187 23.022 241.131 22.966C240.907 22.798 240.081 22.294 238.947 22.28C237.463 22.266 236.259 23.022 236.315 24.338C236.343 25.346 237.001 25.934 238.331 26.298C239.241 26.564 239.843 26.718 239.843 27.138C239.843 27.628 238.947 27.656 238.625 27.656C237.883 27.6 237.309 27.292 237.015 27.124C236.987 27.11 236.959 27.096 236.931 27.096C236.889 27.096 236.847 27.124 236.819 27.166L236.287 28.216C236.245 28.286 236.259 28.37 236.329 28.412ZM253.501 25.178C253.207 26.676 252.255 27.46 250.687 27.46C248.825 27.46 247.565 26.13 247.565 24.142C247.565 22.154 248.895 20.824 250.883 20.824C252.003 20.824 252.899 21.342 253.319 21.72C253.347 21.748 253.375 21.762 253.417 21.762C253.445 21.762 253.473 21.748 253.501 21.72L254.369 20.656C254.411 20.6 254.425 20.53 254.369 20.474C253.501 19.676 252.409 19.158 250.883 19.158C247.887 19.158 245.885 21.16 245.885 24.142C245.885 27.138 247.803 29.126 250.687 29.126C253.725 29.14 255.153 27.152 255.195 23.946C255.209 23.862 255.153 23.778 255.027 23.778H250.939C250.855 23.778 250.799 23.834 250.799 23.918V25.038C250.799 25.122 250.855 25.164 250.939 25.178H253.501ZM260.155 24.1C260.183 24.1 260.197 24.114 260.225 24.114C260.295 24.114 260.337 24.072 260.351 24.016L260.687 22.644C260.715 22.56 260.673 22.49 260.589 22.462C260.379 22.406 260.015 22.294 259.581 22.294C258.909 22.294 258.335 22.588 257.915 23.008L257.775 22.574C257.761 22.504 257.705 22.434 257.593 22.434H256.683C256.599 22.434 256.543 22.49 256.543 22.574V28.86C256.543 28.944 256.599 29 256.683 29H257.999C258.097 29 258.139 28.944 258.139 28.86V24.702C258.377 24.198 258.825 23.904 259.273 23.904C259.595 23.904 259.973 24.016 260.155 24.1ZM261.209 25.696C261.209 27.74 262.581 29.14 264.625 29.14C266.669 29.14 268.055 27.74 268.055 25.696C268.055 23.652 266.669 22.266 264.625 22.266C262.581 22.266 261.209 23.652 261.209 25.696ZM262.805 25.71C262.805 24.59 263.533 23.862 264.625 23.862C265.731 23.862 266.459 24.59 266.459 25.71C266.459 26.802 265.731 27.558 264.625 27.558C263.533 27.558 262.805 26.802 262.805 25.71ZM268.515 22.56L270.307 28.888C270.335 28.958 270.391 29 270.475 29H271.847C271.931 29 272.001 28.958 272.015 28.888L273.121 24.674L274.213 28.888C274.241 28.958 274.297 29 274.381 29H275.809C275.879 29 275.949 28.958 275.963 28.888L277.741 22.56C277.755 22.49 277.727 22.434 277.643 22.434H276.131C276.061 22.434 276.005 22.476 275.991 22.546L275.039 26.97L273.877 22.56C273.849 22.476 273.779 22.434 273.709 22.434H272.547C272.477 22.434 272.421 22.476 272.407 22.56L271.231 26.788L270.265 22.56C270.251 22.476 270.195 22.434 270.125 22.434H268.613C268.543 22.434 268.501 22.49 268.515 22.56ZM278.007 23.764C278.007 23.848 278.063 23.904 278.147 23.904H279.029V26.858C279.015 28.286 279.701 29.126 280.877 29.126C281.367 29.126 281.913 28.986 282.305 28.678C282.375 28.636 282.389 28.552 282.347 28.454L281.913 27.334C281.899 27.292 281.843 27.264 281.801 27.264C281.773 27.264 281.745 27.264 281.717 27.278C281.619 27.362 281.367 27.516 281.157 27.516C280.723 27.516 280.611 27.18 280.611 26.046V23.904H281.955C282.039 23.904 282.095 23.848 282.095 23.764V22.56C282.095 22.49 282.039 22.434 281.955 22.434H280.611V20.39C280.611 20.306 280.555 20.25 280.471 20.25H279.169C279.085 20.25 279.043 20.306 279.043 20.39L279.029 22.434H278.147C278.063 22.434 278.007 22.49 278.007 22.56V23.764ZM283.244 19.032V28.86C283.244 28.944 283.3 29 283.384 29H284.7C284.784 29 284.84 28.944 284.84 28.86V25.794C284.882 24.856 285.33 23.876 286.408 23.876C287.178 23.876 287.724 24.394 287.724 25.5V28.86C287.724 28.944 287.78 29 287.864 29H289.18C289.264 29 289.32 28.944 289.32 28.86V25.206C289.32 23.344 288.298 22.266 286.814 22.266C285.904 22.266 285.246 22.63 284.84 23.218V19.032C284.84 18.948 284.784 18.892 284.7 18.892H283.384C283.3 18.892 283.244 18.948 283.244 19.032Z" fill="black"/>
<path d="M175.564 51.212H179.512V52.88C179.512 52.952 179.56 53 179.632 53H180.832C180.904 53 180.952 52.952 180.952 52.88V51.212H181.78C181.852 51.212 181.9 51.164 181.9 51.092V50.096C181.9 50.024 181.852 49.976 181.78 49.976H180.952V44.804C180.952 44.732 180.904 44.684 180.832 44.684L179.452 44.672C179.38 44.672 179.308 44.72 179.272 44.78L175.48 51.056C175.42 51.152 175.456 51.212 175.564 51.212ZM179.512 46.772V49.976H177.58L179.512 46.772ZM183.26 52.28C183.26 52.772 183.596 53.12 184.1 53.12C184.592 53.12 184.928 52.772 184.928 52.28C184.928 51.776 184.592 51.44 184.1 51.44C183.596 51.44 183.26 51.776 183.26 52.28ZM189.34 52.892L191.224 48.824C191.464 48.296 191.62 47.888 191.62 47.264C191.62 45.632 190.528 44.552 188.908 44.552C187.276 44.552 186.208 45.62 186.208 47.264C186.208 48.86 187.264 49.904 188.872 49.928C188.98 49.928 189.112 49.916 189.232 49.88L187.864 52.832C187.816 52.928 187.864 53 187.96 53H189.16C189.244 53 189.304 52.952 189.34 52.892ZM188.908 48.56C188.14 48.56 187.624 48.032 187.624 47.252C187.624 46.484 188.152 45.968 188.908 45.968C189.688 45.968 190.204 46.484 190.204 47.252C190.204 48.032 189.676 48.56 188.908 48.56Z" fill="black"/>
<path d="M202.064 44.78C201.788 45.248 200.696 47.264 200.696 49.808C200.696 52.472 201.788 54.368 202.064 54.812C202.1 54.872 202.172 54.92 202.256 54.92H203.012C203.084 54.92 203.108 54.884 203.06 54.824C202.784 54.368 201.668 52.472 201.692 49.808C201.692 47.264 202.796 45.248 203.072 44.78C203.108 44.72 203.084 44.684 203.012 44.672H202.256C202.172 44.672 202.1 44.72 202.064 44.78ZM204.5 45.512C204.5 45.584 204.56 45.632 204.632 45.632H205.712V52.88C205.712 52.952 205.76 53 205.832 53H206.624C206.696 53 206.744 52.952 206.744 52.88V44.804C206.744 44.732 206.696 44.672 206.624 44.672H204.632C204.56 44.672 204.512 44.732 204.5 44.804V45.512ZM209.807 45.632H212.759C212.831 45.632 212.879 45.584 212.879 45.512V44.804C212.879 44.732 212.831 44.672 212.759 44.672H209.003C208.931 44.672 208.871 44.732 208.871 44.804L208.559 49.148C208.547 49.22 208.595 49.268 208.667 49.268H209.543C209.783 48.992 210.227 48.824 210.743 48.824C211.763 48.824 212.411 49.544 212.411 50.492C212.411 51.452 211.775 52.184 210.815 52.184C209.915 52.184 209.279 51.632 209.231 50.84C209.219 50.768 209.171 50.72 209.099 50.72H208.307C208.235 50.72 208.187 50.768 208.187 50.84C208.247 52.256 209.279 53.192 210.815 53.192C212.411 53.192 213.455 52.052 213.455 50.492C213.455 48.956 212.387 47.864 210.791 47.864C210.299 47.864 209.903 48.008 209.627 48.164L209.807 45.632ZM219.358 48.536C219.358 48.536 219.922 47.816 219.922 46.832C219.922 45.428 218.974 44.564 217.654 44.564C216.562 44.564 215.854 45.08 215.398 45.632C215.35 45.692 215.338 45.776 215.386 45.836L215.89 46.376C215.926 46.412 215.95 46.424 215.986 46.424C216.01 46.424 216.046 46.412 216.07 46.376C216.418 45.944 216.958 45.548 217.618 45.548C218.41 45.548 218.914 46.088 218.914 46.856C218.914 47.396 218.482 47.984 218.482 47.984C218.482 47.984 215.146 52.34 214.762 52.844C214.69 52.928 214.726 53 214.834 53H219.886C219.958 53 220.006 52.952 220.006 52.88V52.172C220.006 52.1 219.958 52.04 219.886 52.04H216.622C217.606 50.78 219.346 48.548 219.358 48.536ZM221.324 48.836C221.324 51.404 222.5 53.108 224.276 53.108C226.04 53.108 227.216 51.404 227.216 48.836C227.216 46.28 226.04 44.564 224.276 44.564C222.5 44.564 221.324 46.28 221.324 48.836ZM222.368 48.836C222.368 46.88 223.124 45.584 224.276 45.584C225.404 45.584 226.172 46.892 226.172 48.836C226.172 50.792 225.404 52.088 224.276 52.088C223.124 52.088 222.368 50.792 222.368 48.836ZM231.832 52.88C231.832 52.952 231.88 53 231.952 53H232.756C232.828 53 232.876 52.952 232.876 52.88V49.532H234.016L236.056 52.94C236.08 52.976 236.128 53 236.176 53H237.16C237.256 53 237.292 52.952 237.232 52.856L235.084 49.472C236.404 49.28 237.172 48.416 237.184 47.096C237.172 45.596 236.176 44.672 234.508 44.672C233.944 44.672 233.368 44.672 232.792 44.672C232.504 44.672 232.228 44.672 231.94 44.672C231.88 44.672 231.832 44.72 231.832 44.792V52.88ZM232.876 48.56V45.632H234.532C235.54 45.632 236.14 46.172 236.14 47.108C236.14 48.116 235.48 48.56 234.532 48.56H232.876ZM239.038 49.892C239.182 48.992 239.866 48.392 240.862 48.392C241.858 48.392 242.53 48.992 242.674 49.892H239.038ZM239.05 50.696H243.562C243.634 50.696 243.67 50.648 243.67 50.576C243.682 48.572 242.614 47.456 240.862 47.456C239.182 47.456 238.042 48.608 238.042 50.288C238.042 51.98 239.218 53.12 240.97 53.12C241.906 53.12 242.674 52.832 243.166 52.28C243.214 52.232 243.214 52.16 243.154 52.112L242.662 51.632C242.638 51.608 242.614 51.584 242.578 51.584C242.542 51.584 242.506 51.608 242.47 51.644C242.146 51.98 241.63 52.184 240.994 52.184C239.938 52.184 239.206 51.596 239.05 50.696ZM249.586 47.732C249.622 47.648 249.586 47.588 249.478 47.588L248.65 47.576C248.578 47.588 248.53 47.624 248.506 47.684L246.886 51.872L245.254 47.672C245.23 47.612 245.182 47.576 245.122 47.576H244.282C244.186 47.576 244.15 47.648 244.186 47.732L246.31 52.892C246.346 52.964 246.406 53 246.478 53H247.282C247.354 53 247.426 52.964 247.45 52.892L249.586 47.732ZM251.469 47.696C251.469 47.624 251.433 47.576 251.361 47.576H250.617C250.557 47.576 250.509 47.624 250.509 47.696V52.88C250.509 52.952 250.557 53 250.617 53H251.361C251.433 53 251.481 52.952 251.481 52.88L251.469 47.696ZM250.293 45.572C250.293 45.992 250.581 46.28 251.001 46.28C251.409 46.28 251.685 45.992 251.685 45.572C251.685 45.152 251.409 44.888 251.001 44.888C250.581 44.888 250.293 45.152 250.293 45.572ZM253.733 49.892C253.877 48.992 254.561 48.392 255.557 48.392C256.553 48.392 257.225 48.992 257.369 49.892H253.733ZM253.745 50.696H258.257C258.329 50.696 258.365 50.648 258.365 50.576C258.377 48.572 257.309 47.456 255.557 47.456C253.877 47.456 252.737 48.608 252.737 50.288C252.737 51.98 253.913 53.12 255.665 53.12C256.601 53.12 257.369 52.832 257.861 52.28C257.909 52.232 257.909 52.16 257.849 52.112L257.357 51.632C257.333 51.608 257.309 51.584 257.273 51.584C257.237 51.584 257.201 51.608 257.165 51.644C256.841 51.98 256.325 52.184 255.689 52.184C254.633 52.184 253.901 51.596 253.745 50.696ZM258.869 47.684L260.405 52.904C260.417 52.964 260.477 53 260.537 53H261.365C261.437 53 261.485 52.964 261.509 52.904L262.649 48.848L263.777 52.904C263.801 52.964 263.849 53 263.921 53H264.761C264.821 53 264.869 52.964 264.893 52.904L266.429 47.696C266.441 47.624 266.405 47.588 266.345 47.588H265.469C265.421 47.588 265.361 47.624 265.337 47.684L264.317 51.812L263.153 47.684C263.129 47.624 263.069 47.588 263.009 47.588H262.289C262.229 47.588 262.169 47.624 262.145 47.684L260.981 51.764L259.949 47.684C259.937 47.624 259.889 47.588 259.817 47.588H258.941C258.881 47.588 258.857 47.624 258.869 47.684ZM266.941 52.52C267.157 52.688 267.853 53.108 268.909 53.108C270.181 53.12 271.033 52.46 271.009 51.452C270.973 50.54 270.361 50.144 269.161 49.832C268.297 49.592 267.949 49.424 267.949 48.992C267.949 48.476 268.657 48.38 269.041 48.38C269.641 48.392 270.073 48.656 270.265 48.776C270.289 48.788 270.313 48.8 270.337 48.8C270.373 48.8 270.409 48.776 270.433 48.74L270.721 48.152C270.757 48.08 270.733 48.008 270.685 47.972C270.493 47.828 269.905 47.456 269.017 47.444C267.817 47.432 266.953 48.08 266.977 49.064C267.001 49.916 267.529 50.372 268.729 50.696C269.581 50.924 270.025 51.092 270.025 51.536C270.025 52.088 269.281 52.184 268.873 52.184C268.165 52.172 267.625 51.872 267.397 51.728C267.373 51.716 267.349 51.704 267.325 51.704C267.289 51.704 267.253 51.728 267.241 51.764L266.917 52.34C266.869 52.412 266.893 52.484 266.941 52.52ZM272.091 44.672C272.019 44.672 271.995 44.72 272.031 44.78C272.319 45.248 273.423 47.264 273.411 49.808C273.435 52.472 272.319 54.368 272.043 54.824C272.007 54.884 272.019 54.92 272.091 54.92H272.859C272.931 54.92 273.003 54.872 273.039 54.812C273.315 54.368 274.407 52.472 274.407 49.808C274.407 47.264 273.315 45.248 273.039 44.78C273.003 44.72 272.931 44.672 272.859 44.672H272.091Z" fill="#8A898E"/>
<path d="M164.276 49.3725C164.092 49.5503 164.008 49.8074 164.05 50.0596L164.68 53.5446C164.733 53.84 164.608 54.1389 164.361 54.3096C164.119 54.4867 163.796 54.5079 163.532 54.3663L160.395 52.73C160.286 52.6719 160.165 52.6408 160.041 52.6372H159.849C159.782 52.6471 159.717 52.6684 159.658 52.701L156.52 54.345C156.364 54.4229 156.189 54.4505 156.017 54.4229C155.597 54.3436 155.318 53.9441 155.386 53.5226L156.017 50.0376C156.058 49.7833 155.974 49.5248 155.791 49.3442L153.233 46.865C153.019 46.6575 152.945 46.3458 153.042 46.0646C153.137 45.7841 153.38 45.5794 153.672 45.5333L157.193 45.0226C157.46 44.995 157.695 44.8321 157.816 44.5913L159.367 41.4108C159.404 41.34 159.451 41.2748 159.509 41.2196L159.573 41.17C159.606 41.1332 159.644 41.1027 159.687 41.0779L159.764 41.0496L159.884 41H160.182C160.449 41.0276 160.683 41.187 160.806 41.425L162.378 44.5913C162.491 44.8229 162.711 44.9837 162.965 45.0226L166.486 45.5333C166.783 45.5758 167.032 45.7813 167.13 46.0646C167.223 46.3486 167.143 46.6603 166.925 46.865L164.276 49.3725Z" fill="#FEBB43"/>
<path d="M121.9 19.5606C121.82 20.0606 121.78 20.5606 121.78 21.0606C121.78 25.5606 125.42 29.1986 129.9 29.1986C130.4 29.1986 130.88 29.1406 131.38 29.0606V45.1986C131.38 51.9806 127.38 56.0006 120.58 56.0006H105.802C99 56.0006 95 51.9806 95 45.1986V30.4006C95 23.6006 99 19.5606 105.802 19.5606H121.9ZM122.302 31.7206C121.76 31.6606 121.222 31.9006 120.9 32.3406L116.062 38.6006L110.52 34.2406C110.18 33.9806 109.78 33.8786 109.38 33.9206C108.982 33.9806 108.622 34.1986 108.38 34.5186L102.462 42.2206L102.34 42.4006C102 43.0386 102.16 43.8586 102.76 44.3006C103.04 44.4806 103.34 44.6006 103.68 44.6006C104.142 44.6206 104.58 44.3786 104.86 44.0006L109.88 37.5386L115.58 41.8206L115.76 41.9386C116.4 42.2786 117.2 42.1206 117.66 41.5186L123.44 34.0606L123.36 34.1006C123.68 33.6606 123.74 33.1006 123.52 32.6006C123.302 32.1006 122.82 31.7606 122.302 31.7206ZM130.18 16C132.84 16 135 18.16 135 20.82C135 23.48 132.84 25.64 130.18 25.64C127.52 25.64 125.36 23.48 125.36 20.82C125.36 18.16 127.52 16 130.18 16Z" fill="black"/>
<defs>
<filter id="filter0_dddddd_58_3103" x="0" y="0" width="435" height="253" filterUnits="userSpaceOnUse" color-interpolation-filters="sRGB">
<feFlood flood-opacity="0" result="BackgroundImageFix"/>
<feColorMatrix in="SourceAlpha" type="matrix" values="0 0 0 0 0 0 0 0 0 0 0 0 0 0 0 0 0 0 127 0" result="hardAlpha"/>
<feOffset dy="2.76726"/>
<feGaussianBlur stdDeviation="1.1069"/>
<feColorMatrix type="matrix" values="0 0 0 0 0 0 0 0 0 0 0 0 0 0 0 0 0 0 0.0196802 0"/>
<feBlend mode="normal" in2="BackgroundImageFix" result="effect1_dropShadow_58_3103"/>
<feColorMatrix in="SourceAlpha" type="matrix" values="0 0 0 0 0 0 0 0 0 0 0 0 0 0 0 0 0 0 127 0" result="hardAlpha"/>
<feOffset dy="6.6501"/>
<feGaussianBlur stdDeviation="2.66004"/>
<feColorMatrix type="matrix" values="0 0 0 0 0 0 0 0 0 0 0 0 0 0 0 0 0 0 0.0282725 0"/>
<feBlend mode="normal" in2="effect1_dropShadow_58_3103" result="effect2_dropShadow_58_3103"/>
<feColorMatrix in="SourceAlpha" type="matrix" values="0 0 0 0 0 0 0 0 0 0 0 0 0 0 0 0 0 0 127 0" result="hardAlpha"/>
<feOffset dy="12.5216"/>
<feGaussianBlur stdDeviation="5.00862"/>
<feColorMatrix type="matrix" values="0 0 0 0 0 0 0 0 0 0 0 0 0 0 0 0 0 0 0.035 0"/>
<feBlend mode="normal" in2="effect2_dropShadow_58_3103" result="effect3_dropShadow_58_3103"/>
<feColorMatrix in="SourceAlpha" type="matrix" values="0 0 0 0 0 0 0 0 0 0 0 0 0 0 0 0 0 0 127 0" result="hardAlpha"/>
<feOffset dy="22.3363"/>
<feGaussianBlur stdDeviation="8.93452"/>
<feColorMatrix type="matrix" values="0 0 0 0 0 0 0 0 0 0 0 0 0 0 0 0 0 0 0.0417275 0"/>
<feBlend mode="normal" in2="effect3_dropShadow_58_3103" result="effect4_dropShadow_58_3103"/>
<feColorMatrix in="SourceAlpha" type="matrix" values="0 0 0 0 0 0 0 0 0 0 0 0 0 0 0 0 0 0 127 0" result="hardAlpha"/>
<feOffset dy="41.7776"/>
<feGaussianBlur stdDeviation="16.711"/>
<feColorMatrix type="matrix" values="0 0 0 0 0 0 0 0 0 0 0 0 0 0 0 0 0 0 0.0503198 0"/>
<feBlend mode="normal" in2="effect4_dropShadow_58_3103" result="effect5_dropShadow_58_3103"/>
<feColorMatrix in="SourceAlpha" type="matrix" values="0 0 0 0 0 0 0 0 0 0 0 0 0 0 0 0 0 0 127 0" result="hardAlpha"/>
<feOffset dy="100"/>
<feGaussianBlur stdDeviation="40"/>
<feColorMatrix type="matrix" values="0 0 0 0 0 0 0 0 0 0 0 0 0 0 0 0 0 0 0.07 0"/>
<feBlend mode="normal" in2="effect5_dropShadow_58_3103" result="effect6_dropShadow_58_3103"/>
<feBlend mode="normal" in="SourceGraphic" in2="effect6_dropShadow_58_3103" result="shape"/>
</filter>
</defs>
</svg>
