<svg width="377" height="253" viewBox="0 0 377 253" fill="none" xmlns="http://www.w3.org/2000/svg">
<g filter="url(#filter0_dddddd_58_3095)">
<rect x="80" width="217" height="73" rx="12" fill="white"/>
</g>
<path d="M95.798 20.712C95.798 20.796 95.854 20.852 95.938 20.852H97.212V28.86C97.212 28.944 97.268 29 97.352 29H98.752C98.836 29 98.892 28.944 98.892 28.86V19.438C98.892 19.354 98.836 19.284 98.752 19.284H95.938C95.854 19.284 95.798 19.354 95.798 19.438V20.712ZM100.319 24.142C100.319 27.138 101.747 29.126 103.875 29.126C106.003 29.126 107.417 27.138 107.417 24.142C107.417 21.146 106.003 19.158 103.875 19.158C101.747 19.158 100.319 21.146 100.319 24.142ZM101.999 24.142C101.999 22.154 102.741 20.824 103.875 20.824C104.981 20.824 105.737 22.154 105.737 24.142C105.737 26.13 104.995 27.46 103.875 27.46C102.741 27.46 101.999 26.144 101.999 24.142ZM108.673 24.142C108.673 27.138 110.101 29.126 112.229 29.126C114.357 29.126 115.771 27.138 115.771 24.142C115.771 21.146 114.357 19.158 112.229 19.158C110.101 19.158 108.673 21.146 108.673 24.142ZM110.353 24.142C110.353 22.154 111.095 20.824 112.229 20.824C113.335 20.824 114.091 22.154 114.091 24.142C114.091 26.13 113.349 27.46 112.229 27.46C111.095 27.46 110.353 26.144 110.353 24.142ZM117.026 24.142C117.026 27.138 118.454 29.126 120.582 29.126C122.71 29.126 124.124 27.138 124.124 24.142C124.124 21.146 122.71 19.158 120.582 19.158C118.454 19.158 117.026 21.146 117.026 24.142ZM118.706 24.142C118.706 22.154 119.448 20.824 120.582 20.824C121.688 20.824 122.444 22.154 122.444 24.142C122.444 26.13 121.702 27.46 120.582 27.46C119.448 27.46 118.706 26.144 118.706 24.142ZM125.758 31.366C125.8 31.408 125.842 31.422 125.898 31.422C125.926 31.422 125.94 31.422 125.968 31.408C126.92 30.904 127.76 29.21 127.55 27.894C127.508 27.348 127.102 26.984 126.542 26.984C125.912 26.998 125.506 27.404 125.506 28.048C125.506 28.58 125.814 28.958 126.304 29.042C126.318 29.056 126.332 29.056 126.36 29.056C126.192 29.798 125.674 30.372 125.24 30.708C125.17 30.764 125.156 30.848 125.212 30.904L125.758 31.366ZM128.812 24.142C128.812 27.138 130.24 29.126 132.368 29.126C134.496 29.126 135.91 27.138 135.91 24.142C135.91 21.146 134.496 19.158 132.368 19.158C130.24 19.158 128.812 21.146 128.812 24.142ZM130.492 24.142C130.492 22.154 131.234 20.824 132.368 20.824C133.474 20.824 134.23 22.154 134.23 24.142C134.23 26.13 133.488 27.46 132.368 27.46C131.234 27.46 130.492 26.144 130.492 24.142ZM137.165 24.142C137.165 27.138 138.593 29.126 140.721 29.126C142.849 29.126 144.263 27.138 144.263 24.142C144.263 21.146 142.849 19.158 140.721 19.158C138.593 19.158 137.165 21.146 137.165 24.142ZM138.845 24.142C138.845 22.154 139.587 20.824 140.721 20.824C141.827 20.824 142.583 22.154 142.583 24.142C142.583 26.13 141.841 27.46 140.721 27.46C139.587 27.46 138.845 26.144 138.845 24.142ZM145.519 24.142C145.519 27.138 146.947 29.126 149.075 29.126C151.203 29.126 152.617 27.138 152.617 24.142C152.617 21.146 151.203 19.158 149.075 19.158C146.947 19.158 145.519 21.146 145.519 24.142ZM147.199 24.142C147.199 22.154 147.941 20.824 149.075 20.824C150.181 20.824 150.937 22.154 150.937 24.142C150.937 26.13 150.195 27.46 149.075 27.46C147.941 27.46 147.199 26.144 147.199 24.142ZM157.918 29H159.318C159.402 29 159.458 28.944 159.458 28.86V24.828H163.616V28.86C163.616 28.944 163.672 29 163.742 29H165.156C165.24 29 165.296 28.944 165.296 28.86V19.41C165.296 19.34 165.24 19.284 165.17 19.284H163.756C163.672 19.284 163.616 19.34 163.616 19.424V23.386H159.458V19.41C159.458 19.34 159.402 19.284 159.332 19.284H157.918C157.834 19.284 157.778 19.34 157.778 19.424V28.86C157.778 28.944 157.834 29 157.918 29ZM172.137 23.316C171.675 22.672 170.961 22.308 170.037 22.308C168.062 22.308 166.733 23.68 166.733 25.724C166.733 27.754 168.062 29.168 170.037 29.154C170.961 29.154 171.675 28.776 172.137 28.118L172.333 28.86C172.361 28.944 172.403 29 172.487 29H173.565C173.649 29 173.704 28.93 173.704 28.86V22.56C173.704 22.476 173.649 22.42 173.565 22.42H172.501C172.417 22.42 172.375 22.476 172.347 22.56L172.137 23.316ZM168.315 25.724C168.315 24.618 169.043 23.89 170.135 23.89C171.241 23.89 171.997 24.618 172.011 25.724C171.997 26.83 171.241 27.572 170.135 27.572C169.057 27.572 168.315 26.816 168.315 25.724ZM175.495 32.192H176.811C176.895 32.192 176.951 32.136 176.951 32.052V28.258C177.399 28.832 178.071 29.154 178.925 29.154C180.913 29.154 182.243 27.768 182.243 25.724C182.243 23.68 180.913 22.28 178.925 22.28C177.987 22.28 177.273 22.658 176.811 23.33L176.601 22.56C176.573 22.49 176.517 22.42 176.419 22.42H175.495C175.411 22.42 175.355 22.476 175.355 22.574V32.052C175.355 32.136 175.411 32.192 175.495 32.192ZM176.965 25.71C176.965 24.618 177.721 23.862 178.827 23.862C179.919 23.862 180.661 24.618 180.661 25.724C180.661 26.83 179.919 27.558 178.827 27.558C177.721 27.558 176.965 26.816 176.965 25.71ZM183.63 32.192H184.946C185.03 32.192 185.086 32.136 185.086 32.052V28.258C185.534 28.832 186.206 29.154 187.06 29.154C189.048 29.154 190.378 27.768 190.378 25.724C190.378 23.68 189.048 22.28 187.06 22.28C186.122 22.28 185.408 22.658 184.946 23.33L184.736 22.56C184.708 22.49 184.652 22.42 184.554 22.42H183.63C183.546 22.42 183.49 22.476 183.49 22.574V32.052C183.49 32.136 183.546 32.192 183.63 32.192ZM185.1 25.71C185.1 24.618 185.856 23.862 186.962 23.862C188.054 23.862 188.796 24.618 188.796 25.724C188.796 26.83 188.054 27.558 186.962 27.558C185.856 27.558 185.1 26.816 185.1 25.71ZM190.869 22.616L193.403 28.958L192.199 32.01C192.157 32.108 192.199 32.192 192.325 32.192H193.669C193.753 32.192 193.823 32.136 193.851 32.066L197.617 22.616C197.659 22.504 197.617 22.434 197.491 22.434H196.119C196.035 22.434 195.965 22.476 195.937 22.56L194.173 26.998L192.577 22.56C192.549 22.476 192.479 22.434 192.395 22.434H190.981C190.883 22.434 190.827 22.504 190.869 22.616ZM210.149 27.852C210.205 27.796 210.191 27.726 210.149 27.656L209.309 26.592C209.295 26.564 209.253 26.55 209.225 26.55C209.183 26.55 209.141 26.564 209.113 26.592C208.553 27.054 207.741 27.474 206.649 27.474C204.689 27.474 203.373 26.144 203.373 24.156C203.373 22.14 204.689 20.81 206.649 20.81C207.797 20.81 208.567 21.23 209.113 21.706C209.141 21.734 209.183 21.748 209.211 21.748C209.253 21.748 209.295 21.734 209.309 21.706L210.121 20.642C210.177 20.586 210.177 20.516 210.121 20.46C209.183 19.578 207.937 19.158 206.649 19.158C204.171 19.158 201.693 20.824 201.693 24.156C201.693 27.11 203.681 29.14 206.649 29.14C207.951 29.14 209.211 28.748 210.149 27.852ZM213.032 19.032C213.032 18.948 212.976 18.892 212.892 18.892H211.576C211.492 18.892 211.436 18.948 211.436 19.032L211.45 28.86C211.45 28.944 211.506 29 211.576 29H212.906C212.976 29 213.032 28.944 213.032 28.86V19.032ZM216.327 22.56C216.327 22.476 216.271 22.434 216.187 22.434H214.885C214.787 22.42 214.731 22.49 214.731 22.574V28.86C214.731 28.944 214.787 29 214.871 29H216.187C216.271 29 216.327 28.944 216.327 28.86V22.56ZM214.493 20.194C214.493 20.81 214.913 21.23 215.529 21.23C216.159 21.23 216.551 20.81 216.551 20.194C216.551 19.578 216.159 19.172 215.529 19.172C214.913 19.172 214.493 19.578 214.493 20.194ZM219.258 25.164C219.426 24.352 220.028 23.806 220.994 23.806C221.96 23.806 222.562 24.352 222.73 25.164H219.258ZM219.286 26.354H224.256C224.354 26.354 224.396 26.298 224.396 26.214C224.41 23.54 223.052 22.308 220.994 22.308C218.964 22.308 217.592 23.68 217.592 25.724C217.592 27.768 218.992 29.154 221.078 29.14C222.212 29.14 223.122 28.846 223.738 28.188C223.794 28.118 223.78 28.034 223.724 27.978L222.898 27.124C222.87 27.096 222.842 27.082 222.8 27.082C222.758 27.082 222.716 27.096 222.66 27.138C222.352 27.432 221.834 27.642 221.162 27.656C220.154 27.656 219.496 27.124 219.286 26.354ZM225.64 28.86C225.64 28.944 225.696 29 225.78 29H227.096C227.166 29 227.236 28.944 227.236 28.86V25.808C227.278 24.87 227.726 23.876 228.804 23.876C229.574 23.876 230.12 24.394 230.12 25.5V28.86C230.12 28.944 230.176 29 230.26 29H231.576C231.66 29 231.716 28.944 231.716 28.86V25.206C231.716 23.344 230.694 22.266 229.21 22.266C228.244 22.266 227.558 22.672 227.138 23.33L226.984 22.574C226.97 22.49 226.914 22.434 226.816 22.434H225.78C225.696 22.434 225.64 22.49 225.64 22.574V28.86ZM232.736 23.764C232.736 23.848 232.792 23.904 232.876 23.904H233.758V26.858C233.744 28.286 234.43 29.126 235.606 29.126C236.096 29.126 236.642 28.986 237.034 28.678C237.104 28.636 237.118 28.552 237.076 28.454L236.642 27.334C236.628 27.292 236.572 27.264 236.53 27.264C236.502 27.264 236.474 27.264 236.446 27.278C236.348 27.362 236.096 27.516 235.886 27.516C235.452 27.516 235.34 27.18 235.34 26.046V23.904H236.684C236.768 23.904 236.824 23.848 236.824 23.764V22.56C236.824 22.49 236.768 22.434 236.684 22.434H235.34V20.39C235.34 20.306 235.284 20.25 235.2 20.25H233.898C233.814 20.25 233.772 20.306 233.772 20.39L233.758 22.434H232.876C232.792 22.434 232.736 22.49 232.736 22.56V23.764ZM237.678 28.412C237.93 28.608 238.91 29.126 240.212 29.126C241.766 29.14 242.816 28.328 242.788 27.026C242.746 25.864 241.962 25.374 240.506 25.024C239.666 24.828 239.26 24.66 239.246 24.282C239.246 24.002 239.638 23.764 240.226 23.764C240.31 23.764 240.38 23.764 240.464 23.778C241.15 23.848 241.598 24.128 241.794 24.24C241.822 24.254 241.85 24.254 241.878 24.254C241.92 24.254 241.976 24.226 241.99 24.184L242.522 23.176C242.564 23.106 242.536 23.022 242.48 22.966C242.256 22.798 241.43 22.294 240.296 22.28C238.812 22.266 237.608 23.022 237.664 24.338C237.692 25.346 238.35 25.934 239.68 26.298C240.59 26.564 241.192 26.718 241.192 27.138C241.192 27.628 240.296 27.656 239.974 27.656C239.232 27.6 238.658 27.292 238.364 27.124C238.336 27.11 238.308 27.096 238.28 27.096C238.238 27.096 238.196 27.124 238.168 27.166L237.636 28.216C237.594 28.286 237.608 28.37 237.678 28.412Z" fill="black"/>
<path d="M117.564 51.212H121.512V52.88C121.512 52.952 121.56 53 121.632 53H122.832C122.904 53 122.952 52.952 122.952 52.88V51.212H123.78C123.852 51.212 123.9 51.164 123.9 51.092V50.096C123.9 50.024 123.852 49.976 123.78 49.976H122.952V44.804C122.952 44.732 122.904 44.684 122.832 44.684L121.452 44.672C121.38 44.672 121.308 44.72 121.272 44.78L117.48 51.056C117.42 51.152 117.456 51.212 117.564 51.212ZM121.512 46.772V49.976H119.58L121.512 46.772ZM125.26 52.28C125.26 52.772 125.596 53.12 126.1 53.12C126.592 53.12 126.928 52.772 126.928 52.28C126.928 51.776 126.592 51.44 126.1 51.44C125.596 51.44 125.26 51.776 125.26 52.28ZM131.34 52.892L133.224 48.824C133.464 48.296 133.62 47.888 133.62 47.264C133.62 45.632 132.528 44.552 130.908 44.552C129.276 44.552 128.208 45.62 128.208 47.264C128.208 48.86 129.264 49.904 130.872 49.928C130.98 49.928 131.112 49.916 131.232 49.88L129.864 52.832C129.816 52.928 129.864 53 129.96 53H131.16C131.244 53 131.304 52.952 131.34 52.892ZM130.908 48.56C130.14 48.56 129.624 48.032 129.624 47.252C129.624 46.484 130.152 45.968 130.908 45.968C131.688 45.968 132.204 46.484 132.204 47.252C132.204 48.032 131.676 48.56 130.908 48.56Z" fill="black"/>
<path d="M144.064 44.78C143.788 45.248 142.696 47.264 142.696 49.808C142.696 52.472 143.788 54.368 144.064 54.812C144.1 54.872 144.172 54.92 144.256 54.92H145.012C145.084 54.92 145.108 54.884 145.06 54.824C144.784 54.368 143.668 52.472 143.692 49.808C143.692 47.264 144.796 45.248 145.072 44.78C145.108 44.72 145.084 44.684 145.012 44.672H144.256C144.172 44.672 144.1 44.72 144.064 44.78ZM146.5 45.512C146.5 45.584 146.56 45.632 146.632 45.632H147.712V52.88C147.712 52.952 147.76 53 147.832 53H148.624C148.696 53 148.744 52.952 148.744 52.88V44.804C148.744 44.732 148.696 44.672 148.624 44.672H146.632C146.56 44.672 146.512 44.732 146.5 44.804V45.512ZM151.807 45.632H154.759C154.831 45.632 154.879 45.584 154.879 45.512V44.804C154.879 44.732 154.831 44.672 154.759 44.672H151.003C150.931 44.672 150.871 44.732 150.871 44.804L150.559 49.148C150.547 49.22 150.595 49.268 150.667 49.268H151.543C151.783 48.992 152.227 48.824 152.743 48.824C153.763 48.824 154.411 49.544 154.411 50.492C154.411 51.452 153.775 52.184 152.815 52.184C151.915 52.184 151.279 51.632 151.231 50.84C151.219 50.768 151.171 50.72 151.099 50.72H150.307C150.235 50.72 150.187 50.768 150.187 50.84C150.247 52.256 151.279 53.192 152.815 53.192C154.411 53.192 155.455 52.052 155.455 50.492C155.455 48.956 154.387 47.864 152.791 47.864C152.299 47.864 151.903 48.008 151.627 48.164L151.807 45.632ZM157.014 53H157.758C157.83 53 157.878 52.952 157.878 52.892V50.336L160.374 52.94C160.41 52.976 160.47 53 160.53 53H161.562C161.694 53 161.73 52.94 161.634 52.844L158.97 50.084L161.238 47.744C161.334 47.648 161.322 47.576 161.178 47.576H160.134C160.086 47.576 160.026 47.612 159.99 47.648L157.878 49.904V44.444C157.878 44.384 157.83 44.336 157.758 44.336H157.014C156.942 44.336 156.906 44.384 156.906 44.444V52.892C156.906 52.952 156.954 53 157.014 53ZM165.617 52.88C165.617 52.952 165.665 53 165.737 53H166.541C166.613 53 166.661 52.952 166.661 52.88V49.532H167.801L169.841 52.94C169.865 52.976 169.913 53 169.961 53H170.945C171.041 53 171.077 52.952 171.017 52.856L168.869 49.472C170.189 49.28 170.957 48.416 170.969 47.096C170.957 45.596 169.961 44.672 168.293 44.672C167.729 44.672 167.153 44.672 166.577 44.672C166.289 44.672 166.013 44.672 165.725 44.672C165.665 44.672 165.617 44.72 165.617 44.792V52.88ZM166.661 48.56V45.632H168.317C169.325 45.632 169.925 46.172 169.925 47.108C169.925 48.116 169.265 48.56 168.317 48.56H166.661ZM172.823 49.892C172.967 48.992 173.651 48.392 174.647 48.392C175.643 48.392 176.315 48.992 176.459 49.892H172.823ZM172.835 50.696H177.347C177.419 50.696 177.455 50.648 177.455 50.576C177.467 48.572 176.399 47.456 174.647 47.456C172.967 47.456 171.827 48.608 171.827 50.288C171.827 51.98 173.003 53.12 174.755 53.12C175.691 53.12 176.459 52.832 176.951 52.28C176.999 52.232 176.999 52.16 176.939 52.112L176.447 51.632C176.423 51.608 176.399 51.584 176.363 51.584C176.327 51.584 176.291 51.608 176.255 51.644C175.931 51.98 175.415 52.184 174.779 52.184C173.723 52.184 172.991 51.596 172.835 50.696ZM183.371 47.732C183.407 47.648 183.371 47.588 183.263 47.588L182.435 47.576C182.363 47.588 182.315 47.624 182.291 47.684L180.671 51.872L179.039 47.672C179.015 47.612 178.967 47.576 178.907 47.576H178.067C177.971 47.576 177.935 47.648 177.971 47.732L180.095 52.892C180.131 52.964 180.191 53 180.263 53H181.067C181.139 53 181.211 52.964 181.235 52.892L183.371 47.732ZM185.254 47.696C185.254 47.624 185.218 47.576 185.146 47.576H184.402C184.342 47.576 184.294 47.624 184.294 47.696V52.88C184.294 52.952 184.342 53 184.402 53H185.146C185.218 53 185.266 52.952 185.266 52.88L185.254 47.696ZM184.078 45.572C184.078 45.992 184.366 46.28 184.786 46.28C185.194 46.28 185.47 45.992 185.47 45.572C185.47 45.152 185.194 44.888 184.786 44.888C184.366 44.888 184.078 45.152 184.078 45.572ZM187.518 49.892C187.662 48.992 188.346 48.392 189.342 48.392C190.338 48.392 191.01 48.992 191.154 49.892H187.518ZM187.53 50.696H192.042C192.114 50.696 192.15 50.648 192.15 50.576C192.162 48.572 191.094 47.456 189.342 47.456C187.662 47.456 186.522 48.608 186.522 50.288C186.522 51.98 187.698 53.12 189.45 53.12C190.386 53.12 191.154 52.832 191.646 52.28C191.694 52.232 191.694 52.16 191.634 52.112L191.142 51.632C191.118 51.608 191.094 51.584 191.058 51.584C191.022 51.584 190.986 51.608 190.95 51.644C190.626 51.98 190.11 52.184 189.474 52.184C188.418 52.184 187.686 51.596 187.53 50.696ZM192.655 47.684L194.191 52.904C194.203 52.964 194.263 53 194.323 53H195.151C195.223 53 195.271 52.964 195.295 52.904L196.435 48.848L197.563 52.904C197.587 52.964 197.635 53 197.707 53H198.547C198.607 53 198.655 52.964 198.679 52.904L200.215 47.696C200.227 47.624 200.191 47.588 200.131 47.588H199.255C199.207 47.588 199.147 47.624 199.123 47.684L198.103 51.812L196.939 47.684C196.915 47.624 196.855 47.588 196.795 47.588H196.075C196.015 47.588 195.955 47.624 195.931 47.684L194.767 51.764L193.735 47.684C193.723 47.624 193.675 47.588 193.603 47.588H192.727C192.667 47.588 192.643 47.624 192.655 47.684ZM200.726 52.52C200.942 52.688 201.638 53.108 202.694 53.108C203.966 53.12 204.818 52.46 204.794 51.452C204.758 50.54 204.146 50.144 202.946 49.832C202.082 49.592 201.734 49.424 201.734 48.992C201.734 48.476 202.442 48.38 202.826 48.38C203.426 48.392 203.858 48.656 204.05 48.776C204.074 48.788 204.098 48.8 204.122 48.8C204.158 48.8 204.194 48.776 204.218 48.74L204.506 48.152C204.542 48.08 204.518 48.008 204.47 47.972C204.278 47.828 203.69 47.456 202.802 47.444C201.602 47.432 200.738 48.08 200.762 49.064C200.786 49.916 201.314 50.372 202.514 50.696C203.366 50.924 203.81 51.092 203.81 51.536C203.81 52.088 203.066 52.184 202.658 52.184C201.95 52.172 201.41 51.872 201.182 51.728C201.158 51.716 201.134 51.704 201.11 51.704C201.074 51.704 201.038 51.728 201.026 51.764L200.702 52.34C200.654 52.412 200.678 52.484 200.726 52.52ZM205.876 44.672C205.804 44.672 205.78 44.72 205.816 44.78C206.104 45.248 207.208 47.264 207.196 49.808C207.22 52.472 206.104 54.368 205.828 54.824C205.792 54.884 205.804 54.92 205.876 54.92H206.644C206.716 54.92 206.788 54.872 206.824 54.812C207.1 54.368 208.192 52.472 208.192 49.808C208.192 47.264 207.1 45.248 206.824 44.78C206.788 44.72 206.716 44.672 206.644 44.672H205.876Z" fill="#8A898E"/>
<path d="M106.276 49.3725C106.092 49.5503 106.008 49.8074 106.05 50.0596L106.68 53.5446C106.733 53.84 106.608 54.1389 106.361 54.3096C106.119 54.4867 105.796 54.5079 105.532 54.3663L102.395 52.73C102.286 52.6719 102.165 52.6408 102.041 52.6372H101.849C101.782 52.6471 101.717 52.6684 101.658 52.701L98.5196 54.345C98.3645 54.4229 98.1888 54.4505 98.0167 54.4229C97.5974 54.3436 97.3176 53.9441 97.3863 53.5226L98.0167 50.0376C98.0585 49.7833 97.9742 49.5248 97.7907 49.3442L95.233 46.865C95.019 46.6575 94.9447 46.3458 95.0424 46.0646C95.1373 45.7841 95.3796 45.5794 95.6721 45.5333L99.1925 45.0226C99.4603 44.995 99.6955 44.8321 99.8159 44.5913L101.367 41.4108C101.404 41.34 101.451 41.2748 101.509 41.2196L101.573 41.17C101.606 41.1332 101.644 41.1027 101.687 41.0779L101.764 41.0496L101.884 41H102.182C102.449 41.0276 102.683 41.187 102.806 41.425L104.378 44.5913C104.491 44.8229 104.711 44.9837 104.965 45.0226L108.486 45.5333C108.783 45.5758 109.032 45.7813 109.13 46.0646C109.223 46.3486 109.143 46.6603 108.925 46.865L106.276 49.3725Z" fill="#FEBB43"/>
<defs>
<filter id="filter0_dddddd_58_3095" x="0" y="0" width="377" height="253" filterUnits="userSpaceOnUse" color-interpolation-filters="sRGB">
<feFlood flood-opacity="0" result="BackgroundImageFix"/>
<feColorMatrix in="SourceAlpha" type="matrix" values="0 0 0 0 0 0 0 0 0 0 0 0 0 0 0 0 0 0 127 0" result="hardAlpha"/>
<feOffset dy="2.76726"/>
<feGaussianBlur stdDeviation="1.1069"/>
<feColorMatrix type="matrix" values="0 0 0 0 0 0 0 0 0 0 0 0 0 0 0 0 0 0 0.0196802 0"/>
<feBlend mode="normal" in2="BackgroundImageFix" result="effect1_dropShadow_58_3095"/>
<feColorMatrix in="SourceAlpha" type="matrix" values="0 0 0 0 0 0 0 0 0 0 0 0 0 0 0 0 0 0 127 0" result="hardAlpha"/>
<feOffset dy="6.6501"/>
<feGaussianBlur stdDeviation="2.66004"/>
<feColorMatrix type="matrix" values="0 0 0 0 0 0 0 0 0 0 0 0 0 0 0 0 0 0 0.0282725 0"/>
<feBlend mode="normal" in2="effect1_dropShadow_58_3095" result="effect2_dropShadow_58_3095"/>
<feColorMatrix in="SourceAlpha" type="matrix" values="0 0 0 0 0 0 0 0 0 0 0 0 0 0 0 0 0 0 127 0" result="hardAlpha"/>
<feOffset dy="12.5216"/>
<feGaussianBlur stdDeviation="5.00862"/>
<feColorMatrix type="matrix" values="0 0 0 0 0 0 0 0 0 0 0 0 0 0 0 0 0 0 0.035 0"/>
<feBlend mode="normal" in2="effect2_dropShadow_58_3095" result="effect3_dropShadow_58_3095"/>
<feColorMatrix in="SourceAlpha" type="matrix" values="0 0 0 0 0 0 0 0 0 0 0 0 0 0 0 0 0 0 127 0" result="hardAlpha"/>
<feOffset dy="22.3363"/>
<feGaussianBlur stdDeviation="8.93452"/>
<feColorMatrix type="matrix" values="0 0 0 0 0 0 0 0 0 0 0 0 0 0 0 0 0 0 0.0417275 0"/>
<feBlend mode="normal" in2="effect3_dropShadow_58_3095" result="effect4_dropShadow_58_3095"/>
<feColorMatrix in="SourceAlpha" type="matrix" values="0 0 0 0 0 0 0 0 0 0 0 0 0 0 0 0 0 0 127 0" result="hardAlpha"/>
<feOffset dy="41.7776"/>
<feGaussianBlur stdDeviation="16.711"/>
<feColorMatrix type="matrix" values="0 0 0 0 0 0 0 0 0 0 0 0 0 0 0 0 0 0 0.0503198 0"/>
<feBlend mode="normal" in2="effect4_dropShadow_58_3095" result="effect5_dropShadow_58_3095"/>
<feColorMatrix in="SourceAlpha" type="matrix" values="0 0 0 0 0 0 0 0 0 0 0 0 0 0 0 0 0 0 127 0" result="hardAlpha"/>
<feOffset dy="100"/>
<feGaussianBlur stdDeviation="40"/>
<feColorMatrix type="matrix" values="0 0 0 0 0 0 0 0 0 0 0 0 0 0 0 0 0 0 0.07 0"/>
<feBlend mode="normal" in2="effect5_dropShadow_58_3095" result="effect6_dropShadow_58_3095"/>
<feBlend mode="normal" in="SourceGraphic" in2="effect6_dropShadow_58_3095" result="shape"/>
</filter>
</defs>
</svg>
