<svg width="571" height="428" viewBox="0 0 571 428" fill="none" xmlns="http://www.w3.org/2000/svg">
<g clip-path="url(#clip0_65_5528)">
<path d="M468.026 333.998C451.878 331.154 434.401 284.087 464.472 268.317C494.543 252.547 504.684 244.19 510.969 207.459C517.253 170.728 538.635 188.162 533.819 209.661C529.003 231.16 561.105 228.488 567.803 238.742C579.413 256.51 553.737 259.349 539.036 269.462C524.335 279.575 550.572 286.497 540.137 303.612C529.702 320.727 495.56 338.844 468.026 333.998Z" fill="#5D9ED7"/>
<path d="M466.373 333.546C467.872 331.783 498.434 280.553 516.905 255.978" stroke="white" stroke-width="1.177" stroke-miterlimit="10"/>
<path d="M483.042 306.869L522.4 297.727" stroke="white" stroke-width="1.177" stroke-miterlimit="10"/>
<path d="M499.041 281.843L499.849 258.265" stroke="white" stroke-width="1.177" stroke-miterlimit="10"/>
<path d="M473.069 357.592C473.069 357.592 464.01 339.905 479.478 328.566C494.946 317.227 501.791 302.659 492.967 289.268C484.142 275.877 461.487 284.224 451.909 277.823C442.33 271.422 446.448 257.722 438.594 242.907C428.069 223.05 407.698 228.292 402.929 231.357C398.16 234.422 389.715 243.791 400.772 261.81C411.828 279.828 403.679 286.142 394.878 300.28C386.077 314.419 401.501 319.917 426.536 324.692C451.571 329.468 455.893 360.217 455.893 360.217L473.068 357.594" fill="#99CDFA"/>
<path d="M466.701 375.366C466.701 375.366 470.461 308.662 415.761 247.704" stroke="white" stroke-width="1.593" stroke-miterlimit="10"/>
<path d="M456.115 317.854C456.115 317.854 441.85 298.213 407.589 301.58" stroke="white" stroke-width="1.593" stroke-miterlimit="10"/>
<path d="M459.944 328.856C459.944 328.856 452.931 300.592 481.589 291.456" stroke="white" stroke-width="1.593" stroke-miterlimit="10"/>
<path d="M527.286 348.456C555.962 355.708 556.657 330.719 539.086 316.785C528.104 308.073 550.525 303.425 559.207 294.958C574.127 280.405 550.201 262.113 537.795 274.86C525.389 287.606 517.688 291.519 508.647 292.632C499.606 293.744 474.089 294.02 476.291 310.254C477.663 320.369 468.916 329.01 470.11 339.149C496.626 330.175 512.346 344.677 527.286 348.456Z" fill="#2576BC"/>
<path d="M470.107 339.149C470.107 339.149 508.503 310.33 539.981 295.149" stroke="white" stroke-width="1.494" stroke-miterlimit="10"/>
<path d="M499.564 318.643L503.163 296.539" stroke="white" stroke-width="1.494" stroke-miterlimit="10"/>
<path d="M491.711 323.873L532.433 323.994" stroke="white" stroke-width="1.494" stroke-miterlimit="10"/>
<path d="M500.639 385.839H458.671L448.903 343.896H510.403L500.639 385.839Z" fill="#39306C"/>
<path d="M516.974 333.216H442.339V350.099H516.974V333.216Z" fill="#4B4583"/>
<path opacity="0.74" d="M89.499 338.418C92.4862 331.015 99.6683 328.776 103.183 322.094C109.475 310.136 98.8918 307.052 97.6346 299.105C95.9616 288.524 103.388 289.476 107.224 283.032C111.732 275.457 104.101 266.493 108.782 259.298C120.416 241.414 139.352 261.06 151.692 265.192C159.25 267.724 170.56 268.788 176.508 263.98C184.364 257.632 192.194 242.923 183.876 234.431C172.155 222.467 176.453 216.336 189.126 213.304C194.741 211.963 197.311 207.69 191.079 202.805C200.542 216.479 168.979 204.025 163.362 213.304C159.461 219.749 164.272 223.555 165.629 228.509C169.099 241.184 160.389 252.093 142.224 239.399C131.779 232.1 132.658 219.1 121.58 215.789C111.223 212.694 99.1849 221.97 95.3773 234.415C91.6078 246.73 87.136 253.046 73.8624 251.644C58.0916 249.981 45.9286 259.752 52.9822 273.867C59.2355 286.38 76.5565 279.27 85.3383 286.444C95.088 294.406 92.0541 305.37 79.4381 315.66C75.5201 318.854 69.4972 323.622 71.0493 329.061C72.0552 332.591 78.3513 338.197 82.4044 338.341L89.499 338.418Z" fill="white"/>
<path d="M112.844 343.349H109.474V338.793C109.474 337.86 109.104 336.966 108.445 336.305C107.786 335.645 106.893 335.273 105.96 335.272H66.0447C65.112 335.273 64.2181 335.645 63.5592 336.305C62.9003 336.966 62.5303 337.86 62.5303 338.793V366.702C62.5303 371.777 64.5464 376.645 68.1353 380.234C71.7241 383.822 76.5916 385.839 81.667 385.839H90.3375C94.3244 385.837 98.211 384.589 101.454 382.27C104.697 379.951 107.135 376.677 108.426 372.905H112.844C114.465 372.905 116.02 372.261 117.166 371.114C118.313 369.968 118.957 368.413 118.957 366.792V349.463C118.957 348.66 118.799 347.865 118.492 347.123C118.184 346.382 117.734 345.708 117.167 345.14C116.599 344.572 115.925 344.122 115.183 343.815C114.442 343.507 113.647 343.349 112.844 343.349ZM115.05 366.793C115.049 367.378 114.817 367.939 114.403 368.352C113.99 368.766 113.429 368.998 112.844 368.999H109.323C109.418 368.237 109.468 367.471 109.473 366.703V347.258H112.843C113.428 347.258 113.989 347.491 114.402 347.904C114.816 348.318 115.049 348.879 115.049 349.464L115.05 366.793Z" fill="black"/>
<path d="M104.35 345.189C104.337 341.783 103.649 338.414 102.325 335.276H66.0447C65.112 335.278 64.2181 335.65 63.5592 336.31C62.9003 336.97 62.5303 337.865 62.5303 338.797V366.706C62.5279 369.964 63.3615 373.168 64.9513 376.012C65.5004 376.031 66.0409 376.078 66.5967 376.078C87.4464 376.074 104.35 362.246 104.35 345.189Z" fill="#2576BC"/>
<path d="M531.666 427.897H26.1978C23.6012 427.897 21.1109 426.865 19.2748 425.029C17.4387 423.193 16.4072 420.703 16.4072 418.106C16.4072 415.51 17.4387 413.019 19.2748 411.183C21.1109 409.347 23.6012 408.316 26.1978 408.316H531.666C534.262 408.316 536.753 409.347 538.589 411.183C540.425 413.019 541.456 415.51 541.456 418.106C541.456 420.703 540.425 423.193 538.589 425.029C536.753 426.865 534.262 427.897 531.666 427.897Z" fill="#39306C"/>
<path d="M544.047 413.465H13.8113C10.149 413.464 6.63674 412.009 4.04681 409.42C1.45688 406.831 0.00126153 403.319 0 399.656C-3.47738e-08 395.993 1.45506 392.48 4.04512 389.889C6.63519 387.299 10.1481 385.844 13.8113 385.843H544.047C545.861 385.843 547.658 386.199 549.334 386.893C551.01 387.587 552.534 388.605 553.817 389.888C555.099 391.17 556.117 392.693 556.812 394.369C557.506 396.045 557.863 397.842 557.863 399.656C557.863 401.47 557.505 403.266 556.81 404.942C556.116 406.617 555.098 408.14 553.815 409.422C552.532 410.704 551.009 411.721 549.333 412.415C547.657 413.109 545.861 413.465 544.047 413.465Z" fill="#221B4C"/>
<path d="M458.251 158.754C478.061 158.754 494.12 142.696 494.12 122.886C494.12 103.076 478.061 87.0171 458.251 87.0171C438.442 87.0171 422.383 103.076 422.383 122.886C422.383 142.696 438.442 158.754 458.251 158.754Z" fill="black"/>
<path d="M458.251 150.852C473.697 150.852 486.218 138.331 486.218 122.885C486.218 107.439 473.697 94.9177 458.251 94.9177C442.805 94.9177 430.284 107.439 430.284 122.885C430.284 138.331 442.805 150.852 458.251 150.852Z" fill="white"/>
<path d="M458.252 122.886V106.069" stroke="#4B4583" stroke-width="0.978" stroke-linecap="round" stroke-linejoin="round"/>
<path d="M458.252 122.886L468.533 133.167" stroke="#4B4583" stroke-width="0.978" stroke-linecap="round" stroke-linejoin="round"/>
<path d="M458.25 147.69V144.37" stroke="#4B4583" stroke-width="0.684" stroke-linecap="round" stroke-linejoin="round"/>
<path d="M470.649 144.369L468.989 141.49" stroke="#4B4583" stroke-width="0.684" stroke-linecap="round" stroke-linejoin="round"/>
<path d="M479.728 135.29L476.849 133.63" stroke="#4B4583" stroke-width="0.684" stroke-linecap="round" stroke-linejoin="round"/>
<path d="M483.066 122.89H479.729" stroke="#4B4583" stroke-width="0.684" stroke-linecap="round" stroke-linejoin="round"/>
<path d="M479.728 110.49L476.866 112.149" stroke="#4B4583" stroke-width="0.684" stroke-linecap="round" stroke-linejoin="round"/>
<path d="M470.649 101.411L468.989 104.273" stroke="#4B4583" stroke-width="0.684" stroke-linecap="round" stroke-linejoin="round"/>
<path d="M458.25 101.411V98.0735" stroke="#4B4583" stroke-width="0.684" stroke-linecap="round" stroke-linejoin="round"/>
<path d="M447.51 104.291L445.85 101.411" stroke="#4B4583" stroke-width="0.684" stroke-linecap="round" stroke-linejoin="round"/>
<path d="M439.633 112.149L436.77 110.49" stroke="#4B4583" stroke-width="0.684" stroke-linecap="round" stroke-linejoin="round"/>
<path d="M436.77 122.89H433.45" stroke="#4B4583" stroke-width="0.684" stroke-linecap="round" stroke-linejoin="round"/>
<path d="M439.65 133.63L436.77 135.29" stroke="#4B4583" stroke-width="0.684" stroke-linecap="round" stroke-linejoin="round"/>
<path d="M447.51 141.49L445.85 144.369" stroke="#4B4583" stroke-width="0.684" stroke-linecap="round" stroke-linejoin="round"/>
<path d="M458.252 124.509C459.149 124.509 459.875 123.782 459.875 122.886C459.875 121.989 459.149 121.262 458.252 121.262C457.355 121.262 456.628 121.989 456.628 122.886C456.628 123.782 457.355 124.509 458.252 124.509Z" fill="#4B4583"/>
<path d="M198.375 84.2991C193.255 79.1774 186.798 75.5977 179.741 73.968C172.684 72.3383 165.311 72.7242 158.463 75.0818C151.615 77.4395 145.568 81.6739 141.01 87.3022C136.452 92.9306 133.567 99.7265 132.684 106.915C131.801 114.104 132.956 121.396 136.017 127.959C139.078 134.523 143.922 140.095 149.996 144.039C156.071 147.984 163.131 150.142 170.372 150.268C177.614 150.394 184.745 148.482 190.953 144.752C191.637 144.346 192.398 144.088 193.187 143.992C193.977 143.897 194.777 143.966 195.539 144.197L205.31 147.106C205.479 147.157 205.658 147.16 205.829 147.117C206 147.074 206.156 146.985 206.281 146.861C206.406 146.736 206.494 146.58 206.537 146.409C206.581 146.238 206.577 146.059 206.526 145.89L203.619 136.117C203.388 135.353 203.318 134.55 203.415 133.759C203.511 132.967 203.772 132.204 204.18 131.519C208.616 124.128 210.455 115.466 209.403 106.91C208.351 98.3544 204.47 90.3956 198.375 84.2991Z" fill="#2576BC"/>
<path d="M149.176 94.7188H192.977" stroke="white" stroke-width="1.665" stroke-linecap="round" stroke-linejoin="round"/>
<path d="M182.473 105.989H192.977" stroke="white" stroke-width="1.665" stroke-linecap="round" stroke-linejoin="round"/>
<path d="M149.176 105.989H172.037" stroke="white" stroke-width="1.665" stroke-linecap="round" stroke-linejoin="round"/>
<path d="M169.204 117.26H192.977" stroke="white" stroke-width="1.665" stroke-linecap="round" stroke-linejoin="round"/>
<path d="M149.176 117.26H160.608" stroke="white" stroke-width="1.665" stroke-linecap="round" stroke-linejoin="round"/>
<path d="M182.472 128.529H192.977" stroke="white" stroke-width="1.665" stroke-linecap="round" stroke-linejoin="round"/>
<path d="M149.176 128.529H171.523" stroke="white" stroke-width="1.665" stroke-linecap="round" stroke-linejoin="round"/>
<path d="M279.218 102.632C279.218 102.632 275.316 85.3735 291.918 70.5611C308.519 55.7486 334.184 57.0961 348.256 64.8216C366.49 74.8349 384.39 101.331 368.029 139.183C351.668 177.035 426.637 161.405 401.484 212.687C376.332 263.968 332.864 228.561 317.235 249.807C301.606 271.052 247.503 215.35 293.723 176.411C339.943 137.471 282.718 137.634 279.218 102.632Z" fill="#221B4C"/>
<path d="M274.989 215.621C256.018 223.71 240.31 271.784 238.843 374.35H279.729C279.729 374.35 304.569 203.012 274.989 215.621Z" fill="#2576BC"/>
<path d="M325.713 200.331C348.134 198.117 384.685 201.842 397.82 216.348C400.718 219.55 400.733 225.544 399.179 233.838C393.693 263.142 368.624 321.133 381.948 385.837H265.217C265.217 385.837 276.289 335.275 270.102 319.317C263.028 301.075 256.906 284.59 263.871 269.355C279.729 234.662 265.527 220.299 275.576 215.283C289.403 208.384 306.745 202.205 325.713 200.331Z" fill="#2576BC"/>
<path d="M373.887 286.192C369.004 314.521 336.202 318.021 319.756 312.484C319.756 312.484 343.688 326.974 360.945 318.834C360.945 318.834 365.341 332.671 358.768 376.19H380.231C380.231 376.19 380.225 376.102 380.218 375.967C376.822 353.204 377.888 331.43 380.85 311.645C381.288 307.179 382.055 302.752 383.144 298.4L383.175 298.279C385.895 284.404 389.298 271.723 392.353 260.65C393.628 253.279 394.231 245.808 394.155 238.328C383.89 252.558 376.962 268.918 373.887 286.192Z" fill="#2576BC"/>
<path d="M375.111 347C375.111 347 354.721 372.044 344.861 365.262C331.804 356.279 321.058 356.441 312.431 361.595C306.899 365.067 302.578 370.165 300.059 376.191H370.044L390.41 358.561L375.111 347Z" fill="#F4AE98"/>
<path d="M398.587 217.381C398.587 217.381 416.58 264.377 432.009 302.798C444.464 333.812 369.359 376.075 369.359 376.075L356.957 359.454L400.21 311.507L373.754 255.727C373.754 255.727 358.418 225.302 381.7 214.52C394.657 208.517 398.587 217.381 398.587 217.381Z" fill="#2576BC"/>
<path d="M341.066 154.566C341.066 154.566 338.237 190.194 346.782 199.499C357.77 211.465 338.479 237.269 309.501 256.805C309.501 256.805 293.301 238.819 306 209.508C318.7 180.197 306.391 163.652 306.391 163.652L341.066 154.566Z" fill="#F4AE98"/>
<path d="M346.783 139.182C346.783 163.594 329.584 183.361 315.054 183.361C300.523 183.361 282.369 167.126 279.925 137.089C277.948 112.757 291.06 94.9795 310.884 94.9795C330.707 94.9795 346.783 114.771 346.783 139.182Z" fill="#FFB99F"/>
<path d="M286.234 89.2639C284.193 90.4411 279.771 93.3075 274.617 96.7372C269.002 100.474 263.022 106.948 260.962 114.029C257.429 126.19 266.378 141.596 284.183 136.157C301.987 130.717 310.488 102.163 324.932 118.669C342.88 139.184 349.389 127.75 349.389 127.75C349.389 127.75 345.789 102.209 327.596 90.7142C317.852 84.5532 303.162 79.4962 286.234 89.2639Z" fill="#221B4C"/>
<path d="M358.769 130.39C358.769 138.354 354.062 144.809 348.255 144.809C342.447 144.809 337.741 138.353 337.741 130.39C337.741 122.428 342.448 115.972 348.255 115.972C354.062 115.972 358.769 122.428 358.769 130.39Z" fill="#922E31"/>
<path d="M315.166 82.3292C298.994 79.2135 283.399 85.326 274.616 96.7372C279.764 93.296 285.543 90.9064 291.618 89.7058C297.694 88.5053 303.946 88.5174 310.017 89.7416C331.499 93.8785 346.714 111.325 347.219 130.698C347.623 129.427 347.953 128.134 348.207 126.825C352.115 106.516 337.323 86.5964 315.166 82.3292Z" fill="#922E31"/>
<path d="M345.968 135.097C345.968 135.097 348.9 167.686 318.941 170.778" stroke="#922E31" stroke-width="1.052" stroke-miterlimit="10"/>
<path d="M316.988 174.035H312.267C311.904 174.035 311.544 173.963 311.208 173.824C310.872 173.685 310.567 173.481 310.31 173.224C310.053 172.967 309.85 172.662 309.711 172.326C309.572 171.99 309.5 171.63 309.5 171.267C309.5 170.903 309.572 170.543 309.711 170.208C309.85 169.872 310.053 169.567 310.31 169.31C310.567 169.052 310.872 168.849 311.208 168.709C311.544 168.57 311.904 168.498 312.267 168.498H316.988C317.722 168.498 318.426 168.79 318.946 169.309C319.465 169.828 319.756 170.532 319.756 171.267C319.756 172.001 319.465 172.705 318.946 173.224C318.426 173.743 317.722 174.035 316.988 174.035Z" fill="#922E31"/>
<path d="M389.068 376.076H214.859C213.641 376.076 212.654 377.063 212.654 378.281V383.635C212.654 384.852 213.641 385.84 214.859 385.84H389.068C390.286 385.84 391.273 384.852 391.273 383.635V378.281C391.273 377.063 390.286 376.076 389.068 376.076Z" fill="#39306C"/>
<path d="M308.378 385.836H151.355C149.272 385.836 147.24 385.195 145.534 384C143.827 382.805 142.53 381.114 141.818 379.157L105.214 278.567C104.655 277.034 104.475 275.389 104.688 273.771C104.901 272.153 105.5 270.61 106.436 269.274C107.372 267.937 108.617 266.846 110.064 266.092C111.512 265.339 113.119 264.945 114.751 264.945H271.764C273.847 264.946 275.879 265.587 277.585 266.781C279.292 267.976 280.589 269.667 281.301 271.624L317.915 372.218C318.472 373.752 318.652 375.396 318.439 377.014C318.226 378.631 317.626 380.173 316.69 381.509C315.754 382.845 314.51 383.936 313.063 384.689C311.616 385.442 310.009 385.835 308.378 385.836Z" fill="#47417F"/>
<path d="M111.124 265.61C111.714 325.064 191.339 373.152 289.488 373.152C299.111 373.152 308.552 372.684 317.761 371.795L281.302 271.624C280.589 269.667 279.292 267.976 277.586 266.782C275.879 265.587 273.847 264.946 271.764 264.946H114.747C113.509 264.944 112.281 265.169 111.124 265.61Z" fill="#4B4583"/>
<path d="M221.099 323.391C221.099 325.742 220.402 328.039 219.096 329.994C217.79 331.948 215.934 333.471 213.763 334.371C211.591 335.27 209.202 335.506 206.896 335.047C204.591 334.589 202.473 333.457 200.811 331.795C199.149 330.133 198.017 328.015 197.559 325.71C197.1 323.404 197.336 321.015 198.235 318.843C199.135 316.672 200.658 314.816 202.612 313.51C204.567 312.204 206.864 311.507 209.215 311.507C210.775 311.507 212.321 311.814 213.763 312.411C215.205 313.009 216.515 313.884 217.619 314.988C218.722 316.091 219.597 317.401 220.195 318.843C220.792 320.285 221.099 321.831 221.099 323.391Z" fill="#5E5896"/>
<path d="M391.417 8.21464C395.131 4.49954 399.814 1.90288 404.933 0.720715C410.052 -0.461449 415.4 -0.181542 420.367 1.52852C425.334 3.23859 429.721 6.30999 433.027 10.3925C436.333 14.4751 438.426 19.4045 439.066 24.6188C439.707 29.833 438.869 35.1222 436.649 39.8834C434.428 44.6446 430.915 48.6861 426.509 51.5471C422.103 54.4082 416.982 55.9737 411.729 56.065C406.477 56.1564 401.304 54.77 396.801 52.0639C396.305 51.7697 395.753 51.5821 395.181 51.5131C394.608 51.4441 394.028 51.4953 393.476 51.6633L386.387 53.7721C386.265 53.8091 386.134 53.8121 386.01 53.7809C385.886 53.7496 385.773 53.6854 385.682 53.5949C385.592 53.5044 385.527 53.391 385.496 53.2669C385.465 53.1428 385.468 53.0125 385.505 52.89L387.614 45.8011C387.781 45.2472 387.832 44.6645 387.762 44.0901C387.692 43.5157 387.503 42.9621 387.207 42.4646C383.989 37.1038 382.656 30.8211 383.418 24.6153C384.181 18.4095 386.996 12.6367 391.417 8.21464Z" fill="#2576BC"/>
<path d="M395.671 32.557C398.17 32.557 400.197 30.5306 400.197 28.0309C400.197 25.5313 398.17 23.5049 395.671 23.5049C393.171 23.5049 391.145 25.5313 391.145 28.0309C391.145 30.5306 393.171 32.557 395.671 32.557Z" fill="white"/>
<path d="M411.22 32.557C413.72 32.557 415.746 30.5306 415.746 28.0309C415.746 25.5313 413.72 23.5049 411.22 23.5049C408.721 23.5049 406.694 25.5313 406.694 28.0309C406.694 30.5306 408.721 32.557 411.22 32.557Z" fill="white"/>
<path d="M426.77 32.557C429.269 32.557 431.296 30.5306 431.296 28.0309C431.296 25.5313 429.269 23.5049 426.77 23.5049C424.27 23.5049 422.244 25.5313 422.244 28.0309C422.244 30.5306 424.27 32.557 426.77 32.557Z" fill="white"/>
</g>
<defs>
<clipPath id="clip0_65_5528">
<rect width="570.73" height="427.897" fill="white"/>
</clipPath>
</defs>
</svg>
