<svg width="206" height="242" viewBox="0 0 206 242" fill="none" xmlns="http://www.w3.org/2000/svg">
<g clip-path="url(#clip0_58_3134)">
<path d="M124.618 74.4641C123.559 73.417 122.336 72.497 121.482 71.3072C113.574 60.226 103.438 51.5527 92.6234 43.6551C82.9862 36.6123 72.5966 31.0749 61.2667 27.6855C56.8572 26.3689 52.3399 25.487 47.4498 24.2974C52.1263 20.3108 57.6174 17.3618 59.8048 11.1099C55.4015 14.6713 51.2851 18.6831 46.5195 21.6668C41.745 24.6566 36.3188 26.6337 30.7176 29.2721C39.3491 33.4048 48.9891 35.7156 53.8681 45.3911C54.6255 40.2032 51.7547 37.4843 37.5645 29.2801C40.0409 27.571 42.2879 26.1598 45.4816 26.5657C63.4235 28.8265 79.3086 36.4048 93.9136 47.3355C102.446 53.7224 110.206 61.034 117.192 69.0778C124.293 77.2491 130.72 85.9166 136.144 95.4063C143.542 108.322 149.603 121.712 153.674 135.933C158.489 152.762 160.513 169.804 158 186.905C155.211 205.967 147.768 222.791 134.669 236.621C133.869 237.468 133.142 238.402 132.44 239.333C132.298 239.529 132.383 239.898 132.348 240.379C133.669 241.327 134.476 240.282 135.213 239.534C142.483 232.18 148.17 223.673 152.485 214.184C161.35 194.725 162.902 174.075 159.697 152.655C157.139 135.569 151.153 119.527 143.639 103.953C142.32 101.22 140.347 98.803 138.779 96.1875C138.104 95.0661 137.719 93.771 137.201 92.569C133.015 86.533 128.819 80.5032 124.618 74.4641Z" fill="black" fill-opacity="0.6"/>
</g>
<defs>
<clipPath id="clip0_58_3134">
<rect width="88.41" height="232.459" fill="white" transform="matrix(0.820876 -0.571106 -0.571106 -0.820876 132.996 241.311)"/>
</clipPath>
</defs>
</svg>
