<svg width="68" height="68" viewBox="0 0 68 68" fill="none" xmlns="http://www.w3.org/2000/svg">
<path d="M53.7914 50.6147L49.7837 46.6084C49.518 46.3428 49.1577 46.1936 48.7821 46.1936C48.4064 46.1936 48.0462 46.3428 47.7805 46.6084L43.7742 50.6147C43.5086 50.8804 43.3594 51.2406 43.3594 51.6163C43.3594 51.9919 43.5086 52.3522 43.7742 52.6178L47.7819 56.6256C48.0476 56.8912 48.4078 57.0404 48.7835 57.0404C49.1591 57.0404 49.5194 56.8912 49.7851 56.6256L53.7928 52.6178C54.0584 52.3522 54.2076 51.9919 54.2076 51.6163C54.2076 51.2406 54.0584 50.8804 53.7928 50.6147H53.7914Z" fill="#8DD1FF"/>
<path d="M29.75 58.0833C43.8333 58.0833 55.25 46.6666 55.25 32.5833C55.25 18.5001 43.8333 7.08334 29.75 7.08334C15.6667 7.08334 4.25 18.5001 4.25 32.5833C4.25 46.6666 15.6667 58.0833 29.75 58.0833Z" fill="#8DD1FF"/>
<path d="M62.7977 53.6109L58.7999 49.6131C58.0029 48.8163 56.9221 48.3687 55.7952 48.3687C54.6682 48.3687 53.5874 48.8163 52.7904 49.6131L46.7795 55.624C45.9827 56.421 45.5352 57.5018 45.5352 58.6287C45.5352 59.7557 45.9827 60.8365 46.7795 61.6335L50.7773 65.6313C51.172 66.026 51.6405 66.3391 52.1562 66.5528C52.6719 66.7664 53.2246 66.8764 53.7828 66.8764C54.341 66.8764 54.8937 66.7664 55.4094 66.5528C55.925 66.3391 56.3936 66.026 56.7882 65.6313L62.7977 59.6218C63.1925 59.2271 63.5056 58.7586 63.7192 58.2429C63.9328 57.7272 64.0428 57.1745 64.0428 56.6163C64.0428 56.0582 63.9328 55.5055 63.7192 54.9898C63.5056 54.4741 63.1925 54.0055 62.7977 53.6109Z" fill="#8DD1FF"/>
<path d="M8.5 59.5C7.65943 59.5 6.83774 59.2507 6.13883 58.7837C5.43992 58.3168 4.89519 57.653 4.57351 56.8764C4.25184 56.0998 4.16768 55.2453 4.33166 54.4209C4.49565 53.5965 4.90043 52.8392 5.4948 52.2448C6.08917 51.6504 6.84645 51.2457 7.67087 51.0817C8.49529 50.9177 9.34982 51.0018 10.1264 51.3235C10.903 51.6452 11.5668 52.1899 12.0338 52.8888C12.5007 53.5877 12.75 54.4094 12.75 55.25C12.75 56.3772 12.3022 57.4582 11.5052 58.2552C10.7082 59.0522 9.62718 59.5 8.5 59.5ZM8.5 53.8333C8.21981 53.8333 7.94592 53.9164 7.71295 54.0721C7.47998 54.2278 7.2984 54.449 7.19117 54.7079C7.08395 54.9667 7.0559 55.2516 7.11056 55.5264C7.16522 55.8012 7.30014 56.0536 7.49827 56.2517C7.69639 56.4499 7.94882 56.5848 8.22363 56.6395C8.49843 56.6941 8.78328 56.6661 9.04214 56.5588C9.301 56.4516 9.52225 56.27 9.67792 56.0371C9.83359 55.8041 9.91667 55.5302 9.91667 55.25C9.91667 54.8743 9.76742 54.5139 9.50174 54.2483C9.23606 53.9826 8.87573 53.8333 8.5 53.8333ZM22.6667 66.5833C21.8261 66.5833 21.0044 66.3341 20.3055 65.8671C19.6066 65.4001 19.0619 64.7363 18.7402 63.9597C18.4185 63.1832 18.3344 62.3286 18.4983 61.5042C18.6623 60.6798 19.0671 59.9225 19.6615 59.3281C20.2558 58.7338 21.0131 58.329 21.8375 58.165C22.662 58.001 23.5165 58.0852 24.2931 58.4069C25.0697 58.7285 25.7334 59.2733 26.2004 59.9722C26.6674 60.6711 26.9167 61.4928 26.9167 62.3333C26.9167 63.4605 26.4689 64.5415 25.6719 65.3385C24.8749 66.1356 23.7938 66.5833 22.6667 66.5833ZM22.6667 60.9167C22.3865 60.9167 22.1126 60.9998 21.8796 61.1554C21.6467 61.3111 21.4651 61.5323 21.3578 61.7912C21.2506 62.0501 21.2226 62.3349 21.2772 62.6097C21.3319 62.8845 21.4668 63.137 21.6649 63.3351C21.8631 63.5332 22.1155 63.6681 22.3903 63.7228C22.6651 63.7774 22.95 63.7494 23.2088 63.6422C23.4677 63.5349 23.6889 63.3534 23.8446 63.1204C24.0003 62.8874 24.0833 62.6135 24.0833 62.3333C24.0833 61.9576 23.9341 61.5973 23.6684 61.3316C23.4027 61.0659 23.0424 60.9167 22.6667 60.9167Z" fill="#004FAC"/>
<path d="M12.7506 65.1667C12.4873 65.1668 12.2292 65.0936 12.0053 64.9552C11.7813 64.8168 11.6003 64.6188 11.4827 64.3833L8.64934 58.7166C8.56618 58.5501 8.51663 58.3689 8.50352 58.1832C8.49041 57.9976 8.51399 57.8111 8.57293 57.6346C8.69195 57.2781 8.94773 56.9834 9.28401 56.8154C9.62028 56.6475 10.0095 56.62 10.366 56.739C10.7226 56.8581 11.0172 57.1138 11.1852 57.4501L13.534 62.1478L19.5506 60.945C19.7356 60.9014 19.9276 60.8954 20.115 60.9274C20.3024 60.9595 20.4815 61.029 20.6415 61.1317C20.8015 61.2345 20.9392 61.3684 21.0463 61.5254C21.1535 61.6825 21.2279 61.8595 21.2652 62.046C21.3025 62.2324 21.3019 62.4245 21.2634 62.6107C21.2249 62.7969 21.1493 62.9734 21.0411 63.1298C20.9329 63.2862 20.7944 63.4192 20.6337 63.5209C20.473 63.6225 20.2935 63.6908 20.1059 63.7217L13.0226 65.1384C12.9331 65.1571 12.842 65.1666 12.7506 65.1667ZM55.2506 15.5833C54.41 15.5833 53.5883 15.3341 52.8894 14.8671C52.1905 14.4001 51.6458 13.7363 51.3241 12.9598C51.0024 12.1832 50.9183 11.3286 51.0822 10.5042C51.2462 9.67979 51.651 8.92252 52.2454 8.32814C52.8397 7.73377 53.597 7.329 54.4214 7.16501C55.2459 7.00102 56.1004 7.08518 56.877 7.40686C57.6536 7.72853 58.3173 8.27326 58.7843 8.97217C59.2513 9.67108 59.5006 10.4928 59.5006 11.3333C59.5006 12.4605 59.0528 13.5415 58.2558 14.3386C57.4587 15.1356 56.3777 15.5833 55.2506 15.5833ZM55.2506 9.91668C54.9704 9.91668 54.6965 9.99977 54.4635 10.1554C54.2305 10.3111 54.049 10.5324 53.9417 10.7912C53.8345 11.0501 53.8065 11.3349 53.8611 11.6097C53.9158 11.8845 54.0507 12.137 54.2488 12.3351C54.447 12.5332 54.6994 12.6681 54.9742 12.7228C55.249 12.7775 55.5338 12.7494 55.7927 12.6422C56.0516 12.535 56.2728 12.3534 56.4285 12.1204C56.5842 11.8874 56.6672 11.6135 56.6672 11.3333C56.6672 10.9576 56.518 10.5973 56.2523 10.3316C55.9866 10.0659 55.6263 9.91668 55.2506 9.91668ZM59.5006 26.9167C58.66 26.9167 57.8383 26.6674 57.1394 26.2004C56.4405 25.7334 55.8958 25.0697 55.5741 24.2931C55.2524 23.5165 55.1682 22.662 55.3322 21.8376C55.4962 21.0131 55.901 20.2559 56.4954 19.6615C57.0897 19.0671 57.847 18.6623 58.6714 18.4983C59.4959 18.3344 60.3504 18.4185 61.127 18.7402C61.9036 19.0619 62.5673 19.6066 63.0343 20.3055C63.5013 21.0044 63.7506 21.8261 63.7506 22.6667C63.7506 23.7939 63.3028 24.8749 62.5058 25.6719C61.7087 26.4689 60.6277 26.9167 59.5006 26.9167ZM59.5006 21.25C59.2204 21.25 58.9465 21.3331 58.7135 21.4888C58.4805 21.6444 58.299 21.8657 58.1917 22.1245C58.0845 22.3834 58.0565 22.6683 58.1111 22.9431C58.1658 23.2179 58.3007 23.4703 58.4988 23.6684C58.697 23.8665 58.9494 24.0015 59.2242 24.0561C59.499 24.1108 59.7838 24.0827 60.0427 23.9755C60.3016 23.8683 60.5228 23.6867 60.6785 23.4537C60.8342 23.2208 60.9172 22.9469 60.9172 22.6667C60.9172 22.291 60.768 21.9306 60.5023 21.665C60.2366 21.3993 59.8763 21.25 59.5006 21.25Z" fill="#004FAC"/>
<path d="M29.7493 52.4167C40.703 52.4167 49.5827 43.537 49.5827 32.5833C49.5827 21.6297 40.703 12.75 29.7493 12.75C18.7957 12.75 9.91602 21.6297 9.91602 32.5833C9.91602 43.537 18.7957 52.4167 29.7493 52.4167Z" fill="white"/>
<path d="M58.083 21.25C57.7673 21.2496 57.4607 21.1437 57.212 20.9492C56.9633 20.7546 56.7867 20.4825 56.7103 20.1762L55.2936 14.5095C55.2437 14.3274 55.2306 14.1372 55.2553 13.95C55.2799 13.7628 55.3417 13.5824 55.437 13.4195C55.5324 13.2565 55.6593 13.1143 55.8104 13.0011C55.9615 12.8879 56.1337 12.806 56.3169 12.7603C56.5001 12.7146 56.6906 12.706 56.8771 12.7349C57.0637 12.7639 57.2426 12.8299 57.4033 12.9289C57.564 13.028 57.7033 13.1582 57.813 13.3119C57.9226 13.4656 58.0005 13.6396 58.0419 13.8238L59.4586 19.4905C59.5495 19.8547 59.492 20.2402 59.2989 20.5621C59.1058 20.884 58.7928 21.1162 58.4287 21.2075C58.3156 21.2355 58.1995 21.2497 58.083 21.25ZM21.2497 32.5833C20.8916 32.5826 20.547 32.4462 20.2853 32.2017C20.0237 31.9572 19.8643 31.6226 19.8394 31.2654C19.8144 30.9081 19.9257 30.5547 20.1508 30.2761C20.376 29.9976 20.6982 29.8147 21.0528 29.7642C24.152 29.335 27.0974 28.1476 29.6277 26.3073C32.158 24.4669 34.195 22.0306 35.558 19.2142C35.7224 18.8761 36.0144 18.6171 36.3697 18.4942C36.7251 18.3713 37.1147 18.3947 37.4528 18.559C37.791 18.7234 38.05 19.0154 38.1728 19.3707C38.2957 19.7261 38.2724 20.1157 38.108 20.4538C36.5417 23.6877 34.2018 26.4852 31.2957 28.5985C28.3897 30.7118 25.0072 32.0757 21.448 32.5692C21.3824 32.5787 21.3161 32.5834 21.2497 32.5833Z" fill="#004FAC"/>
<path d="M38.2506 26.9167C37.9349 26.9163 37.6283 26.8104 37.3796 26.6158C37.1309 26.4213 36.9543 26.1492 36.8779 25.8429L35.8041 21.5518L31.513 22.6242C31.1496 22.7125 30.766 22.6535 30.4459 22.4601C30.1258 22.2667 29.8952 21.9546 29.8043 21.5918C29.7135 21.2291 29.7697 20.8451 29.9608 20.5236C30.1519 20.2022 30.4624 19.9693 30.8245 19.8758L36.4911 18.4592C36.6717 18.414 36.8594 18.4048 37.0435 18.4322C37.2276 18.4596 37.4045 18.523 37.5641 18.6188C37.7236 18.7146 37.8628 18.8408 37.9735 18.9904C38.0843 19.14 38.1645 19.3099 38.2096 19.4905L39.6262 25.1572C39.7171 25.5214 39.6597 25.9069 39.4666 26.2288C39.2734 26.5507 38.9604 26.7829 38.5963 26.8742C38.4832 26.9022 38.3672 26.9164 38.2506 26.9167ZM38.2506 45.3334C37.8749 45.3334 37.5146 45.1841 37.2489 44.9184C36.9832 44.6528 36.834 44.2924 36.834 43.9167V29.75C36.834 29.3743 36.9832 29.014 37.2489 28.7483C37.5146 28.4826 37.8749 28.3334 38.2506 28.3334C38.6264 28.3334 38.9867 28.4826 39.2524 28.7483C39.5181 29.014 39.6673 29.3743 39.6673 29.75V43.9167C39.6673 44.2924 39.5181 44.6528 39.2524 44.9184C38.9867 45.1841 38.6264 45.3334 38.2506 45.3334ZM32.584 45.3334C32.2083 45.3334 31.8479 45.1841 31.5822 44.9184C31.3166 44.6528 31.1673 44.2924 31.1673 43.9167V32.5834C31.1673 32.2076 31.3166 31.8473 31.5822 31.5816C31.8479 31.3159 32.2083 31.1667 32.584 31.1667C32.9597 31.1667 33.32 31.3159 33.5857 31.5816C33.8514 31.8473 34.0006 32.2076 34.0006 32.5834V43.9167C34.0006 44.2924 33.8514 44.6528 33.5857 44.9184C33.32 45.1841 32.9597 45.3334 32.584 45.3334ZM26.9173 45.3334C26.5416 45.3334 26.1813 45.1841 25.9156 44.9184C25.6499 44.6528 25.5006 44.2924 25.5006 43.9167V35.4167C25.5006 35.041 25.6499 34.6806 25.9156 34.415C26.1813 34.1493 26.5416 34 26.9173 34C27.293 34 27.6534 34.1493 27.9191 34.415C28.1847 34.6806 28.334 35.041 28.334 35.4167V43.9167C28.334 44.2924 28.1847 44.6528 27.9191 44.9184C27.6534 45.1841 27.293 45.3334 26.9173 45.3334ZM21.2507 45.3334C20.8749 45.3334 20.5146 45.1841 20.2489 44.9184C19.9832 44.6528 19.834 44.2924 19.834 43.9167V38.25C19.834 37.8743 19.9832 37.514 20.2489 37.2483C20.5146 36.9826 20.8749 36.8334 21.2507 36.8334C21.6264 36.8334 21.9867 36.9826 22.2524 37.2483C22.5181 37.514 22.6673 37.8743 22.6673 38.25V43.9167C22.6673 44.2924 22.5181 44.6528 22.2524 44.9184C21.9867 45.1841 21.6264 45.3334 21.2507 45.3334Z" fill="#004FAC"/>
<path d="M29.75 58.0833C24.7066 58.0833 19.7764 56.5878 15.583 53.7858C11.3895 50.9838 8.12112 47.0013 6.19108 42.3418C4.26105 37.6822 3.75606 32.555 4.73999 27.6085C5.72391 22.662 8.15255 18.1183 11.7188 14.5521C15.285 10.9859 19.8287 8.55722 24.7752 7.5733C29.7217 6.58938 34.8489 7.09436 39.5084 9.0244C44.168 10.9544 48.1505 14.2228 50.9525 18.4163C53.7545 22.6097 55.25 27.5399 55.25 32.5833C55.2421 39.3439 52.553 45.8254 47.7725 50.6058C42.9921 55.3863 36.5106 58.0754 29.75 58.0833ZM29.75 9.91666C25.267 9.91666 20.8846 11.246 17.1571 13.7367C13.4296 16.2273 10.5243 19.7674 8.80874 23.9092C7.09316 28.051 6.64428 32.6085 7.51888 37.0054C8.39348 41.4023 10.5523 45.4411 13.7223 48.6111C16.8922 51.7811 20.9311 53.9399 25.328 54.8145C29.7249 55.6891 34.2824 55.2402 38.4242 53.5246C42.566 51.809 46.106 48.9038 48.5967 45.1762C51.0873 41.4487 52.4167 37.0664 52.4167 32.5833C52.4096 26.5739 50.0192 20.8127 45.7699 16.5634C41.5206 12.3142 35.7594 9.92378 29.75 9.91666Z" fill="#004FAC"/>
<path d="M29.7493 52.4167C25.8267 52.4167 21.9921 51.2535 18.7305 49.0741C15.469 46.8948 12.9269 43.7973 11.4257 40.1732C9.92461 36.5492 9.53184 32.5613 10.2971 28.714C11.0624 24.8668 12.9513 21.3328 15.7251 18.5591C18.4988 15.7853 22.0328 13.8964 25.8801 13.1311C29.7273 12.3658 33.7152 12.7586 37.3392 14.2597C40.9633 15.7609 44.0608 18.303 46.2402 21.5645C48.4195 24.8261 49.5827 28.6607 49.5827 32.5833C49.5827 32.9591 49.4334 33.3194 49.1677 33.5851C48.9021 33.8507 48.5417 34 48.166 34C47.7903 34 47.4299 33.8507 47.1643 33.5851C46.8986 33.3194 46.7493 32.9591 46.7493 32.5833C46.7487 28.5345 45.303 24.6188 42.6724 21.5409C40.0419 18.463 36.3991 16.4251 32.3998 15.7938C28.4004 15.1626 24.3071 15.9795 20.8564 18.0975C17.4057 20.2155 14.8242 23.4956 13.5766 27.3474C12.329 31.1993 12.497 35.3699 14.0506 39.1089C15.6042 42.8478 18.4412 45.9095 22.0511 47.743C25.6611 49.5765 29.8069 50.0613 33.7424 49.1103C37.678 48.1593 41.145 45.8348 43.5193 42.5552C43.6276 42.4022 43.7651 42.2722 43.924 42.1726C44.0828 42.0731 44.2599 42.0061 44.4448 41.9755C44.6297 41.945 44.8189 41.9514 45.0014 41.9944C45.1838 42.0375 45.3559 42.1163 45.5076 42.2264C45.6594 42.3364 45.7878 42.4755 45.8854 42.6355C45.983 42.7955 46.0479 42.9733 46.0763 43.1586C46.1047 43.3439 46.0961 43.533 46.0508 43.7149C46.0056 43.8968 45.9248 44.068 45.8129 44.2184C43.9699 46.7531 41.5544 48.8168 38.763 50.2414C35.9716 51.666 32.8833 52.4113 29.7493 52.4167ZM53.7831 66.8737C53.2249 66.875 52.6719 66.7658 52.156 66.5526C51.6401 66.3394 51.1714 66.0263 50.7769 65.6313L46.7791 61.6335C45.9823 60.8365 45.5347 59.7557 45.5347 58.6287C45.5347 57.5018 45.9823 56.421 46.7791 55.624L52.79 49.6131C53.587 48.8163 54.6678 48.3687 55.7947 48.3687C56.9217 48.3687 58.0025 48.8163 58.7995 49.6131L62.7973 53.6109C63.1921 54.0056 63.5052 54.4741 63.7188 54.9898C63.9324 55.5055 64.0424 56.0582 64.0424 56.6164C64.0424 57.1745 63.9324 57.7273 63.7188 58.2429C63.5052 58.7586 63.1921 59.2272 62.7973 59.6218L56.7878 65.6313C56.3935 66.0261 55.9251 66.3391 55.4094 66.5523C54.8938 66.7655 54.3411 66.8748 53.7831 66.8737ZM55.7947 51.2026C55.4193 51.2023 55.059 51.3511 54.7932 51.6162L48.7823 57.6272C48.5167 57.8928 48.3675 58.2531 48.3675 58.6287C48.3675 59.0044 48.5167 59.3647 48.7823 59.6303L52.7801 63.6282C52.9117 63.7599 53.0679 63.8644 53.2399 63.9357C53.4118 64.007 53.5962 64.0436 53.7824 64.0436C53.9685 64.0436 54.1529 64.007 54.3249 63.9357C54.4968 63.8644 54.6531 63.7599 54.7847 63.6282L60.7942 57.6187C60.9259 57.4871 61.0304 57.3308 61.1017 57.1589C61.173 56.9869 61.2097 56.8025 61.2097 56.6164C61.2097 56.4302 61.173 56.2458 61.1017 56.0739C61.0304 55.9019 60.9259 55.7456 60.7942 55.6141L56.7963 51.6162C56.5305 51.3511 56.1702 51.2023 55.7947 51.2026Z" fill="#004FAC"/>
<path d="M48.7821 57.0407C48.4064 57.0406 48.0461 56.8913 47.7805 56.6256L43.7742 52.6179C43.5086 52.3522 43.3594 51.9919 43.3594 51.6163C43.3594 51.2406 43.5086 50.8804 43.7742 50.6147L47.7805 46.6084C48.0462 46.3428 48.4064 46.1936 48.7821 46.1936C49.1577 46.1936 49.518 46.3428 49.7836 46.6084L53.7914 50.6161C54.057 50.8818 54.2062 51.242 54.2062 51.6177C54.2062 51.9933 54.057 52.3536 53.7914 52.6193L49.7836 56.627C49.5178 56.8922 49.1576 57.041 48.7821 57.0407ZM46.7789 51.6163L48.7821 53.6209L50.7866 51.6163L48.7821 49.6131L46.7789 51.6163Z" fill="#004FAC"/>
</svg>
