<svg width="68" height="68" viewBox="0 0 68 68" fill="none" xmlns="http://www.w3.org/2000/svg">
<path d="M61.9919 64.77C59.4844 67.2775 48.4769 60.35 37.4269 49.3C34.8344 46.7075 32.4756 44.1363 30.4144 41.65C23.6569 33.575 20.0444 26.6688 21.9569 24.7563C23.8694 22.8438 30.8181 26.4563 38.9356 33.2563C41.4006 35.2963 43.9506 37.6338 46.5219 40.205C57.5719 51.255 64.4994 62.2625 61.9919 64.77Z" fill="#BC9A7E"/>
<path d="M38.9356 33.2563L38.8931 33.2988C38.8931 33.2988 34.3456 40.1625 30.5206 41.6713C30.4844 41.6694 30.4486 41.6623 30.4144 41.65C23.6569 33.575 20.0444 26.6688 21.9569 24.7563C23.8694 22.8438 30.8117 26.4563 38.9356 33.2563Z" fill="#AFAEB3"/>
<path d="M3.6437 2.20575C2.72972 7.08978 3.05039 12.1248 4.57657 16.8534C5.75344 20.4407 8.03374 23.5644 11.0918 25.7784C14.7681 28.4091 21.9909 31.7284 25.1019 26.5072C27.0144 23.3027 26.1857 18.4322 24.3539 15.3744C23.4479 13.8755 22.2071 12.6068 20.7287 11.6678C19.2503 10.7288 17.5745 10.1449 15.8327 9.962C13.7605 9.94888 11.6908 9.81549 9.63407 9.5625C6.49757 8.85062 2.93607 5.7375 3.6437 2.20575Z" fill="#F8A839"/>
<path d="M12.2758 64.5511L6.26209 58.5374C5.86694 58.1427 5.55347 57.6739 5.33959 57.158C5.12571 56.6421 5.01562 56.089 5.01562 55.5305C5.01562 54.972 5.12571 54.419 5.33959 53.903C5.55347 53.3871 5.86694 52.9183 6.26209 52.5236L45.3408 13.4449L58.0271 8.57863L64.8696 5.94363L62.2346 12.8074L57.3747 25.4724L18.2896 64.5511C17.8949 64.9463 17.4262 65.2598 16.9102 65.4736C16.3943 65.6875 15.8412 65.7976 15.2827 65.7976C14.7242 65.7976 14.1712 65.6875 13.6552 65.4736C13.1393 65.2598 12.6706 64.9463 12.2758 64.5511Z" fill="#F5BDAF"/>
<path d="M13.9553 44.8311L16.9516 47.8486L22.9653 53.8624L25.9828 56.8586L22.7953 60.0249L19.7991 57.0286L13.7853 51.0149L10.7891 48.0186L13.9553 44.8311Z" fill="#57565E"/>
<path d="M12.2758 64.5511L6.26209 58.5374C5.86694 58.1427 5.55347 57.6739 5.33959 57.158C5.12571 56.642 5.01562 56.089 5.01562 55.5305C5.01562 54.972 5.12571 54.4189 5.33959 53.903C5.55347 53.3871 5.86694 52.9183 6.26209 52.5236L10.7883 48.0186L13.7846 51.0149L19.7983 57.0286L22.7946 60.0249L18.2896 64.5511C17.8949 64.9463 17.4262 65.2597 16.9102 65.4736C16.3943 65.6875 15.8412 65.7976 15.2827 65.7976C14.7242 65.7976 14.1712 65.6875 13.6552 65.4736C13.1393 65.2597 12.6706 64.9463 12.2758 64.5511Z" fill="#2C97D3"/>
<path d="M25.9825 56.8586L22.965 53.8624L50.1012 26.7261C50.497 26.3289 50.9673 26.0138 51.4851 25.7986C52.0028 25.5835 52.558 25.4726 53.1187 25.4724H57.3687L25.9825 56.8586ZM16.9512 47.8486L13.9082 44.8736L45.3412 13.4449V17.6949C45.3409 18.2556 45.2301 18.8107 45.0149 19.3285C44.7998 19.8463 44.4846 20.3166 44.0875 20.7124L16.9512 47.8486Z" fill="#2C97D3"/>
<path d="M12.28 64.5375L6.26954 58.5271C5.47251 57.73 5.02475 56.649 5.02475 55.5218C5.02475 54.3947 5.47252 53.3137 6.26954 52.5166L10.7774 48.0088L22.7982 60.0297L18.2904 64.5375C17.4933 65.3345 16.4123 65.7823 15.2852 65.7823C14.158 65.7823 13.077 65.3345 12.28 64.5375Z" fill="#E0E0E2"/>
<path d="M62.2348 12.8074H62.2136C61.2402 12.4672 60.3573 11.9095 59.6318 11.1767C58.9064 10.4439 58.3577 9.55539 58.0273 8.57863L64.8698 5.94363L62.2348 12.8074Z" fill="#57565E"/>
<path d="M22.9649 53.8624L50.1012 26.7261C50.4983 26.3303 50.8135 25.8601 51.0287 25.3423C51.2438 24.8245 51.3547 24.2693 51.3549 23.7086V21.5836C51.3549 21.02 51.131 20.4795 50.7325 20.081C50.334 19.6825 49.7935 19.4586 49.2299 19.4586H47.1049C46.5442 19.4589 45.9891 19.5697 45.4713 19.7849C44.9535 20 44.4832 20.3152 44.0874 20.7124L16.9512 47.8486L22.9649 53.8624Z" fill="#2C97D3"/>
</svg>
