<svg xmlns="http://www.w3.org/2000/svg" width="191" height="192" viewBox="0 0 191 192" fill="none">
  <path d="M188.675 51.2966C189.97 51.2966 190.941 50.3257 190.941 49.0311C190.941 47.7365 189.97 46.7656 188.675 46.7656C187.38 46.7656 186.41 47.7365 186.41 49.0311C186.41 50.1638 187.38 51.2966 188.675 51.2966Z" fill="#D8DBEA"/>
  <path d="M165.377 51.2966C166.671 51.2966 167.642 50.3257 167.642 49.0311C167.642 47.7365 166.671 46.7656 165.377 46.7656C164.082 46.7656 163.111 47.7365 163.111 49.0311C163.111 50.1638 164.082 51.2966 165.377 51.2966Z" fill="#D8DBEA"/>
  <path d="M188.675 27.9943C189.97 27.9943 190.941 27.0234 190.941 25.7289C190.941 24.4343 189.97 23.4634 188.675 23.4634C187.38 23.4634 186.41 24.4343 186.41 25.7289C186.41 27.0234 187.38 27.9943 188.675 27.9943Z" fill="#D8DBEA"/>
  <path d="M165.377 27.9943C166.671 27.9943 167.642 27.0234 167.642 25.7289C167.642 24.4343 166.671 23.4634 165.377 23.4634C164.082 23.4634 163.111 24.4343 163.111 25.7289C163.111 27.0234 164.082 27.9943 165.377 27.9943Z" fill="#D8DBEA"/>
  <path d="M153.725 39.6457C155.019 39.6457 155.99 38.6748 155.99 37.3802C155.99 36.0857 155.019 35.1147 153.725 35.1147C152.43 35.1147 151.459 36.0857 151.459 37.3802C151.459 38.513 152.43 39.6457 153.725 39.6457Z" fill="#D8DBEA"/>
  <path d="M177.029 39.6457C178.323 39.6457 179.294 38.6748 179.294 37.3802C179.294 36.0857 178.323 35.1147 177.029 35.1147C175.734 35.1147 174.763 36.0857 174.763 37.3802C174.763 38.513 175.734 39.6457 177.029 39.6457Z" fill="#D8DBEA"/>
  <path d="M153.725 16.3435C155.02 16.3435 155.99 15.3725 155.99 14.078C155.99 12.7834 155.02 11.8125 153.725 11.8125C152.43 11.8125 151.459 12.7834 151.459 14.078C151.459 15.2107 152.43 16.3435 153.725 16.3435Z" fill="#D8DBEA"/>
  <path d="M177.029 16.3435C178.323 16.3435 179.294 15.3725 179.294 14.078C179.294 12.7834 178.323 11.8125 177.029 11.8125C175.734 11.8125 174.763 12.7834 174.763 14.078C174.763 15.2107 175.734 16.3435 177.029 16.3435Z" fill="#D8DBEA"/>
  <path d="M142.073 51.2966C143.368 51.2966 144.339 50.3257 144.339 49.0311C144.339 47.7365 143.368 46.7656 142.073 46.7656C140.779 46.7656 139.808 47.7365 139.808 49.0311C139.808 50.1638 140.779 51.2966 142.073 51.2966Z" fill="#D8DBEA"/>
  <path d="M142.073 27.9948C143.368 27.9948 144.339 27.0239 144.339 25.7293C144.339 24.4348 143.368 23.4639 142.073 23.4639C140.779 23.4639 139.808 24.4348 139.808 25.7293C139.808 27.0239 140.779 27.9948 142.073 27.9948Z" fill="#D8DBEA"/>
  <path d="M188.68 4.69278C189.974 4.69278 190.945 3.72186 190.945 2.4273C190.945 1.13274 189.974 0 188.68 0C187.385 0 186.414 0.970919 186.414 2.26548C186.414 3.56004 187.385 4.69278 188.68 4.69278Z" fill="#D8DBEA"/>
  <path d="M165.377 4.69278C166.671 4.69278 167.642 3.72186 167.642 2.4273C167.642 1.13274 166.671 0 165.377 0C164.082 0 163.111 0.970919 163.111 2.26548C163.111 3.56004 164.082 4.69278 165.377 4.69278Z" fill="#D8DBEA"/>
  <path d="M142.073 4.69278C143.367 4.69278 144.338 3.72186 144.338 2.4273C144.338 1.13274 143.367 0 142.073 0C140.778 0 139.807 0.970919 139.807 2.26548C139.807 3.56004 140.778 4.69278 142.073 4.69278Z" fill="#D8DBEA"/>
  <path d="M188.675 97.9006C189.97 97.9006 190.941 96.9297 190.941 95.6351C190.941 94.3405 189.97 93.3696 188.675 93.3696C187.38 93.3696 186.41 94.3405 186.41 95.6351C186.41 96.7678 187.38 97.9006 188.675 97.9006Z" fill="#D8DBEA"/>
  <path d="M165.377 97.9006C166.671 97.9006 167.642 96.9297 167.642 95.6351C167.642 94.3405 166.671 93.3696 165.377 93.3696C164.082 93.3696 163.111 94.3405 163.111 95.6351C163.111 96.7678 164.082 97.9006 165.377 97.9006Z" fill="#D8DBEA"/>
  <path d="M188.675 74.5983C189.97 74.5983 190.941 73.6274 190.941 72.3329C190.941 71.0383 189.97 70.0674 188.675 70.0674C187.38 70.0674 186.41 71.0383 186.41 72.3329C186.41 73.4656 187.38 74.5983 188.675 74.5983Z" fill="#D8DBEA"/>
  <path d="M165.377 74.5983C166.671 74.5983 167.642 73.6274 167.642 72.3329C167.642 71.0383 166.671 70.0674 165.377 70.0674C164.082 70.0674 163.111 71.0383 163.111 72.3329C163.111 73.4656 164.082 74.5983 165.377 74.5983Z" fill="#D8DBEA"/>
  <path d="M153.725 86.2497C155.019 86.2497 155.99 85.2788 155.99 83.9842C155.99 82.6897 155.019 81.7188 153.725 81.7188C152.43 81.7188 151.459 82.6897 151.459 83.9842C151.459 85.117 152.43 86.2497 153.725 86.2497Z" fill="#D8DBEA"/>
  <path d="M177.029 86.2497C178.323 86.2497 179.294 85.2788 179.294 83.9842C179.294 82.6897 178.323 81.7188 177.029 81.7188C175.734 81.7188 174.763 82.6897 174.763 83.9842C174.763 85.117 175.734 86.2497 177.029 86.2497Z" fill="#D8DBEA"/>
  <path d="M153.725 62.9475C155.02 62.9475 155.99 61.9765 155.99 60.682C155.99 59.3874 155.02 58.4165 153.725 58.4165C152.43 58.4165 151.459 59.3874 151.459 60.682C151.459 61.8147 152.43 62.9475 153.725 62.9475Z" fill="#D8DBEA"/>
  <path d="M177.029 62.9475C178.323 62.9475 179.294 61.9765 179.294 60.682C179.294 59.3874 178.323 58.4165 177.029 58.4165C175.734 58.4165 174.763 59.3874 174.763 60.682C174.763 61.8147 175.734 62.9475 177.029 62.9475Z" fill="#D8DBEA"/>
  <path d="M142.073 97.9006C143.368 97.9006 144.339 96.9297 144.339 95.6351C144.339 94.3405 143.368 93.3696 142.073 93.3696C140.779 93.3696 139.808 94.3405 139.808 95.6351C139.808 96.7678 140.779 97.9006 142.073 97.9006Z" fill="#D8DBEA"/>
  <path d="M142.073 74.5983C143.368 74.5983 144.339 73.6274 144.339 72.3329C144.339 71.0383 143.368 70.0674 142.073 70.0674C140.779 70.0674 139.808 71.0383 139.808 72.3329C139.808 73.4656 140.779 74.5983 142.073 74.5983Z" fill="#D8DBEA"/>
  <path d="M188.68 51.2966C189.974 51.2966 190.945 50.3257 190.945 49.0311C190.945 47.7365 189.974 46.7656 188.68 46.7656C187.385 46.7656 186.414 47.7365 186.414 49.0311C186.414 50.1638 187.385 51.2966 188.68 51.2966Z" fill="#D8DBEA"/>
  <path d="M165.377 51.2966C166.671 51.2966 167.642 50.3257 167.642 49.0311C167.642 47.7365 166.671 46.7656 165.377 46.7656C164.082 46.7656 163.111 47.7365 163.111 49.0311C163.111 50.1638 164.082 51.2966 165.377 51.2966Z" fill="#D8DBEA"/>
  <path d="M142.073 51.2966C143.367 51.2966 144.338 50.3257 144.338 49.0311C144.338 47.7365 143.367 46.7656 142.073 46.7656C140.778 46.7656 139.807 47.7365 139.807 49.0311C139.807 50.1638 140.778 51.2966 142.073 51.2966Z" fill="#D8DBEA"/>
  <path d="M188.675 144.505C189.97 144.505 190.941 143.534 190.941 142.24C190.941 140.945 189.97 139.974 188.675 139.974C187.38 139.974 186.41 140.945 186.41 142.24C186.41 143.372 187.38 144.505 188.675 144.505Z" fill="#D8DBEA"/>
  <path d="M165.377 144.505C166.671 144.505 167.642 143.534 167.642 142.24C167.642 140.945 166.671 139.974 165.377 139.974C164.082 139.974 163.111 140.945 163.111 142.24C163.111 143.372 164.082 144.505 165.377 144.505Z" fill="#D8DBEA"/>
  <path d="M188.675 121.203C189.97 121.203 190.941 120.232 190.941 118.937C190.941 117.643 189.97 116.672 188.675 116.672C187.38 116.672 186.41 117.643 186.41 118.937C186.41 120.07 187.38 121.203 188.675 121.203Z" fill="#D8DBEA"/>
  <path d="M165.377 121.203C166.671 121.203 167.642 120.232 167.642 118.937C167.642 117.643 166.671 116.672 165.377 116.672C164.082 116.672 163.111 117.643 163.111 118.937C163.111 120.07 164.082 121.203 165.377 121.203Z" fill="#D8DBEA"/>
  <path d="M153.725 132.854C155.019 132.854 155.99 131.883 155.99 130.588C155.99 129.294 155.019 128.323 153.725 128.323C152.43 128.323 151.459 129.294 151.459 130.588C151.459 131.721 152.43 132.854 153.725 132.854Z" fill="#D8DBEA"/>
  <path d="M177.029 132.854C178.323 132.854 179.294 131.883 179.294 130.588C179.294 129.294 178.323 128.323 177.029 128.323C175.734 128.323 174.763 129.294 174.763 130.588C174.763 131.721 175.734 132.854 177.029 132.854Z" fill="#D8DBEA"/>
  <path d="M153.725 109.552C155.02 109.552 155.99 108.581 155.99 107.286C155.99 105.992 155.02 105.021 153.725 105.021C152.43 105.021 151.459 105.992 151.459 107.286C151.459 108.419 152.43 109.552 153.725 109.552Z" fill="#D8DBEA"/>
  <path d="M177.029 109.552C178.323 109.552 179.294 108.581 179.294 107.286C179.294 105.992 178.323 105.021 177.029 105.021C175.734 105.021 174.763 105.992 174.763 107.286C174.763 108.419 175.734 109.552 177.029 109.552Z" fill="#D8DBEA"/>
  <path d="M142.073 144.505C143.368 144.505 144.339 143.534 144.339 142.239C144.339 140.945 143.368 139.974 142.073 139.974C140.779 139.974 139.808 140.945 139.808 142.239C139.808 143.372 140.779 144.505 142.073 144.505Z" fill="#D8DBEA"/>
  <path d="M142.073 121.203C143.368 121.203 144.339 120.232 144.339 118.937C144.339 117.643 143.368 116.672 142.073 116.672C140.779 116.672 139.808 117.643 139.808 118.937C139.808 120.07 140.779 121.203 142.073 121.203Z" fill="#D8DBEA"/>
  <path d="M188.68 97.9011C189.974 97.9011 190.945 96.9302 190.945 95.6356C190.945 94.341 189.974 93.3701 188.68 93.3701C187.385 93.3701 186.414 94.341 186.414 95.6356C186.414 96.7683 187.385 97.9011 188.68 97.9011Z" fill="#D8DBEA"/>
  <path d="M165.377 97.9011C166.671 97.9011 167.642 96.9302 167.642 95.6356C167.642 94.341 166.671 93.3701 165.377 93.3701C164.082 93.3701 163.111 94.341 163.111 95.6356C163.111 96.7683 164.082 97.9011 165.377 97.9011Z" fill="#D8DBEA"/>
  <path d="M142.073 97.9011C143.367 97.9011 144.338 96.9302 144.338 95.6356C144.338 94.341 143.367 93.3701 142.073 93.3701C140.778 93.3701 139.807 94.341 139.807 95.6356C139.807 96.7683 140.778 97.9011 142.073 97.9011Z" fill="#D8DBEA"/>
  <path d="M188.675 191.109C189.97 191.109 190.941 190.138 190.941 188.844C190.941 187.549 189.97 186.578 188.675 186.578C187.38 186.578 186.41 187.549 186.41 188.844C186.41 190.138 187.38 191.109 188.675 191.109Z" fill="#D8DBEA"/>
  <path d="M165.377 191.109C166.671 191.109 167.642 190.138 167.642 188.844C167.642 187.549 166.671 186.578 165.377 186.578C164.082 186.578 163.111 187.549 163.111 188.844C163.111 190.138 164.082 191.109 165.377 191.109Z" fill="#D8DBEA"/>
  <path d="M188.675 167.807C189.97 167.807 190.941 166.836 190.941 165.541C190.941 164.247 189.97 163.276 188.675 163.276C187.38 163.276 186.41 164.247 186.41 165.541C186.41 166.674 187.38 167.807 188.675 167.807Z" fill="#D8DBEA"/>
  <path d="M165.377 167.807C166.671 167.807 167.642 166.836 167.642 165.541C167.642 164.247 166.671 163.276 165.377 163.276C164.082 163.276 163.111 164.247 163.111 165.541C163.111 166.674 164.082 167.807 165.377 167.807Z" fill="#D8DBEA"/>
  <path d="M153.725 179.458C155.019 179.458 155.99 178.487 155.99 177.193C155.99 175.898 155.019 174.927 153.725 174.927C152.43 174.927 151.459 175.898 151.459 177.193C151.459 178.325 152.43 179.458 153.725 179.458Z" fill="#D8DBEA"/>
  <path d="M177.029 179.458C178.323 179.458 179.294 178.487 179.294 177.193C179.294 175.898 178.323 174.927 177.029 174.927C175.734 174.927 174.763 175.898 174.763 177.193C174.763 178.325 175.734 179.458 177.029 179.458Z" fill="#D8DBEA"/>
  <path d="M153.725 156.156C155.02 156.156 155.99 155.186 155.99 153.891C155.99 152.596 155.02 151.625 153.725 151.625C152.43 151.625 151.459 152.596 151.459 153.891C151.459 155.024 152.43 156.156 153.725 156.156Z" fill="#D8DBEA"/>
  <path d="M177.029 156.156C178.323 156.156 179.294 155.185 179.294 153.89C179.294 152.596 178.323 151.625 177.029 151.625C175.734 151.625 174.763 152.596 174.763 153.89C174.763 155.023 175.734 156.156 177.029 156.156Z" fill="#D8DBEA"/>
  <path d="M142.073 191.109C143.368 191.109 144.339 190.138 144.339 188.844C144.339 187.549 143.368 186.578 142.073 186.578C140.779 186.578 139.808 187.549 139.808 188.844C139.808 190.138 140.779 191.109 142.073 191.109Z" fill="#D8DBEA"/>
  <path d="M142.073 167.807C143.368 167.807 144.339 166.836 144.339 165.541C144.339 164.247 143.368 163.276 142.073 163.276C140.779 163.276 139.808 164.247 139.808 165.541C139.808 166.674 140.779 167.807 142.073 167.807Z" fill="#D8DBEA"/>
  <path d="M188.68 144.505C189.974 144.505 190.945 143.534 190.945 142.24C190.945 140.945 189.974 139.974 188.68 139.974C187.385 139.974 186.414 140.945 186.414 142.24C186.414 143.372 187.385 144.505 188.68 144.505Z" fill="#D8DBEA"/>
  <path d="M165.377 144.505C166.671 144.505 167.642 143.534 167.642 142.24C167.642 140.945 166.671 139.974 165.377 139.974C164.082 139.974 163.111 140.945 163.111 142.24C163.111 143.372 164.082 144.505 165.377 144.505Z" fill="#D8DBEA"/>
  <path d="M142.073 144.505C143.367 144.505 144.338 143.534 144.338 142.24C144.338 140.945 143.367 139.974 142.073 139.974C140.778 139.974 139.807 140.945 139.807 142.24C139.807 143.372 140.778 144.505 142.073 144.505Z" fill="#D8DBEA"/>
  <path d="M142.072 51.2966C143.367 51.2966 144.338 50.3257 144.338 49.0311C144.338 47.7365 143.367 46.7656 142.072 46.7656C140.778 46.7656 139.807 47.7365 139.807 49.0311C139.807 50.1638 140.778 51.2966 142.072 51.2966Z" fill="#D8DBEA"/>
  <path d="M118.774 51.2966C120.068 51.2966 121.039 50.3257 121.039 49.0311C121.039 47.7365 120.068 46.7656 118.774 46.7656C117.479 46.7656 116.508 47.7365 116.508 49.0311C116.508 50.1638 117.479 51.2966 118.774 51.2966Z" fill="#D8DBEA"/>
  <path d="M142.072 27.9943C143.367 27.9943 144.338 27.0234 144.338 25.7289C144.338 24.4343 143.367 23.4634 142.072 23.4634C140.778 23.4634 139.807 24.4343 139.807 25.7289C139.807 27.0234 140.778 27.9943 142.072 27.9943Z" fill="#D8DBEA"/>
  <path d="M118.774 27.9943C120.068 27.9943 121.039 27.0234 121.039 25.7289C121.039 24.4343 120.068 23.4634 118.774 23.4634C117.479 23.4634 116.508 24.4343 116.508 25.7289C116.508 27.0234 117.479 27.9943 118.774 27.9943Z" fill="#D8DBEA"/>
  <path d="M107.122 39.6457C108.417 39.6457 109.388 38.6748 109.388 37.3802C109.388 36.0857 108.417 35.1147 107.122 35.1147C105.827 35.1147 104.857 36.0857 104.857 37.3802C104.857 38.513 105.827 39.6457 107.122 39.6457Z" fill="#D8DBEA"/>
  <path d="M130.426 39.6457C131.72 39.6457 132.691 38.6748 132.691 37.3802C132.691 36.0857 131.72 35.1147 130.426 35.1147C129.131 35.1147 128.16 36.0857 128.16 37.3802C128.16 38.513 129.131 39.6457 130.426 39.6457Z" fill="#D8DBEA"/>
  <path d="M107.121 16.3439C108.416 16.3439 109.387 15.373 109.387 14.0785C109.387 12.7839 108.416 11.813 107.121 11.813C105.827 11.813 104.856 12.7839 104.856 14.0785C104.856 15.2112 105.827 16.3439 107.121 16.3439Z" fill="#D8DBEA"/>
  <path d="M130.426 16.3435C131.72 16.3435 132.691 15.3725 132.691 14.078C132.691 12.7834 131.72 11.8125 130.426 11.8125C129.131 11.8125 128.16 12.7834 128.16 14.078C128.16 15.2107 129.131 16.3435 130.426 16.3435Z" fill="#D8DBEA"/>
  <path d="M95.4707 51.2966C96.7652 51.2966 97.7362 50.3257 97.7362 49.0311C97.7362 47.7365 96.7652 46.7656 95.4707 46.7656C94.1761 46.7656 93.2052 47.7365 93.2052 49.0311C93.2052 50.1638 94.1761 51.2966 95.4707 51.2966Z" fill="#D8DBEA"/>
  <path d="M95.4708 27.9948C96.7654 27.9948 97.7363 27.0239 97.7363 25.7293C97.7363 24.4348 96.7654 23.4639 95.4708 23.4639C94.1762 23.4639 93.2053 24.4348 93.2053 25.7293C93.2053 27.0239 94.1762 27.9948 95.4708 27.9948Z" fill="#D8DBEA"/>
  <path d="M142.08 4.69278C143.374 4.69278 144.345 3.72186 144.345 2.4273C144.345 1.13274 143.374 0 142.08 0C140.785 0 139.814 0.970919 139.814 2.26548C139.814 3.56004 140.785 4.69278 142.08 4.69278Z" fill="#D8DBEA"/>
  <path d="M118.776 4.69278C120.071 4.69278 121.042 3.72186 121.042 2.4273C121.042 1.13274 120.071 0 118.776 0C117.482 0 116.511 0.970919 116.511 2.26548C116.511 3.56004 117.482 4.69278 118.776 4.69278Z" fill="#D8DBEA"/>
  <path d="M95.4709 4.69278C96.7655 4.69278 97.7364 3.72186 97.7364 2.4273C97.7364 1.13274 96.7655 0 95.4709 0C94.1764 0 93.2054 0.970919 93.2054 2.26548C93.2054 3.56004 94.1764 4.69278 95.4709 4.69278Z" fill="#D8DBEA"/>
  <path d="M142.072 97.9011C143.367 97.9011 144.338 96.9302 144.338 95.6356C144.338 94.341 143.367 93.3701 142.072 93.3701C140.778 93.3701 139.807 94.341 139.807 95.6356C139.807 96.7683 140.778 97.9011 142.072 97.9011Z" fill="#D8DBEA"/>
  <path d="M118.774 97.9011C120.068 97.9011 121.039 96.9302 121.039 95.6356C121.039 94.341 120.068 93.3701 118.774 93.3701C117.479 93.3701 116.508 94.341 116.508 95.6356C116.508 96.7683 117.479 97.9011 118.774 97.9011Z" fill="#D8DBEA"/>
  <path d="M142.072 74.5983C143.367 74.5983 144.338 73.6274 144.338 72.3329C144.338 71.0383 143.367 70.0674 142.072 70.0674C140.778 70.0674 139.807 71.0383 139.807 72.3329C139.807 73.4656 140.778 74.5983 142.072 74.5983Z" fill="#D8DBEA"/>
  <path d="M118.774 74.5983C120.068 74.5983 121.039 73.6274 121.039 72.3329C121.039 71.0383 120.068 70.0674 118.774 70.0674C117.479 70.0674 116.508 71.0383 116.508 72.3329C116.508 73.4656 117.479 74.5983 118.774 74.5983Z" fill="#D8DBEA"/>
  <path d="M107.122 86.2497C108.417 86.2497 109.388 85.2788 109.388 83.9842C109.388 82.6897 108.417 81.7188 107.122 81.7188C105.827 81.7188 104.857 82.6897 104.857 83.9842C104.857 85.117 105.827 86.2497 107.122 86.2497Z" fill="#D8DBEA"/>
  <path d="M130.426 86.2497C131.72 86.2497 132.691 85.2788 132.691 83.9842C132.691 82.6897 131.72 81.7188 130.426 81.7188C129.131 81.7188 128.16 82.6897 128.16 83.9842C128.16 85.117 129.131 86.2497 130.426 86.2497Z" fill="#D8DBEA"/>
  <path d="M107.121 62.948C108.416 62.948 109.387 61.977 109.387 60.6825C109.387 59.3879 108.416 58.417 107.121 58.417C105.827 58.417 104.856 59.3879 104.856 60.6825C104.856 61.8152 105.827 62.948 107.121 62.948Z" fill="#D8DBEA"/>
  <path d="M130.426 62.948C131.72 62.948 132.691 61.977 132.691 60.6825C132.691 59.3879 131.72 58.417 130.426 58.417C129.131 58.417 128.16 59.3879 128.16 60.6825C128.16 61.8152 129.131 62.948 130.426 62.948Z" fill="#D8DBEA"/>
  <path d="M95.4707 97.9006C96.7652 97.9006 97.7362 96.9297 97.7362 95.6351C97.7362 94.3405 96.7652 93.3696 95.4707 93.3696C94.1761 93.3696 93.2052 94.3405 93.2052 95.6351C93.2052 96.7678 94.1761 97.9006 95.4707 97.9006Z" fill="#D8DBEA"/>
  <path d="M95.4708 74.5988C96.7654 74.5988 97.7363 73.6279 97.7363 72.3334C97.7363 71.0388 96.7654 70.0679 95.4708 70.0679C94.1762 70.0679 93.2053 71.0388 93.2053 72.3334C93.2053 73.4661 94.1762 74.5988 95.4708 74.5988Z" fill="#D8DBEA"/>
  <path d="M142.08 51.2966C143.374 51.2966 144.345 50.3257 144.345 49.0311C144.345 47.7365 143.374 46.7656 142.08 46.7656C140.785 46.7656 139.814 47.7365 139.814 49.0311C139.814 50.1638 140.785 51.2966 142.08 51.2966Z" fill="#D8DBEA"/>
  <path d="M118.776 51.2966C120.071 51.2966 121.042 50.3257 121.042 49.0311C121.042 47.7365 120.071 46.7656 118.776 46.7656C117.482 46.7656 116.511 47.7365 116.511 49.0311C116.511 50.1638 117.482 51.2966 118.776 51.2966Z" fill="#D8DBEA"/>
  <path d="M95.4709 51.2971C96.7655 51.2971 97.7364 50.3262 97.7364 49.0316C97.7364 47.737 96.7655 46.7661 95.4709 46.7661C94.1764 46.7661 93.2054 47.737 93.2054 49.0316C93.2054 50.1643 94.1764 51.2971 95.4709 51.2971Z" fill="#D8DBEA"/>
  <path d="M142.072 144.506C143.367 144.506 144.338 143.535 144.338 142.24C144.338 140.946 143.367 139.975 142.072 139.975C140.778 139.975 139.807 140.946 139.807 142.24C139.807 143.373 140.778 144.506 142.072 144.506Z" fill="#D8DBEA"/>
  <path d="M118.774 144.506C120.068 144.506 121.039 143.535 121.039 142.24C121.039 140.946 120.068 139.975 118.774 139.975C117.479 139.975 116.508 140.946 116.508 142.24C116.508 143.373 117.479 144.506 118.774 144.506Z" fill="#D8DBEA"/>
  <path d="M142.072 121.203C143.367 121.203 144.338 120.232 144.338 118.937C144.338 117.643 143.367 116.672 142.072 116.672C140.778 116.672 139.807 117.643 139.807 118.937C139.807 120.07 140.778 121.203 142.072 121.203Z" fill="#D8DBEA"/>
  <path d="M118.774 121.203C120.068 121.203 121.039 120.232 121.039 118.937C121.039 117.643 120.068 116.672 118.774 116.672C117.479 116.672 116.508 117.643 116.508 118.937C116.508 120.07 117.479 121.203 118.774 121.203Z" fill="#D8DBEA"/>
  <path d="M107.122 132.854C108.417 132.854 109.388 131.883 109.388 130.589C109.388 129.294 108.417 128.323 107.122 128.323C105.827 128.323 104.857 129.294 104.857 130.589C104.857 131.721 105.827 132.854 107.122 132.854Z" fill="#D8DBEA"/>
  <path d="M130.426 132.854C131.72 132.854 132.691 131.883 132.691 130.589C132.691 129.294 131.72 128.323 130.426 128.323C129.131 128.323 128.16 129.294 128.16 130.589C128.16 131.721 129.131 132.854 130.426 132.854Z" fill="#D8DBEA"/>
  <path d="M107.121 109.552C108.416 109.552 109.387 108.582 109.387 107.287C109.387 105.992 108.416 105.021 107.121 105.021C105.827 105.021 104.856 105.992 104.856 107.287C104.856 108.42 105.827 109.552 107.121 109.552Z" fill="#D8DBEA"/>
  <path d="M130.426 109.552C131.72 109.552 132.691 108.582 132.691 107.287C132.691 105.992 131.72 105.021 130.426 105.021C129.131 105.021 128.16 105.992 128.16 107.287C128.16 108.42 129.131 109.552 130.426 109.552Z" fill="#D8DBEA"/>
  <path d="M95.4707 144.505C96.7652 144.505 97.7362 143.534 97.7362 142.239C97.7362 140.945 96.7652 139.974 95.4707 139.974C94.1761 139.974 93.2052 140.945 93.2052 142.239C93.2052 143.372 94.1761 144.505 95.4707 144.505Z" fill="#D8DBEA"/>
  <path d="M95.4708 121.203C96.7654 121.203 97.7363 120.232 97.7363 118.937C97.7363 117.643 96.7654 116.672 95.4708 116.672C94.1762 116.672 93.2053 117.643 93.2053 118.937C93.2053 120.07 94.1762 121.203 95.4708 121.203Z" fill="#D8DBEA"/>
  <path d="M142.08 97.9011C143.374 97.9011 144.345 96.9302 144.345 95.6356C144.345 94.341 143.374 93.3701 142.08 93.3701C140.785 93.3701 139.814 94.341 139.814 95.6356C139.814 96.7683 140.785 97.9011 142.08 97.9011Z" fill="#D8DBEA"/>
  <path d="M118.776 97.9011C120.071 97.9011 121.042 96.9302 121.042 95.6356C121.042 94.341 120.071 93.3701 118.776 93.3701C117.482 93.3701 116.511 94.341 116.511 95.6356C116.511 96.7683 117.482 97.9011 118.776 97.9011Z" fill="#D8DBEA"/>
  <path d="M95.4709 97.9011C96.7655 97.9011 97.7364 96.9302 97.7364 95.6356C97.7364 94.341 96.7655 93.3701 95.4709 93.3701C94.1764 93.3701 93.2054 94.341 93.2054 95.6356C93.2054 96.7683 94.1764 97.9011 95.4709 97.9011Z" fill="#D8DBEA"/>
  <path d="M142.072 191.109C143.367 191.109 144.338 190.138 144.338 188.844C144.338 187.549 143.367 186.578 142.072 186.578C140.778 186.578 139.807 187.549 139.807 188.844C139.807 190.138 140.778 191.109 142.072 191.109Z" fill="#D8DBEA"/>
  <path d="M118.774 191.109C120.068 191.109 121.039 190.138 121.039 188.844C121.039 187.549 120.068 186.578 118.774 186.578C117.479 186.578 116.508 187.549 116.508 188.844C116.508 190.138 117.479 191.109 118.774 191.109Z" fill="#D8DBEA"/>
  <path d="M142.072 167.807C143.367 167.807 144.338 166.836 144.338 165.541C144.338 164.247 143.367 163.276 142.072 163.276C140.778 163.276 139.807 164.247 139.807 165.541C139.807 166.674 140.778 167.807 142.072 167.807Z" fill="#D8DBEA"/>
  <path d="M118.774 167.807C120.068 167.807 121.039 166.836 121.039 165.541C121.039 164.247 120.068 163.276 118.774 163.276C117.479 163.276 116.508 164.247 116.508 165.541C116.508 166.674 117.479 167.807 118.774 167.807Z" fill="#D8DBEA"/>
  <path d="M107.122 179.458C108.417 179.458 109.388 178.487 109.388 177.193C109.388 175.898 108.417 174.927 107.122 174.927C105.827 174.927 104.857 175.898 104.857 177.193C104.857 178.325 105.827 179.458 107.122 179.458Z" fill="#D8DBEA"/>
  <path d="M130.426 179.458C131.72 179.458 132.691 178.487 132.691 177.193C132.691 175.898 131.72 174.927 130.426 174.927C129.131 174.927 128.16 175.898 128.16 177.193C128.16 178.325 129.131 179.458 130.426 179.458Z" fill="#D8DBEA"/>
  <path d="M107.121 156.156C108.416 156.156 109.387 155.186 109.387 153.891C109.387 152.596 108.416 151.625 107.121 151.625C105.827 151.625 104.856 152.596 104.856 153.891C104.856 155.024 105.827 156.156 107.121 156.156Z" fill="#D8DBEA"/>
  <path d="M130.426 156.156C131.72 156.156 132.691 155.185 132.691 153.89C132.691 152.596 131.72 151.625 130.426 151.625C129.131 151.625 128.16 152.596 128.16 153.89C128.16 155.023 129.131 156.156 130.426 156.156Z" fill="#D8DBEA"/>
  <path d="M95.4707 191.109C96.7652 191.109 97.7362 190.138 97.7362 188.844C97.7362 187.549 96.7652 186.578 95.4707 186.578C94.1761 186.578 93.2052 187.549 93.2052 188.844C93.2052 190.138 94.1761 191.109 95.4707 191.109Z" fill="#D8DBEA"/>
  <path d="M95.4708 167.807C96.7654 167.807 97.7363 166.836 97.7363 165.541C97.7363 164.247 96.7654 163.276 95.4708 163.276C94.1762 163.276 93.2053 164.247 93.2053 165.541C93.2053 166.674 94.1762 167.807 95.4708 167.807Z" fill="#D8DBEA"/>
  <path d="M142.08 144.505C143.374 144.505 144.345 143.534 144.345 142.24C144.345 140.945 143.374 139.974 142.08 139.974C140.785 139.974 139.814 140.945 139.814 142.24C139.814 143.372 140.785 144.505 142.08 144.505Z" fill="#D8DBEA"/>
  <path d="M118.776 144.505C120.071 144.505 121.042 143.534 121.042 142.24C121.042 140.945 120.071 139.974 118.776 139.974C117.482 139.974 116.511 140.945 116.511 142.24C116.511 143.372 117.482 144.505 118.776 144.505Z" fill="#D8DBEA"/>
  <path d="M95.4709 144.505C96.7655 144.505 97.7364 143.534 97.7364 142.24C97.7364 140.945 96.7655 139.974 95.4709 139.974C94.1764 139.974 93.2054 140.945 93.2054 142.24C93.2054 143.372 94.1764 144.505 95.4709 144.505Z" fill="#D8DBEA"/>
  <path d="M95.4745 51.2971C96.769 51.2971 97.7399 50.3262 97.7399 49.0316C97.7399 47.737 96.769 46.7661 95.4745 46.7661C94.1799 46.7661 93.209 47.737 93.209 49.0316C93.209 50.1643 94.1799 51.2971 95.4745 51.2971Z" fill="#D8DBEA"/>
  <path d="M72.1707 51.2971C73.4653 51.2971 74.4362 50.3262 74.4362 49.0316C74.4362 47.737 73.4653 46.7661 72.1707 46.7661C70.8762 46.7661 69.9053 47.737 69.9053 49.0316C69.9053 50.1643 70.8762 51.2971 72.1707 51.2971Z" fill="#D8DBEA"/>
  <path d="M95.4745 27.9948C96.769 27.9948 97.7399 27.0239 97.7399 25.7293C97.7399 24.4348 96.769 23.4639 95.4745 23.4639C94.1799 23.4639 93.209 24.4348 93.209 25.7293C93.209 27.0239 94.1799 27.9948 95.4745 27.9948Z" fill="#D8DBEA"/>
  <path d="M72.1707 27.9948C73.4653 27.9948 74.4362 27.0239 74.4362 25.7293C74.4362 24.4348 73.4653 23.4639 72.1707 23.4639C70.8762 23.4639 69.9053 24.4348 69.9053 25.7293C69.9053 27.0239 70.8762 27.9948 72.1707 27.9948Z" fill="#D8DBEA"/>
  <path d="M60.5189 39.6457C61.8135 39.6457 62.7844 38.6748 62.7844 37.3802C62.7844 36.0857 61.8135 35.1147 60.5189 35.1147C59.2243 35.1147 58.2534 36.0857 58.2534 37.3802C58.2534 38.513 59.2243 39.6457 60.5189 39.6457Z" fill="#D8DBEA"/>
  <path d="M83.8226 39.6457C85.1172 39.6457 86.0881 38.6748 86.0881 37.3802C86.0881 36.0857 85.1172 35.1147 83.8226 35.1147C82.528 35.1147 81.5571 36.0857 81.5571 37.3802C81.5571 38.513 82.528 39.6457 83.8226 39.6457Z" fill="#D8DBEA"/>
  <path d="M60.5189 16.3439C61.8135 16.3439 62.7844 15.373 62.7844 14.0785C62.7844 12.7839 61.8135 11.813 60.5189 11.813C59.2243 11.813 58.2534 12.7839 58.2534 14.0785C58.2534 15.2112 59.2243 16.3439 60.5189 16.3439Z" fill="#D8DBEA"/>
  <path d="M83.8226 16.3439C85.1172 16.3439 86.0881 15.373 86.0881 14.0785C86.0881 12.7839 85.1172 11.813 83.8226 11.813C82.528 11.813 81.5571 12.7839 81.5571 14.0785C81.5571 15.2112 82.528 16.3439 83.8226 16.3439Z" fill="#D8DBEA"/>
  <path d="M48.8686 51.2966C50.1632 51.2966 51.1341 50.3257 51.1341 49.0311C51.1341 47.7365 50.1632 46.7656 48.8686 46.7656C47.5741 46.7656 46.6031 47.7365 46.6031 49.0311C46.6031 50.1638 47.5741 51.2966 48.8686 51.2966Z" fill="#D8DBEA"/>
  <path d="M48.868 27.9948C50.1626 27.9948 51.1335 27.0239 51.1335 25.7293C51.1335 24.4348 50.1626 23.4639 48.868 23.4639C47.5735 23.4639 46.6025 24.4348 46.6025 25.7293C46.6025 27.0239 47.5735 27.9948 48.868 27.9948Z" fill="#D8DBEA"/>
  <path d="M95.4774 4.69278C96.772 4.69278 97.7429 3.72186 97.7429 2.4273C97.7429 1.13274 96.772 0 95.4774 0C94.1828 0 93.2119 0.970919 93.2119 2.26548C93.2119 3.56004 94.1828 4.69278 95.4774 4.69278Z" fill="#D8DBEA"/>
  <path d="M72.1737 4.69278C73.4682 4.69278 74.4392 3.72186 74.4392 2.4273C74.4392 1.13274 73.4682 0 72.1737 0C70.8791 0 69.9082 0.970919 69.9082 2.26548C69.9082 3.56004 70.8791 4.69278 72.1737 4.69278Z" fill="#D8DBEA"/>
  <path d="M48.868 4.69278C50.1626 4.69278 51.1335 3.72186 51.1335 2.4273C51.1335 1.13274 50.1626 0 48.868 0C47.5735 0 46.6025 0.970919 46.6025 2.26548C46.6025 3.56004 47.5735 4.69278 48.868 4.69278Z" fill="#D8DBEA"/>
  <path d="M95.4745 97.9011C96.769 97.9011 97.7399 96.9302 97.7399 95.6356C97.7399 94.341 96.769 93.3701 95.4745 93.3701C94.1799 93.3701 93.209 94.341 93.209 95.6356C93.209 96.7683 94.1799 97.9011 95.4745 97.9011Z" fill="#D8DBEA"/>
  <path d="M72.1707 97.9011C73.4653 97.9011 74.4362 96.9302 74.4362 95.6356C74.4362 94.341 73.4653 93.3701 72.1707 93.3701C70.8762 93.3701 69.9053 94.341 69.9053 95.6356C69.9053 96.7683 70.8762 97.9011 72.1707 97.9011Z" fill="#D8DBEA"/>
  <path d="M95.4745 74.5983C96.769 74.5983 97.7399 73.6274 97.7399 72.3329C97.7399 71.0383 96.769 70.0674 95.4745 70.0674C94.1799 70.0674 93.209 71.0383 93.209 72.3329C93.209 73.4656 94.1799 74.5983 95.4745 74.5983Z" fill="#D8DBEA"/>
  <path d="M72.1707 74.5983C73.4653 74.5983 74.4362 73.6274 74.4362 72.3329C74.4362 71.0383 73.4653 70.0674 72.1707 70.0674C70.8762 70.0674 69.9053 71.0383 69.9053 72.3329C69.9053 73.4656 70.8762 74.5983 72.1707 74.5983Z" fill="#D8DBEA"/>
  <path d="M60.5189 86.2497C61.8135 86.2497 62.7844 85.2788 62.7844 83.9842C62.7844 82.6897 61.8135 81.7188 60.5189 81.7188C59.2243 81.7188 58.2534 82.6897 58.2534 83.9842C58.2534 85.117 59.2243 86.2497 60.5189 86.2497Z" fill="#D8DBEA"/>
  <path d="M83.8226 86.2497C85.1172 86.2497 86.0881 85.2788 86.0881 83.9842C86.0881 82.6897 85.1172 81.7188 83.8226 81.7188C82.528 81.7188 81.5571 82.6897 81.5571 83.9842C81.5571 85.117 82.528 86.2497 83.8226 86.2497Z" fill="#D8DBEA"/>
  <path d="M60.5189 62.948C61.8135 62.948 62.7844 61.977 62.7844 60.6825C62.7844 59.3879 61.8135 58.417 60.5189 58.417C59.2243 58.417 58.2534 59.3879 58.2534 60.6825C58.2534 61.8152 59.2243 62.948 60.5189 62.948Z" fill="#D8DBEA"/>
  <path d="M83.8226 62.948C85.1172 62.948 86.0881 61.977 86.0881 60.6825C86.0881 59.3879 85.1172 58.417 83.8226 58.417C82.528 58.417 81.5571 59.3879 81.5571 60.6825C81.5571 61.8152 82.528 62.948 83.8226 62.948Z" fill="#D8DBEA"/>
  <path d="M48.8686 97.9006C50.1632 97.9006 51.1341 96.9297 51.1341 95.6351C51.1341 94.3405 50.1632 93.3696 48.8686 93.3696C47.5741 93.3696 46.6031 94.3405 46.6031 95.6351C46.6031 96.7678 47.5741 97.9006 48.8686 97.9006Z" fill="#D8DBEA"/>
  <path d="M48.868 74.5983C50.1626 74.5983 51.1335 73.6274 51.1335 72.3329C51.1335 71.0383 50.1626 70.0674 48.868 70.0674C47.5735 70.0674 46.6025 71.0383 46.6025 72.3329C46.6025 73.4656 47.5735 74.5983 48.868 74.5983Z" fill="#D8DBEA"/>
  <path d="M95.4774 51.2966C96.772 51.2966 97.7429 50.3257 97.7429 49.0311C97.7429 47.7365 96.772 46.7656 95.4774 46.7656C94.1828 46.7656 93.2119 47.7365 93.2119 49.0311C93.2119 50.1638 94.1828 51.2966 95.4774 51.2966Z" fill="#D8DBEA"/>
  <path d="M72.1737 51.2966C73.4682 51.2966 74.4392 50.3257 74.4392 49.0311C74.4392 47.7365 73.4682 46.7656 72.1737 46.7656C70.8791 46.7656 69.9082 47.7365 69.9082 49.0311C69.9082 50.1638 70.8791 51.2966 72.1737 51.2966Z" fill="#D8DBEA"/>
  <path d="M48.868 51.2966C50.1626 51.2966 51.1335 50.3257 51.1335 49.0311C51.1335 47.7365 50.1626 46.7656 48.868 46.7656C47.5735 46.7656 46.6025 47.7365 46.6025 49.0311C46.6025 50.1638 47.5735 51.2966 48.868 51.2966Z" fill="#D8DBEA"/>
  <path d="M95.4745 144.505C96.769 144.505 97.7399 143.534 97.7399 142.24C97.7399 140.945 96.769 139.974 95.4745 139.974C94.1799 139.974 93.209 140.945 93.209 142.24C93.209 143.372 94.1799 144.505 95.4745 144.505Z" fill="#D8DBEA"/>
  <path d="M72.1707 144.505C73.4653 144.505 74.4362 143.534 74.4362 142.24C74.4362 140.945 73.4653 139.974 72.1707 139.974C70.8762 139.974 69.9053 140.945 69.9053 142.24C69.9053 143.372 70.8762 144.505 72.1707 144.505Z" fill="#D8DBEA"/>
  <path d="M95.4745 121.203C96.769 121.203 97.7399 120.232 97.7399 118.937C97.7399 117.643 96.769 116.672 95.4745 116.672C94.1799 116.672 93.209 117.643 93.209 118.937C93.209 120.07 94.1799 121.203 95.4745 121.203Z" fill="#D8DBEA"/>
  <path d="M72.1707 121.203C73.4653 121.203 74.4362 120.232 74.4362 118.937C74.4362 117.643 73.4653 116.672 72.1707 116.672C70.8762 116.672 69.9053 117.643 69.9053 118.937C69.9053 120.07 70.8762 121.203 72.1707 121.203Z" fill="#D8DBEA"/>
  <path d="M60.5189 132.854C61.8135 132.854 62.7844 131.883 62.7844 130.588C62.7844 129.294 61.8135 128.323 60.5189 128.323C59.2243 128.323 58.2534 129.294 58.2534 130.588C58.2534 131.721 59.2243 132.854 60.5189 132.854Z" fill="#D8DBEA"/>
  <path d="M83.8226 132.854C85.1172 132.854 86.0881 131.883 86.0881 130.588C86.0881 129.294 85.1172 128.323 83.8226 128.323C82.528 128.323 81.5571 129.294 81.5571 130.588C81.5571 131.721 82.528 132.854 83.8226 132.854Z" fill="#D8DBEA"/>
  <path d="M60.5189 109.552C61.8135 109.552 62.7844 108.581 62.7844 107.286C62.7844 105.992 61.8135 105.021 60.5189 105.021C59.2243 105.021 58.2534 105.992 58.2534 107.286C58.2534 108.419 59.2243 109.552 60.5189 109.552Z" fill="#D8DBEA"/>
  <path d="M83.8226 109.552C85.1172 109.552 86.0881 108.581 86.0881 107.286C86.0881 105.992 85.1172 105.021 83.8226 105.021C82.528 105.021 81.5571 105.992 81.5571 107.286C81.5571 108.419 82.528 109.552 83.8226 109.552Z" fill="#D8DBEA"/>
  <path d="M48.8686 144.505C50.1632 144.505 51.1341 143.534 51.1341 142.239C51.1341 140.945 50.1632 139.974 48.8686 139.974C47.5741 139.974 46.6031 140.945 46.6031 142.239C46.6031 143.372 47.5741 144.505 48.8686 144.505Z" fill="#D8DBEA"/>
  <path d="M48.868 121.203C50.1626 121.203 51.1335 120.232 51.1335 118.937C51.1335 117.643 50.1626 116.672 48.868 116.672C47.5735 116.672 46.6025 117.643 46.6025 118.937C46.6025 120.07 47.5735 121.203 48.868 121.203Z" fill="#D8DBEA"/>
  <path d="M95.4774 97.9011C96.772 97.9011 97.7429 96.9302 97.7429 95.6356C97.7429 94.341 96.772 93.3701 95.4774 93.3701C94.1828 93.3701 93.2119 94.341 93.2119 95.6356C93.2119 96.7683 94.1828 97.9011 95.4774 97.9011Z" fill="#D8DBEA"/>
  <path d="M72.1737 97.9011C73.4682 97.9011 74.4392 96.9302 74.4392 95.6356C74.4392 94.341 73.4682 93.3701 72.1737 93.3701C70.8791 93.3701 69.9082 94.341 69.9082 95.6356C69.9082 96.7683 70.8791 97.9011 72.1737 97.9011Z" fill="#D8DBEA"/>
  <path d="M48.868 97.9011C50.1626 97.9011 51.1335 96.9302 51.1335 95.6356C51.1335 94.341 50.1626 93.3701 48.868 93.3701C47.5735 93.3701 46.6025 94.341 46.6025 95.6356C46.6025 96.7683 47.5735 97.9011 48.868 97.9011Z" fill="#D8DBEA"/>
  <path d="M95.4745 191.11C96.769 191.11 97.7399 190.139 97.7399 188.844C97.7399 187.55 96.769 186.579 95.4745 186.579C94.1799 186.579 93.209 187.55 93.209 188.844C93.209 190.139 94.1799 191.11 95.4745 191.11Z" fill="#D8DBEA"/>
  <path d="M72.1707 191.11C73.4653 191.11 74.4362 190.139 74.4362 188.844C74.4362 187.55 73.4653 186.579 72.1707 186.579C70.8762 186.579 69.9053 187.55 69.9053 188.844C69.9053 190.139 70.8762 191.11 72.1707 191.11Z" fill="#D8DBEA"/>
  <path d="M95.4745 167.807C96.769 167.807 97.7399 166.836 97.7399 165.542C97.7399 164.247 96.769 163.276 95.4745 163.276C94.1799 163.276 93.209 164.247 93.209 165.542C93.209 166.675 94.1799 167.807 95.4745 167.807Z" fill="#D8DBEA"/>
  <path d="M72.1707 167.807C73.4653 167.807 74.4362 166.836 74.4362 165.542C74.4362 164.247 73.4653 163.276 72.1707 163.276C70.8762 163.276 69.9053 164.247 69.9053 165.542C69.9053 166.675 70.8762 167.807 72.1707 167.807Z" fill="#D8DBEA"/>
  <path d="M60.5189 179.458C61.8135 179.458 62.7844 178.487 62.7844 177.192C62.7844 175.898 61.8135 174.927 60.5189 174.927C59.2243 174.927 58.2534 175.898 58.2534 177.192C58.2534 178.325 59.2243 179.458 60.5189 179.458Z" fill="#D8DBEA"/>
  <path d="M83.8226 179.458C85.1172 179.458 86.0881 178.487 86.0881 177.192C86.0881 175.898 85.1172 174.927 83.8226 174.927C82.528 174.927 81.5571 175.898 81.5571 177.192C81.5571 178.325 82.528 179.458 83.8226 179.458Z" fill="#D8DBEA"/>
  <path d="M60.5189 156.156C61.8135 156.156 62.7844 155.186 62.7844 153.891C62.7844 152.596 61.8135 151.625 60.5189 151.625C59.2243 151.625 58.2534 152.596 58.2534 153.891C58.2534 155.024 59.2243 156.156 60.5189 156.156Z" fill="#D8DBEA"/>
  <path d="M83.8226 156.156C85.1172 156.156 86.0881 155.186 86.0881 153.891C86.0881 152.596 85.1172 151.625 83.8226 151.625C82.528 151.625 81.5571 152.596 81.5571 153.891C81.5571 155.024 82.528 156.156 83.8226 156.156Z" fill="#D8DBEA"/>
  <path d="M48.8686 191.109C50.1632 191.109 51.1341 190.138 51.1341 188.844C51.1341 187.549 50.1632 186.578 48.8686 186.578C47.5741 186.578 46.6031 187.549 46.6031 188.844C46.6031 190.138 47.5741 191.109 48.8686 191.109Z" fill="#D8DBEA"/>
  <path d="M48.868 167.807C50.1626 167.807 51.1335 166.836 51.1335 165.542C51.1335 164.247 50.1626 163.276 48.868 163.276C47.5735 163.276 46.6025 164.247 46.6025 165.542C46.6025 166.675 47.5735 167.807 48.868 167.807Z" fill="#D8DBEA"/>
  <path d="M95.4774 144.505C96.772 144.505 97.7429 143.534 97.7429 142.24C97.7429 140.945 96.772 139.974 95.4774 139.974C94.1828 139.974 93.2119 140.945 93.2119 142.24C93.2119 143.372 94.1828 144.505 95.4774 144.505Z" fill="#D8DBEA"/>
  <path d="M72.1737 144.505C73.4682 144.505 74.4392 143.534 74.4392 142.24C74.4392 140.945 73.4682 139.974 72.1737 139.974C70.8791 139.974 69.9082 140.945 69.9082 142.24C69.9082 143.372 70.8791 144.505 72.1737 144.505Z" fill="#D8DBEA"/>
  <path d="M48.868 144.505C50.1626 144.505 51.1335 143.534 51.1335 142.24C51.1335 140.945 50.1626 139.974 48.868 139.974C47.5735 139.974 46.6025 140.945 46.6025 142.24C46.6025 143.372 47.5735 144.505 48.868 144.505Z" fill="#D8DBEA"/>
  <path d="M48.8724 51.2966C50.167 51.2966 51.1379 50.3257 51.1379 49.0311C51.1379 47.7365 50.167 46.7656 48.8724 46.7656C47.5779 46.7656 46.6069 47.7365 46.6069 49.0311C46.6069 50.1638 47.5779 51.2966 48.8724 51.2966Z" fill="#D8DBEA"/>
  <path d="M25.5687 51.2966C26.8633 51.2966 27.8342 50.3257 27.8342 49.0311C27.8342 47.7365 26.8633 46.7656 25.5687 46.7656C24.2741 46.7656 23.3032 47.7365 23.3032 49.0311C23.3032 50.1638 24.2741 51.2966 25.5687 51.2966Z" fill="#D8DBEA"/>
  <path d="M48.8724 27.9943C50.167 27.9943 51.1379 27.0234 51.1379 25.7289C51.1379 24.4343 50.167 23.4634 48.8724 23.4634C47.5779 23.4634 46.6069 24.4343 46.6069 25.7289C46.6069 27.0234 47.5779 27.9943 48.8724 27.9943Z" fill="#D8DBEA"/>
  <path d="M25.5687 27.9943C26.8633 27.9943 27.8342 27.0234 27.8342 25.7289C27.8342 24.4343 26.8633 23.4634 25.5687 23.4634C24.2741 23.4634 23.3032 24.4343 23.3032 25.7289C23.3032 27.0234 24.2741 27.9943 25.5687 27.9943Z" fill="#D8DBEA"/>
  <path d="M13.9168 39.6457C15.2114 39.6457 16.1823 38.6748 16.1823 37.3802C16.1823 36.0857 15.2114 35.1147 13.9168 35.1147C12.6223 35.1147 11.6514 36.0857 11.6514 37.3802C11.6514 38.513 12.6223 39.6457 13.9168 39.6457Z" fill="#D8DBEA"/>
  <path d="M37.2206 39.6457C38.5151 39.6457 39.486 38.6748 39.486 37.3802C39.486 36.0857 38.5151 35.1147 37.2206 35.1147C35.926 35.1147 34.9551 36.0857 34.9551 37.3802C34.9551 38.513 35.926 39.6457 37.2206 39.6457Z" fill="#D8DBEA"/>
  <path d="M13.9159 16.3439C15.2104 16.3439 16.1813 15.373 16.1813 14.0785C16.1813 12.7839 15.2104 11.813 13.9159 11.813C12.6213 11.813 11.6504 12.7839 11.6504 14.0785C11.6504 15.2112 12.6213 16.3439 13.9159 16.3439Z" fill="#D8DBEA"/>
  <path d="M37.2206 16.3435C38.5151 16.3435 39.486 15.3725 39.486 14.078C39.486 12.7834 38.5151 11.8125 37.2206 11.8125C35.926 11.8125 34.9551 12.7834 34.9551 14.078C34.9551 15.2107 35.926 16.3435 37.2206 16.3435Z" fill="#D8DBEA"/>
  <path d="M2.26548 51.2966C3.56004 51.2966 4.53096 50.3257 4.53096 49.0311C4.53096 47.7365 3.56004 46.7656 2.26548 46.7656C0.970919 46.7656 0 47.7365 0 49.0311C0 50.1638 0.970919 51.2966 2.26548 51.2966Z" fill="#D8DBEA"/>
  <path d="M2.26548 27.9949C3.56004 27.9949 4.53096 27.024 4.53096 25.7294C4.53096 24.4349 3.56004 23.4639 2.26548 23.4639C0.970919 23.3021 0 24.273 0 25.5676C0 26.8622 0.970919 27.9949 2.26548 27.9949Z" fill="#D8DBEA"/>
  <path d="M48.8718 4.69278C50.1664 4.69278 51.1373 3.72186 51.1373 2.4273C51.1373 1.13274 50.1664 0 48.8718 0C47.5772 0 46.6063 0.970919 46.6063 2.26548C46.6063 3.56004 47.5772 4.69278 48.8718 4.69278Z" fill="#D8DBEA"/>
  <path d="M25.5677 4.69278C26.8623 4.69278 27.8332 3.72186 27.8332 2.4273C27.8332 1.13274 26.8623 0 25.5677 0C24.2732 0 23.3022 0.970919 23.3022 2.26548C23.3022 3.56004 24.2732 4.69278 25.5677 4.69278Z" fill="#D8DBEA"/>
  <path d="M2.26548 4.69326C3.56004 4.69326 4.53096 3.72235 4.53096 2.42779C4.53096 1.13323 3.56004 0.000488281 2.26548 0.000488281C0.970919 0.000488281 0 0.971407 0 2.26597C0 3.56053 0.970919 4.69326 2.26548 4.69326Z" fill="#D8DBEA"/>
  <path d="M48.8724 97.9006C50.167 97.9006 51.1379 96.9297 51.1379 95.6351C51.1379 94.3405 50.167 93.3696 48.8724 93.3696C47.5779 93.3696 46.6069 94.3405 46.6069 95.6351C46.6069 96.7678 47.5779 97.9006 48.8724 97.9006Z" fill="#D8DBEA"/>
  <path d="M25.5687 97.9006C26.8633 97.9006 27.8342 96.9297 27.8342 95.6351C27.8342 94.3405 26.8633 93.3696 25.5687 93.3696C24.2741 93.3696 23.3032 94.3405 23.3032 95.6351C23.3032 96.7678 24.2741 97.9006 25.5687 97.9006Z" fill="#D8DBEA"/>
  <path d="M48.8724 74.5983C50.167 74.5983 51.1379 73.6274 51.1379 72.3329C51.1379 71.0383 50.167 70.0674 48.8724 70.0674C47.5779 70.0674 46.6069 71.0383 46.6069 72.3329C46.6069 73.4656 47.5779 74.5983 48.8724 74.5983Z" fill="#D8DBEA"/>
  <path d="M25.5687 74.5983C26.8633 74.5983 27.8342 73.6274 27.8342 72.3329C27.8342 71.0383 26.8633 70.0674 25.5687 70.0674C24.2741 70.0674 23.3032 71.0383 23.3032 72.3329C23.3032 73.4656 24.2741 74.5983 25.5687 74.5983Z" fill="#D8DBEA"/>
  <path d="M13.9168 86.2497C15.2114 86.2497 16.1823 85.2788 16.1823 83.9842C16.1823 82.6897 15.2114 81.7188 13.9168 81.7188C12.6223 81.7188 11.6514 82.6897 11.6514 83.9842C11.6514 85.117 12.6223 86.2497 13.9168 86.2497Z" fill="#D8DBEA"/>
  <path d="M37.2206 86.2497C38.5151 86.2497 39.486 85.2788 39.486 83.9842C39.486 82.6897 38.5151 81.7188 37.2206 81.7188C35.926 81.7188 34.9551 82.6897 34.9551 83.9842C34.9551 85.117 35.926 86.2497 37.2206 86.2497Z" fill="#D8DBEA"/>
  <path d="M13.9159 62.9475C15.2104 62.9475 16.1813 61.9765 16.1813 60.682C16.1813 59.3874 15.2104 58.4165 13.9159 58.4165C12.6213 58.4165 11.6504 59.3874 11.6504 60.682C11.6504 61.8147 12.6213 62.9475 13.9159 62.9475Z" fill="#D8DBEA"/>
  <path d="M37.2206 62.9475C38.5151 62.9475 39.486 61.9765 39.486 60.682C39.486 59.3874 38.5151 58.4165 37.2206 58.4165C35.926 58.4165 34.9551 59.3874 34.9551 60.682C34.9551 61.8147 35.926 62.9475 37.2206 62.9475Z" fill="#D8DBEA"/>
  <path d="M2.26548 97.9007C3.56004 97.9007 4.53096 96.9297 4.53096 95.6352C4.53096 94.3406 3.56004 93.3697 2.26548 93.3697C0.970919 93.2079 0 94.1788 0 95.4734C0 96.7679 0.970919 97.9007 2.26548 97.9007Z" fill="#D8DBEA"/>
  <path d="M2.26548 74.5983C3.56004 74.5983 4.53096 73.6274 4.53096 72.3329C4.53096 71.0383 3.56004 70.0674 2.26548 70.0674C0.970919 70.0674 0 71.0383 0 72.3329C0 73.4656 0.970919 74.5983 2.26548 74.5983Z" fill="#D8DBEA"/>
  <path d="M48.8718 51.2961C50.1664 51.2961 51.1373 50.3252 51.1373 49.0306C51.1373 47.7361 50.1664 46.7651 48.8718 46.7651C47.5772 46.7651 46.6063 47.7361 46.6063 49.0306C46.6063 50.1634 47.5772 51.2961 48.8718 51.2961Z" fill="#D8DBEA"/>
  <path d="M25.5677 51.2966C26.8623 51.2966 27.8332 50.3257 27.8332 49.0311C27.8332 47.7365 26.8623 46.7656 25.5677 46.7656C24.2732 46.7656 23.3022 47.7365 23.3022 49.0311C23.3022 50.1638 24.2732 51.2966 25.5677 51.2966Z" fill="#D8DBEA"/>
  <path d="M2.26548 51.2966C3.56004 51.2966 4.53096 50.3257 4.53096 49.0311C4.53096 47.7365 3.56004 46.7656 2.26548 46.7656C0.970919 46.7656 0 47.7365 0 49.0311C0 50.1638 0.970919 51.2966 2.26548 51.2966Z" fill="#D8DBEA"/>
  <path d="M48.8724 144.506C50.167 144.506 51.1379 143.535 51.1379 142.24C51.1379 140.946 50.167 139.975 48.8724 139.975C47.5779 139.975 46.6069 140.946 46.6069 142.24C46.6069 143.373 47.5779 144.506 48.8724 144.506Z" fill="#D8DBEA"/>
  <path d="M25.5687 144.506C26.8633 144.506 27.8342 143.535 27.8342 142.24C27.8342 140.946 26.8633 139.975 25.5687 139.975C24.2741 139.975 23.3032 140.946 23.3032 142.24C23.3032 143.373 24.2741 144.506 25.5687 144.506Z" fill="#D8DBEA"/>
  <path d="M48.8724 121.203C50.167 121.203 51.1379 120.232 51.1379 118.938C51.1379 117.643 50.167 116.672 48.8724 116.672C47.5779 116.672 46.6069 117.643 46.6069 118.938C46.6069 120.071 47.5779 121.203 48.8724 121.203Z" fill="#D8DBEA"/>
  <path d="M25.5687 121.203C26.8633 121.203 27.8342 120.232 27.8342 118.938C27.8342 117.643 26.8633 116.672 25.5687 116.672C24.2741 116.672 23.3032 117.643 23.3032 118.938C23.3032 120.071 24.2741 121.203 25.5687 121.203Z" fill="#D8DBEA"/>
  <path d="M13.9168 132.854C15.2114 132.854 16.1823 131.883 16.1823 130.589C16.1823 129.294 15.2114 128.323 13.9168 128.323C12.6223 128.323 11.6514 129.294 11.6514 130.589C11.6514 131.721 12.6223 132.854 13.9168 132.854Z" fill="#D8DBEA"/>
  <path d="M37.2206 132.854C38.5151 132.854 39.486 131.883 39.486 130.589C39.486 129.294 38.5151 128.323 37.2206 128.323C35.926 128.323 34.9551 129.294 34.9551 130.589C34.9551 131.721 35.926 132.854 37.2206 132.854Z" fill="#D8DBEA"/>
  <path d="M13.9159 109.552C15.2104 109.552 16.1813 108.582 16.1813 107.287C16.1813 105.992 15.2104 105.021 13.9159 105.021C12.6213 105.021 11.6504 105.992 11.6504 107.287C11.6504 108.42 12.6213 109.552 13.9159 109.552Z" fill="#D8DBEA"/>
  <path d="M37.2206 109.552C38.5151 109.552 39.486 108.582 39.486 107.287C39.486 105.992 38.5151 105.021 37.2206 105.021C35.926 105.021 34.9551 105.992 34.9551 107.287C34.9551 108.42 35.926 109.552 37.2206 109.552Z" fill="#D8DBEA"/>
  <path d="M2.26548 144.505C3.56004 144.505 4.53096 143.534 4.53096 142.24C4.53096 140.945 3.56004 139.974 2.26548 139.974C0.970919 139.812 0 140.783 0 142.078C0 143.372 0.970919 144.505 2.26548 144.505Z" fill="#D8DBEA"/>
  <path d="M2.26548 121.203C3.56004 121.203 4.53096 120.232 4.53096 118.937C4.53096 117.643 3.56004 116.672 2.26548 116.672C0.970919 116.51 0 117.481 0 118.776C0 120.07 0.970919 121.203 2.26548 121.203Z" fill="#D8DBEA"/>
  <path d="M48.8718 97.9016C50.1664 97.9016 51.1373 96.9306 51.1373 95.6361C51.1373 94.3415 50.1664 93.3706 48.8718 93.3706C47.5772 93.3706 46.6063 94.3415 46.6063 95.6361C46.6063 96.7688 47.5772 97.9016 48.8718 97.9016Z" fill="#D8DBEA"/>
  <path d="M25.5677 97.9016C26.8623 97.9016 27.8332 96.9306 27.8332 95.6361C27.8332 94.3415 26.8623 93.3706 25.5677 93.3706C24.2732 93.3706 23.3022 94.3415 23.3022 95.6361C23.3022 96.7688 24.2732 97.9016 25.5677 97.9016Z" fill="#D8DBEA"/>
  <path d="M2.26548 97.9016C3.56004 97.9016 4.53096 96.9307 4.53096 95.6361C4.53096 94.3416 3.56004 93.3707 2.26548 93.3707C0.970919 93.2089 0 94.1798 0 95.4743C0 96.7689 0.970919 97.9016 2.26548 97.9016Z" fill="#D8DBEA"/>
  <path d="M48.8724 191.109C50.167 191.109 51.1379 190.138 51.1379 188.844C51.1379 187.549 50.167 186.578 48.8724 186.578C47.5779 186.578 46.6069 187.549 46.6069 188.844C46.6069 190.138 47.5779 191.109 48.8724 191.109Z" fill="#D8DBEA"/>
  <path d="M25.5687 191.109C26.8633 191.109 27.8342 190.138 27.8342 188.844C27.8342 187.549 26.8633 186.578 25.5687 186.578C24.2741 186.578 23.3032 187.549 23.3032 188.844C23.3032 190.138 24.2741 191.109 25.5687 191.109Z" fill="#D8DBEA"/>
  <path d="M48.8724 167.807C50.167 167.807 51.1379 166.836 51.1379 165.541C51.1379 164.247 50.167 163.276 48.8724 163.276C47.5779 163.276 46.6069 164.247 46.6069 165.541C46.6069 166.674 47.5779 167.807 48.8724 167.807Z" fill="#D8DBEA"/>
  <path d="M25.5687 167.807C26.8633 167.807 27.8342 166.836 27.8342 165.541C27.8342 164.247 26.8633 163.276 25.5687 163.276C24.2741 163.276 23.3032 164.247 23.3032 165.541C23.3032 166.674 24.2741 167.807 25.5687 167.807Z" fill="#D8DBEA"/>
  <path d="M13.9168 179.458C15.2114 179.458 16.1823 178.487 16.1823 177.192C16.1823 175.898 15.2114 174.927 13.9168 174.927C12.6223 174.927 11.6514 175.898 11.6514 177.192C11.6514 178.325 12.6223 179.458 13.9168 179.458Z" fill="#D8DBEA"/>
  <path d="M37.2206 179.458C38.5151 179.458 39.486 178.487 39.486 177.192C39.486 175.898 38.5151 174.927 37.2206 174.927C35.926 174.927 34.9551 175.898 34.9551 177.192C34.9551 178.325 35.926 179.458 37.2206 179.458Z" fill="#D8DBEA"/>
  <path d="M13.9159 156.156C15.2104 156.156 16.1813 155.186 16.1813 153.891C16.1813 152.596 15.2104 151.625 13.9159 151.625C12.6213 151.625 11.6504 152.596 11.6504 153.891C11.6504 155.024 12.6213 156.156 13.9159 156.156Z" fill="#D8DBEA"/>
  <path d="M37.2206 156.156C38.5151 156.156 39.486 155.185 39.486 153.89C39.486 152.596 38.5151 151.625 37.2206 151.625C35.926 151.625 34.9551 152.596 34.9551 153.89C34.9551 155.023 35.926 156.156 37.2206 156.156Z" fill="#D8DBEA"/>
  <path d="M2.26548 191.109C3.56004 191.109 4.53096 190.138 4.53096 188.844C4.53096 187.549 3.56004 186.578 2.26548 186.578C0.970919 186.578 0 187.549 0 188.844C0 190.138 0.970919 191.109 2.26548 191.109Z" fill="#D8DBEA"/>
  <path d="M2.26548 167.807C3.56004 167.807 4.53096 166.836 4.53096 165.542C4.53096 164.247 3.56004 163.276 2.26548 163.276C0.970919 163.276 0 164.247 0 165.542C0 166.675 0.970919 167.807 2.26548 167.807Z" fill="#D8DBEA"/>
  <path d="M48.8718 144.505C50.1664 144.505 51.1373 143.534 51.1373 142.24C51.1373 140.945 50.1664 139.974 48.8718 139.974C47.5772 139.974 46.6063 140.945 46.6063 142.24C46.6063 143.372 47.5772 144.505 48.8718 144.505Z" fill="#D8DBEA"/>
  <path d="M25.5677 144.505C26.8623 144.505 27.8332 143.534 27.8332 142.24C27.8332 140.945 26.8623 139.974 25.5677 139.974C24.2732 139.974 23.3022 140.945 23.3022 142.24C23.3022 143.372 24.2732 144.505 25.5677 144.505Z" fill="#D8DBEA"/>
  <path d="M2.26548 144.505C3.56004 144.505 4.53096 143.534 4.53096 142.24C4.53096 140.945 3.56004 139.974 2.26548 139.974C0.970919 139.812 0 140.783 0 142.078C0 143.372 0.970919 144.505 2.26548 144.505Z" fill="#D8DBEA"/>
</svg>