<svg width="578" height="507" viewBox="0 0 578 507" fill="none" xmlns="http://www.w3.org/2000/svg">
<path d="M149.221 241.57C149.164 241.57 144.063 241.598 136.912 240.259C130.301 239.006 120.585 236.299 111.723 230.4C102.919 224.559 91.521 222.508 83.5143 221.824C74.8237 221.083 68.1561 221.71 68.0707 221.738L68.0137 221.168C68.0992 221.168 74.8237 220.513 83.5712 221.254C91.635 221.966 103.146 224.018 112.036 229.916C120.813 235.786 130.472 238.464 136.997 239.718C144.092 241.057 149.164 241 149.221 241V241.57Z" fill="#FFBA55"/>
<path fill-rule="evenodd" clip-rule="evenodd" d="M155.601 244.847C149.731 251.457 124.856 255.532 110.096 247.839C101.919 243.564 95.4506 238.578 89.7519 234.19C82.2865 228.434 75.8754 223.505 67.9827 221.71L67.2988 221.567L67.8972 221.197C68.0112 221.14 79.5796 214.529 96.0775 213.418C105.765 212.791 115.225 214.13 124.229 217.436C135.456 221.567 145.999 228.776 155.487 238.891C157.168 240.687 157.311 242.596 155.914 244.448C155.819 244.581 155.715 244.714 155.601 244.847ZM68.809 221.339C76.5023 223.277 82.7994 228.149 90.0938 233.734C95.7641 238.122 102.232 243.08 110.353 247.326C117.02 250.83 126.594 252.198 136.624 251.087C145.144 250.175 152.467 247.525 155.174 244.476C155.287 244.343 155.382 244.22 155.458 244.106C156.712 242.482 156.57 240.858 155.088 239.262C133.718 216.552 111.236 212.962 96.1345 213.988C81.9446 214.928 71.4304 219.972 68.809 221.339Z" fill="#FFBA55"/>
<path d="M94.4284 222.964L93.9725 223.277L88.2168 214.786L88.6727 214.472L94.4284 222.964Z" fill="#FFBA55"/>
<path d="M101.353 225.243L90.9524 234.817L90.582 234.418L100.982 224.816L101.353 225.243Z" fill="#FFBA55"/>
<path d="M112.15 230.144L111.58 230.172L110.412 214.301L110.953 214.244L112.15 230.144Z" fill="#FFBA55"/>
<path d="M146.512 218.689C146.455 218.661 139.788 216.296 131.268 210.455C123.432 205.069 112.377 195.552 104.256 180.793C94.8531 163.696 84.6238 152.926 77.6998 146.885C70.1775 140.36 64.8207 137.824 64.7637 137.796L64.9916 137.311C65.0486 137.34 70.4624 139.876 78.0133 146.458C84.9942 152.527 95.2805 163.355 104.74 180.536C112.804 195.211 123.774 204.67 131.581 210.027C140.016 215.812 146.626 218.177 146.683 218.177L146.512 218.689Z" fill="#FFBA55"/>
<path fill-rule="evenodd" clip-rule="evenodd" d="M166.882 217.35L165.371 217.635C165.314 217.635 160.385 218.518 152.806 218.376C145.796 218.262 135.026 217.236 123.486 212.962C110.492 208.204 99.2089 200.425 89.8915 189.882C78.2945 176.69 69.7749 159.109 64.6175 137.625L64.5605 137.368L64.7885 137.311C64.874 137.283 73.5931 134.604 84.9906 137.34C91.6866 138.964 97.9837 142.07 103.711 146.629C110.834 152.328 117.132 160.277 122.346 170.25C134.114 192.732 145.198 204.272 152.435 209.999C160.243 216.182 165.314 217.094 165.371 217.094L166.882 217.35ZM65.2159 137.739C76.8698 186.007 103.426 205.012 123.657 212.478C135.111 216.695 145.825 217.721 152.777 217.863C158.077 217.949 162.066 217.55 164.004 217.293C162.009 216.666 157.792 214.928 152.093 210.426C144.827 204.671 133.686 193.074 121.861 170.507C110.122 148.053 95.2768 140.36 84.8766 137.881C74.6758 135.431 66.6691 137.34 65.2159 137.739Z" fill="#FFBA55"/>
<path d="M107.989 186.748L86.6758 185.836L86.7043 185.295L108.018 186.235L107.989 186.748Z" fill="#FFBA55"/>
<path d="M101.523 175.037H100.982L100.953 145.09H101.466L101.523 175.037Z" fill="#FFBA55"/>
<path d="M87.5309 156.63L70.2637 155.718L70.2922 155.177L87.5594 156.089L87.5309 156.63Z" fill="#FFBA55"/>
<path d="M385.611 75.3077L380.596 67.13C380.198 66.4746 380.397 65.5913 381.081 65.1924C381.736 64.765 382.62 64.9929 383.047 65.6483L386.552 71.4325L395.955 65.8762C396.638 65.4773 397.493 65.7053 397.892 66.3891C398.291 67.0445 398.063 67.9278 397.408 68.3267L385.611 75.3077Z" fill="#2576BC"/>
<path fill-rule="evenodd" clip-rule="evenodd" d="M388.951 87.9021C379.064 87.9021 371 79.8669 371 69.9511C371 60.0637 379.064 52 388.951 52C398.867 52 406.902 60.0637 406.902 69.9511C406.902 79.8669 398.867 87.9021 388.951 87.9021ZM388.951 54.5644C380.46 54.5644 373.564 61.4599 373.564 69.9511C373.564 78.4422 380.46 85.3377 388.951 85.3377C397.442 85.3377 404.338 78.4422 404.338 69.9511C404.338 61.4599 397.442 54.5644 388.951 54.5644Z" fill="#2576BC"/>
<path d="M317.372 30.7519L313.139 23.8269C312.792 23.2603 312.981 22.5206 313.548 22.1744C314.114 21.8281 314.854 22.0012 315.2 22.5678L318.191 27.4783L326.139 22.7567C326.721 22.4262 327.461 22.615 327.791 23.1816C328.137 23.764 327.949 24.5037 327.366 24.8342L317.372 30.7519Z" fill="#2576BC"/>
<path fill-rule="evenodd" clip-rule="evenodd" d="M320.219 41.4383C311.831 41.4383 305 34.6078 305 26.2191C305 17.8305 311.831 11 320.219 11C328.608 11 335.423 17.8305 335.423 26.2191C335.423 34.6078 328.608 41.4383 320.219 41.4383ZM320.219 13.1719C313.027 13.1719 307.172 19.0266 307.172 26.2191C307.172 33.4116 313.027 39.2664 320.219 39.2664C327.396 39.2664 333.251 33.4116 333.251 26.2191C333.251 19.0266 327.396 13.1719 320.219 13.1719Z" fill="#2576BC"/>
<path d="M242.793 77.6213L237.721 69.3297C237.323 68.6458 237.522 67.7625 238.206 67.3636C238.89 66.9362 239.773 67.1641 240.2 67.848L243.762 73.6892L253.279 68.0759C253.963 67.6485 254.846 67.8765 255.274 68.5603C255.673 69.2442 255.445 70.1275 254.761 70.5549L242.793 77.6213Z" fill="#2576BC"/>
<path fill-rule="evenodd" clip-rule="evenodd" d="M246.179 90.3865C236.149 90.3865 228 82.2373 228 72.2075C228 62.1492 236.149 54 246.179 54C256.209 54 264.387 62.1492 264.387 72.2075C264.387 82.2373 256.209 90.3865 246.179 90.3865ZM246.179 56.5929C237.574 56.5929 230.593 63.6024 230.593 72.2075C230.593 80.8126 237.574 87.7936 246.179 87.7936C254.784 87.7936 261.794 80.8126 261.794 72.2075C261.794 63.6024 254.784 56.5929 246.179 56.5929Z" fill="#2576BC"/>
<path d="M164.229 26.0083L158.642 16.8879C158.191 16.1362 158.441 15.159 159.168 14.708C159.919 14.257 160.897 14.4825 161.348 15.2342L165.307 21.6986L175.78 15.4847C176.532 15.0337 177.509 15.2843 177.935 16.0359C178.386 16.8127 178.135 17.7648 177.384 18.2158L164.229 26.0083Z" fill="#2576BC"/>
<path fill-rule="evenodd" clip-rule="evenodd" d="M167.955 40.0648C156.905 40.0648 147.91 31.0947 147.91 20.0449C147.91 8.99516 156.905 0 167.955 0C179.005 0 188 8.99516 188 20.0449C188 31.0947 179.005 40.0648 167.955 40.0648ZM167.955 2.8564C158.484 2.8564 150.792 10.5737 150.792 20.0449C150.792 29.5161 158.484 37.2084 167.955 37.2084C177.426 37.2084 185.119 29.5161 185.119 20.0449C185.119 10.5737 177.426 2.8564 167.955 2.8564Z" fill="#2576BC"/>
<path d="M116.213 79.4626L112.032 72.6376C111.695 72.0751 111.882 71.3439 112.426 71.0064C112.988 70.6689 113.72 70.8376 114.057 71.4001L117.02 76.2376L124.857 71.5876C125.42 71.2501 126.151 71.4376 126.47 72.0001C126.807 72.5814 126.62 73.2939 126.057 73.6314L116.213 79.4626Z" fill="#2576BC"/>
<path fill-rule="evenodd" clip-rule="evenodd" d="M119 89.9813C110.731 89.9813 104 83.2687 104 75C104 66.7313 110.731 60 119 60C127.269 60 134 66.7313 134 75C134 83.2687 127.269 89.9813 119 89.9813ZM119 62.1375C111.913 62.1375 106.156 67.9125 106.156 75C106.156 82.0875 111.913 87.8437 119 87.8437C126.087 87.8437 131.844 82.0875 131.844 75C131.844 67.9125 126.087 62.1375 119 62.1375Z" fill="#2576BC"/>
<path d="M471.089 33.879L467.1 27.3254C466.786 26.784 466.957 26.1002 467.498 25.7583C468.011 25.4448 468.724 25.6158 469.037 26.1287L471.887 30.7732L479.38 26.3281C479.922 26.0147 480.634 26.1857 480.948 26.7271C481.261 27.2684 481.09 27.9523 480.549 28.2942L471.089 33.879Z" fill="#2576BC"/>
<path fill-rule="evenodd" clip-rule="evenodd" d="M473.792 43.9374C465.87 43.9374 459.402 37.4978 459.402 29.5765C459.402 21.6553 465.87 15.2157 473.792 15.2157C481.684 15.2157 488.153 21.6553 488.153 29.5765C488.153 37.4978 481.684 43.9374 473.792 43.9374ZM473.792 17.2672C466.982 17.2672 461.454 22.795 461.454 29.5765C461.454 36.3865 466.982 41.8858 473.792 41.8858C480.573 41.8858 486.101 36.3865 486.101 29.5765C486.101 22.795 480.573 17.2672 473.792 17.2672Z" fill="#2576BC"/>
<path d="M476.686 110.663L472.697 104.11C472.384 103.568 472.555 102.884 473.096 102.543C473.609 102.229 474.321 102.4 474.635 102.913L477.484 107.557L484.978 103.112C485.519 102.799 486.232 102.97 486.545 103.511C486.859 104.053 486.688 104.737 486.146 105.079L476.686 110.663Z" fill="#2576BC"/>
<path fill-rule="evenodd" clip-rule="evenodd" d="M479.389 120.722C471.468 120.722 465 114.282 465 106.361C465 98.4396 471.468 92 479.389 92C487.282 92 493.75 98.4396 493.75 106.361C493.75 114.282 487.282 120.722 479.389 120.722ZM479.389 94.0515C472.579 94.0515 467.052 99.5793 467.052 106.361C467.052 113.171 472.579 118.67 479.389 118.67C486.171 118.67 491.699 113.171 491.699 106.361C491.699 99.5793 486.171 94.0515 479.389 94.0515Z" fill="#2576BC"/>
<path d="M270.09 432.392H309.725V312.063H270.09V432.392Z" fill="#8F8F8F"/>
<path d="M136.258 370.02H443.563C453.165 370.02 460.944 362.241 460.944 352.638V146.116C460.944 136.513 453.165 128.706 443.563 128.706H136.258C126.656 128.706 118.877 136.513 118.877 146.116V352.638C118.877 362.241 126.656 370.02 136.258 370.02Z" fill="#F0F0F0"/>
<path d="M132.268 332.208H447.551V103.033H132.268V332.208Z" fill="white"/>
<path d="M132.268 130.701H447.551V103.033H132.268V130.701Z" fill="url(#paint0_linear_2027_6202)"/>
<path d="M409.17 349.504C409.17 355.602 414.983 360.56 422.163 360.56C429.315 360.56 435.128 355.602 435.128 349.504C435.128 343.435 429.315 338.477 422.163 338.477C414.983 338.477 409.17 343.435 409.17 349.504Z" fill="#CCCCCC"/>
<path d="M379.023 436.923H200.795V427.862H379.023V436.923Z" fill="#CCCCCC"/>
<path d="M186.634 122.096H149.193C147.113 122.096 145.432 120.415 145.432 118.335V115.4C145.432 113.32 147.113 111.638 149.193 111.638H186.634C188.714 111.638 190.395 113.32 190.395 115.4V118.335C190.395 120.415 188.714 122.096 186.634 122.096Z" fill="#F5F7FF"/>
<path d="M320.441 232.822H155.377V227.152H320.441V232.822Z" fill="#E6E6E6"/>
<path d="M277.786 243.052H155.377V237.381H277.786V243.052Z" fill="#E6E6E6"/>
<path d="M232.994 265.248H155.377V259.578H232.994V265.248Z" fill="#E6E6E6"/>
<path d="M294.825 275.478H155.377V269.807H294.825V275.478Z" fill="#E6E6E6"/>
<path d="M254.621 299.897H155.377V294.226H254.621V299.897Z" fill="#E6E6E6"/>
<path d="M276.561 310.126H155.377V304.427H276.561V310.126Z" fill="#E6E6E6"/>
<path d="M147.312 243.052H151.473V227.152H147.312V243.052Z" fill="#2576BC"/>
<path d="M147.312 275.477H151.473V259.578H147.312V275.477Z" fill="#2576BC"/>
<path d="M147.312 310.126H151.473V294.226H147.312V310.126Z" fill="#2576BC"/>
<path d="M375.263 317.278H362.042C359.42 317.278 357.283 315.141 357.283 312.519V299.298C357.283 296.677 359.42 294.54 362.042 294.54H375.263C377.884 294.54 380.021 296.677 380.021 299.298V312.519C380.021 315.141 377.884 317.278 375.263 317.278Z" fill="#2576BC"/>
<path d="M367.939 310.895L362.183 305.909C361.699 305.482 361.67 304.769 362.069 304.313C362.497 303.829 363.209 303.772 363.665 304.199L367.74 307.733L373.524 301.264C373.951 300.809 374.664 300.752 375.12 301.179C375.604 301.606 375.632 302.319 375.205 302.775L367.939 310.895Z" fill="#F3F3F3"/>
<path fill-rule="evenodd" clip-rule="evenodd" d="M374.833 282.629H362.439C359.589 282.629 357.281 280.321 357.281 277.472V265.077C357.281 262.199 359.589 259.891 362.439 259.891H374.833C377.711 259.891 380.019 262.199 380.019 265.077V277.472C380.019 280.321 377.711 282.629 374.833 282.629ZM362.439 261.316C360.387 261.316 358.706 262.997 358.706 265.077V277.472C358.706 279.524 360.387 281.205 362.439 281.205H374.833C376.913 281.205 378.595 279.524 378.595 277.472V265.077C378.595 262.997 376.913 261.316 374.833 261.316H362.439Z" fill="#2576BC"/>
<path fill-rule="evenodd" clip-rule="evenodd" d="M409.085 248.009H396.69C393.84 248.009 391.504 245.673 391.504 242.823V230.429C391.504 227.579 393.84 225.243 396.69 225.243H409.085C411.934 225.243 414.27 227.579 414.27 230.429V242.823C414.27 245.673 411.934 248.009 409.085 248.009ZM396.69 226.696C394.61 226.696 392.957 228.377 392.957 230.429V242.823C392.957 244.875 394.61 246.556 396.69 246.556H409.085C411.136 246.556 412.817 244.875 412.817 242.823V230.429C412.817 228.377 411.136 226.696 409.085 226.696H396.69Z" fill="#2576BC"/>
<path fill-rule="evenodd" clip-rule="evenodd" d="M409.085 317.278H396.69C393.84 317.278 391.504 314.97 391.504 312.092V299.697C391.504 296.848 393.84 294.511 396.69 294.511H409.085C411.934 294.511 414.27 296.848 414.27 299.697V312.092C414.27 314.97 411.934 317.278 409.085 317.278ZM396.69 295.965C394.61 295.965 392.957 297.646 392.957 299.697V312.092C392.957 314.172 394.61 315.825 396.69 315.825H409.085C411.136 315.825 412.817 314.172 412.817 312.092V299.697C412.817 297.646 411.136 295.965 409.085 295.965H396.69Z" fill="#2576BC"/>
<path d="M409.483 282.629H396.262C393.641 282.629 391.504 280.492 391.504 277.871V264.65C391.504 262.028 393.641 259.891 396.262 259.891H409.483C412.133 259.891 414.242 262.028 414.242 264.65V277.871C414.242 280.492 412.133 282.629 409.483 282.629Z" fill="#2576BC"/>
<path d="M402.162 276.275L396.406 271.26C395.95 270.862 395.893 270.149 396.292 269.665C396.72 269.18 397.432 269.152 397.916 269.551L401.962 273.084L407.775 266.644C408.174 266.16 408.886 266.132 409.371 266.559C409.827 266.958 409.855 267.67 409.456 268.155L402.162 276.275Z" fill="#F3F3F3"/>
<path d="M375.263 247.981H362.042C359.42 247.981 357.283 245.872 357.283 243.251V230.03C357.283 227.38 359.42 225.271 362.042 225.271H375.263C377.884 225.271 380.021 227.38 380.021 230.03V243.251C380.021 245.872 377.884 247.981 375.263 247.981Z" fill="#2576BC"/>
<path d="M367.939 241.627L362.183 236.612C361.699 236.213 361.67 235.501 362.069 235.016C362.497 234.56 363.209 234.503 363.665 234.931L367.74 238.464L373.524 231.996C373.951 231.54 374.664 231.483 375.12 231.91C375.604 232.338 375.632 233.05 375.205 233.506L367.939 241.627Z" fill="#F3F3F3"/>
<path d="M481.176 247.582C486.562 244.989 491.89 262.085 491.89 262.085C501.008 274.138 513.773 258.096 512.519 276.133C510.325 307.647 548.821 286.049 531.069 318.959C513.317 351.898 546.74 337.565 535.713 364.121C524.686 390.678 538.962 422.334 522.378 409.313C522.378 409.313 507.761 377.257 492.688 367.341C477.615 357.425 501.72 345.686 496.99 332.208C490.152 312.633 473.654 313.403 485.536 292.403C497.446 271.374 462.94 256.301 481.176 247.582Z" fill="url(#paint1_linear_2027_6202)"/>
<path d="M527.622 397.26C520.441 392.188 512.007 356.941 511.523 335.941C511.266 325.171 508.075 320.697 505.283 316.736C502.576 312.947 500.268 309.698 501.635 302.205C504.2 287.872 497.418 281.689 497.361 281.632L498.131 280.749C498.444 281.005 505.511 287.388 502.804 302.404C501.521 309.413 503.601 312.348 506.251 316.053C509.015 319.928 512.435 324.772 512.691 335.913C513.232 358.451 521.837 391.732 528.305 396.291L527.622 397.26Z" fill="white"/>
<path fill-rule="evenodd" clip-rule="evenodd" d="M530.329 399.881C529.389 399.881 528.391 399.767 527.28 399.539C524.516 398.969 522.693 397.516 521.866 395.18C519.929 389.652 524.431 380.648 528.078 376.288C528.135 376.231 534.233 368.766 533.606 358.423C533.492 356.685 533.292 355.089 533.15 353.664C532.694 349.561 532.352 346.626 534.119 344.632C535.657 342.894 538.649 342.153 544.12 342.124C553.694 342.067 557.483 338.107 560.504 334.915C561.815 333.576 563.04 332.294 564.521 331.496C569.28 328.875 574.323 328.504 576.517 330.584C577.572 331.553 578.455 333.491 576.717 337.109C575.15 340.386 573.098 342.466 571.474 344.147C569.251 346.398 567.798 347.908 568.539 350.872C568.739 351.556 568.938 352.268 569.137 352.98C570.619 358.024 572.3 363.751 563.638 367.626C561.815 368.452 560.133 369.108 558.68 369.678C552.64 372.043 548.992 373.496 544.889 382.158C544.091 383.839 543.379 385.435 542.724 386.973C539.475 394.325 537.025 399.881 530.329 399.881ZM565.091 332.522C563.752 333.263 562.641 334.402 561.387 335.742C558.167 339.104 554.207 343.264 544.12 343.321C539.105 343.321 536.284 343.976 535.002 345.429C533.606 346.997 533.891 349.732 534.318 353.522C534.489 354.946 534.66 356.571 534.774 358.337C535.458 369.165 529.246 376.744 528.99 377.058C525.371 381.36 521.296 389.908 523.006 394.809C523.661 396.69 525.172 397.915 527.508 398.371C535.657 400.024 537.908 394.923 541.612 386.489C542.296 384.95 543.009 383.355 543.806 381.645C548.138 372.556 552.155 370.96 558.224 368.595C559.706 367.997 561.359 367.37 563.154 366.543C570.847 363.096 569.479 358.337 567.998 353.322C567.798 352.581 567.57 351.869 567.399 351.157C566.459 347.538 568.311 345.686 570.619 343.321C572.272 341.611 574.152 339.702 575.663 336.596C576.432 334.944 577.087 332.721 575.719 331.439C573.924 329.729 569.337 330.214 565.091 332.522Z" fill="url(#paint2_linear_2027_6202)"/>
<path d="M527.421 406.748L526.225 406.691C526.282 405.551 527.763 379.252 538.334 371.558C549.931 363.096 553.579 354.006 555.317 347.908C557.368 340.728 567.825 338.819 568.253 338.733L568.481 339.902C568.367 339.93 558.309 341.782 556.485 348.25C554.69 354.519 550.929 363.836 539.047 372.499C528.932 379.878 527.421 406.463 527.421 406.748Z" fill="url(#paint3_linear_2027_6202)"/>
<path d="M551.557 274.138C544.063 271.545 545.63 286.02 542.439 296.734C539.276 307.447 507.135 301.407 520.641 328.219C534.118 355.032 503.573 337.195 512.691 360.588C521.809 383.982 513.489 409.028 523.405 402.645C533.321 396.291 528.99 366.828 539.276 363.324C549.59 359.819 551.272 355.744 541.071 346.227C530.87 336.682 567.827 327.251 558.709 308.017C549.591 288.812 560.247 277.102 551.557 274.138Z" fill="url(#paint4_linear_2027_6202)"/>
<path d="M527.993 401.534C527.052 397.516 518.989 362.269 526.511 358.024C533.15 354.263 532.979 339.645 531.953 325.854C531.042 313.631 546.713 307.932 547.397 307.704L547.796 308.815C547.625 308.872 532.295 314.457 533.15 325.769C534.204 339.93 534.318 354.975 527.109 359.05C521.382 362.269 526.653 390.621 529.161 401.249L527.993 401.534Z" fill="white"/>
<path d="M545.087 388.968L534.345 429.657H510.382L499.668 388.968H545.087Z" fill="url(#paint5_linear_2027_6202)"/>
<path d="M545.087 388.968C545.087 388.968 521.466 393.413 521.466 429.657H510.382L499.668 388.968H545.087Z" fill="url(#paint6_linear_2027_6202)"/>
<path d="M436.699 391.846C436.699 391.846 437.725 395.863 437.867 396.462C438.01 397.06 444.307 395.408 444.307 395.408V390.507C444.307 390.507 437.44 391.19 436.699 391.846Z" fill="#EEA886"/>
<path d="M437.744 395.949C437.744 395.949 435.978 398.628 434.126 399.91C432.274 401.192 425.15 402.873 424.125 404.098C423.355 404.982 422.329 408.344 433.755 406.805C441.876 405.723 445.894 406.007 446.606 404.583C447.347 403.158 444.298 394.98 444.298 394.98C444.298 394.98 442.56 395.921 437.744 395.949Z" fill="#112230"/>
<path d="M435.382 506.163L412.559 273.654L415.436 273.369L438.26 505.878L435.382 506.163Z" fill="#F0C141"/>
<path d="M481.876 501.632L459.053 269.152L461.931 268.867L484.754 501.347L481.876 501.632Z" fill="#F0C141"/>
<path d="M414.66 280.322L414.375 277.444L460.877 272.913L461.162 275.791L414.66 280.322Z" fill="#F0C141"/>
<path d="M416.753 301.948L416.496 299.07L462.998 294.54L463.283 297.418L416.753 301.948Z" fill="#F0C141"/>
<path d="M418.851 323.575L418.566 320.697L465.097 316.195L465.382 319.044L418.851 323.575Z" fill="#F0C141"/>
<path d="M420.972 345.202L420.688 342.324L467.189 337.822L467.474 340.7L420.972 345.202Z" fill="#F0C141"/>
<path d="M423.044 366.828L422.787 363.951L469.289 359.449L469.574 362.326L423.044 366.828Z" fill="#F0C141"/>
<path d="M425.152 388.455L424.867 385.577L471.397 381.075L471.682 383.953L425.152 388.455Z" fill="#F0C141"/>
<path d="M427.261 410.11L426.977 407.233L473.478 402.702L473.763 405.58L427.261 410.11Z" fill="#F0C141"/>
<path d="M429.333 431.737L429.076 428.859L475.578 424.329L475.863 427.207L429.333 431.737Z" fill="#F0C141"/>
<path d="M431.455 453.364L431.17 450.486L477.7 445.956L477.985 448.833L431.455 453.364Z" fill="#F0C141"/>
<path d="M433.553 474.991L433.268 472.113L479.769 467.611L480.054 470.489L433.553 474.991Z" fill="#F0C141"/>
<path d="M435.635 496.617L435.379 493.739L481.881 489.237L482.166 492.115L435.635 496.617Z" fill="#F0C141"/>
<path d="M428.94 307.277C428.94 307.277 424.352 324.316 423.155 330.385C422.101 335.685 419.964 349.789 419.679 353.151C419.366 356.514 433.214 388.997 434.638 394.866L447.233 392.843C447.233 392.843 433.954 359.021 437.402 351.527C442.56 340.358 443.243 340.671 447.29 331.468C451.364 322.264 460.653 322.065 463.161 304.969C463.161 304.969 432.302 301.863 428.94 307.277Z" fill="#152B3D"/>
<path d="M451.339 224.616C451.339 224.616 442.962 221.482 439.115 227.864C435.268 234.219 435.639 246.984 439.856 248.551C444.073 250.118 450.399 249.292 452.564 245.303C454.73 241.313 456.667 235.558 456.582 231.711C456.468 227.864 453.533 225.727 451.339 224.616Z" fill="#EEA886"/>
<path d="M441.249 248.152C441.249 248.152 441.591 250.346 441.021 251.429C440.48 252.511 451.564 252.54 451.564 252.54C451.564 252.54 452.447 246.67 454.157 241.684C455.866 236.726 441.249 248.152 441.249 248.152Z" fill="#EEA886"/>
<path d="M454.161 241.684C454.161 241.684 453.392 242.966 450.286 242.453C447.151 241.969 443.333 237.837 442.051 237.381C440.74 236.925 440.712 236.156 440.712 236.156L439.914 237.324L438.518 237.438C438.518 237.438 439.8 233.706 437.891 232.195C435.982 230.685 439.857 220.171 449.858 223.676C449.858 223.676 457.552 225.784 457.267 230.172C457.01 234.532 455.871 239.518 454.161 241.684Z" fill="#3A3F47"/>
<path d="M440.936 234.56C441.107 233.82 442.959 231.74 443.671 233.962C444.384 236.213 442.589 239.233 441.591 238.977C440.594 238.721 440.48 236.413 440.936 234.56Z" fill="#EEA886"/>
<path d="M472.826 280.122C472.74 281.233 471.487 282.43 470.632 283C470.09 283.37 469.435 283.598 468.723 283.627L468.238 283.655L459.548 283.94C459.548 283.94 453.08 263.054 465.19 255.105C465.588 255.133 473.681 270.064 472.826 280.122Z" fill="#1D3B54"/>
<path d="M446.605 404.583C445.892 406.007 441.875 405.723 433.754 406.805C431.532 407.119 429.794 407.233 428.426 407.204L427.941 402.332C430.306 401.505 433.07 400.651 434.125 399.91C435.977 398.628 437.743 395.949 437.743 395.949C442.559 395.921 444.297 394.98 444.297 394.98C444.297 394.98 447.346 403.158 446.605 404.583Z" fill="#112230"/>
<path d="M441.252 250.802C441.252 250.802 448.062 249.206 451.909 250.488L452.478 251.03C452.478 251.03 453.647 253.281 449.259 253.48C444.871 253.651 437.947 253.993 441.252 250.802Z" fill="#1D3B54"/>
<path d="M467.891 410.623C467.891 410.623 468.916 414.641 469.059 415.239C469.201 415.866 475.498 414.185 475.498 414.185V409.284C475.498 409.284 468.631 409.968 467.891 410.623Z" fill="#EEA886"/>
<path d="M463.164 304.968C463.164 304.968 465.472 314.457 466.127 323.945C466.783 332.693 467.923 342.295 468.834 351.47C469.832 361.699 472.738 378.197 472.881 383.668C473.023 389.139 477.639 413.017 477.639 413.017L465.871 414.356C465.871 414.356 458.206 372.157 456.411 367.854C454.616 363.523 445.641 332.778 445.356 329.331C445.042 325.883 463.164 304.968 463.164 304.968Z" fill="#152B3D"/>
<path d="M468.95 414.726C468.95 414.726 467.183 417.405 465.331 418.687C463.479 419.969 456.355 421.65 455.33 422.875C454.56 423.759 453.534 427.149 464.96 425.611C473.081 424.5 477.099 424.785 477.811 423.36C478.552 421.964 475.503 413.757 475.503 413.757C475.503 413.757 473.765 414.698 468.95 414.726Z" fill="#112230"/>
<path d="M426.553 328.533C425.555 328.39 429.06 298.529 428.775 296.648C428.604 295.395 428.633 285.707 428.718 279.637L427.607 273.511C427.008 273.084 426.182 272.571 425.213 272.001C423.703 271.118 421.794 270.121 419.686 269.066C419.913 267.613 420.084 266.473 420.17 265.818C420.683 260.433 424.302 257.583 426.353 256.387C427.179 255.902 427.778 255.674 427.778 255.674C428.557 255.351 429.316 255.038 430.057 254.734C434.987 252.682 441.255 250.802 441.255 250.802H451.314C451.314 250.802 458.978 252.312 463.537 254.193C464.126 254.44 464.677 254.743 465.19 255.104L463.822 283.798C463.822 283.798 463.822 283.807 463.822 283.826C463.822 283.826 463.822 283.836 463.822 283.855C463.195 287.901 462.569 292.659 462.341 295.993C462.255 297.361 463.822 304.683 464.62 311.408L467.47 327.478C467.47 327.478 465.817 334.146 426.553 328.533Z" fill="#1D3B54"/>
<path d="M375.145 235.444C375.145 235.444 375.744 236.185 376.171 236.384C376.171 236.384 376.94 236.669 377.482 236.925C377.681 236.982 377.824 237.068 377.909 237.125C378.279 237.353 379.049 237.98 380.132 238.293C381.214 238.607 386.087 239.718 386.087 239.718L387.198 236.84L388.024 234.503C388.024 234.503 383.522 228.662 382.554 228.263C382.459 228.225 382.364 228.197 382.269 228.178C381.414 227.893 380.673 228.064 380.189 227.978C380.018 227.95 378.308 227.75 377.938 228.121C377.425 228.605 377.282 229.175 377.368 229.631C377.368 229.631 376.399 230.657 376.313 231.597C376.313 231.597 375.402 232.509 375.658 233.706C375.658 233.706 374.803 234.731 375.145 235.444Z" fill="#EEA886"/>
<path d="M427.293 273.284C426.154 272.571 424.7 271.574 419.685 269.066C410.311 264.393 398.743 255.874 396.549 254.649C393.158 252.768 382.473 239.718 382.473 239.718C383.043 237.752 388.114 233.82 388.114 233.82C388.114 233.82 404.299 249.149 407.832 251.03C410.881 252.654 425.897 254.307 430.057 254.734C430.713 254.791 431.111 254.82 431.111 254.82C435.443 260.718 429.715 274.851 427.293 273.284Z" fill="#1D3B54"/>
<path d="M187.717 210.227H163.412V207.235H187.717V210.227Z" fill="#D6D6D6"/>
<path d="M193.616 204.899H157.543V201.907H193.616V204.899Z" fill="#D6D6D6"/>
<path d="M181.904 160.819C181.904 164.295 179.083 167.087 175.635 167.087C172.159 167.087 169.338 164.295 169.338 160.819C169.338 157.342 172.159 154.55 175.635 154.55C179.083 154.55 181.904 157.342 181.904 160.819Z" fill="#2576BC"/>
<path d="M186.947 181.277V193.188C183.471 194.755 179.624 195.638 175.578 195.638C171.503 195.638 167.657 194.755 164.209 193.188V181.277C164.209 174.98 169.281 169.908 175.578 169.908C181.847 169.908 186.947 174.98 186.947 181.277Z" fill="#2576BC"/>
<path fill-rule="evenodd" clip-rule="evenodd" d="M175.578 196.379C171.504 196.379 167.572 195.553 163.896 193.871C153.809 189.284 147.312 179.197 147.312 168.142C147.312 152.556 159.992 139.876 175.578 139.876C191.136 139.876 203.816 152.556 203.816 168.142C203.816 179.197 197.319 189.284 187.232 193.871C183.557 195.553 179.653 196.379 175.578 196.379ZM175.578 141.386C160.819 141.386 148.794 153.382 148.794 168.142C148.794 178.599 154.977 188.173 164.494 192.504C167.999 194.099 171.703 194.897 175.578 194.897C179.425 194.897 183.158 194.099 186.634 192.504C196.179 188.173 202.334 178.599 202.334 168.142C202.334 153.382 190.31 141.386 175.578 141.386Z" fill="url(#paint7_linear_2027_6202)"/>
<path d="M220.939 194.897H218.973V149.592H220.939V194.897Z" fill="#C9E0FF"/>
<path d="M229.972 194.897H228.006V149.592H229.972V194.897Z" fill="#C9E0FF"/>
<path d="M239.032 194.897H237.066V149.592H239.032V194.897Z" fill="#C9E0FF"/>
<path d="M248.066 194.897H246.1V149.592H248.066V194.897Z" fill="#C9E0FF"/>
<path d="M257.126 194.897H255.16V149.592H257.126V194.897Z" fill="#C9E0FF"/>
<path d="M266.159 194.897H264.193V149.592H266.159V194.897Z" fill="#C9E0FF"/>
<path d="M275.22 194.897H273.254V149.592H275.22V194.897Z" fill="#C9E0FF"/>
<path d="M284.253 194.897H282.287V149.592H284.253V194.897Z" fill="#C9E0FF"/>
<path d="M293.313 194.897H291.318V149.592H293.313V194.897Z" fill="#C9E0FF"/>
<path d="M302.347 194.897H300.381V149.592H302.347V194.897Z" fill="#C9E0FF"/>
<path d="M311.378 194.897H309.412V149.592H311.378V194.897Z" fill="#C9E0FF"/>
<path d="M320.439 194.897H318.473V149.592H320.439V194.897Z" fill="#C9E0FF"/>
<path d="M220.939 194.897H218.973V163.127H220.939V194.897Z" fill="#2576BC"/>
<path d="M229.972 194.897H228.006V174.097H229.972V194.897Z" fill="#2576BC"/>
<path d="M239.032 194.897H237.066V156.117H239.032V194.897Z" fill="#2576BC"/>
<path d="M248.066 194.897H246.1V183.614H248.066V194.897Z" fill="#2576BC"/>
<path d="M257.126 194.897H255.16V172.245H257.126V194.897Z" fill="#2576BC"/>
<path d="M266.159 194.897H264.193V163.754H266.159V194.897Z" fill="#2576BC"/>
<path d="M275.22 194.897H273.254V174.809H275.22V194.897Z" fill="#2576BC"/>
<path d="M284.253 194.897H282.287V160.876H284.253V194.897Z" fill="#2576BC"/>
<path d="M293.313 194.897H291.318V176.205H293.313V194.897Z" fill="#2576BC"/>
<path d="M302.347 194.897H300.381V165.007H302.347V194.897Z" fill="#2576BC"/>
<path d="M311.378 194.897H309.412V179.938H311.378V194.897Z" fill="#2576BC"/>
<path d="M320.439 194.897H318.473V165.007H320.439V194.897Z" fill="#2576BC"/>
<path fill-rule="evenodd" clip-rule="evenodd" d="M386.775 195.581C376.517 199.257 365.433 195.951 358.765 188.116C357.17 186.235 355.831 184.126 354.833 181.761C354.605 181.249 354.396 180.717 354.206 180.166C352.24 174.752 352.269 169.11 353.865 163.981C356.173 156.63 361.786 150.39 369.622 147.597C372.186 146.657 374.836 146.173 377.429 146.116C388.171 145.774 398.372 152.327 402.19 163.013C406.948 176.262 400.024 190.851 386.775 195.581ZM396.178 165.15C393.328 157.143 385.692 152.242 377.628 152.498C375.662 152.555 373.696 152.897 371.759 153.61C365.889 155.69 361.672 160.363 359.962 165.89C358.765 169.737 358.737 173.954 360.19 178.029C360.342 178.428 360.504 178.827 360.675 179.225C361.444 180.992 362.441 182.588 363.638 183.984C368.624 189.854 376.944 192.333 384.638 189.597C394.554 186.035 399.739 175.094 396.178 165.15Z" fill="#2576BC"/>
<path d="M359.961 165.89L353.863 163.981C356.171 156.63 361.785 150.39 369.62 147.597C372.185 146.657 374.835 146.173 377.428 146.116L377.627 152.498C375.661 152.555 373.695 152.897 371.757 153.61C365.888 155.69 361.671 160.363 359.961 165.89Z" fill="#1A598C"/>
<path d="M360.675 179.226L354.833 181.761C354.605 181.249 354.396 180.717 354.206 180.166C352.24 174.752 352.269 169.11 353.865 163.981L359.962 165.89C358.765 169.737 358.737 173.954 360.19 178.029C360.342 178.428 360.504 178.827 360.675 179.226Z" fill="#2273B5"/>
<path d="M358.766 188.116C357.17 186.235 355.831 184.126 354.834 181.761L360.675 179.226C361.445 180.992 362.442 182.588 363.639 183.984L358.766 188.116Z" fill="#3788CC"/>
<path fill-rule="evenodd" clip-rule="evenodd" d="M429.315 192.618C427.378 196.692 423.189 198.972 418.943 198.63C417.918 198.544 416.92 198.316 415.923 197.918C415.714 197.842 415.496 197.747 415.268 197.633C413.131 196.635 411.478 194.954 410.452 193.017C408.971 190.167 408.771 186.719 410.253 183.614C410.737 182.588 411.364 181.676 412.105 180.878C415.154 177.63 420.055 176.576 424.3 178.57C429.572 181.078 431.794 187.346 429.315 192.618ZM423.161 180.964C419.998 179.454 416.322 180.251 414.043 182.702C413.473 183.272 413.017 183.956 412.646 184.725C411.535 187.061 411.678 189.654 412.789 191.791C413.558 193.245 414.783 194.498 416.408 195.268C416.559 195.344 416.721 195.41 416.892 195.467C417.633 195.752 418.402 195.923 419.143 195.98C422.334 196.236 425.497 194.555 426.922 191.478C428.802 187.546 427.121 182.844 423.161 180.964Z" fill="#2576BC"/>
<path d="M412.789 191.791L410.452 193.017C408.971 190.167 408.771 186.719 410.253 183.614C410.737 182.588 411.364 181.676 412.105 180.878L414.043 182.702C413.473 183.272 413.017 183.956 412.646 184.725C411.535 187.061 411.678 189.654 412.789 191.791Z" fill="#1A598C"/>
<path d="M416.891 195.467L415.922 197.918C415.713 197.842 415.495 197.747 415.267 197.633C413.13 196.635 411.477 194.954 410.451 193.017L412.788 191.791C413.557 193.245 414.782 194.498 416.406 195.268C416.558 195.344 416.72 195.41 416.891 195.467Z" fill="#2273B5"/>
<path fill-rule="evenodd" clip-rule="evenodd" d="M415.268 165.52C411.193 163.611 408.942 159.394 409.284 155.148C409.341 154.151 409.597 153.125 409.968 152.128C410.063 151.919 410.158 151.71 410.253 151.501C411.279 149.336 412.931 147.683 414.897 146.657C417.718 145.176 421.194 145.005 424.3 146.458C425.326 146.971 426.238 147.598 427.007 148.338C430.255 151.387 431.31 156.26 429.315 160.505C426.836 165.777 420.539 168.028 415.268 165.52ZM426.922 159.394C428.432 156.203 427.634 152.527 425.212 150.248C424.614 149.706 423.93 149.222 423.161 148.851C420.824 147.74 418.231 147.883 416.123 148.994C414.641 149.763 413.416 151.017 412.646 152.613C412.57 152.783 412.494 152.945 412.418 153.097C412.133 153.838 411.962 154.607 411.905 155.376C411.649 158.539 413.359 161.702 416.407 163.155C420.34 165.007 425.07 163.326 426.922 159.394Z" fill="#2576BC"/>
<path d="M416.122 148.994L414.896 146.657C417.717 145.176 421.194 145.005 424.299 146.458C425.325 146.971 426.237 147.598 427.006 148.339L425.211 150.248C424.613 149.706 423.929 149.222 423.16 148.851C420.823 147.74 418.23 147.883 416.122 148.994Z" fill="#2576BC"/>
<path d="M412.417 153.097L409.967 152.128C410.062 151.919 410.157 151.71 410.252 151.501C411.278 149.336 412.93 147.683 414.896 146.657L416.121 148.994C414.64 149.763 413.415 151.017 412.645 152.612C412.569 152.783 412.493 152.945 412.417 153.097Z" fill="#2273B5"/>
<path d="M409.285 155.148C409.342 154.151 409.599 153.125 409.969 152.128L412.419 153.097C412.135 153.838 411.964 154.607 411.907 155.376L409.285 155.148Z" fill="#3788CC"/>
<path d="M416.549 205.582H396.859V205.183H416.15V197.746H416.549V205.582Z" fill="#E2F3FE"/>
<path d="M379.479 205.582H353.863V205.183H379.08V193.017H379.479V205.582Z" fill="#E2F3FE"/>
<path d="M371.472 203.445H353.863V201.109H371.472V203.445Z" fill="#2576BC"/>
<path d="M407.231 203.445H396.859V201.109H407.231V203.445Z" fill="#2576BC"/>
<path d="M125.829 276.674C125.829 276.674 118.392 276.418 116.027 282.515C113.634 288.613 115.429 293.286 116.113 295.508C117.879 301.321 118.022 303.43 117.167 306.934C116.426 310.04 115.714 311.636 114.831 314.542C113.976 317.449 115.429 317.107 115.543 317.335C115.685 317.534 144.692 320.213 144.692 320.213C144.692 320.213 143.923 313.944 141.871 312.462C139.848 311.009 137.825 310.724 139.364 304.512C140.931 298.272 141.9 295.394 141.045 290.892C140.019 285.65 139.392 282.401 134.491 278.954C131.528 276.902 128.194 276.446 125.829 276.674Z" fill="#3B3B40"/>
<path d="M117.253 481.829C117.253 481.829 121.356 487.898 123.009 489.38C123.009 489.38 126.656 490.719 127.027 493.284C127.397 495.848 127.34 497.558 123.009 497.672C118.649 497.814 115.829 497.016 115.031 494.395C114.233 491.773 112.495 489.978 112.495 489.978V495.478H111.526C111.526 495.478 111.27 490.149 111.213 489.18C111.156 488.212 110.5 484.45 112.58 482.798C114.632 481.117 117.253 481.829 117.253 481.829Z" fill="#CCCCCC"/>
<path d="M137.74 476.957C137.74 476.957 138.452 478.638 139.792 480.376C140.76 481.658 143.809 486.929 145.177 487.3C146.516 487.67 150.676 488.383 151.018 490.719C151.389 493.027 151.588 494.68 147.485 494.879C143.382 495.05 140.704 495.307 138.737 492.429C136.8 489.551 133.694 487.471 133.694 487.471V494.965H132.098C132.098 494.965 131.358 487.157 130.93 486.616C130.503 486.075 129.391 480.091 133.181 476.957C136.971 473.851 137.74 476.957 137.74 476.957Z" fill="#CCCCCC"/>
<path d="M114.516 364.52C114.516 364.52 109.9 371.359 108.504 379.309C107.108 387.287 108.761 413.929 108.704 417.861C108.647 421.821 104.971 431.623 105.712 439.031C106.453 446.468 112.579 482.798 112.579 482.798L117.252 481.829C117.252 481.829 116.796 444.16 117.252 441.055C117.708 437.949 118.62 426.58 118.819 425.298C118.99 424.015 130.444 390.336 130.444 384.58C130.444 378.824 126.968 355.146 114.516 364.52Z" fill="#EEA886"/>
<path d="M140.475 367.142C140.475 367.142 148.966 399.539 149.963 404.041C150.961 408.515 152.442 412.219 152.442 414.128C152.442 418.544 150.79 425.668 150.79 425.668L137.74 476.957L132.326 477.811C132.326 477.811 135.46 446.297 135.603 440.228C135.774 434.188 140.446 425.554 139.506 422.99C138.594 420.425 124.775 390.849 124.775 390.849C124.775 390.849 114.289 357.739 140.475 367.142Z" fill="#EEA886"/>
<path d="M123.009 489.38C123.009 489.38 118.792 491.716 116.113 488.696C113.834 486.16 112.58 482.798 112.58 482.798L117.253 481.829L123.009 489.38Z" fill="#EEA886"/>
<path d="M145.177 487.3C145.177 487.3 141.501 488.212 140.105 487.3C138.68 486.388 133.922 478.296 132.326 477.811C132.326 477.811 133.865 474.706 137.74 476.957C137.74 476.957 144.123 485.961 145.177 487.3Z" fill="#EEA886"/>
<path d="M152.442 414.128C152.442 414.128 132.781 422.562 103.547 422.562C103.547 422.562 106.624 378.254 110.87 368.709C115.144 359.164 141.13 369.678 141.13 369.678C141.13 369.678 152.442 406.15 152.442 414.128Z" fill="#912E31"/>
<path d="M174.524 349.932C174.524 349.932 156.602 351.47 152.185 349.504C149.963 348.535 146.942 344.432 144.178 339.93C143.704 339.17 143.238 338.401 142.782 337.622C139.392 331.838 136.656 326.168 136.656 326.168C136.656 326.168 128.45 315.853 137.169 312.177C137.169 312.177 140.56 313.118 142.668 316.366C144.777 319.614 146.429 324.515 146.828 326.111C147.256 327.735 154.265 341.896 154.693 342.295C155.149 342.694 159.537 342.438 162.956 342.751C168.484 343.264 174.325 343.577 174.325 343.577L174.524 349.932Z" fill="#912E31"/>
<path d="M143.523 335.571C141.3 340.671 143.38 342.352 142.383 347.453C141.357 352.553 141.015 367.085 141.186 369.934C141.386 372.755 116.083 375.661 110.213 370.504C110.213 370.504 112.18 359.477 115.77 352.639C116.425 351.328 116.112 346.199 115.428 344.432C115.2 343.891 114.345 341.811 113.291 339.189C113.291 339.189 113.291 339.18 113.291 339.161C112.151 336.426 110.783 333.092 109.644 330.299C108.276 326.966 107.222 324.373 107.222 324.373C107.222 324.373 106.338 316.167 109.758 313.517C112.721 311.209 120.785 310.382 122.238 309.898C123.663 309.385 127.88 309.157 130.843 309.613C130.843 309.613 135.373 311.75 136.969 312.063C138.536 312.377 144.634 320.327 145.717 323.204C146.771 326.111 145.717 330.442 143.523 335.571Z" fill="#912E31"/>
<path d="M133.009 304.37C133.009 304.37 132.097 312.69 132.297 315.397C132.297 315.397 128.507 320.013 123.15 309.784C123.15 309.784 124.489 305.681 122.78 299.925C121.099 294.169 133.009 304.37 133.009 304.37Z" fill="#EEA886"/>
<path d="M118.619 310.61C118.619 310.61 121.839 320.184 130.757 319.5C139.648 318.788 134.975 311.408 134.975 311.408C134.975 311.408 132.752 310.126 132.125 310.012C131.498 309.898 123.292 309.556 123.292 309.556L118.619 310.61Z" fill="#EEA886"/>
<path d="M175.92 353.55H154.72C153.78 353.55 153.039 352.809 153.039 351.869V320.127C153.039 319.187 153.78 318.446 154.72 318.446H175.92C176.86 318.446 177.601 319.187 177.601 320.127V351.869C177.601 352.809 176.86 353.55 175.92 353.55Z" fill="#434343"/>
<path d="M175.95 351.157H154.693V320.811H175.95V351.157Z" fill="white"/>
<path d="M146.886 346.37C146.886 346.37 147.712 346.398 148.225 345.999C149.137 345.316 149.479 343.606 151.074 343.748C152.698 343.862 153.439 348.906 153.04 349.875C152.641 350.815 150.39 351.299 147.085 350.644C143.78 349.989 146.886 346.37 146.886 346.37Z" fill="#EEA886"/>
<path d="M150.533 343.777C150.533 343.777 152.841 342.979 155.519 342.409C157.856 341.896 160.648 341.725 160.933 342.153C161.218 342.58 158.653 342.979 156.345 343.634C154.237 344.233 154.75 344.461 154.75 344.461C154.75 344.461 154.607 344.375 157.001 344.147C159.594 343.919 162.272 343.919 162.529 344.432C162.671 344.689 162.586 344.86 161.645 345.088C162.215 345.088 162.301 345.23 162.301 345.458C162.415 346.626 158.625 347.538 157.143 347.909C158.283 347.652 159.166 347.567 158.739 348.336C158.283 349.219 152.869 350.33 150.96 350.872C148.88 351.499 150.533 343.777 150.533 343.777Z" fill="#EEA886"/>
<path d="M174.809 325.171C174.809 325.171 178.314 324.373 179.425 326.054C180.565 327.735 180.593 329.9 180.308 330.898C180.023 331.895 179.14 334.488 177.943 333.947C174.154 332.237 174.809 325.171 174.809 325.171Z" fill="#EEA886"/>
<path d="M178.257 325.228C178.257 325.228 177.772 322.863 176.832 323.262C175.892 323.66 176.746 325.228 176.746 325.228H178.257Z" fill="#EEA886"/>
<path d="M174.811 325.171C174.811 325.171 174.868 323.831 177.318 325.228C179.768 326.595 174.811 325.171 174.811 325.171Z" fill="#EEA886"/>
<path d="M142.783 337.622C142.783 337.622 145.462 331.297 145.576 329.872C145.547 330.698 145.348 335.827 144.179 339.93C143.704 339.17 143.239 338.401 142.783 337.622Z" fill="#A33131"/>
<path d="M131.899 346.37L120.814 326.852C120.814 326.852 124.69 346.341 127.624 346.997C130.559 347.652 131.899 346.37 131.899 346.37Z" fill="#A33131"/>
<path d="M110.217 313.146C110.217 313.146 104.889 315.796 106.741 322.663C108.564 329.53 110.388 331.496 112.154 334.061C113.807 336.483 117.169 343.008 117.597 343.72C117.996 344.461 122.07 355.117 125.803 356.314C129.564 357.539 148.057 351.641 148.455 352.297C148.883 352.923 148.427 345.8 148.427 345.8C148.427 345.8 139.85 346.427 137.97 346.313C134.864 346.113 129.935 347.367 128.766 344.689C127.37 341.554 122.355 331.268 121.842 329.587C121.301 327.877 115.146 311.408 110.217 313.146Z" fill="#912E31"/>
<path d="M131.643 280.578C131.643 280.578 139.849 285.935 137.171 298.871C134.521 311.835 124.833 304.712 123.779 303.971C122.724 303.259 119.476 295.138 119.334 291.605C119.22 288.271 117.481 274.936 131.643 280.578Z" fill="#EEA987"/>
<path d="M131.073 283.171C130.219 282.914 127.341 288.499 125.774 289.867C124.235 291.263 121.357 294.711 121.072 298.5C120.816 302.29 117.596 290.237 118.707 285.735C119.818 281.262 121.3 274.708 131.301 279.894C141.303 285.108 138.71 294.426 138.71 294.426C138.71 294.426 135.404 284.453 131.073 283.171Z" fill="#3B3B40"/>
<path d="M124.15 292.118C123.893 290.579 120.502 289.297 120.559 291.576C120.588 293.884 122.468 296.563 123.523 296.392C124.577 296.221 124.377 293.514 124.15 292.118Z" fill="#EEA987"/>
<path d="M124.547 304.513C124.632 304.627 126.57 308.388 132.554 309.328C132.668 307.875 132.867 306.08 132.867 306.08C132.867 306.08 128.564 307.533 124.547 304.513Z" fill="#A87860"/>
<path d="M164.583 325.997H157.117V324.43H164.583V325.997Z" fill="#E6E6E6"/>
<path d="M169.028 328.675L167.974 326.937C167.888 326.795 167.917 326.624 168.059 326.538C168.202 326.453 168.401 326.481 168.487 326.624L169.228 327.849L171.222 326.681C171.365 326.595 171.536 326.652 171.621 326.795C171.707 326.937 171.678 327.108 171.536 327.194L169.028 328.675Z" fill="#2576BC"/>
<path fill-rule="evenodd" clip-rule="evenodd" d="M169.739 331.354C167.63 331.354 165.949 329.644 165.949 327.535C165.949 325.455 167.63 323.746 169.739 323.746C171.819 323.746 173.529 325.455 173.529 327.535C173.529 329.644 171.819 331.354 169.739 331.354ZM169.739 324.287C167.944 324.287 166.491 325.74 166.491 327.535C166.491 329.331 167.944 330.812 169.739 330.812C171.534 330.812 172.987 329.331 172.987 327.535C172.987 325.74 171.534 324.287 169.739 324.287Z" fill="#2576BC"/>
<path d="M169.028 338.278L167.974 336.54C167.888 336.397 167.917 336.226 168.059 336.112C168.202 336.027 168.401 336.084 168.487 336.226L169.228 337.451L171.222 336.283C171.365 336.198 171.536 336.226 171.621 336.369C171.707 336.511 171.678 336.71 171.536 336.796L169.028 338.278Z" fill="#2576BC"/>
<path fill-rule="evenodd" clip-rule="evenodd" d="M169.739 340.928C167.63 340.928 165.949 339.218 165.949 337.138C165.949 335.029 167.63 333.348 169.739 333.348C171.819 333.348 173.529 335.029 173.529 337.138C173.529 339.218 171.819 340.928 169.739 340.928ZM169.739 333.89C167.944 333.89 166.491 335.343 166.491 337.138C166.491 338.933 167.944 340.386 169.739 340.386C171.534 340.386 172.987 338.933 172.987 337.138C172.987 335.343 171.534 333.89 169.739 333.89Z" fill="#2576BC"/>
<path d="M164.583 329.103H157.117V327.536H164.583V329.103Z" fill="#E6E6E6"/>
<path d="M164.583 336.226H157.117V334.659H164.583V336.226Z" fill="#E6E6E6"/>
<path d="M164.583 339.36H157.117V337.793H164.583V339.36Z" fill="#E6E6E6"/>
<path d="M182.701 362.64C182.701 362.64 180.336 363.552 178.513 363.723C176.689 363.922 174.039 365.831 173.355 366.657C172.671 367.484 167.172 373.41 167.058 374.18C166.973 374.921 168.483 374.664 168.996 374.066C169.48 373.467 174.324 368.709 174.324 368.709C174.324 368.709 168.91 374.721 168.939 375.434C168.967 376.146 169.794 376.744 170.791 376.117C170.791 376.117 171.589 377.742 172.985 376.317L175.806 373.524C175.806 373.524 174.609 375.234 176.176 374.75C177.002 374.493 179.795 370.932 180.564 370.419C181.362 369.877 184.325 365.347 184.325 365.347L182.701 362.64Z" fill="#EEA886"/>
<path d="M201.935 479.293C201.935 479.293 199.884 483.425 198.63 484.223C197.376 485.02 190.395 491.83 188.971 492.457C187.546 493.084 182.93 493.939 182.987 496.133C183.044 498.299 194.897 497.615 197.205 496.817C199.513 496.019 203.36 490.776 204.927 490.833C206.494 490.89 205.924 497.244 205.924 497.244H207.605C207.605 497.244 209.714 490.52 209.657 488.155C209.6 485.79 208.289 479.293 208.289 479.293H201.935Z" fill="#162D40"/>
<path d="M230.799 476.757C230.799 476.757 229.887 480.803 228.405 482.228C226.924 483.653 221.339 489.665 219.943 490.32C218.518 490.976 215.811 491.432 214.956 492.457C214.13 493.483 214.614 496.532 219.943 496.19C225.243 495.877 226.981 495.934 228.234 494.851C229.488 493.797 233.563 490.121 234.788 490.007V495.877H236.241C236.241 495.877 238.806 488.183 237.894 484.935C236.953 481.687 237.01 477.27 237.01 477.27L230.799 476.757Z" fill="#162D40"/>
<path d="M228.689 302.29C228.689 302.29 231.111 308.53 229.231 313.346C229.231 313.346 238.121 312.776 238.434 311.778C238.776 310.753 238.092 301.407 239.318 298.643C240.543 295.907 228.689 302.29 228.689 302.29Z" fill="#EEA886"/>
<path d="M244.759 385.891C244.759 385.891 244.246 387.258 244.332 388.256C244.389 389.054 243.961 390.364 243.791 391.048C243.62 391.76 243.221 394.866 243.335 395.636C243.363 395.949 244.36 397.744 244.389 398.4C244.389 399.026 244.246 400.337 244.816 400.309C245.386 400.28 245.842 399.112 245.842 399.112C245.842 399.112 245.871 399.71 246.383 399.824C247.352 400.052 247.78 399.568 247.78 399.568C247.78 399.568 248.207 400.138 248.634 400.138C249.603 400.138 249.974 399.653 249.974 399.653C249.974 399.653 250.458 399.91 251.085 399.767C251.911 399.568 252.111 398.77 252.111 398.77C252.111 398.77 253.193 398.77 253.393 398.229C253.621 397.659 253.478 397.146 253.535 396.661C253.564 396.205 252.795 392.188 250.942 389.595C249.119 386.974 250.031 383.697 250.031 383.697L244.759 385.891Z" fill="#EEA886"/>
<path fill-rule="evenodd" clip-rule="evenodd" d="M241.998 407.774L240.887 400.195C240.716 398.969 241.571 397.83 242.768 397.659L254.82 395.921C256.046 395.721 257.185 396.576 257.356 397.801L258.468 405.38C258.639 406.606 257.784 407.745 256.559 407.945L244.534 409.683C243.309 409.854 242.169 408.999 241.998 407.774ZM242.996 399.14C242.597 399.197 242.312 399.568 242.369 399.967L243.48 407.574C243.537 407.973 243.907 408.258 244.306 408.201L256.359 406.435C256.758 406.378 257.014 406.007 256.957 405.608L255.875 398.029C255.818 397.63 255.447 397.345 255.02 397.402L242.996 399.14Z" fill="#0E1E2B"/>
<path d="M232.823 440.513L277.273 434.074L272.571 401.705L228.121 408.144L232.823 440.513Z" fill="#EDDAD3"/>
<path d="M245.617 398.77C245.617 398.77 244.905 395.18 245.702 394.211C246.5 393.242 246.842 394.524 246.842 394.524C246.842 394.524 246.5 393.271 247.469 392.872C248.466 392.473 248.78 394.011 248.78 394.011C248.78 394.011 248.78 392.986 249.862 392.957C250.974 392.929 250.945 394.239 250.945 394.239C250.945 394.239 251.743 392.786 252.626 393.84C254.08 395.607 253.396 398.229 253.396 398.229C253.396 398.229 253.196 398.827 252.113 398.77C252.113 398.77 251.686 400.337 249.976 399.653C249.976 399.653 248.58 400.85 247.782 399.568C247.782 399.568 246.187 400.793 245.617 398.77Z" fill="#DB9C7C"/>
<path d="M227.836 311.237C227.836 311.237 222.593 313.032 220.228 313.545C217.863 314.058 212.905 316.338 213.304 324.943C213.703 333.548 215.185 341.013 215.726 344.717C216.267 348.421 215.925 357.824 215.042 362.412C215.042 362.412 227.608 365.489 242.425 362.412C242.425 362.412 239.803 354.605 239.86 352.582C239.917 350.558 248.608 333.947 249.007 331.325C249.406 328.704 251.172 317.135 247.183 314.599C243.222 312.035 240.003 312.377 238.321 311.237C236.64 310.097 230.286 310.411 227.836 311.237Z" fill="#912E31"/>
<path d="M221.11 313.346C221.11 313.346 215.326 313.175 211.223 322.264C207.12 331.325 206.094 336.654 205.154 337.936C204.213 339.218 200.908 344.176 197.688 346.598C194.469 349.02 181.02 362.668 181.02 362.668L184.724 367.398C184.724 367.398 204.071 353.664 206.094 351.299C208.117 348.963 220.369 331.126 221.11 328.447C221.823 325.769 227.493 316.11 221.11 313.346Z" fill="#912E31"/>
<path d="M255.845 358.451C255.873 362.07 252.112 386.86 252.112 386.86L244.96 387.144C244.96 387.144 247.268 362.583 248.066 356.941C248.294 355.26 248.094 352.667 247.696 349.846C247.439 348.051 247.097 346.17 246.755 344.375C245.758 339.389 244.647 335.029 244.647 335.029C244.647 335.029 238.207 313.887 248.095 315.426C248.095 315.426 251.485 319.5 252.597 325.854C253.708 332.209 254.819 341.697 254.62 345.43C254.42 349.162 255.816 355.773 255.845 358.451Z" fill="#912E31"/>
<path d="M215.043 362.412C215.043 362.412 212.764 367.826 212.564 369.193C212.365 370.561 205.185 388.398 204.7 393.613C204.187 398.884 202.677 412.988 202.136 415.011C201.594 417.034 203.332 426.038 203.617 428.061C203.874 430.056 203.76 463.023 201.338 479.293C201.338 479.293 206.98 481.715 211.282 479.293C211.282 479.293 218.406 453.877 218.007 439.202C217.608 424.557 215.727 418.374 218.007 412.447C220.286 406.52 233.621 388.769 234.961 386.888C236.3 385.007 244.734 374.607 236.756 363.324C228.777 352.04 215.043 362.412 215.043 362.412Z" fill="#1D3B54"/>
<path d="M242.596 410.566C241.884 415.268 242.625 421.451 244.107 438.69C245.588 455.9 241.514 476.729 241.514 476.729C236.413 478.495 230.515 476.729 230.515 476.729C230.658 475.532 230.515 434.786 230.515 431.139C230.515 427.52 229.461 423.388 229.204 419.228C229.005 416.379 227.694 411.136 226.213 405.808C225.757 404.184 225.301 402.588 224.845 401.021C224.598 400.147 224.351 399.292 224.104 398.456C222.024 391.191 219.203 363.153 219.203 363.153C219.203 363.153 234.818 350.558 242.426 362.412C250.005 374.237 246.13 382.842 245.845 384.324C245.588 385.805 243.28 405.865 242.596 410.566Z" fill="#1D3B54"/>
<path d="M213.817 340.386C213.817 340.386 214.872 361.557 209.828 373.781C209.828 373.781 226.468 379.337 247.953 373.781C247.953 373.781 243.365 358.594 243.736 356.286C244.106 353.949 252.141 327.194 249.662 320.897C247.183 314.599 216.296 320.526 213.817 340.386Z" fill="#912E31"/>
<path d="M233.676 277.729C229.915 277.301 220.227 278.07 220.968 292.659C221.709 307.248 227.009 306.393 232.337 304.826C237.637 303.287 243.962 292.004 243.962 288.955C243.962 285.935 244.361 278.954 233.676 277.729Z" fill="#EEA886"/>
<path d="M221.51 285.992C221.51 285.992 225.727 291.377 229.973 292.659C229.973 292.659 233.25 298.5 238.949 299.982C238.949 299.982 251.087 288.357 240.858 279.609C230.657 270.861 221.425 281.518 221.51 285.992Z" fill="#FCCCA2"/>
<path d="M229.176 290.636C229.318 289.838 231.085 288.214 232.452 290.038C233.82 291.861 231.313 296.107 230.372 296.107C229.432 296.107 228.634 293.685 229.176 290.636Z" fill="#EEA886"/>
<path d="M242.594 282.259C242.879 281.775 252.111 277.643 254.02 286.305C255.929 294.996 246.583 305.082 244.959 309.414C243.335 313.745 244.959 324.031 244.959 324.031C244.959 324.031 240.087 318.759 238.377 313.346C236.525 307.39 235.898 292.403 242.594 282.259Z" fill="#FCCCA2"/>
<path d="M236.099 385.264C235.985 385.549 228.206 402.788 226.211 405.808C225.756 404.184 225.3 402.588 224.844 401.021C224.844 401.021 235.842 385.634 236.099 385.264Z" fill="#162D40"/>
<path d="M249.32 332.208C249.32 332.208 249.092 343.207 247.696 349.846C247.44 348.051 247.098 346.17 246.756 344.375C246.813 344.119 249.064 333.947 249.32 332.208Z" fill="#AB3434"/>
<path d="M50.6913 486.303C50.6913 486.303 53.0278 489.836 56.3331 490.605C59.6384 491.346 62.8582 492.571 62.8866 494.651C62.9151 496.731 53.3697 497.957 49.5801 495.876C43.9668 492.742 43.3969 493.682 42.7701 492.115C42.1432 490.548 43.5109 486.36 43.4824 485.875C43.4254 485.248 50.6913 486.303 50.6913 486.303Z" fill="#353A3D"/>
<path d="M50.3203 484.593C50.3203 484.593 50.7477 486.274 50.6907 486.303C50.6052 486.36 43.2538 487.243 43.4818 485.875C43.6527 484.764 43.9092 483.567 43.9092 483.567L50.3203 484.593Z" fill="#81807E"/>
<path d="M25.903 486.075C25.903 486.075 27.5841 489.437 30.4335 490.605C33.5108 491.83 35.9613 493.227 35.9043 495.25C35.8473 497.273 28.4104 499.324 22.9966 495.449C19.6059 492.97 18.5231 492.97 17.9532 491.431C17.4118 489.864 18.922 485.847 18.8935 485.362C18.865 484.764 25.903 486.075 25.903 486.075Z" fill="#353A3D"/>
<path d="M25.9886 484.337C25.9886 484.337 25.9601 486.046 25.9031 486.075C25.8461 486.103 18.7227 486.702 18.8937 485.362C19.0361 484.308 19.5775 483.026 19.5775 483.026L25.9886 484.337Z" fill="#81807E"/>
<path d="M52.0881 381.588C52.0881 381.588 58.6987 410.766 60.2088 419.656C61.4911 427.207 62.5168 435.099 61.89 440.542C61.1206 447.295 51.5752 482.342 51.9741 484.308C52.3731 486.303 41.9443 484.621 41.9443 484.621C41.9443 484.621 49.2387 445.557 47.7856 438.291C46.7028 432.905 37.2714 397.117 35.8182 398.941C34.365 400.793 32.5699 432.734 31.5156 438.034C30.4329 443.334 27.1561 485.22 27.1561 485.22C27.1561 485.22 19.8047 486.303 17.8386 484.621C17.8386 484.621 16.9553 448.862 17.6392 438.918C17.8956 435.128 13.1942 393.527 19.2063 376.744C22.3976 367.911 52.0881 381.588 52.0881 381.588Z" fill="#2D3133"/>
<path d="M80.8652 355.06C76.1638 354.405 61.3185 360.987 59.9793 360.474C59.039 360.132 56.8735 353.066 55.3063 347.681C54.3945 344.518 53.7107 341.953 53.5967 341.754V341.725C53.5967 341.868 53.8532 344.29 53.5397 347.481C53.5397 347.681 53.4258 347.738 53.3973 347.966C53.3973 348.022 53.3688 348.193 53.3403 348.222C52.9984 349.02 52.8844 350.501 52.5709 351.727C52.0866 353.55 51.8301 356.029 52.0011 358.594V358.622C52.0011 358.641 52.0011 358.66 52.0011 358.679C52.0011 358.736 52.0011 358.793 52.0011 358.85C52.0011 358.869 52.0011 358.888 52.0011 358.907C51.8586 363.495 52.2005 368.452 52.3145 371.102C52.514 375.177 51.1748 377.001 51.1463 377.058L49.7216 376.858L48.6958 376.716L47.2996 376.516L41.9428 375.775L39.9767 375.49L39.5208 375.433L36.1301 374.949L26.5277 373.61L25.4734 373.467L25.0175 373.382L21.3988 372.869L19.7747 372.641H19.7462C19.7462 372.641 18.3785 362.782 18.2645 357.454C18.179 352.553 15.5576 342.609 15.1302 341.042C15.1112 341.023 15.1017 341.004 15.1017 340.985C15.1017 340.985 15.1017 340.975 15.1017 340.956C15.0827 340.918 15.0732 340.89 15.0732 340.871C15.0732 340.871 15.0732 340.861 15.0732 340.842C15.0732 340.823 15.0732 340.814 15.0732 340.814C15.0732 340.814 7.20892 349.048 5.69875 352.638C5.24285 353.721 3.81816 356.713 2.02306 360.303C0.769333 357.967 0 356.314 0 355.915C0 355.858 0 355.801 0 355.744C0.113975 352.183 3.84666 337.793 6.78152 328.362C9.06101 323.774 11.0271 320.07 11.6539 319.614C12.6227 318.93 16.6403 317.221 20.1451 315.825C20.278 315.768 20.4015 315.72 20.5155 315.682C20.8384 315.549 21.1519 315.426 21.4558 315.312C21.6268 315.236 21.7882 315.169 21.9402 315.112C22.0162 315.093 22.0921 315.065 22.1681 315.027C22.2441 315.008 22.3106 314.979 22.3676 314.941C24.1342 314.286 25.4734 313.802 25.7583 313.802C25.7963 313.802 25.8628 313.802 25.9578 313.802C26.0718 313.802 26.2237 313.811 26.4137 313.83C28.5792 313.944 35.0473 314.542 37.1558 314.742C37.5263 314.799 37.7542 314.799 37.7827 314.827C37.8017 314.827 37.8112 314.827 37.8112 314.827C37.8112 314.827 38.78 315.255 40.2902 315.939V315.967L40.4326 316.024C41.3444 316.423 42.3702 316.993 43.4814 317.591C45.647 318.788 48.0404 320.156 50.035 321.096C51.9726 322.036 54.651 323.318 54.8789 323.518L64.7378 351.955L81.8625 348.82L80.8652 355.06Z" fill="#DECBC4"/>
<path d="M51.1463 377.058C51.1463 377.058 51.8587 377.941 52.0866 381.588C52.0866 381.588 22.3677 378.112 19.2049 376.744C19.2049 376.744 19.0909 372.727 19.7462 372.641C20.4871 372.584 51.1463 377.058 51.1463 377.058Z" fill="#495055"/>
<path d="M25.8145 312.804C25.8999 317.449 34.9324 320.013 34.9324 320.013C34.9324 320.013 38.6936 315.283 37.8103 314.827C37.4399 314.628 37.2974 313.944 37.2689 313.146C37.212 312.377 37.2689 311.551 37.2974 311.038C37.3259 310.696 37.3544 310.496 37.3544 310.496C37.3544 310.496 36.0722 309.129 34.4196 307.504C31.5702 304.655 27.6096 301.036 27.6096 302.461C27.6096 302.556 27.6191 302.651 27.6381 302.746C28.3504 305.994 25.8145 312.804 25.8145 312.804Z" fill="#EEA886"/>
<path d="M26.5566 373.382C26.5566 373.382 25.9012 377.457 25.8443 378.511L24.4766 378.254C24.4766 378.254 24.847 373.923 25.0749 373.211L26.5566 373.382Z" fill="#353A3D"/>
<path d="M48.6677 376.602C48.6677 376.602 49.1806 380.306 49.2091 381.702L47.7559 381.531C47.7559 381.531 47.4424 376.887 47.2715 376.402L48.6677 376.602Z" fill="#353A3D"/>
<path d="M29.293 305.966C29.293 305.994 29.6919 306.564 30.3472 307.39C31.7149 309.129 34.3364 311.978 37.2712 313.146C37.2142 312.377 37.2712 311.551 37.2997 311.038C37.6036 311.019 37.9076 310.981 38.2115 310.924C37.4137 309.499 36.2454 308.046 36.2454 308.046L34.4218 307.504L29.293 305.966Z" fill="#A77860"/>
<path d="M27.5507 302.547C28.3201 304.228 29.0609 305.481 29.2889 305.966C29.4028 306.279 29.8017 306.792 30.3431 307.39C31.8248 308.986 34.5887 311.095 37.2956 311.038C37.5995 311.019 37.9035 310.981 38.2074 310.924C39.2902 310.667 40.6009 310.154 41.3132 308.758C46.955 297.731 42.8804 288.727 42.8804 288.727C42.8804 288.727 27.4653 284.368 25.0433 289.012C23.3622 292.26 25.6986 298.557 27.5507 302.547Z" fill="#EEA886"/>
<path d="M42.8834 288.727C42.8834 288.727 44.3081 288.642 44.65 285.935C44.992 283.256 44.3081 282.515 44.3081 282.515C44.3081 282.515 37.9255 279.837 35.646 279.495C33.3665 279.153 27.7532 278.811 26.4425 280.321C26.4425 280.321 23.2512 279.58 22.3679 284.88C20.9717 293.314 27.0694 301.492 27.0694 301.492C27.0694 301.492 27.0124 295.993 28.2376 295.252C29.4629 294.54 30.4886 296.278 30.4886 296.278L32.9961 296.705C32.9961 296.705 29.2064 288.556 33.7369 288.271C38.2674 287.958 40.2905 289.183 42.8834 288.727Z" fill="#D6D6D6"/>
<path d="M30.4322 294.084C30.2043 291.633 25.8162 290.722 26.1012 293.258C26.3861 295.793 28.5516 298.244 29.5489 298.158C30.5462 298.073 30.6032 295.907 30.4322 294.084Z" fill="#EEA886"/>
<path fill-rule="evenodd" clip-rule="evenodd" d="M0 355.915C0 355.858 0 355.801 0 355.744C0.0854812 352.211 1.8236 337.993 4.75846 328.59C6.21164 324.031 6.52507 320.84 7.06645 320.441C8.03524 319.757 16.5549 317.221 20.1451 315.825C20.278 315.768 20.4015 315.72 20.5155 315.682C20.8384 315.549 21.1519 315.426 21.4558 315.312C21.6268 315.236 21.7882 315.169 21.9402 315.112C22.0162 315.093 22.0921 315.065 22.1681 315.027C22.2441 315.008 22.3106 314.979 22.3676 314.941C22.3866 314.96 22.3961 314.97 22.3961 314.97C22.7095 315.34 24.3906 317.221 26.3852 320.07C30.1179 325.37 34.9618 333.947 34.221 341.896C33.993 344.432 33.7081 348.08 33.1952 352.183C33.1572 352.544 33.1192 352.895 33.0812 353.237C32.9483 354.187 32.8153 355.155 32.6823 356.143C32.5873 356.713 32.4924 357.302 32.3974 357.91C31.4001 364.036 28.3228 368.253 25.5589 373.268C25.5399 373.306 25.5209 373.344 25.5019 373.382C25.4829 373.401 25.4734 373.429 25.4734 373.467C25.3974 373.562 25.3309 373.667 25.2739 373.781C25.179 373.952 25.084 374.123 24.989 374.294C24.951 374.408 24.9035 374.512 24.8465 374.607C24.3052 375.633 23.7923 376.659 23.3079 377.685C22.985 378.368 22.6715 379.043 22.3676 379.708C22.3296 379.765 22.2916 379.831 22.2536 379.907C22.2536 379.907 21.7407 381.075 21.1139 382.585C20.8574 383.155 20.601 383.754 20.3445 384.352C20.1736 384.77 20.0026 385.178 19.8316 385.577C19.6797 385.938 19.5277 386.28 19.3757 386.603C19.0623 387.344 18.8059 387.971 18.6064 388.427C18.4639 388.74 18.3785 388.968 18.35 389.053C17.4097 391.418 16.7258 393.242 16.3839 394.097C16.2699 394.439 16.2129 394.638 16.2129 394.638L6.69603 389.367C4.90092 388.484 5.84122 383.611 6.52507 381.702C7.06645 380.135 7.86428 378.425 8.77608 376.687C9.137 375.965 9.51691 375.244 9.91582 374.522C6.92398 369.307 3.93214 363.951 2.02306 360.303C0.769333 357.967 0 356.314 0 355.915ZM15.1302 341.042C15.1112 341.023 15.1017 341.004 15.1017 340.985C15.1017 340.985 15.1017 340.975 15.1017 340.956C15.1017 340.937 15.0922 340.909 15.0732 340.871C15.0732 340.871 15.0732 340.861 15.0732 340.842C15.0732 340.842 10.4287 348.051 10.7991 354.348C10.8561 355.317 11.8249 357.796 13.2211 360.959C13.734 362.098 14.3324 363.352 14.9307 364.663C14.9497 364.606 14.9687 364.549 14.9877 364.492C15.871 362.326 16.4694 360.303 16.4694 358.537C16.4694 358.537 16.0705 344.774 15.1302 341.042Z" fill="#3C4145"/>
<path d="M87.1933 345.43L65.6521 350.131L55.3943 323.29C55.1664 323.119 52.2315 321.523 50.2654 320.583C48.2424 319.643 45.6779 318.446 43.3984 317.392C42.3157 316.879 41.2899 316.423 40.4351 316.024L40.3496 316.081C40.3496 316.081 41.6318 320.298 43.2845 330.869C43.3415 331.23 43.3984 331.591 43.4554 331.952C43.4554 331.99 43.4554 332.038 43.4554 332.095C43.4934 332.322 43.5314 332.569 43.5694 332.835C43.5694 332.854 43.5789 332.883 43.5979 332.921C43.6169 333.092 43.6359 333.263 43.6549 333.434C43.7119 333.852 43.7784 334.27 43.8543 334.687C44.5667 339.845 45.6209 348.592 46.5897 357.425C47.3876 364.378 49.1542 371.53 49.724 376.858C49.838 377.912 50.0945 379.309 50.4649 380.876C50.5029 381.047 50.5409 381.227 50.5789 381.417C52.1745 388.142 55.2803 397.659 55.2803 397.659L56.1636 396.832L58.842 394.382C59.4689 393.812 59.6969 392.929 59.4404 392.131C57.9587 387.372 52.9438 370.476 52.0035 358.622C52.0035 358.603 52.0035 358.594 52.0035 358.594C51.7186 354.861 52.8299 351.356 53.4567 348.022C53.4567 348.06 53.4662 348.089 53.4852 348.108C53.9981 349.59 54.5965 351.185 55.1948 352.752C56.762 356.913 58.3861 360.816 59.07 361.044C60.5802 361.614 88.9314 353.864 89.1309 352.752L87.1933 345.43Z" fill="#3C4145"/>
<path d="M24.8744 326.538L29.2909 328.989L27.4103 330.926L32.3967 357.91C33.4225 351.584 33.8784 345.572 34.2203 341.896C35.3885 329.616 23.1362 315.796 22.3669 314.941C21.797 315.169 21.1702 315.426 20.4863 315.682L24.8744 326.538Z" fill="#51565C"/>
<path d="M40.2891 315.967C40.2891 315.967 41.9417 321.324 43.8508 334.687C44.5631 339.845 45.6174 348.592 46.5862 357.425L47.6119 332.151L45.5319 329.872L47.384 327.564L43.3949 317.392C42.3121 316.879 41.2863 316.423 40.4315 316.024L40.2891 315.967Z" fill="#51565C"/>
<path d="M22.168 314.998L25.8152 312.804C25.8152 312.804 25.9006 314.799 34.9332 320.013L32.3687 327.222L22.168 314.998Z" fill="#F5E2D9"/>
<path d="M37.3271 313.802C37.3271 313.802 37.1846 315.967 34.9336 320.013L39.92 326.538L40.2904 315.967L37.3271 313.802Z" fill="#F5E2D9"/>
<path d="M34.907 320.013C34.907 320.013 33.9382 323.888 34.2801 324.971C34.2801 324.971 36.4171 325.74 37.9558 324.772C37.9558 324.772 36.873 322.065 34.907 320.013Z" fill="#323657"/>
<path d="M39.9188 375.918C40.4602 373.183 39.9473 364.976 39.9188 364.634L39.4629 364.663C39.4629 364.748 40.0043 373.154 39.4629 375.804L39.9188 375.918Z" fill="#AD9F99"/>
<path d="M36.1296 374.636C36.1296 374.636 40.4891 375.177 41.9423 375.519L41.7429 380.42L36.0156 379.822L36.1296 374.636Z" fill="#69737A"/>
<path d="M37.0704 324.43C37.0704 324.43 41.9713 336.739 41.1735 350.53C40.3472 364.834 38.9795 369.991 38.9795 369.991L35.9876 373.781L34.6484 369.136C34.6484 369.136 38.6945 350.929 36.0731 333.177C35.6172 329.957 34.9049 323.888 34.9049 323.888L37.0704 324.43Z" fill="#323657"/>
<path d="M22.4256 382.585C22.4256 382.585 23.4799 384.694 24.5341 385.036C25.5599 385.378 27.0986 387.087 27.0986 387.087L19.7187 390.963C19.7187 390.963 17.7526 387.116 17.6671 384.694C17.5817 382.244 22.4256 382.585 22.4256 382.585Z" fill="#EEA886"/>
<path d="M23.1365 382.785L23.6209 383.782C23.6209 383.782 18.9479 387.201 17.6657 387.401L17.2383 386.09L23.1365 382.785Z" fill="#DECBC4"/>
<path d="M23.6214 382.842C23.6214 382.842 20.1166 385.72 17.1533 387.059L7.20898 369.193L12.3664 359.221C12.3664 359.221 23.3934 381.075 23.6214 382.842Z" fill="#3C4145"/>
<path d="M53.4826 348.108C53.9955 349.59 54.5938 351.185 55.1922 352.753C55.3347 350.929 55.3632 349.248 55.3062 347.681C55.0782 338.42 52.1719 333.548 52.1719 333.548C52.8272 335.172 53.1407 338.648 53.3116 341.782C53.4826 345.088 53.4541 348.023 53.4541 348.023L53.4826 348.108Z" fill="#2D3133"/>
<path d="M8.77539 376.687L16.7251 386.29L9.91514 374.522C9.51623 375.243 9.13631 375.965 8.77539 376.687Z" fill="#2D3133"/>
<path d="M66.5594 364.634H84.9379C86.1916 364.634 87.2744 363.78 87.5878 362.554L95.5661 329.587C95.965 327.878 94.6828 326.225 92.9161 326.225H74.5377C73.284 326.225 72.1727 327.08 71.8878 328.305L63.9095 361.272C63.4821 362.982 64.7928 364.634 66.5594 364.634Z" fill="#D9C9C2"/>
<path d="M89.0415 355.488C88.1297 354.633 86.3916 354.149 84.9099 353.18C83.4282 352.183 84.6535 351.157 84.6535 351.157C83.1433 350.615 83.3143 349.932 83.4852 349.447C83.7702 348.82 85.4228 348.991 85.4228 348.991C85.4228 348.991 83.9411 348.678 83.3143 348.393C82.7159 348.137 82.9153 347.054 83.8556 346.712C84.7959 346.37 88.6711 347.31 88.6711 347.31C88.6711 347.31 88.0442 347.025 86.1351 346.057C84.2261 345.116 83.7987 344.233 84.9384 343.834C85.7077 343.549 87.2464 344.147 90.1812 346.113C92.4038 347.595 92.2043 347.795 92.2043 347.795C92.2043 347.795 90.0958 356.457 89.0415 355.488Z" fill="#EEA886"/>
<defs>
<linearGradient id="paint0_linear_2027_6202" x1="132.268" y1="103.026" x2="447.552" y2="103.026" gradientUnits="userSpaceOnUse">
<stop stop-color="#FF9F55"/>
<stop offset="1" stop-color="#FFD255"/>
</linearGradient>
<linearGradient id="paint1_linear_2027_6202" x1="475.76" y1="247.309" x2="537.989" y2="247.309" gradientUnits="userSpaceOnUse">
<stop stop-color="#40D5E6"/>
<stop offset="1" stop-color="#5577FF"/>
</linearGradient>
<linearGradient id="paint2_linear_2027_6202" x1="521.412" y1="329.24" x2="577.7" y2="329.24" gradientUnits="userSpaceOnUse">
<stop stop-color="#40D5E6"/>
<stop offset="1" stop-color="#5577FF"/>
</linearGradient>
<linearGradient id="paint3_linear_2027_6202" x1="526.22" y1="338.742" x2="568.469" y2="338.742" gradientUnits="userSpaceOnUse">
<stop stop-color="#40D5E6"/>
<stop offset="1" stop-color="#5577FF"/>
</linearGradient>
<linearGradient id="paint4_linear_2027_6202" x1="510.967" y1="273.824" x2="560.159" y2="273.824" gradientUnits="userSpaceOnUse">
<stop stop-color="#40D5E6"/>
<stop offset="1" stop-color="#5577FF"/>
</linearGradient>
<linearGradient id="paint5_linear_2027_6202" x1="499.671" y1="388.979" x2="545.076" y2="388.979" gradientUnits="userSpaceOnUse">
<stop stop-color="#FF9340"/>
<stop offset="1" stop-color="#FFCE45"/>
</linearGradient>
<linearGradient id="paint6_linear_2027_6202" x1="499.671" y1="388.979" x2="545.076" y2="388.979" gradientUnits="userSpaceOnUse">
<stop stop-color="#C97332"/>
<stop offset="1" stop-color="#FFCE45"/>
</linearGradient>
<linearGradient id="paint7_linear_2027_6202" x1="203.82" y1="148.648" x2="203.82" y2="207.437" gradientUnits="userSpaceOnUse">
<stop stop-color="#D3DAE0"/>
<stop offset="1" stop-color="white"/>
</linearGradient>
</defs>
</svg>
