<svg xmlns="http://www.w3.org/2000/svg" width="28" height="28" viewBox="0 0 28 28" fill="none">
  <path fill-rule="evenodd" clip-rule="evenodd" d="M4.01852 8.16658C3.73215 8.16658 3.5 7.64425 3.5 6.99992C3.5 6.35559 3.73215 5.83325 4.01852 5.83325H12.3148C12.6012 5.83325 12.8333 6.35559 12.8333 6.99992C12.8333 7.64425 12.6012 8.16658 12.3148 8.16658H4.01852ZM4.66667 15.1666C4.02233 15.1666 3.5 14.6443 3.5 13.9999C3.5 13.3556 4.02233 12.8333 4.66667 12.8333H23.3333C23.9777 12.8333 24.5 13.3556 24.5 13.9999C24.5 14.6443 23.9777 15.1666 23.3333 15.1666H4.66667ZM15 20.9998C15 21.552 15.2239 21.9998 15.5 21.9998H23.5C23.7761 21.9998 24 21.552 24 20.9998C24 20.4475 23.7761 19.9998 23.5 19.9998H15.5C15.2239 19.9998 15 20.4475 15 20.9998Z" fill="#222B45"/>
  <mask id="mask0_230_843" style="mask-type:luminance" maskUnits="userSpaceOnUse" x="3" y="5" width="22" height="17">
    <path fill-rule="evenodd" clip-rule="evenodd" d="M4.01852 8.16658C3.73215 8.16658 3.5 7.64425 3.5 6.99992C3.5 6.35559 3.73215 5.83325 4.01852 5.83325H12.3148C12.6012 5.83325 12.8333 6.35559 12.8333 6.99992C12.8333 7.64425 12.6012 8.16658 12.3148 8.16658H4.01852ZM4.66667 15.1666C4.02233 15.1666 3.5 14.6443 3.5 13.9999C3.5 13.3556 4.02233 12.8333 4.66667 12.8333H23.3333C23.9777 12.8333 24.5 13.3556 24.5 13.9999C24.5 14.6443 23.9777 15.1666 23.3333 15.1666H4.66667ZM15 20.9998C15 21.552 15.2239 21.9998 15.5 21.9998H23.5C23.7761 21.9998 24 21.552 24 20.9998C24 20.4475 23.7761 19.9998 23.5 19.9998H15.5C15.2239 19.9998 15 20.4475 15 20.9998Z" fill="white"/>
  </mask>
  <g mask="url(#mask0_230_843)">
  </g>
</svg>