<svg width="17" height="17" viewBox="0 0 17 17" fill="none" xmlns="http://www.w3.org/2000/svg">
<g id="instagram 1" clip-path="url(#clip0_1754_487)">
<path id="Vector" d="M12.3351 0.391113H4.94741C2.54301 0.391113 0.586945 2.34718 0.586945 4.75158V12.1394C0.586945 14.5437 2.54301 16.4998 4.94741 16.4998H12.3353C14.7395 16.4998 16.6956 14.5437 16.6956 12.1394V4.75158C16.6956 2.34718 14.7395 0.391113 12.3351 0.391113V0.391113ZM15.7513 12.1394C15.7513 14.023 14.2188 15.5554 12.3351 15.5554H4.94741C3.06374 15.5554 1.5313 14.023 1.5313 12.1394V4.75158C1.5313 2.8679 3.06374 1.33547 4.94741 1.33547H12.3353C14.2188 1.33547 15.7513 2.8679 15.7513 4.75158V12.1394Z" fill="white"/>
<path id="Vector_2" d="M8.64128 4.04077C6.21255 4.04077 4.23669 6.01662 4.23669 8.44536C4.23669 10.8741 6.21255 12.85 8.64128 12.85C11.07 12.85 13.0459 10.8741 13.0459 8.44536C13.0459 6.01662 11.07 4.04077 8.64128 4.04077ZM8.64128 11.9056C6.7334 11.9056 5.18105 10.3534 5.18105 8.44536C5.18105 6.53747 6.7334 4.98513 8.64128 4.98513C10.5493 4.98513 12.1015 6.53747 12.1015 8.44536C12.1015 10.3534 10.5493 11.9056 8.64128 11.9056Z" fill="white"/>
<path id="Vector_3" d="M13.1512 2.47656C12.4335 2.47656 11.8497 3.06046 11.8497 3.77807C11.8497 4.4958 12.4335 5.07969 13.1512 5.07969C13.8689 5.07969 14.4528 4.4958 14.4528 3.77807C14.4528 3.06033 13.8689 2.47656 13.1512 2.47656ZM13.1512 4.13521C12.9543 4.13521 12.794 3.97495 12.794 3.77807C12.794 3.58106 12.9543 3.42092 13.1512 3.42092C13.3482 3.42092 13.5085 3.58106 13.5085 3.77807C13.5085 3.97495 13.3482 4.13521 13.1512 4.13521Z" fill="white"/>
</g>
<defs>
<clipPath id="clip0_1754_487">
<rect width="16.1087" height="16.1087" fill="white" transform="translate(0.586945 0.391113)"/>
</clipPath>
</defs>
</svg>
