<svg width="627" height="418" viewBox="0 0 627 418" fill="none" xmlns="http://www.w3.org/2000/svg">
<path d="M154.861 118.804H24.2773V191.82H154.861V118.804Z" fill="#FAFAFA"/>
<path d="M154.861 191.82C154.861 191.82 154.861 191.369 154.861 190.508C154.861 189.647 154.861 188.359 154.861 186.696C154.861 183.352 154.861 178.419 154.819 172.091C154.819 159.45 154.769 141.217 154.735 118.804L154.903 118.971L24.3278 119.021L24.5451 118.804C24.5451 144.628 24.5451 169.324 24.5451 191.82L24.3445 191.62L118.252 191.72L145.23 191.77H152.428H154.284H154.928H154.309H152.478H145.322L118.386 191.829L24.2442 192.029H24.0352V191.82C24.0352 169.324 24.0352 144.628 24.0352 118.804V118.587H24.2692L154.844 118.637H155.011V118.804C154.969 141.267 154.944 159.534 154.919 172.199C154.919 178.503 154.919 183.418 154.878 186.754C154.878 188.426 154.878 189.68 154.878 190.541C154.878 191.402 154.861 191.82 154.861 191.82Z" fill="#E0E0E0"/>
<path d="M58.6874 136.209H40.2285V154.668H58.6874V136.209Z" fill="#E0E0E0"/>
<path d="M84.0519 138.776C84.0519 138.893 79.7381 138.993 74.4295 138.993C69.1209 138.993 64.7988 138.893 64.7988 138.776C64.7988 138.659 69.1126 138.559 74.4295 138.559C79.7465 138.559 84.0519 138.684 84.0519 138.776Z" fill="#E0E0E0"/>
<path d="M145.523 145.464C145.523 145.581 127.457 145.682 105.169 145.682C82.8815 145.682 64.7988 145.581 64.7988 145.464C64.7988 145.347 82.8731 145.247 105.169 145.247C127.465 145.247 145.523 145.322 145.523 145.464Z" fill="#E0E0E0"/>
<path d="M118.368 152.888C118.368 153.005 106.489 153.105 91.8421 153.105C77.1954 153.105 65.3242 153.005 65.3242 152.888C65.3242 152.771 77.1954 152.67 91.8421 152.67C106.489 152.67 118.368 152.762 118.368 152.888Z" fill="#E0E0E0"/>
<path d="M135.525 182.148H46.3238C44.0548 182.146 41.8795 181.243 40.2759 179.638C38.6723 178.032 37.7715 175.856 37.7715 173.587C37.7715 171.319 38.6725 169.144 40.2764 167.54C41.8803 165.936 44.0556 165.035 46.3238 165.035H135.525C136.649 165.034 137.762 165.254 138.8 165.684C139.839 166.113 140.783 166.743 141.578 167.537C142.373 168.331 143.003 169.274 143.434 170.312C143.864 171.351 144.086 172.463 144.086 173.587C144.086 174.711 143.864 175.825 143.434 176.863C143.004 177.902 142.373 178.846 141.578 179.64C140.783 180.435 139.84 181.066 138.801 181.496C137.762 181.926 136.649 182.148 135.525 182.148Z" fill="#E0E0E0"/>
<path d="M74.5293 174.791H72.339L71.921 175.802H70.8008L72.9075 171.087H73.9859L76.0759 175.802H74.9473L74.5293 174.791ZM74.1866 173.955L73.4342 172.149L72.7319 173.963L74.1866 173.955Z" fill="white"/>
<path d="M80.674 172.793C80.674 173.846 79.838 174.465 78.6258 174.465H77.6727V175.769H76.5859V171.054H78.6258C79.8798 171.087 80.674 171.739 80.674 172.793ZM79.5705 172.793C79.5705 172.275 79.2277 171.957 78.5589 171.957H77.6727V173.629H78.584C79.2277 173.612 79.5705 173.311 79.5705 172.793Z" fill="white"/>
<path d="M85.5314 172.793C85.5314 173.846 84.7456 174.465 83.4916 174.465H82.5385V175.769H81.4434V171.054H83.4916C84.7456 171.087 85.5314 171.739 85.5314 172.793ZM84.4279 172.793C84.4279 172.275 84.0935 171.957 83.4247 171.957H82.5385V173.629H83.4247C84.0935 173.612 84.4362 173.311 84.4362 172.793H84.4279Z" fill="white"/>
<path d="M86.3086 171.087H87.4038V174.908H89.7696V175.802H86.3086V171.087Z" fill="white"/>
<path d="M92.1598 174.131V175.803H91.0647V174.131L89.2422 171.104H90.3959L91.6582 173.194L92.9206 171.104H93.9907L92.1598 174.131Z" fill="white"/>
<path d="M100.68 171.087V175.802H99.785L97.4359 172.935V175.802H96.3574V171.087H97.2603L99.6011 173.947V171.087H100.68Z" fill="white"/>
<path d="M101.499 173.445C101.467 172.927 101.592 172.41 101.857 171.964C102.122 171.517 102.515 171.16 102.986 170.94C103.456 170.719 103.982 170.645 104.495 170.727C105.008 170.809 105.484 171.043 105.863 171.4C106.241 171.756 106.503 172.217 106.616 172.724C106.728 173.232 106.686 173.761 106.494 174.244C106.302 174.726 105.97 175.14 105.54 175.432C105.109 175.723 104.602 175.878 104.082 175.878C103.751 175.897 103.419 175.849 103.106 175.735C102.794 175.622 102.508 175.446 102.267 175.218C102.025 174.99 101.832 174.715 101.7 174.411C101.568 174.106 101.5 173.777 101.499 173.445ZM105.554 173.445C105.547 173.156 105.455 172.874 105.29 172.637C105.124 172.399 104.892 172.216 104.623 172.11C104.353 172.003 104.058 171.979 103.775 172.04C103.492 172.1 103.233 172.243 103.031 172.45C102.828 172.657 102.691 172.919 102.637 173.203C102.583 173.488 102.614 173.782 102.726 174.049C102.839 174.316 103.027 174.544 103.268 174.704C103.51 174.864 103.793 174.95 104.082 174.95C104.28 174.956 104.477 174.921 104.66 174.847C104.844 174.773 105.01 174.662 105.148 174.52C105.287 174.379 105.394 174.21 105.464 174.025C105.534 173.84 105.564 173.643 105.554 173.445Z" fill="white"/>
<path d="M114.457 171.087L112.91 175.802H111.74L110.703 172.609L109.633 175.802H108.471L106.916 171.087H108.053L109.115 174.431L110.227 171.087H111.238L112.317 174.431L113.412 171.087H114.457Z" fill="white"/>
<path d="M157.62 274.292H44.752V337.401H157.62V274.292Z" fill="#FAFAFA"/>
<path d="M157.62 337.41C157.62 337.41 157.62 337.017 157.62 336.264C157.62 335.512 157.62 334.408 157.62 332.97C157.62 330.07 157.62 325.814 157.57 320.347C157.57 309.42 157.52 293.662 157.487 274.292L157.654 274.459L44.7938 274.509L45.0111 274.292C45.0111 296.613 45.0111 317.956 45.0111 337.41L44.8105 337.201L125.969 337.301L149.294 337.359H155.514H157.127H157.679H155.497H149.319L126.036 337.418L44.7436 337.518H44.543V337.318C44.543 317.864 44.543 296.521 44.543 274.2V273.982H44.7687L157.629 274.032H157.796V274.2C157.754 293.62 157.729 309.412 157.704 320.355C157.704 325.806 157.704 330.053 157.704 332.937C157.704 334.367 157.704 335.445 157.704 336.214C157.704 336.983 157.62 337.41 157.62 337.41Z" fill="#E0E0E0"/>
<path d="M74.5042 289.34H58.5449V305.299H74.5042V289.34Z" fill="#E0E0E0"/>
<path d="M96.4165 291.58C93.6354 291.797 90.845 291.869 88.0565 291.797C85.2819 291.868 82.5054 291.796 79.7383 291.58C82.5054 291.365 85.2819 291.292 88.0565 291.363C90.845 291.291 93.6354 291.363 96.4165 291.58Z" fill="#E0E0E0"/>
<path d="M149.552 297.315C149.552 297.432 133.935 297.532 114.666 297.532C95.3958 297.532 79.7793 297.432 79.7793 297.315C79.7793 297.198 95.3958 297.098 114.666 297.098C133.935 297.098 149.552 297.198 149.552 297.315Z" fill="#E0E0E0"/>
<path d="M126.077 303.752C126.077 303.869 115.811 303.97 103.154 303.97C90.4969 303.97 80.2559 303.869 80.2559 303.752C80.2559 303.635 90.5219 303.535 103.179 303.535C115.836 303.535 126.077 303.627 126.077 303.752Z" fill="#E0E0E0"/>
<path d="M140.909 329.041H63.8127C61.8504 329.041 59.9686 328.262 58.5811 326.874C57.1936 325.487 56.4141 323.605 56.4141 321.643C56.4141 320.671 56.6055 319.71 56.9774 318.813C57.3493 317.915 57.8944 317.1 58.5816 316.414C59.2687 315.728 60.0844 315.184 60.982 314.813C61.8796 314.442 62.8415 314.251 63.8127 314.252H140.909C141.88 314.251 142.842 314.442 143.739 314.813C144.637 315.184 145.453 315.728 146.14 316.414C146.827 317.1 147.372 317.915 147.744 318.813C148.116 319.71 148.307 320.671 148.307 321.643C148.307 323.605 147.528 325.487 146.14 326.874C144.753 328.262 142.871 329.041 140.909 329.041Z" fill="#E0E0E0"/>
<path d="M88.1809 322.696H86.2916L85.9321 323.532H84.9707L86.7848 319.461H87.7128L89.5353 323.532H88.5404L88.1809 322.696ZM87.8883 321.977L87.2446 320.422L86.5925 321.977H87.8883Z" fill="white"/>
<path d="M93.49 320.965C93.49 321.868 92.8128 322.437 91.726 322.437H90.89V323.532H89.9453V319.461H91.7093C92.7961 319.486 93.49 320.046 93.49 320.965ZM92.5369 320.965C92.5369 320.514 92.2443 320.255 91.7009 320.255H90.9318V321.668H91.7009C92.2443 321.668 92.5369 321.409 92.5369 320.965Z" fill="white"/>
<path d="M97.695 320.965C97.695 321.868 97.0179 322.437 95.9311 322.437H95.0951V323.532H94.1504V319.461H95.9144C97.0179 319.486 97.695 320.046 97.695 320.965ZM96.742 320.965C96.742 320.514 96.4494 320.255 95.906 320.255H95.1452V321.668H95.906C96.4494 321.668 96.742 321.409 96.742 320.965Z" fill="white"/>
<path d="M98.373 319.486H99.3094V322.788H101.358V323.532H98.373V319.486Z" fill="white"/>
<path d="M103.423 322.111V323.532H102.478V322.077L100.906 319.461H101.901L102.996 321.266L104.083 319.461H105.003L103.423 322.111Z" fill="white"/>
<path d="M110.788 319.486V323.532H110.01L107.987 321.024V323.532H107.051V319.461H107.845L109.876 321.969V319.461L110.788 319.486Z" fill="white"/>
<path d="M111.498 321.517C111.473 321.071 111.582 320.628 111.811 320.245C112.041 319.862 112.38 319.556 112.785 319.368C113.19 319.18 113.642 319.117 114.083 319.189C114.524 319.26 114.934 319.462 115.258 319.769C115.583 320.075 115.809 320.472 115.905 320.908C116.002 321.344 115.966 321.799 115.801 322.215C115.637 322.63 115.351 322.986 114.982 323.237C114.613 323.489 114.176 323.623 113.73 323.624C113.443 323.641 113.155 323.599 112.885 323.501C112.615 323.403 112.367 323.25 112.158 323.053C111.949 322.856 111.783 322.618 111.669 322.354C111.556 322.089 111.497 321.805 111.498 321.517ZM115.001 321.517C114.994 321.268 114.914 321.025 114.77 320.821C114.627 320.616 114.426 320.458 114.193 320.367C113.961 320.276 113.706 320.256 113.462 320.309C113.218 320.361 112.994 320.485 112.82 320.664C112.646 320.843 112.528 321.069 112.482 321.315C112.435 321.56 112.462 321.814 112.559 322.044C112.656 322.275 112.819 322.471 113.027 322.609C113.236 322.748 113.48 322.821 113.73 322.821C113.901 322.826 114.071 322.796 114.23 322.731C114.388 322.667 114.532 322.571 114.651 322.448C114.771 322.326 114.863 322.18 114.923 322.019C114.984 321.859 115.01 321.688 115.001 321.517Z" fill="white"/>
<path d="M122.692 319.486L121.363 323.532H120.385L119.482 320.773L118.562 323.532H117.55L116.213 319.461H117.191L118.111 322.32L119.072 319.461H119.908L120.844 322.345L121.789 319.461L122.692 319.486Z" fill="white"/>
<path d="M550.841 302.766H437.973V365.875H550.841V302.766Z" fill="#FAFAFA"/>
<path d="M550.841 365.884C550.841 365.884 550.841 365.491 550.841 364.739C550.841 363.986 550.841 362.883 550.841 361.445C550.841 358.544 550.841 354.289 550.799 348.821C550.799 337.895 550.749 322.136 550.707 302.766L550.874 302.933L438.014 302.983L438.231 302.766C438.231 325.087 438.231 346.43 438.231 365.884L438.031 365.675L519.19 365.775L542.514 365.834H548.734H550.347H550.899H548.784H542.606L519.323 365.892L438.031 365.993H437.83V365.792C437.83 346.338 437.83 324.995 437.83 302.674V302.457H438.056L550.916 302.507H551.083V302.674C551.041 322.094 551.016 337.886 550.991 348.829C550.991 354.28 550.991 358.527 550.991 361.411C550.991 362.841 550.991 363.919 550.991 364.688C550.991 365.458 550.841 365.884 550.841 365.884Z" fill="#E0E0E0"/>
<path d="M467.725 317.814H451.766V333.773H467.725V317.814Z" fill="#E0E0E0"/>
<path d="M489.636 320.054C484.095 320.344 478.542 320.344 473 320.054C478.542 319.764 484.095 319.764 489.636 320.054Z" fill="#E0E0E0"/>
<path d="M542.773 325.789C542.773 325.906 527.156 326.007 507.886 326.007C488.617 326.007 473 325.906 473 325.789C473 325.672 488.617 325.572 507.886 325.572C527.156 325.572 542.773 325.672 542.773 325.789Z" fill="#E0E0E0"/>
<path d="M519.297 332.226C519.297 332.344 509.031 332.444 496.374 332.444C483.717 332.444 473.451 332.344 473.451 332.226C473.451 332.109 483.717 332.009 496.374 332.009C509.031 332.009 519.297 332.101 519.297 332.226Z" fill="#E0E0E0"/>
<path d="M534.129 357.515H457.033C455.071 357.515 453.189 356.736 451.802 355.348C450.414 353.961 449.635 352.079 449.635 350.117C449.635 349.146 449.826 348.184 450.198 347.287C450.57 346.39 451.115 345.575 451.802 344.888C452.489 344.202 453.305 343.658 454.203 343.287C455.1 342.916 456.062 342.725 457.033 342.727H534.129C535.1 342.725 536.062 342.916 536.96 343.287C537.858 343.658 538.673 344.202 539.36 344.888C540.047 345.575 540.593 346.39 540.964 347.287C541.336 348.184 541.528 349.146 541.528 350.117C541.528 352.079 540.748 353.961 539.361 355.348C537.973 356.736 536.091 357.515 534.129 357.515Z" fill="#E0E0E0"/>
<path d="M481.41 351.162H479.512L479.153 351.998H478.191L480.006 347.927H480.934L482.756 351.998H481.77L481.41 351.162ZM481.109 350.443L480.465 348.88L479.822 350.443H481.109Z" fill="white"/>
<path d="M486.72 349.448C486.72 350.351 486.035 350.919 484.948 350.919H484.112V352.04H483.209V347.968H484.973C486.035 347.96 486.72 348.52 486.72 349.448ZM485.767 349.448C485.767 348.997 485.475 348.737 484.931 348.737H484.162V350.15H484.881C485.475 350.142 485.767 349.874 485.767 349.448Z" fill="white"/>
<path d="M490.925 349.448C490.925 350.351 490.239 350.919 489.153 350.919H488.317V352.04H487.389V347.968H489.153C490.239 347.96 490.925 348.52 490.925 349.448ZM489.964 349.448C489.964 348.997 489.679 348.737 489.128 348.737H488.358V350.15H489.128C489.679 350.142 489.964 349.874 489.964 349.448Z" fill="white"/>
<path d="M491.568 347.96H492.513V351.262H494.553V352.031H491.568V347.96Z" fill="white"/>
<path d="M496.643 350.585V352.031H495.748V350.577L494.168 347.96H495.171L496.258 349.766L497.345 347.96H498.256L496.643 350.585Z" fill="white"/>
<path d="M504.008 347.96V352.031H503.272L501.241 349.523V352.031H500.305V347.96H501.091L503.114 350.468V347.96H504.008Z" fill="white"/>
<path d="M504.726 349.991C504.701 349.545 504.811 349.102 505.04 348.718C505.27 348.335 505.61 348.029 506.016 347.841C506.421 347.653 506.874 347.591 507.315 347.663C507.756 347.735 508.165 347.938 508.49 348.246C508.814 348.553 509.039 348.951 509.135 349.387C509.231 349.824 509.193 350.279 509.027 350.695C508.862 351.11 508.575 351.465 508.204 351.716C507.834 351.966 507.397 352.099 506.95 352.098C506.663 352.115 506.376 352.073 506.106 351.975C505.837 351.877 505.59 351.724 505.381 351.527C505.173 351.329 505.007 351.091 504.895 350.827C504.782 350.563 504.725 350.279 504.726 349.991ZM508.229 349.991C508.224 349.74 508.145 349.495 508.001 349.288C507.858 349.081 507.656 348.921 507.422 348.828C507.188 348.735 506.932 348.713 506.685 348.765C506.439 348.817 506.213 348.941 506.037 349.121C505.861 349.301 505.741 349.529 505.694 349.776C505.647 350.023 505.673 350.279 505.771 350.512C505.868 350.744 506.032 350.942 506.242 351.082C506.452 351.221 506.698 351.296 506.95 351.296C507.121 351.3 507.292 351.27 507.451 351.206C507.61 351.141 507.754 351.045 507.874 350.923C507.994 350.8 508.088 350.654 508.149 350.494C508.21 350.334 508.237 350.163 508.229 349.991Z" fill="white"/>
<path d="M515.912 347.96L514.583 352.031H513.571L512.677 349.272L511.749 352.031H510.746L509.408 347.96H510.386L511.306 350.819L512.259 347.96H513.095L514.023 350.844L514.968 347.96H515.912Z" fill="white"/>
<path d="M591.495 148.666H460.912V221.682H591.495V148.666Z" fill="#FAFAFA"/>
<path d="M591.496 221.682C591.496 221.682 591.496 221.231 591.496 220.37C591.496 219.509 591.496 218.23 591.496 216.558C591.496 213.214 591.496 208.281 591.496 201.961C591.496 189.321 591.445 171.088 591.404 148.666L591.571 148.833L460.996 148.883L461.213 148.666C461.213 174.49 461.213 199.185 461.213 221.682L461.013 221.482L554.921 221.582L581.907 221.64H589.096H591.604H590.994H589.155H581.999L555.063 221.699L461.021 221.799H460.82V221.59C460.82 199.094 460.82 174.398 460.82 148.574V148.357H461.046L591.621 148.407H591.788V148.574C591.788 171.037 591.721 189.304 591.696 201.969C591.696 208.273 591.696 213.188 591.696 216.532C591.696 218.204 591.696 219.45 591.696 220.311C591.696 221.172 591.496 221.682 591.496 221.682Z" fill="#E0E0E0"/>
<path d="M495.33 166.072H476.871V184.53H495.33V166.072Z" fill="#E0E0E0"/>
<path d="M520.686 168.663C520.686 168.789 516.381 168.881 511.064 168.881C505.747 168.881 501.441 168.789 501.441 168.663C501.441 168.538 505.747 168.446 511.064 168.446C516.381 168.446 520.686 168.546 520.686 168.663Z" fill="#E0E0E0"/>
<path d="M582.166 175.301C582.166 175.426 564.091 175.518 541.804 175.518C519.516 175.518 501.441 175.426 501.441 175.301C501.441 175.175 519.507 175.083 541.804 175.083C564.1 175.083 582.166 175.184 582.166 175.301Z" fill="#E0E0E0"/>
<path d="M555.003 182.75C555.003 182.867 543.132 182.967 528.485 182.967C513.839 182.967 501.959 182.867 501.959 182.75C501.959 182.633 513.83 182.532 528.485 182.532C543.14 182.532 555.003 182.624 555.003 182.75Z" fill="#E0E0E0"/>
<path d="M572.166 194.897H482.957C478.233 194.897 474.404 198.726 474.404 203.449V203.457C474.404 208.181 478.233 212.01 482.957 212.01H572.166C576.889 212.01 580.718 208.181 580.718 203.457V203.449C580.718 198.726 576.889 194.897 572.166 194.897Z" fill="#E0E0E0"/>
<path d="M511.165 204.653H508.975L508.557 205.664H507.453L509.551 200.949H510.63L512.737 205.664H511.591L511.165 204.653ZM510.822 203.817L510.078 202.011L509.326 203.817H510.822Z" fill="white"/>
<path d="M517.309 202.663C517.309 203.708 516.523 204.335 515.261 204.335H514.316V205.656H513.221V200.941H515.261C516.523 200.949 517.309 201.601 517.309 202.663ZM516.205 202.663C516.205 202.145 515.871 201.827 515.202 201.827H514.316V203.499H515.202C515.871 203.474 516.205 203.148 516.205 202.663Z" fill="white"/>
<path d="M522.175 202.663C522.175 203.708 521.389 204.335 520.127 204.335H519.157V205.656H518.07V200.941H520.11C521.389 200.949 522.175 201.601 522.175 202.663ZM521.072 202.663C521.072 202.145 520.729 201.827 520.068 201.827H519.157V203.499H520.052C520.729 203.474 521.072 203.148 521.072 202.663Z" fill="white"/>
<path d="M522.951 200.949H524.038V204.82H526.404V205.656H522.951V200.949Z" fill="white"/>
<path d="M528.795 203.984V205.656H527.708V203.984L525.844 200.949H527.006L528.26 203.039L529.522 200.949H530.592L528.795 203.984Z" fill="white"/>
<path d="M537.314 200.949V205.656H536.42L534.071 202.789V205.656H532.992V200.941H533.895L536.244 203.8V200.941L537.314 200.949Z" fill="white"/>
<path d="M538.143 203.307C538.114 202.791 538.241 202.277 538.508 201.834C538.774 201.391 539.167 201.038 539.637 200.821C540.106 200.603 540.63 200.532 541.14 200.616C541.65 200.699 542.124 200.934 542.499 201.29C542.874 201.646 543.134 202.106 543.245 202.611C543.356 203.117 543.313 203.643 543.121 204.124C542.929 204.604 542.597 205.015 542.169 205.305C541.74 205.595 541.235 205.749 540.717 205.748C540.385 205.767 540.053 205.719 539.741 205.605C539.428 205.491 539.143 205.314 538.902 205.085C538.66 204.856 538.468 204.58 538.338 204.275C538.207 203.969 538.141 203.639 538.143 203.307ZM542.197 203.307C542.192 203.015 542.101 202.732 541.936 202.492C541.77 202.252 541.537 202.066 541.267 201.958C540.996 201.85 540.699 201.824 540.414 201.884C540.128 201.944 539.867 202.087 539.663 202.294C539.458 202.502 539.32 202.766 539.265 203.052C539.209 203.339 539.24 203.635 539.353 203.904C539.466 204.173 539.655 204.402 539.898 204.564C540.141 204.725 540.426 204.812 540.717 204.812C540.915 204.816 541.112 204.781 541.295 204.706C541.478 204.632 541.645 204.521 541.783 204.38C541.922 204.239 542.03 204.071 542.101 203.886C542.173 203.702 542.205 203.505 542.197 203.307Z" fill="white"/>
<path d="M551.091 200.949L549.553 205.656H548.416L547.371 202.463L546.267 205.656H545.072L543.525 200.941H544.654L545.716 204.285L546.828 200.941H547.839L548.918 204.285L550.013 200.941L551.091 200.949Z" fill="white"/>
<path d="M500.579 36.3325H113.695V390.103H500.579V36.3325Z" fill="white"/>
<path d="M500.579 36.3325H113.695V59.8659H500.579V36.3325Z" fill="#E0E0E0"/>
<path d="M448.498 367.389C448.498 367.514 383.758 367.606 303.87 367.606C223.982 367.606 159.242 367.514 159.242 367.389C159.242 367.263 223.974 367.171 303.87 367.171C383.767 367.171 448.498 367.272 448.498 367.389Z" fill="#263238"/>
<path d="M279.943 296.421H274.217V326.583H279.943V296.421Z" fill="#E0E0E0"/>
<path d="M279.952 326.575C279.938 326.369 279.938 326.162 279.952 325.956C279.952 325.522 279.952 324.945 279.952 324.218C279.952 322.679 279.952 320.522 279.885 317.839C279.885 312.422 279.827 304.923 279.793 296.421L280.011 296.63H274.209C274.635 296.195 274.326 296.513 274.426 296.421V305.617C274.426 308.543 274.426 311.326 274.426 313.91C274.426 319.051 274.376 323.407 274.359 326.6L274.234 326.483L278.414 326.55H279.534H279.944C279.824 326.562 279.704 326.562 279.584 326.55H278.481L274.209 326.609H274.1V326.483C274.1 323.29 274.058 318.959 274.033 313.793C274.033 311.209 274.033 308.426 274.033 305.5V301.002C274.033 300.241 274.033 299.464 274.033 298.686V296.345L274.259 296.12H280.195V296.337C280.195 304.898 280.128 312.447 280.103 317.906C280.103 320.564 280.052 322.713 280.044 324.243C280.044 324.945 280.044 325.505 280.044 325.915C280.03 326.137 279.999 326.358 279.952 326.575Z" fill="#263238"/>
<path d="M290.344 291.848H263.592C261.687 291.848 259.859 291.091 258.511 289.745C257.163 288.398 256.405 286.572 256.402 284.666H297.534C297.531 286.572 296.773 288.398 295.425 289.745C294.077 291.091 292.249 291.848 290.344 291.848Z" fill="#263238"/>
<path d="M313.96 286.071H267.277V276.089H313.96C315.29 276.089 316.566 276.617 317.506 277.558C318.447 278.499 318.976 279.775 318.976 281.105C318.962 282.427 318.428 283.69 317.489 284.619C316.55 285.549 315.281 286.071 313.96 286.071Z" fill="#2576BC"/>
<path d="M230.995 204.377C229.711 204.55 228.546 205.218 227.748 206.238C226.95 207.258 226.582 208.549 226.723 209.836L233.461 271.081C233.925 275.204 235.892 279.012 238.985 281.777C242.079 284.542 246.082 286.07 250.231 286.071H268.038C269.368 286.071 270.644 285.542 271.585 284.602C272.525 283.661 273.054 282.385 273.054 281.055C273.054 279.725 272.525 278.449 271.585 277.508C270.644 276.567 269.368 276.039 268.038 276.039H252.914C250.836 276.039 248.829 275.285 247.265 273.916C245.702 272.548 244.688 270.658 244.412 268.599L236.587 208.649C236.502 208.001 236.29 207.377 235.963 206.812C235.635 206.247 235.2 205.751 234.681 205.354C234.163 204.958 233.571 204.667 232.94 204.499C232.308 204.332 231.65 204.29 231.003 204.377H230.995Z" fill="#2576BC"/>
<path d="M287.727 276.574L236.973 277.285L232.016 204.327L274.493 204.059C276.538 204.07 278.495 204.893 279.934 206.346C281.373 207.799 282.176 209.764 282.167 211.809L287.727 276.574Z" fill="#2576BC"/>
<g opacity="0.3">
<path d="M230.995 204.377C229.711 204.55 228.546 205.218 227.748 206.238C226.95 207.258 226.582 208.549 226.723 209.836L233.461 271.081C233.925 275.204 235.892 279.012 238.985 281.777C242.079 284.542 246.082 286.07 250.231 286.071H268.038C269.368 286.071 270.644 285.542 271.585 284.602C272.525 283.661 273.054 282.385 273.054 281.055C273.054 279.725 272.525 278.449 271.585 277.508C270.644 276.567 269.368 276.039 268.038 276.039H251.828C247.531 276.039 244.513 272.996 243.944 268.732L236.587 208.649C236.502 208.001 236.29 207.377 235.963 206.812C235.635 206.247 235.2 205.751 234.681 205.354C234.163 204.958 233.571 204.667 232.94 204.499C232.308 204.332 231.65 204.29 231.003 204.377H230.995Z" fill="black"/>
</g>
<path d="M282.627 291.848H271.533V297.616H282.627V291.848Z" fill="#263238"/>
<path d="M279.158 324.886H274.852C273.019 324.886 271.533 326.372 271.533 328.205V347.993C271.533 349.826 273.019 351.312 274.852 351.312H279.158C280.991 351.312 282.476 349.826 282.476 347.993V328.205C282.476 326.372 280.991 324.886 279.158 324.886Z" fill="#E0E0E0"/>
<path d="M279.165 351.312C279.165 351.312 279.407 351.312 279.85 351.195C280.399 351.058 280.904 350.783 281.318 350.397C281.732 350.011 282.041 349.526 282.216 348.988C282.356 348.443 282.404 347.878 282.358 347.316C282.358 346.071 282.358 344.658 282.358 343.136C282.358 339.993 282.358 336.281 282.308 332.16C282.308 331.131 282.308 330.07 282.308 328.991C282.346 328.464 282.307 327.935 282.191 327.419C282.056 326.912 281.791 326.448 281.422 326.073C281.053 325.684 280.589 325.396 280.076 325.237C279.528 325.112 278.965 325.07 278.404 325.112H274.876C274.323 325.113 273.781 325.261 273.305 325.542C272.828 325.822 272.436 326.225 272.168 326.709C271.909 327.183 271.774 327.715 271.775 328.255V329.927C271.775 332.168 271.775 334.341 271.775 336.406C271.775 340.528 271.775 344.24 271.733 347.375C271.656 348.094 271.78 348.82 272.092 349.473C272.379 349.998 272.806 350.432 273.326 350.727C273.846 351.022 274.438 351.167 275.035 351.145H276.49L278.505 351.187C278.739 351.177 278.975 351.191 279.207 351.229C278.973 351.247 278.738 351.247 278.505 351.229L276.49 351.27H275.035C274.391 351.302 273.75 351.151 273.187 350.837C272.624 350.522 272.161 350.055 271.85 349.49C271.672 349.158 271.548 348.799 271.482 348.428C271.429 348.04 271.41 347.649 271.424 347.258C271.424 344.123 271.424 340.411 271.373 336.289C271.373 334.224 271.373 332.051 271.373 329.81V328.138C271.367 327.671 271.453 327.207 271.627 326.773C271.802 326.339 272.061 325.944 272.389 325.611C272.717 325.278 273.108 325.014 273.54 324.834C273.971 324.653 274.434 324.56 274.901 324.56H278.387C278.985 324.517 279.585 324.565 280.168 324.702C280.747 324.88 281.273 325.199 281.698 325.63C282.098 326.061 282.385 326.584 282.534 327.152C282.651 327.701 282.693 328.263 282.659 328.824C282.659 329.902 282.659 330.964 282.659 331.992C282.659 336.114 282.659 339.826 282.618 342.969C282.618 344.524 282.618 345.937 282.618 347.149C282.653 347.735 282.59 348.322 282.434 348.888C282.268 349.362 282.003 349.795 281.656 350.159C281.178 350.654 280.56 350.99 279.884 351.12C279.656 351.222 279.413 351.287 279.165 351.312Z" fill="#263238"/>
<path d="M308.943 349.674H243.819C242.948 349.642 242.081 349.794 241.273 350.12C240.465 350.445 239.734 350.937 239.129 351.563C236.713 354.071 236.863 358.251 236.872 358.402L239.84 358.276C239.84 357.44 239.998 354.932 241.277 353.611C241.606 353.285 241.998 353.03 242.43 352.863C242.861 352.696 243.323 352.621 243.785 352.642H260.873V360.207H263.841V352.642H308.91C309.827 352.644 310.706 353.009 311.355 353.658C312.003 354.306 312.369 355.185 312.371 356.103V358.335H315.339V356.136C315.345 354.432 314.676 352.794 313.477 351.583C312.278 350.371 310.648 349.685 308.943 349.674Z" fill="#E0E0E0"/>
<path d="M308.943 349.674C309.221 349.654 309.501 349.654 309.779 349.674C310.574 349.76 311.345 349.996 312.053 350.368C313.205 350.996 314.147 351.95 314.762 353.11C315.149 353.85 315.387 354.66 315.464 355.492C315.522 356.387 315.464 357.306 315.506 358.301V358.41H312.32V358.293C312.237 356.847 312.655 355.074 311.443 353.837C310.872 353.212 310.087 352.827 309.244 352.759C308.408 352.759 307.438 352.759 306.502 352.759H294.121H263.908L264.108 352.55C264.108 354.932 264.108 357.507 264.108 360.115V360.333H260.714V352.55L260.932 352.767H243.534C242.939 352.785 242.361 352.968 241.862 353.294C241.382 353.644 241.002 354.114 240.759 354.656C240.266 355.76 240.023 356.959 240.048 358.167V358.385H239.848L236.88 358.51H236.662V358.293C236.635 356.889 236.853 355.492 237.306 354.163C237.732 352.832 238.523 351.647 239.588 350.744C240.675 349.892 242.004 349.409 243.384 349.364C244.721 349.364 246.009 349.364 247.305 349.364H262.069L286.705 349.415L303.041 349.473L307.43 349.515H308.567H308.951C308.951 349.515 308.826 349.515 308.567 349.515H307.43H303.041L286.705 349.582L262.069 349.632H247.305C246.017 349.632 244.705 349.632 243.409 349.632C242.115 349.672 240.868 350.129 239.856 350.936C238.848 351.787 238.1 352.906 237.699 354.163C237.268 355.441 237.065 356.785 237.097 358.134L236.871 357.933L239.831 357.808L239.63 358.025C239.6 356.745 239.857 355.473 240.383 354.305C240.658 353.696 241.088 353.169 241.628 352.775C242.19 352.403 242.844 352.195 243.518 352.173H261.132V352.391C261.132 354.991 261.132 357.566 261.132 359.957L260.923 359.748H263.883L263.674 359.957C263.674 357.348 263.674 354.773 263.674 352.391V352.182H263.883H294.096H306.477C307.421 352.182 308.324 352.182 309.244 352.182C310.129 352.26 310.954 352.661 311.561 353.308C312.169 353.956 312.517 354.805 312.538 355.693C312.538 356.487 312.538 357.256 312.538 358L312.421 357.883H315.389L315.28 357.984C315.28 356.997 315.322 356.052 315.28 355.191C315.216 354.38 314.992 353.59 314.619 352.867C314.037 351.724 313.129 350.779 312.011 350.15C311.319 349.767 310.563 349.514 309.779 349.406C309.219 349.69 308.943 349.69 308.943 349.674Z" fill="#263238"/>
<path d="M268.105 363.735C268.106 364.885 267.767 366.009 267.13 366.965C266.492 367.922 265.585 368.668 264.524 369.109C263.462 369.55 262.294 369.666 261.166 369.443C260.039 369.22 259.002 368.667 258.189 367.855C257.376 367.043 256.821 366.007 256.597 364.88C256.372 363.753 256.486 362.584 256.926 361.522C257.365 360.46 258.11 359.552 259.066 358.913C260.021 358.274 261.145 357.933 262.295 357.933C263.834 357.933 265.311 358.544 266.4 359.632C267.489 360.72 268.103 362.196 268.105 363.735Z" fill="#263238"/>
<path d="M244.161 362.322C244.161 363.472 243.821 364.595 243.182 365.55C242.544 366.506 241.636 367.251 240.575 367.69C239.513 368.13 238.345 368.245 237.218 368.021C236.091 367.797 235.055 367.243 234.243 366.431C233.43 365.618 232.877 364.583 232.653 363.456C232.428 362.329 232.544 361.161 232.983 360.099C233.423 359.037 234.168 358.13 235.123 357.491C236.079 356.853 237.202 356.512 238.351 356.512C239.892 356.512 241.37 357.124 242.46 358.214C243.549 359.304 244.161 360.781 244.161 362.322Z" fill="#263238"/>
<path d="M319.027 362.531C319.028 363.681 318.689 364.805 318.052 365.762C317.414 366.718 316.507 367.464 315.446 367.905C314.384 368.346 313.216 368.463 312.088 368.239C310.96 368.016 309.924 367.463 309.111 366.651C308.298 365.839 307.743 364.804 307.519 363.676C307.294 362.549 307.408 361.38 307.848 360.318C308.287 359.256 309.032 358.348 309.988 357.709C310.943 357.071 312.067 356.73 313.216 356.73C314.756 356.73 316.233 357.341 317.322 358.428C318.411 359.516 319.024 360.992 319.027 362.531Z" fill="#263238"/>
<path d="M315.214 276.089C315.214 276.206 300.901 276.357 283.253 276.423C265.605 276.49 251.293 276.423 251.293 276.323C251.293 276.223 265.597 276.056 283.253 275.989C300.91 275.922 315.214 275.964 315.214 276.089Z" fill="#263238"/>
<path d="M244.012 267.788C243.895 267.788 242.131 254.579 240.083 238.252C238.035 221.925 236.463 208.666 236.58 208.649C236.697 208.632 238.461 221.858 240.51 238.193C242.558 254.529 244.113 267.771 244.012 267.788Z" fill="#263238"/>
<path d="M236.045 204.235C236.19 204.179 236.342 204.14 236.496 204.118C236.933 204.042 237.374 203.997 237.817 203.984C239.458 203.927 241.094 204.179 242.641 204.728C243.722 205.119 244.688 205.774 245.45 206.634C246.288 207.626 247.009 208.712 247.598 209.869C248.852 212.286 250.249 214.885 251.778 217.636C254.847 223.078 257.731 227.961 259.687 231.572C260.682 233.369 261.443 234.841 261.961 235.869C262.195 236.346 262.379 236.705 262.538 237.056C262.615 237.192 262.672 237.338 262.705 237.491C262.611 237.367 262.527 237.236 262.454 237.098L261.81 235.944L259.419 231.723C257.396 228.153 254.47 223.304 251.394 217.845C249.856 215.12 248.468 212.469 247.214 210.062C246.652 208.921 245.956 207.852 245.141 206.877C244.428 206.043 243.516 205.402 242.49 205.012C240.983 204.458 239.39 204.175 237.784 204.176C236.68 204.143 236.053 204.277 236.045 204.235Z" fill="#263238"/>
<path d="M227.067 207.412C227.176 207.47 223.33 214.175 218.49 222.376C213.649 230.577 209.636 237.19 209.528 237.131C209.419 237.073 213.265 230.368 218.113 222.159C222.962 213.949 226.967 207.328 227.067 207.412Z" fill="#263238"/>
<path d="M272.41 237.123H202.83V257.638H272.41V237.123Z" fill="#FAFAFA"/>
<path d="M221.598 243.493L218.195 251.369H216.398L213.004 243.493H214.969L217.359 249.128L219.784 243.502L221.598 243.493Z" fill="#263238"/>
<path d="M227.167 249.68H223.513L222.819 251.352H220.955L224.458 243.477H226.255L229.775 251.352H227.86L227.167 249.68ZM226.556 248.292L225.311 245.274L224.098 248.292H226.556Z" fill="#263238"/>
<path d="M229.984 247.456C230.032 246.604 230.33 245.786 230.841 245.103C231.352 244.42 232.054 243.904 232.857 243.618C233.661 243.332 234.531 243.29 235.358 243.497C236.186 243.704 236.934 244.15 237.508 244.781L236.338 245.859C236.099 245.568 235.798 245.333 235.456 245.174C235.115 245.015 234.742 244.935 234.365 244.94C233.7 244.94 233.062 245.204 232.592 245.674C232.121 246.145 231.857 246.782 231.857 247.448C231.857 248.113 232.121 248.751 232.592 249.221C233.062 249.691 233.7 249.956 234.365 249.956C234.743 249.959 235.116 249.878 235.458 249.717C235.799 249.557 236.1 249.321 236.338 249.028L237.508 250.106C236.936 250.74 236.189 251.19 235.361 251.4C234.533 251.609 233.661 251.569 232.856 251.283C232.051 250.998 231.349 250.481 230.838 249.797C230.327 249.112 230.03 248.292 229.984 247.439V247.456Z" fill="#263238"/>
<path d="M243.737 249.68H240.084L239.39 251.352H237.525L241.028 243.477H242.826L246.345 251.352H244.431L243.737 249.68ZM243.168 248.3L241.914 245.282L240.669 248.292L243.168 248.3Z" fill="#263238"/>
<path d="M254.379 243.493V251.369H252.882L248.961 246.62V251.402H247.164V243.527H248.669L252.581 248.309V243.527L254.379 243.493Z" fill="#263238"/>
<path d="M257.863 244.948H255.355V243.46H262.211V244.948H259.703V251.335H257.88L257.863 244.948Z" fill="#263238"/>
<path d="M270.163 255.816C270.163 255.816 270.163 255.716 270.163 255.515C270.163 255.314 270.163 255.03 270.163 254.679C270.163 253.918 270.163 252.815 270.163 251.394C270.163 248.518 270.163 244.346 270.096 239.079L270.221 239.205L204.595 239.297C204.687 239.196 204.369 239.514 204.804 239.079V255.799L204.587 255.59L251.403 255.682L265.205 255.741H268.934H269.903H270.238C270.135 255.749 270.032 255.749 269.929 255.741H268.984H265.305L251.553 255.799L204.604 255.9H204.395V255.816C204.395 253.116 204.395 250.357 204.395 247.565V239.029C204.829 238.594 204.52 238.904 204.62 238.812L270.246 238.895H270.38V239.029C270.38 244.329 270.321 248.526 270.305 251.419C270.305 252.832 270.305 253.927 270.305 254.679V255.515C270.269 255.62 270.221 255.721 270.163 255.816Z" fill="#263238"/>
<path d="M276.967 135.332H282.259L277.018 139.612H273.23L276.967 135.332Z" fill="#263238"/>
<path d="M217.552 175.694V186.704H210.814V176.797C210.814 174.022 209.602 172.851 207.654 172.851C205.489 172.851 203.817 174.206 203.817 177.399V186.704H197.07V160.362H203.817V169.232C205.41 167.825 207.478 167.078 209.602 167.142C214.108 167.142 217.552 169.708 217.552 175.694Z" fill="#263238"/>
<path d="M221.039 161.741C221.039 159.718 222.711 158.155 225.152 158.155C227.593 158.155 229.274 159.609 229.274 161.632C229.274 163.655 227.643 165.327 225.152 165.327C222.661 165.327 221.039 163.764 221.039 161.741ZM221.783 167.459H228.53V186.687H221.783V167.459Z" fill="#263238"/>
<path d="M245.784 167.142V173.211C245.277 173.141 244.766 173.104 244.254 173.102C241.52 173.102 239.639 174.49 239.639 177.859V186.704H232.893V167.476H239.321V169.783C240.709 168.036 242.941 167.142 245.784 167.142Z" fill="#263238"/>
<path d="M247.807 161.741C247.807 159.718 249.437 158.155 251.928 158.155C254.419 158.155 256.041 159.609 256.041 161.632C256.041 163.655 254.411 165.327 251.928 165.327C249.445 165.327 247.807 163.764 247.807 161.741ZM248.551 167.459H255.297V186.687H248.551V167.459Z" fill="#263238"/>
<path d="M280.152 175.694V186.704H273.372V176.797C273.372 174.022 272.168 172.851 270.212 172.851C268.047 172.851 266.375 174.206 266.375 177.399V186.704H259.637V167.476H266.057V169.566C266.858 168.769 267.813 168.144 268.864 167.73C269.915 167.316 271.039 167.121 272.168 167.158C276.716 167.142 280.152 169.708 280.152 175.694Z" fill="#263238"/>
<path d="M305.358 167.459V183.184C305.358 190.466 301.245 193.91 294.072 193.91C290.377 193.91 286.866 193.074 284.517 191.402L286.966 186.679C288.866 188.028 291.14 188.75 293.47 188.744C297.09 188.744 298.612 187.072 298.612 184.087V183.452C297.887 184.229 296.999 184.836 296.012 185.23C295.025 185.623 293.963 185.792 292.902 185.726C287.786 185.726 283.455 182.098 283.455 176.421C283.455 170.745 287.786 167.158 292.902 167.158C295.56 167.158 297.617 167.994 298.938 169.817V167.476L305.358 167.459ZM298.67 176.404C298.67 174.064 296.89 172.5 294.49 172.5C292.091 172.5 290.26 174.064 290.26 176.404C290.26 178.745 292.074 180.342 294.49 180.342C295.03 180.381 295.573 180.308 296.083 180.127C296.593 179.946 297.06 179.661 297.455 179.29C297.849 178.919 298.162 178.471 298.375 177.972C298.587 177.474 298.693 176.937 298.687 176.396L298.67 176.404Z" fill="#263238"/>
<path d="M308.484 183.009C308.484 181.936 308.911 180.907 309.669 180.148C310.428 179.389 311.457 178.963 312.531 178.963C313.604 178.963 314.633 179.389 315.392 180.148C316.151 180.907 316.577 181.936 316.577 183.009C316.577 184.082 316.151 185.111 315.392 185.87C314.633 186.629 313.604 187.055 312.531 187.055C311.457 187.055 310.428 186.629 309.669 185.87C308.911 185.111 308.484 184.082 308.484 183.009Z" fill="#2576BC"/>
<path d="M289.006 141.125V145.899C288.61 145.844 288.211 145.816 287.811 145.815C285.662 145.815 284.191 146.902 284.191 149.544V156.483H278.891V141.376H283.907V143.19C285.027 141.827 286.749 141.125 289.006 141.125Z" fill="#263238"/>
<path d="M306.402 150.271H295.417C295.869 151.801 297.173 152.695 299.129 152.695C299.767 152.718 300.402 152.613 300.999 152.388C301.596 152.162 302.143 151.821 302.607 151.383L305.399 154.284C303.944 155.897 301.829 156.742 298.962 156.742C293.578 156.742 290.092 153.398 290.092 148.908C290.092 144.419 293.636 141.125 298.402 141.125C302.858 141.125 306.486 143.976 306.486 148.959C306.486 149.351 306.427 149.853 306.402 150.271ZM295.334 147.487H301.52C301.389 146.762 301.007 146.106 300.442 145.634C299.877 145.162 299.163 144.903 298.427 144.903C297.69 144.903 296.977 145.162 296.411 145.634C295.846 146.106 295.465 146.762 295.334 147.487Z" fill="#263238"/>
<path d="M256.067 141.376L250.683 156.482H245.558L242.716 148.265L239.757 156.482H234.632L229.248 141.376H234.264L237.357 150.522L240.567 141.376H245.082L248.2 150.572L251.41 141.376H256.067Z" fill="#263238"/>
<path d="M272.62 150.271H261.669C262.12 151.801 263.424 152.695 265.38 152.695C266.019 152.718 266.656 152.613 267.255 152.388C267.853 152.163 268.401 151.821 268.866 151.383L271.65 154.284C270.204 155.897 268.081 156.742 265.213 156.742C259.829 156.742 256.352 153.398 256.352 148.908C256.352 144.419 259.888 141.125 264.653 141.125C269.117 141.125 272.737 143.976 272.737 148.959C272.704 149.351 272.645 149.853 272.62 150.271ZM261.551 147.487H267.746C267.62 146.757 267.24 146.095 266.673 145.618C266.107 145.141 265.39 144.88 264.649 144.88C263.908 144.88 263.191 145.141 262.624 145.618C262.058 146.095 261.678 146.757 261.551 147.487Z" fill="#263238"/>
<path d="M233.17 113.412L232.334 95.6467C232.301 94.945 232.012 94.2795 231.523 93.7759C231.033 93.2722 230.376 92.9653 229.675 92.913C228.938 92.8556 228.208 93.0841 227.635 93.5511C227.062 94.0181 226.691 94.6877 226.599 95.421L224.35 113.228C224.315 113.543 224.346 113.862 224.443 114.165C224.539 114.467 224.698 114.746 224.91 114.982C225.121 115.219 225.38 115.408 225.67 115.538C225.959 115.668 226.273 115.735 226.59 115.736H230.921C231.222 115.734 231.52 115.672 231.796 115.553C232.073 115.435 232.324 115.262 232.533 115.046C232.742 114.829 232.907 114.573 233.016 114.293C233.125 114.012 233.178 113.713 233.17 113.412Z" fill="#E0E0E0"/>
<path d="M225.118 82.8561C225.401 82.0476 225.917 81.3412 226.601 80.8261C227.285 80.311 228.107 80.0103 228.962 79.9622C229.817 79.914 230.667 80.1205 231.405 80.5555C232.143 80.9905 232.735 81.6345 233.107 82.4061C233.478 83.1777 233.613 84.0422 233.494 84.8902C233.374 85.7383 233.006 86.5319 232.435 87.1707C231.865 87.8094 231.117 88.2646 230.288 88.4788C229.459 88.6929 228.585 88.6563 227.776 88.3737C227.239 88.186 226.745 87.8943 226.321 87.5155C225.896 87.1366 225.551 86.6779 225.304 86.1655C225.057 85.6531 224.914 85.0972 224.882 84.5293C224.85 83.9615 224.93 83.3929 225.118 82.8561Z" fill="#E0E0E0"/>
<path d="M186.671 135.859L176.321 127.072C175.911 126.729 175.389 126.546 174.854 126.558C174.319 126.571 173.806 126.777 173.412 127.139C172.998 127.521 172.747 128.048 172.711 128.61C172.676 129.171 172.858 129.726 173.22 130.157L181.981 140.674C182.138 140.861 182.333 141.012 182.552 141.119C182.772 141.225 183.012 141.284 183.256 141.291C183.5 141.298 183.742 141.253 183.968 141.16C184.193 141.067 184.397 140.927 184.564 140.749L186.813 138.333C186.971 138.164 187.093 137.964 187.172 137.746C187.251 137.528 187.285 137.297 187.271 137.065C187.258 136.834 187.198 136.608 187.095 136.4C186.992 136.193 186.847 136.009 186.671 135.859Z" fill="#F5F5F5"/>
<path d="M165.437 124.464C165.121 123.879 164.987 123.213 165.051 122.552C165.115 121.89 165.374 121.263 165.797 120.75C166.219 120.236 166.785 119.861 167.421 119.67C168.058 119.48 168.737 119.483 169.372 119.681C170.006 119.878 170.568 120.26 170.985 120.778C171.401 121.296 171.654 121.926 171.711 122.588C171.768 123.25 171.626 123.914 171.304 124.496C170.981 125.077 170.493 125.549 169.901 125.851C169.123 126.249 168.221 126.327 167.386 126.067C166.552 125.808 165.853 125.232 165.437 124.464Z" fill="#F5F5F5"/>
<path d="M177.892 94.5432L193.776 121.496C194.404 122.562 195.4 123.361 196.577 123.743C197.753 124.125 199.029 124.063 200.163 123.569C201.356 123.05 202.304 122.093 202.811 120.895C203.318 119.697 203.346 118.35 202.889 117.132L191.761 87.5709C191.562 87.0445 191.253 86.5664 190.855 86.1682C190.457 85.77 189.98 85.4607 189.453 85.2608C188.927 85.0609 188.364 84.975 187.803 85.0086C187.241 85.0422 186.692 85.1946 186.194 85.4558L179.447 89.0005C178.972 89.2531 178.553 89.5995 178.216 90.0186C177.878 90.4378 177.629 90.921 177.484 91.4392C177.339 91.9573 177.3 92.4995 177.37 93.033C177.44 93.5665 177.618 94.0803 177.892 94.5432Z" fill="#E0E0E0"/>
<path d="M215.529 135.482C215.754 136.974 215.531 138.498 214.889 139.863C214.247 141.228 213.215 142.372 211.923 143.15C210.631 143.928 209.137 144.305 207.631 144.234C206.124 144.163 204.673 143.647 203.46 142.751C202.246 141.855 201.326 140.619 200.816 139.2C200.305 137.781 200.227 136.242 200.591 134.779C200.954 133.315 201.744 131.992 202.86 130.978C203.976 129.963 205.368 129.302 206.859 129.078C208.858 128.779 210.894 129.285 212.52 130.486C214.145 131.687 215.228 133.484 215.529 135.482Z" fill="#E0E0E0"/>
<path d="M500.572 390.103C500.572 388.531 500.497 249.078 500.388 36.3326L500.572 36.5165L113.696 36.55L113.914 36.3326C113.914 165.21 113.914 286.397 113.914 390.103L113.73 389.91L500.605 390.103L113.696 390.295H113.504V390.103C113.504 286.439 113.504 165.219 113.504 36.3326V36.1152H113.755H500.597H500.764V36.2992C500.647 249.078 500.572 388.531 500.572 390.103Z" fill="#263238"/>
<path d="M124.448 51.1381C126.216 51.1381 127.65 49.7046 127.65 47.9363C127.65 46.1679 126.216 44.7344 124.448 44.7344C122.68 44.7344 121.246 46.1679 121.246 47.9363C121.246 49.7046 122.68 51.1381 124.448 51.1381Z" fill="white"/>
<path d="M135.448 51.1381C137.216 51.1381 138.65 49.7046 138.65 47.9363C138.65 46.1679 137.216 44.7344 135.448 44.7344C133.68 44.7344 132.246 46.1679 132.246 47.9363C132.246 49.7046 133.68 51.1381 135.448 51.1381Z" fill="white"/>
<path d="M146.45 51.1381C148.218 51.1381 149.652 49.7046 149.652 47.9363C149.652 46.1679 148.218 44.7344 146.45 44.7344C144.682 44.7344 143.248 46.1679 143.248 47.9363C143.248 49.7046 144.682 51.1381 146.45 51.1381Z" fill="white"/>
<path d="M352.423 114.532C349.714 113.851 347.093 112.855 344.615 111.564C345.991 111.826 347.332 112.246 348.611 112.818C349.945 113.238 351.224 113.813 352.423 114.532Z" fill="#455A64"/>
<path d="M341.731 131.369C340.895 131.277 338.638 132.397 336.757 134.629L336.665 134.73C335.336 136.226 334.508 131.628 334.424 129.931C334.402 129.667 334.32 129.412 334.185 129.185C334.051 128.957 333.867 128.763 333.647 128.616C333.427 128.469 333.177 128.373 332.915 128.336C332.653 128.299 332.386 128.321 332.134 128.401L326.282 130.642L324.61 130.583C324.203 130.692 323.852 130.95 323.627 131.307C323.402 131.663 323.32 132.092 323.398 132.506L325.471 141.61L325.362 144.051L336.565 146.375L337.167 140.289C337.384 139.595 337.668 138.776 338.003 137.848C338.34 137.009 338.817 136.235 339.415 135.557C340.071 134.787 340.805 134.086 341.606 133.467L341.798 133.359C341.928 133.296 342.045 133.208 342.141 133.099C342.285 132.983 342.394 132.827 342.454 132.651C342.514 132.475 342.523 132.286 342.48 132.105C342.437 131.925 342.344 131.759 342.212 131.629C342.079 131.499 341.913 131.409 341.731 131.369Z" fill="#FFBE9D"/>
<path d="M339.273 105.704C339.273 105.704 332.585 104.868 322.553 96.8757C312.521 88.8835 307.062 77.5139 305.942 77.6477C304.822 77.7814 299.672 75.9757 292.223 97.2602C284.774 118.545 288.879 122.909 290.768 122.7C292.658 122.491 304.98 117.759 312.956 117.918C320.931 118.077 331.498 121.262 331.498 121.262L339.273 105.704Z" fill="#2576BC"/>
<path d="M354.238 115.502L352.398 119.958L351.562 121.956C351.02 123.275 349.991 124.336 348.689 124.92C347.387 125.503 345.911 125.564 344.565 125.091L330.061 121.521L336.481 102.084L351.211 108.237C352.574 108.801 353.658 109.883 354.225 111.244C354.792 112.606 354.797 114.137 354.238 115.502Z" fill="#263238"/>
<path d="M348.519 122.056L343.662 130.667L341.447 129.956L326.29 141.284L322.52 133.091C322.52 133.091 331.339 129.747 333.078 126.696C334.817 123.644 332.986 122.9 332.986 122.9L337.25 118.428L348.519 122.056Z" fill="#263238"/>
<path d="M292.993 97.5863C289.047 109.098 287.893 119.13 290.426 119.999C292.959 120.869 298.201 112.233 302.13 100.721C306.059 89.2096 307.23 79.1776 304.697 78.3081C302.164 77.4387 296.939 86.108 292.993 97.5863Z" fill="#263238"/>
<path d="M356.018 121.529L352.098 120.693L354.037 115.987L357.055 117.491L356.018 121.529Z" fill="#455A64"/>
<path d="M351.513 117.266C351.463 117.399 349.498 116.839 347.115 116.02C345.645 115.602 344.224 115.028 342.877 114.306C344.382 114.569 345.855 114.987 347.274 115.552C348.743 115.973 350.164 116.548 351.513 117.266Z" fill="#455A64"/>
<path d="M350.283 120.208C350.283 120.275 349.815 120.208 349.071 120.058L347.766 119.757C347.282 119.632 346.772 119.431 346.228 119.247C344.89 118.857 343.609 118.295 342.416 117.575C342.466 117.441 344.239 118.035 346.395 118.796C346.93 118.988 347.432 119.197 347.909 119.347C348.385 119.498 348.803 119.615 349.154 119.74C349.873 119.958 350.283 120.142 350.283 120.208Z" fill="#455A64"/>
<path d="M302.924 94.1669C302.924 94.1669 296.897 91.174 294.506 99.1829C292.115 107.192 298.226 107.844 298.226 107.844C300.433 103.531 302.015 98.9257 302.924 94.1669Z" fill="#FAFAFA"/>
<path d="M308.115 84.436C308.128 84.9363 308.1 85.4368 308.031 85.9325C307.939 86.8855 307.814 88.2733 307.605 89.9871C307.446 90.8231 307.262 91.7594 307.078 92.7542C306.978 93.2475 306.877 93.7658 306.777 94.2925C306.718 94.56 306.668 94.8275 306.618 95.1285C306.568 95.4294 306.468 95.6719 306.392 95.9645L305.423 99.4004C305.339 99.7014 305.247 100.002 305.163 100.303C305.08 100.604 304.946 100.897 304.846 101.206L304.16 103.029C303.935 103.639 303.701 104.249 303.475 104.851C303.358 105.152 303.266 105.453 303.132 105.737L302.731 106.573L301.201 109.809C301.084 110.059 300.967 110.319 300.833 110.561C300.699 110.803 300.565 111.046 300.423 111.28L299.638 112.643C299.128 113.479 298.659 114.315 298.225 115.075C297.255 116.497 296.444 117.625 295.884 118.419C295.613 118.837 295.308 119.231 294.973 119.598C295.185 119.147 295.436 118.717 295.725 118.311L297.932 114.892L299.286 112.442L300.047 111.079L300.44 110.369C300.574 110.126 300.683 109.867 300.8 109.608C301.276 108.58 301.778 107.501 302.288 106.389L302.681 105.553C302.814 105.269 302.906 104.96 303.023 104.667C303.249 104.074 303.475 103.463 303.7 102.853L304.386 101.047C304.486 100.746 304.62 100.454 304.704 100.153C304.787 99.8519 304.879 99.5509 304.963 99.2583L305.958 95.8474C306.033 95.5799 306.125 95.3124 306.183 95.0114C306.242 94.7105 306.3 94.4764 306.351 94.1754C306.468 93.6571 306.568 93.1472 306.677 92.6539C306.886 91.6674 307.086 90.7562 307.262 89.9118C307.504 88.2398 307.705 86.8688 307.839 85.8907C307.894 85.3995 307.986 84.9133 308.115 84.436Z" fill="#263238"/>
<path d="M330.278 126.554C329.974 126.669 329.724 126.895 329.578 127.186C329.433 127.477 329.402 127.813 329.492 128.125C329.835 129.388 330.404 131.361 330.847 132.573C330.97 132.968 331.166 133.336 331.424 133.66C331.551 133.816 331.719 133.934 331.909 134.001C332.1 134.067 332.305 134.079 332.502 134.036C332.702 133.951 332.875 133.814 333.003 133.639C333.131 133.463 333.209 133.257 333.229 133.041C333.263 132.601 333.212 132.158 333.079 131.737C332.795 130.566 332.243 128.803 331.825 127.365C331.783 127.205 331.709 127.056 331.607 126.926C331.505 126.797 331.378 126.69 331.233 126.611C331.088 126.533 330.928 126.485 330.764 126.471C330.6 126.457 330.435 126.476 330.278 126.529V126.554Z" fill="#FFBE9D"/>
<path d="M328.405 128.744C328.099 128.858 327.847 129.083 327.7 129.374C327.553 129.666 327.521 130.002 327.611 130.316C327.962 131.578 328.53 133.551 328.973 134.755C329.091 135.153 329.284 135.524 329.542 135.85C329.669 136.007 329.837 136.125 330.028 136.191C330.218 136.258 330.423 136.27 330.62 136.226C330.822 136.144 330.997 136.008 331.126 135.832C331.254 135.656 331.331 135.448 331.348 135.231C331.387 134.791 331.339 134.348 331.206 133.927C330.913 132.757 330.37 130.984 329.952 129.546C329.91 129.387 329.836 129.238 329.734 129.108C329.632 128.979 329.505 128.871 329.36 128.793C329.215 128.715 329.055 128.667 328.891 128.653C328.727 128.638 328.561 128.658 328.405 128.71V128.744Z" fill="#FFBE9D"/>
<path d="M326.649 130.023C326.377 130.113 326.15 130.306 326.018 130.56C325.885 130.815 325.857 131.111 325.939 131.386C326.256 132.473 326.775 134.195 327.176 135.24C327.29 135.581 327.465 135.899 327.694 136.176C327.812 136.315 327.965 136.419 328.137 136.478C328.309 136.537 328.494 136.548 328.672 136.511C328.848 136.445 329.003 136.332 329.119 136.185C329.236 136.037 329.309 135.861 329.333 135.675C329.359 135.293 329.313 134.911 329.199 134.546C328.931 133.526 328.455 132.038 328.045 130.75C327.952 130.473 327.753 130.244 327.491 130.113C327.23 129.981 326.927 129.958 326.649 130.048V130.023Z" fill="#FFBE9D"/>
<path d="M324.434 130.357C324.161 130.448 323.934 130.64 323.8 130.894C323.666 131.148 323.636 131.444 323.715 131.72C324.041 132.815 324.551 134.546 324.969 135.591C325.076 135.94 325.252 136.264 325.487 136.544C325.6 136.704 325.761 136.824 325.947 136.887C326.133 136.949 326.334 136.951 326.52 136.891C326.707 136.831 326.87 136.713 326.985 136.555C327.1 136.396 327.161 136.205 327.159 136.009C327.187 135.627 327.139 135.243 327.017 134.88C326.75 133.852 326.273 132.314 325.864 131.06C325.818 130.921 325.746 130.792 325.651 130.682C325.555 130.571 325.439 130.48 325.308 130.415C325.178 130.35 325.035 130.311 324.889 130.301C324.744 130.291 324.597 130.31 324.459 130.357H324.434Z" fill="#FFBE9D"/>
<path d="M331.297 133.701C330.836 133.019 330.499 132.261 330.302 131.461C329.968 130.709 329.778 129.901 329.742 129.078C330.209 129.758 330.546 130.517 330.737 131.319C331.076 132.07 331.266 132.879 331.297 133.701Z" fill="#EB996E"/>
<path d="M329.291 135.432C328.802 134.637 328.446 133.767 328.238 132.857C327.884 131.995 327.675 131.079 327.619 130.148C328.108 130.944 328.464 131.813 328.672 132.723C329.031 133.585 329.24 134.501 329.291 135.432Z" fill="#EB996E"/>
<path d="M327.318 135.566C326.799 134.909 326.428 134.148 326.232 133.334C325.89 132.57 325.727 131.737 325.755 130.901C326.165 131.618 326.472 132.389 326.666 133.192C327.003 133.945 327.222 134.746 327.318 135.566Z" fill="#EB996E"/>
<path d="M397.023 105.16C393.838 99.7766 388.087 96.2821 382.051 94.6185C379.543 93.9246 377.787 94.1169 375.17 94.4095C372.563 94.6297 370.118 95.7637 368.265 97.6114C365.994 99.7816 364.309 102.491 363.366 105.486C362.441 108.564 361.803 111.721 361.46 114.917C361.121 118.131 361.677 121.377 363.065 124.296L370.907 126.922C375.338 127.758 379.827 128.594 384.283 128.234C388.739 127.875 393.337 126.194 396.238 122.742C400.3 117.96 400.209 110.544 397.023 105.16Z" fill="#263238"/>
<path d="M401.278 128.744C401.34 127.819 401.19 126.891 400.837 126.033C400.485 125.176 399.941 124.41 399.247 123.795C398.534 123.199 397.65 122.846 396.722 122.786C395.795 122.726 394.873 122.962 394.089 123.46L392.592 124.773C391.542 125.079 390.612 125.705 389.934 126.563C389.255 127.422 388.861 128.47 388.805 129.563C388.789 130.659 389.086 131.736 389.66 132.669C390.235 133.602 391.063 134.352 392.049 134.83C393.046 135.282 394.142 135.47 395.233 135.377C396.324 135.283 397.372 134.91 398.277 134.295C399.169 133.662 399.904 132.832 400.424 131.869C400.945 130.907 401.237 129.837 401.278 128.744Z" fill="#263238"/>
<path d="M398.838 133.961C399.222 133.533 399.459 132.994 399.515 132.422C399.464 131.025 399.018 129.671 398.227 128.518C397.487 127.322 396.525 126.277 395.393 125.442C394.557 124.79 393.905 124.505 393.939 124.438C394.521 124.588 395.069 124.849 395.552 125.208C396.776 126.004 397.807 127.064 398.57 128.309C398.991 128.992 399.325 129.725 399.565 130.491C399.791 131.12 399.871 131.792 399.799 132.456C399.741 132.91 399.546 133.336 399.239 133.676C399.022 133.91 398.854 133.977 398.838 133.961Z" fill="#455A64"/>
<path d="M394.59 135.75C395.008 133.988 395.16 132.173 395.042 130.366C394.79 128.576 394.263 126.836 393.479 125.208C393.859 125.597 394.16 126.057 394.365 126.562C395.528 128.945 395.823 131.659 395.201 134.237C395.092 134.774 394.885 135.287 394.59 135.75Z" fill="#455A64"/>
<path d="M368.249 143.733C368.734 140.916 369.812 134.872 369.812 134.889C369.812 134.905 363.35 133.158 362.823 124.464C362.556 120.142 363.45 113.178 364.362 107.501C365.198 102.393 370.598 96.0898 376.902 97.0345L379.752 97.1348L389.843 103.045C390.592 103.196 391.256 103.624 391.701 104.245C392.146 104.865 392.34 105.632 392.242 106.389L386.716 142.914L371.075 173.52L367.539 151.784L368.249 143.733Z" fill="#FFBE9D"/>
<path d="M367.271 113.738C367.243 114.023 367.326 114.308 367.504 114.533C367.682 114.757 367.94 114.904 368.224 114.942C368.363 114.967 368.505 114.964 368.642 114.933C368.78 114.902 368.909 114.844 369.024 114.762C369.139 114.68 369.236 114.576 369.309 114.456C369.383 114.336 369.432 114.203 369.453 114.064C369.482 113.778 369.399 113.492 369.221 113.266C369.043 113.04 368.785 112.891 368.5 112.852C368.361 112.827 368.218 112.83 368.08 112.861C367.942 112.892 367.812 112.951 367.698 113.034C367.583 113.117 367.486 113.222 367.413 113.342C367.339 113.463 367.291 113.598 367.271 113.738Z" fill="#263238"/>
<path d="M365.967 110.971C366.093 111.13 366.987 110.594 368.166 110.712C369.345 110.829 370.156 111.506 370.298 111.372C370.44 111.238 370.256 111.038 369.905 110.728C369.433 110.328 368.849 110.083 368.233 110.026C367.619 109.963 367.001 110.098 366.469 110.411C366.059 110.653 365.909 110.904 365.967 110.971Z" fill="#263238"/>
<path d="M372.019 120.978C371.414 120.721 370.78 120.541 370.13 120.443C369.829 120.384 369.553 120.3 369.52 120.083C369.531 119.781 369.633 119.49 369.812 119.247C370.163 118.545 370.531 117.801 370.924 117.032C372.479 113.88 373.641 111.272 373.507 111.18C372.346 112.963 371.328 114.836 370.464 116.781L369.386 119.005C369.159 119.35 369.061 119.765 369.11 120.175C369.145 120.287 369.204 120.389 369.284 120.474C369.363 120.559 369.461 120.626 369.57 120.668C369.732 120.727 369.9 120.767 370.071 120.785C370.71 120.933 371.364 120.998 372.019 120.978Z" fill="#263238"/>
<path d="M369.813 134.889C373.842 135.335 377.917 134.655 381.583 132.924C381.583 132.924 377.955 138.559 369.453 136.929L369.813 134.889Z" fill="#EB996E"/>
<path d="M366.894 106.799C367.078 107.092 367.922 106.891 368.9 106.975C369.878 107.058 370.689 107.326 370.907 107.067C371.007 106.941 370.907 106.657 370.564 106.364C370.105 106.014 369.553 105.808 368.978 105.771C368.402 105.734 367.828 105.867 367.328 106.155C367.002 106.398 366.818 106.665 366.894 106.799Z" fill="#263238"/>
<path d="M380.789 114.599C380.754 114.885 380.608 115.145 380.383 115.324C380.158 115.504 379.872 115.589 379.586 115.56C379.445 115.552 379.308 115.516 379.182 115.454C379.056 115.392 378.943 115.305 378.851 115.2C378.758 115.094 378.687 114.971 378.643 114.838C378.598 114.704 378.58 114.564 378.591 114.423C378.624 114.137 378.77 113.875 378.995 113.695C379.22 113.515 379.508 113.431 379.795 113.462C379.935 113.47 380.072 113.507 380.198 113.569C380.324 113.631 380.437 113.717 380.53 113.823C380.622 113.928 380.693 114.051 380.737 114.185C380.782 114.318 380.8 114.459 380.789 114.599Z" fill="#263238"/>
<path d="M381.616 111.957C381.457 112.082 380.713 111.355 379.534 111.196C378.355 111.037 377.419 111.514 377.31 111.355C377.202 111.196 377.427 111.046 377.837 110.82C378.396 110.535 379.03 110.43 379.651 110.519C380.262 110.602 380.833 110.873 381.281 111.297C381.599 111.623 381.691 111.899 381.616 111.957Z" fill="#263238"/>
<path d="M381.44 107.928C381.198 108.162 380.421 107.777 379.451 107.635C378.481 107.493 377.62 107.568 377.469 107.267C377.403 107.117 377.57 106.866 377.963 106.665C378.483 106.417 379.068 106.341 379.635 106.448C380.207 106.531 380.739 106.792 381.156 107.192C381.466 107.518 381.549 107.844 381.44 107.928Z" fill="#263238"/>
<path d="M390.412 118.361L388.74 119.657C383.314 112.609 373.224 95.4964 373.776 96.5079C376.826 95.8721 379.987 96.0072 382.972 96.9008C387.57 98.4307 396.172 102.159 395.186 107.71C394.199 113.261 390.412 118.361 390.412 118.361Z" fill="#263238"/>
<path d="M393.956 123.82C393.981 123.366 394.032 122.914 394.106 122.466C394.237 121.241 394.259 120.007 394.173 118.779C393.832 114.718 392.506 110.801 390.311 107.367C388.079 103.96 385.342 100.913 382.193 98.3302C380.989 97.327 379.994 96.5495 379.292 96.0145C378.922 95.7567 378.568 95.4775 378.23 95.1785C378.23 95.1785 378.348 95.1785 378.54 95.3457C378.732 95.5129 379.025 95.655 379.376 95.9058C380.103 96.399 381.131 97.1431 382.36 98.1295C385.601 100.669 388.4 103.725 390.645 107.175C392.877 110.657 394.186 114.651 394.449 118.779C394.514 120.025 394.45 121.274 394.257 122.507C394.198 122.942 394.098 123.268 394.056 123.502C394.039 123.613 394.006 123.72 393.956 123.82Z" fill="#455A64"/>
<path d="M381.934 95.3708C382.046 95.4141 382.152 95.4702 382.251 95.538C382.46 95.6551 382.753 95.8306 383.129 96.0731C383.873 96.558 384.943 97.2853 386.206 98.2718C387.677 99.4304 389.081 100.673 390.411 101.992C392.099 103.558 393.589 105.324 394.85 107.25C395.49 108.27 395.988 109.373 396.33 110.528C396.64 111.615 396.797 112.741 396.798 113.872C396.788 115.755 396.507 117.628 395.962 119.431C395.502 120.969 395.034 122.173 394.699 123.001C394.532 123.41 394.39 123.728 394.298 123.945C394.252 124.056 394.196 124.162 394.131 124.263C394.248 123.795 394.402 123.336 394.591 122.892C394.875 122.056 395.301 120.835 395.719 119.306C396.227 117.525 396.486 115.682 396.488 113.83C396.47 112.743 396.31 111.664 396.012 110.619C395.675 109.5 395.188 108.432 394.566 107.443C393.319 105.547 391.86 103.8 390.218 102.234C388.889 100.922 387.494 99.6773 386.038 98.5058C384.809 97.5026 383.764 96.7419 383.045 96.2236C382.655 95.9667 382.283 95.6817 381.934 95.3708Z" fill="#455A64"/>
<path d="M390.537 118.52C390.296 118.263 390.08 117.983 389.893 117.684L388.221 115.293C386.858 113.27 384.994 110.452 382.963 107.326C380.931 104.199 379.1 101.365 377.796 99.2918L376.266 96.834C376.069 96.539 375.896 96.2287 375.748 95.906C375.991 96.1615 376.207 96.4417 376.392 96.742L378.064 99.133C379.426 101.156 381.291 103.973 383.331 107.1C385.37 110.227 387.193 113.069 388.497 115.134L390.027 117.6C390.228 117.889 390.399 118.197 390.537 118.52Z" fill="#455A64"/>
<path d="M388.814 120.618C388.881 119.983 389.767 118.545 390.402 118.511C392.074 118.411 395.134 118.837 394.741 123.118C394.215 128.97 388.463 127.222 388.463 127.055C388.463 126.888 388.597 122.817 388.814 120.618Z" fill="#FFBE9D"/>
<path d="M390.077 124.857C390.077 124.857 390.169 124.94 390.336 125.032C390.451 125.096 390.578 125.136 390.708 125.15C390.839 125.164 390.971 125.153 391.097 125.116C391.497 124.913 391.835 124.606 392.076 124.229C392.317 123.851 392.452 123.415 392.468 122.967C392.525 122.466 392.47 121.958 392.309 121.479C392.27 121.294 392.187 121.121 392.066 120.975C391.945 120.829 391.79 120.715 391.615 120.643C391.501 120.604 391.376 120.605 391.262 120.646C391.149 120.687 391.052 120.766 390.988 120.869C390.896 121.028 390.922 121.145 390.896 121.153C390.871 121.161 390.779 121.044 390.846 120.81C390.889 120.669 390.981 120.547 391.105 120.468C391.19 120.413 391.285 120.376 391.384 120.359C391.483 120.342 391.584 120.345 391.682 120.367C391.92 120.434 392.135 120.562 392.308 120.738C392.481 120.914 392.606 121.132 392.669 121.37C392.877 121.902 392.946 122.477 392.869 123.042C392.727 124.221 392.033 125.266 391.197 125.433C391.036 125.466 390.87 125.462 390.711 125.421C390.552 125.381 390.404 125.305 390.278 125.199C390.077 124.999 390.06 124.865 390.077 124.857Z" fill="#EB996E"/>
<path d="M402.541 336.975C402.424 337.894 400.159 363.601 400.159 363.601H388.379L386.314 337.084L402.541 336.975Z" fill="#FFBE9D"/>
<path d="M388.346 359.773C388.346 359.773 396.622 365.625 400.618 360.567L401.671 363.025L406.37 380.581C406.531 381.131 406.486 381.72 406.243 382.239C405.999 382.758 405.575 383.17 405.049 383.398C404.645 383.558 404.204 383.6 403.778 383.519C403.352 383.437 402.957 383.236 402.641 382.938C399.239 379.694 386.757 367.731 386.908 366.109L386.949 361.804C386.956 361.367 387.093 360.941 387.341 360.581C387.59 360.221 387.939 359.943 388.346 359.781V359.773Z" fill="#2576BC"/>
<path d="M404.624 383.507L386.9 364.605V365.541C386.88 365.928 386.944 366.315 387.088 366.674C387.232 367.034 387.454 367.358 387.736 367.623C389.174 369.554 393.145 373.884 402.567 382.93C402.837 383.189 403.167 383.377 403.527 383.478C403.887 383.579 404.267 383.588 404.632 383.507H404.624Z" fill="#263238"/>
<path d="M389.5 361.796C389.774 361.996 389.964 362.29 390.035 362.621C390.106 362.953 390.053 363.299 389.885 363.593C389.695 363.875 389.405 364.073 389.074 364.148C388.743 364.222 388.396 364.168 388.104 363.994C387.814 363.781 387.614 363.469 387.542 363.117C387.469 362.765 387.529 362.398 387.711 362.088C387.938 361.816 388.261 361.642 388.613 361.603C388.966 361.564 389.319 361.663 389.6 361.879" fill="white"/>
<path d="M399.531 373.826C400.061 373.128 400.72 372.538 401.471 372.087C402.27 371.769 403.119 371.599 403.979 371.585C403.979 371.535 403.72 371.36 403.201 371.293C402.517 371.215 401.825 371.34 401.212 371.652C400.591 371.952 400.073 372.429 399.724 373.023C399.506 373.475 399.473 373.809 399.531 373.826Z" fill="#263238"/>
<path d="M401.121 376.794C401.756 376.43 402.412 376.107 403.086 375.824C403.801 375.687 404.524 375.592 405.251 375.54C405.318 375.423 404.248 374.963 402.944 375.364C401.639 375.765 401.004 376.735 401.121 376.794Z" fill="#263238"/>
<path d="M396.572 370.022C397.506 369.394 398.483 368.835 399.498 368.35C400.574 368.005 401.675 367.745 402.792 367.572C402.792 367.447 401.17 367.146 399.314 367.899C398.177 368.258 397.205 369.011 396.572 370.022Z" fill="#263238"/>
<path d="M396.172 364.68C396.239 364.814 397.459 364.295 399.056 364.237C400.653 364.178 401.915 364.546 401.965 364.412C401.066 363.928 400.052 363.696 399.032 363.744C398.011 363.791 397.023 364.114 396.172 364.68Z" fill="#263238"/>
<path d="M399.966 364.187C399.982 363.902 399.939 363.618 399.84 363.351C399.62 362.61 399.257 361.92 398.77 361.319C398.454 360.845 397.99 360.489 397.45 360.308C397.267 360.264 397.075 360.278 396.9 360.346C396.725 360.415 396.576 360.536 396.471 360.692C396.293 361.012 396.236 361.387 396.313 361.746C396.5 362.475 396.938 363.115 397.549 363.555C398.16 363.995 398.906 364.206 399.657 364.153C400.393 364.09 401.094 363.811 401.671 363.349C402.249 362.888 402.676 362.266 402.9 361.562C402.955 361.384 402.971 361.196 402.947 361.011C402.922 360.826 402.858 360.649 402.758 360.492C402.649 360.336 402.49 360.222 402.308 360.169C402.126 360.116 401.931 360.126 401.755 360.199C401.24 360.418 400.791 360.766 400.451 361.211C399.95 361.796 399.554 362.463 399.28 363.183C399.159 363.446 399.093 363.73 399.088 364.019C399.499 363.091 400.046 362.229 400.71 361.461C401.022 361.094 401.417 360.807 401.864 360.625C401.96 360.588 402.067 360.584 402.166 360.612C402.266 360.641 402.353 360.701 402.415 360.784C402.476 360.892 402.511 361.011 402.52 361.134C402.529 361.257 402.51 361.38 402.466 361.495C402.244 362.09 401.857 362.61 401.351 362.993C400.844 363.377 400.239 363.608 399.606 363.66C398.974 363.697 398.349 363.519 397.831 363.154C397.313 362.79 396.934 362.261 396.756 361.654C396.695 361.406 396.725 361.145 396.839 360.918C396.893 360.829 396.974 360.759 397.07 360.718C397.166 360.677 397.273 360.668 397.374 360.692C397.826 360.85 398.22 361.142 398.503 361.528C399.143 362.321 399.638 363.221 399.966 364.187Z" fill="#263238"/>
<path d="M337.859 328.606L339.891 361.428L354.153 361.327L356.561 327.227L337.859 328.606Z" fill="#FFBE9D"/>
<path d="M339.632 357.465V358.418C339.632 358.418 323.531 364.814 323.33 367.84H355.265L354.814 357.214C352.45 358.344 349.87 358.951 347.25 358.994C344.631 359.038 342.032 358.516 339.632 357.465Z" fill="#2576BC"/>
<path d="M351.587 360.6C351.894 360.694 352.156 360.897 352.323 361.172C352.489 361.446 352.549 361.773 352.49 362.088C352.408 362.398 352.212 362.666 351.94 362.835C351.667 363.005 351.341 363.063 351.027 363C350.701 362.9 350.423 362.684 350.247 362.392C350.071 362.101 350.009 361.754 350.074 361.42C350.192 361.105 350.429 360.848 350.732 360.703C351.036 360.558 351.384 360.536 351.704 360.642" fill="white"/>
<path d="M355.299 367.84L355.19 365.29L324.626 366.26C324.626 366.26 323.205 366.879 323.364 367.873L355.299 367.84Z" fill="#263238"/>
<path d="M339.507 358.51C339.507 358.661 340.293 358.728 341.062 359.229C341.831 359.731 342.24 360.391 342.383 360.324C342.525 360.258 342.291 359.363 341.354 358.778C340.418 358.193 339.473 358.36 339.507 358.51Z" fill="#263238"/>
<path d="M336.164 359.898C336.164 360.049 336.799 360.308 337.334 360.968C337.87 361.629 338.02 362.322 338.17 362.322C338.321 362.322 338.43 361.428 337.752 360.65C337.075 359.873 336.164 359.748 336.164 359.898Z" fill="#263238"/>
<path d="M334.265 363.902C334.407 363.902 334.625 363.158 334.265 362.306C333.906 361.453 333.128 361.11 333.061 361.244C332.994 361.378 333.454 361.829 333.772 362.531C334.09 363.234 334.106 363.894 334.265 363.902Z" fill="#263238"/>
<path d="M356.562 227.032C356.136 228.261 339.224 285.552 339.224 285.552L336.314 353.544L357.365 354.757L364.889 286.873L384.117 244.413L375.665 209.869H358.477L356.562 227.032Z" fill="#263238"/>
<path d="M371.543 209.886C371.844 210.722 382.637 249.596 382.637 249.596L384.133 307.564V355.526H403.319L412.256 249.755C412.256 249.755 413.836 230.527 411.136 224.065C408.436 217.602 397.501 206.25 397.501 206.25L371.543 209.886Z" fill="#263238"/>
<path d="M373.09 213.865C373.269 214.305 373.414 214.758 373.525 215.22C373.8 216.164 374.168 217.418 374.603 218.932C375.573 222.134 376.86 226.456 378.29 231.162C379.719 235.869 380.865 240.358 381.533 243.527C381.885 245.132 382.11 246.436 382.244 247.339C382.339 247.804 382.392 248.277 382.403 248.752C382.261 248.301 382.152 247.84 382.077 247.372C381.893 246.478 381.617 245.182 381.241 243.602C380.497 240.417 379.293 236.078 377.897 231.288C376.501 226.497 375.18 222.175 374.335 219.015C373.909 217.435 373.583 216.156 373.382 215.262C373.245 214.806 373.147 214.338 373.09 213.865Z" fill="#455A64"/>
<path d="M379.711 213.866C379.235 214.018 378.816 214.309 378.507 214.702C378.358 214.913 378.265 215.159 378.236 215.416C378.207 215.673 378.242 215.933 378.34 216.173C378.456 216.462 378.65 216.713 378.901 216.898C379.152 217.083 379.45 217.193 379.761 217.218C380.073 217.222 380.38 217.139 380.648 216.978C380.915 216.817 381.132 216.585 381.274 216.307C381.396 216.079 381.46 215.825 381.46 215.567C381.46 215.309 381.396 215.054 381.274 214.827C381.007 214.398 380.616 214.06 380.154 213.857C380.154 213.857 380.321 213.815 380.597 213.907C380.987 214.051 381.316 214.322 381.533 214.676C381.71 214.94 381.815 215.246 381.837 215.563C381.859 215.879 381.798 216.197 381.659 216.482C381.497 216.845 381.23 217.15 380.893 217.358C380.555 217.567 380.163 217.668 379.767 217.65C379.37 217.632 378.989 217.495 378.672 217.257C378.354 217.019 378.116 216.691 377.989 216.315C377.879 216.017 377.848 215.695 377.899 215.382C377.95 215.068 378.082 214.773 378.281 214.526C378.533 214.193 378.889 213.955 379.293 213.849C379.544 213.807 379.711 213.84 379.711 213.866Z" fill="#455A64"/>
<path d="M396.74 241.788C396.751 241.885 396.751 241.983 396.74 242.08C396.74 242.298 396.74 242.574 396.74 242.916C396.74 243.702 396.74 244.806 396.74 246.21C396.74 249.078 396.74 253.216 396.648 258.332C396.498 268.565 396.038 282.685 395.436 298.285C394.834 313.884 394.333 328.013 394.098 338.237C393.981 343.353 393.906 347.492 393.864 350.351C393.864 351.755 393.864 352.859 393.814 353.645C393.814 353.996 393.814 354.274 393.814 354.481C393.851 354.487 393.885 354.507 393.908 354.537C393.931 354.567 393.942 354.604 393.939 354.642C393.936 354.679 393.919 354.714 393.891 354.74C393.863 354.765 393.827 354.779 393.789 354.779C393.751 354.779 393.715 354.765 393.687 354.74C393.66 354.714 393.642 354.679 393.639 354.642C393.636 354.604 393.647 354.567 393.67 354.537C393.693 354.507 393.727 354.487 393.764 354.481C393.764 354.263 393.764 353.979 393.764 353.645C393.764 352.859 393.764 351.755 393.764 350.351C393.764 347.483 393.764 343.345 393.856 338.229C394.015 327.996 394.466 313.868 395.068 298.268C395.67 282.668 396.172 268.548 396.406 258.324C396.523 253.208 396.606 249.069 396.64 246.21C396.64 244.806 396.682 243.702 396.69 242.916C396.69 242.557 396.69 242.281 396.69 242.08C396.694 241.981 396.711 241.883 396.74 241.788Z" fill="#455A64"/>
<path d="M367.138 234.807C367.116 234.907 367.085 235.005 367.046 235.1L366.72 235.936C366.41 236.713 365.976 237.817 365.424 239.23C364.279 242.106 362.632 246.227 360.592 251.31C358.552 256.393 356.228 262.529 354.004 269.434C351.464 276.879 349.685 284.562 348.696 292.366C348.252 296.546 348.06 300.626 347.809 304.563C347.559 308.501 347.391 312.313 347.191 315.941C346.815 323.189 346.48 329.718 346.196 335.219C345.912 340.72 345.611 345.143 345.36 348.202C345.234 349.715 345.143 350.894 345.076 351.73C345.034 352.115 345.009 352.416 344.984 352.641C344.977 352.748 344.963 352.854 344.942 352.959C344.931 352.854 344.931 352.747 344.942 352.641C344.942 352.416 344.942 352.106 344.984 351.722C345.034 350.886 345.101 349.707 345.193 348.194C345.368 345.126 345.602 340.67 345.861 335.202C346.121 329.735 346.43 323.172 346.764 315.924C346.957 312.296 347.149 308.484 347.358 304.538C347.567 300.592 347.793 296.504 348.236 292.324C349.245 284.497 351.052 276.794 353.628 269.334C355.877 262.42 358.276 256.326 360.316 251.226C362.356 246.127 364.095 242.03 365.273 239.196C365.859 237.792 366.318 236.688 366.644 235.927L367.012 235.091C367.044 234.993 367.086 234.897 367.138 234.807Z" fill="#455A64"/>
<path d="M396.08 141.451C396.08 141.451 407.491 143.583 409.999 145.673C412.507 147.763 435.364 177.575 435.84 183.594C436.317 189.613 433.533 191.82 431.953 193.25C430.373 194.679 403.052 213.18 403.052 213.18L394.65 199.244L418.259 185.141L406.864 165.653L396.08 141.451Z" fill="#2576BC"/>
<path d="M425.883 179.84C424.286 180.081 422.747 180.614 421.343 181.412C420.017 182.329 418.867 183.479 417.949 184.806C418.055 184.324 418.27 183.872 418.576 183.485C419.243 182.502 420.109 181.67 421.116 181.04C422.124 180.411 423.252 180 424.428 179.832C424.907 179.723 425.405 179.725 425.883 179.84Z" fill="#2576BC"/>
<path d="M368.425 142.897L371.451 170.352L386.892 139.42L396.849 149.535C396.849 149.535 402.96 185.692 403.052 185.951C403.144 186.211 398.872 206.634 398.872 206.634L370.573 212.11L361.937 209.911L360.575 177.75L359.973 153.122L368.425 142.897Z" fill="white"/>
<path d="M364.755 144.068L357.407 145.74C356.425 145.967 355.513 146.429 354.748 147.086C348.478 152.453 334.919 163.806 334.919 163.806L337.427 143.658L324.368 142.446C324.368 142.446 320.456 167.844 320.857 174.523C321.334 182.281 328.289 184.188 338.413 180.016C344.67 177.505 350.726 174.52 356.529 171.087L364.755 144.068Z" fill="#2576BC"/>
<path d="M405.734 165.762L404.388 189.839L405.743 194.521C405.743 194.521 418.416 218.447 420.506 234.289L404.823 236.797C404.823 236.797 400.543 216.357 397.533 206.225C394.524 196.092 385.62 191.829 382.611 181.412C380.798 175.461 380.154 169.216 380.713 163.02C380.713 162.385 386.891 139.411 386.891 139.411L387.994 134.613L393.545 139.888L407.799 144.628L405.734 165.762Z" fill="#2576BC"/>
<g opacity="0.3">
<path d="M413.21 210.538C410.617 212.541 407.907 214.387 405.092 216.064C404.925 216.148 404.708 216.24 404.465 216.332C403.901 216.54 403.28 216.537 402.717 216.326C402.154 216.114 401.685 215.706 401.397 215.178C401.063 214.568 400.72 213.924 400.494 213.439C399.918 212.194 399.291 210.697 398.73 209.401L400.494 208.975L403.053 213.213L410.426 208.197L411.831 207.236L413.21 210.538Z" fill="black"/>
</g>
<path d="M368.558 140.189L365.13 143.775L356.912 146.659C356.912 146.659 354.906 170.903 355.993 176.07C357.046 181.036 359.052 187.072 359.22 194.203C359.387 201.334 351.244 239.021 351.244 239.021L361.092 242.758C361.092 242.758 366.108 199.127 365.13 189.613C364.152 180.099 366.693 160.922 366.693 160.922L368.558 140.189Z" fill="#2576BC"/>
<path d="M387.2 186.428C387.068 186.309 386.948 186.177 386.841 186.035C386.522 185.63 386.242 185.197 386.005 184.739C385.183 183.027 384.746 181.155 384.726 179.255C384.695 176.457 384.89 173.661 385.311 170.895C385.768 167.506 386.464 164.154 387.393 160.863C388.97 155.205 391.215 149.755 394.081 144.628L394.214 144.87L390.728 144.762H390.478L390.628 144.561L392.919 141.485L393.537 140.649C393.603 140.552 393.682 140.465 393.771 140.389C393.726 140.497 393.667 140.598 393.596 140.69L393.027 141.526L390.837 144.678L390.737 144.477L394.223 144.519H394.49L394.357 144.753C391.572 149.891 389.368 155.322 387.786 160.947C386.866 164.216 386.162 167.542 385.679 170.903C385.253 173.642 385.029 176.408 385.01 179.18C385.008 181.043 385.389 182.887 386.13 184.597C386.453 185.226 386.811 185.838 387.2 186.428Z" fill="#263238"/>
<path d="M396.848 164.199C395.543 164.637 394.184 164.896 392.81 164.968C391.45 165.174 390.069 165.191 388.705 165.018C390.047 164.763 391.404 164.601 392.768 164.533C394.118 164.321 395.481 164.209 396.848 164.199Z" fill="#263238"/>
<path d="M406.848 158.614C406.825 159.025 406.766 159.434 406.672 159.835C406.564 160.621 406.421 161.758 406.288 163.179C406.02 166.005 405.753 169.909 405.452 174.222L404.783 185.283C404.683 186.696 404.599 187.841 404.524 188.627C404.51 189.038 404.454 189.447 404.356 189.847C404.324 189.438 404.324 189.027 404.356 188.618C404.356 187.74 404.423 186.612 404.474 185.274C404.582 182.44 404.758 178.528 405.017 174.206C405.276 169.884 405.602 165.979 405.953 163.154C406.12 161.749 406.313 160.646 406.472 159.81C406.558 159.4 406.684 159 406.848 158.614Z" fill="#263238"/>
<path d="M425.096 185.943C425.055 186.068 423.516 185.575 421.543 185.433C419.57 185.291 417.982 185.542 417.957 185.433C419.112 185.004 420.355 184.863 421.577 185.023C422.807 185.043 424.014 185.358 425.096 185.943Z" fill="#263238"/>
<path d="M335.001 163.338C334.752 164.422 334.364 165.47 333.847 166.456C333.463 167.501 332.943 168.49 332.301 169.399C332.545 168.313 332.933 167.264 333.454 166.28C333.843 165.238 334.363 164.249 335.001 163.338Z" fill="#263238"/>
<path d="M355.5 155.304C355.617 155.304 355.81 160.035 355.918 165.879C356.027 171.723 356.027 176.463 355.918 176.463C355.81 176.463 355.609 171.731 355.492 165.887C355.375 160.044 355.383 155.312 355.5 155.304Z" fill="#263238"/>
<path d="M365.248 175.184C365.172 174.781 365.136 174.373 365.139 173.963C365.139 173.127 365.073 171.973 365.022 170.619C364.939 167.802 364.847 163.931 364.78 159.617C364.713 155.304 364.68 151.425 364.671 148.607C364.671 147.261 364.671 146.141 364.671 145.263C364.655 144.855 364.677 144.447 364.738 144.043C364.814 144.445 364.85 144.854 364.847 145.263C364.847 146.099 364.914 147.253 364.964 148.607C365.047 151.425 365.131 155.295 365.198 159.609C365.265 163.923 365.307 167.793 365.315 170.611C365.315 171.957 365.315 173.119 365.315 173.955C365.327 174.366 365.304 174.777 365.248 175.184Z" fill="#263238"/>
<path d="M427.136 196.711C426.996 196.841 426.845 196.958 426.684 197.062L425.347 198.023L420.331 201.543L403.176 213.389L402.992 213.523L402.875 213.33L399.113 207.094L394.482 199.386L394.373 199.202L394.549 199.093L411.486 189.061L416.452 186.169L417.789 185.408C417.941 185.314 418.1 185.233 418.266 185.166C418.129 185.284 417.981 185.387 417.823 185.475L416.527 186.311L411.628 189.304L394.758 199.461L394.833 199.169C396.296 201.601 397.868 204.185 399.481 206.868L403.235 213.105L402.925 213.038C409.797 208.373 415.825 204.277 420.164 201.334L425.263 197.923L426.643 197.02C426.799 196.905 426.964 196.801 427.136 196.711Z" fill="#263238"/>
<g opacity="0.3">
<path d="M386.055 184.639C385.799 181.043 386.14 177.43 387.066 173.947C389.227 164.174 392.78 154.762 397.617 145.999C397.055 145.689 396.41 145.561 395.772 145.633C395.134 145.705 394.535 145.973 394.055 146.4C393.117 147.279 392.391 148.36 391.932 149.56C388.242 157.442 385.91 165.89 385.035 174.548C384.819 176.212 384.777 177.893 384.91 179.564C385.077 181.32 385.077 183.159 386.164 184.539" fill="black"/>
</g>
<g opacity="0.3">
<path d="M355.475 157.059C352.875 161.574 353.218 167.008 355.701 171.589C355.701 166.573 355.701 162.184 355.4 157.126" fill="black"/>
</g>
<path d="M375.69 123.569C375.668 123.421 375.614 123.279 375.532 123.153C375.45 123.028 375.341 122.921 375.214 122.842C375.039 122.772 374.85 122.743 374.662 122.758C373.574 122.778 372.493 122.932 371.443 123.218L371.385 123.385C371.435 123.854 371.534 124.316 371.677 124.765C371.819 125.217 372.086 125.62 372.447 125.927C372.799 126.187 373.225 126.327 373.663 126.327C374.101 126.327 374.527 126.187 374.879 125.927C375.223 125.65 375.481 125.282 375.625 124.865C375.768 124.448 375.791 123.999 375.69 123.569Z" fill="#EB996E"/>
<path d="M372.463 126.127C372.916 126.168 373.373 126.139 373.817 126.044C374.278 125.903 374.677 125.608 374.946 125.208C375.106 124.973 375.216 124.708 375.268 124.429C375.319 124.149 375.312 123.862 375.247 123.586C375.197 123.325 375.047 123.094 374.829 122.942C374.584 122.862 374.321 122.862 374.076 122.942L372.572 123.226C372.108 123.35 371.629 123.403 371.15 123.385C371.576 123.164 372.033 123.009 372.505 122.925L373.993 122.549C374.325 122.429 374.689 122.429 375.021 122.549C375.186 122.648 375.328 122.78 375.439 122.937C375.549 123.094 375.626 123.272 375.665 123.46C375.747 123.797 375.754 124.147 375.687 124.486C375.619 124.826 375.477 125.146 375.272 125.425C374.928 125.861 374.438 126.158 373.892 126.261C373.659 126.346 373.41 126.379 373.163 126.355C372.915 126.332 372.676 126.254 372.463 126.127Z" fill="#263238"/>
<path d="M390.704 126.963C390.585 126.653 390.365 126.391 390.08 126.22C389.796 126.049 389.462 125.978 389.132 126.019C388.945 126.04 388.765 126.102 388.605 126.2C388.445 126.298 388.308 126.43 388.204 126.587C388.039 126.86 387.966 127.178 387.994 127.495C388.023 127.812 388.152 128.112 388.363 128.351C388.584 128.579 388.874 128.728 389.188 128.775C389.503 128.822 389.824 128.764 390.102 128.61C390.373 128.443 390.58 128.19 390.689 127.891C390.798 127.592 390.803 127.265 390.704 126.963Z" fill="#FAFAFA"/>
<path d="M395.017 200.105L385.345 191.536L377.177 192.238C377.177 192.238 377.461 193.576 378.59 193.785C379.718 193.994 383.798 194.069 383.798 194.069L385.712 195.967L380.839 195.482L374.644 199.135C374.644 199.135 374.502 200.264 376.123 199.971C377.733 199.579 379.31 199.062 380.839 198.425L384.442 198.634L380.512 199.202L375.421 202.788C375.759 203.14 376.188 203.393 376.659 203.518C377.131 203.643 377.628 203.637 378.096 203.499C379.718 203.006 381.683 202.228 381.683 202.228L386.122 201.802L381.683 202.931L378.381 207.019C378.693 207.237 379.065 207.353 379.447 207.353C379.828 207.353 380.2 207.237 380.512 207.019C381.166 206.56 381.794 206.066 382.393 205.539L387.318 205.322C387.318 205.322 392.76 209.267 394.649 209.694C396.539 210.12 400.501 208.966 400.501 208.966L395.017 200.105Z" fill="#FFBE9D"/>
<path d="M586.73 240.425H436.844V324.234H586.73V240.425Z" fill="#FAFAFA"/>
<path d="M586.73 324.234C586.73 324.234 586.73 323.716 586.73 322.73C586.73 321.743 586.73 320.272 586.73 318.357C586.73 314.512 586.73 308.86 586.73 301.595C586.73 287.091 586.679 266.157 586.638 240.425L586.805 240.593L436.927 240.643L437.144 240.425C437.144 270.062 437.144 298.41 437.144 324.234L436.943 324.034L544.787 324.134L575.719 324.184H583.979H586.111H586.838H586.136H584.021H575.811L544.879 324.243L436.943 324.343H436.734V324.134C436.734 298.31 436.734 269.961 436.734 240.325V240.108H436.96L586.838 240.158H587.005V240.325C587.005 266.099 586.939 287.066 586.913 301.604C586.913 308.844 586.913 314.487 586.913 318.324C586.913 320.23 586.913 321.668 586.913 322.671C586.913 323.674 586.73 324.234 586.73 324.234Z" fill="#263238"/>
<path d="M476.353 260.397H455.16V281.59H476.353V260.397Z" fill="#455A64"/>
<path d="M505.453 263.34C505.453 263.466 500.504 263.566 494.409 263.566C488.315 263.566 483.357 263.466 483.357 263.34C483.357 263.215 488.307 263.123 494.409 263.123C500.512 263.123 505.453 263.257 505.453 263.34Z" fill="#912E31"/>
<path d="M576.004 270.998C576.004 271.115 555.255 271.215 529.673 271.215C504.091 271.215 483.342 271.115 483.342 270.998C483.342 270.881 504.083 270.781 529.673 270.781C555.263 270.781 576.004 270.864 576.004 270.998Z" fill="#263238"/>
<path d="M544.845 279.542C544.845 279.659 531.21 279.759 514.406 279.759C497.602 279.759 483.959 279.659 483.959 279.542C483.959 279.425 497.586 279.324 514.406 279.324C531.226 279.324 544.845 279.425 544.845 279.542Z" fill="#263238"/>
<path d="M564.542 293.486H462.157C456.732 293.486 452.334 297.884 452.334 303.309C452.334 308.734 456.732 313.132 462.157 313.132H564.542C569.967 313.132 574.365 308.734 574.365 303.309C574.365 297.884 569.967 293.486 564.542 293.486Z" fill="#912E31"/>
<path d="M494.526 304.68H492.018L491.541 305.842H490.254L492.67 300.433H493.907L496.323 305.842H495.011L494.526 304.68ZM494.133 303.736L493.297 301.662L492.461 303.736H494.133Z" fill="white"/>
<path d="M501.6 302.398C501.6 303.602 500.697 304.354 499.251 304.354H498.164V305.842H496.91V300.433H499.251C500.672 300.433 501.6 301.178 501.6 302.398ZM500.338 302.398C500.338 301.805 499.945 301.453 499.184 301.453H498.164V303.334H499.184C499.928 303.334 500.313 302.983 500.313 302.398H500.338Z" fill="white"/>
<path d="M507.159 302.398C507.159 303.602 506.256 304.354 504.81 304.354H503.723V305.842H502.436V300.433H504.776C506.256 300.433 507.159 301.178 507.159 302.398ZM505.888 302.398C505.888 301.805 505.504 301.453 504.743 301.453H503.723V303.334H504.743C505.504 303.334 505.888 302.983 505.888 302.398Z" fill="white"/>
<path d="M508.053 300.433H509.298V304.822H512.015V305.842H508.053V300.433Z" fill="white"/>
<path d="M514.758 303.928V305.842H513.504V303.911L511.414 300.433H512.743L514.19 302.833L515.636 300.433H516.865L514.758 303.928Z" fill="white"/>
<path d="M524.539 300.433V305.842H523.511L520.827 302.557V305.842H519.59V300.433H520.626L523.335 303.719V300.433H524.539Z" fill="white"/>
<path d="M525.483 303.134C525.45 302.541 525.595 301.951 525.9 301.442C526.205 300.932 526.656 300.526 527.195 300.276C527.733 300.025 528.334 299.942 528.921 300.037C529.507 300.132 530.051 300.4 530.483 300.808C530.915 301.216 531.215 301.744 531.344 302.323C531.472 302.903 531.424 303.508 531.205 304.06C530.986 304.612 530.607 305.086 530.116 305.42C529.625 305.754 529.045 305.933 528.451 305.934C528.069 305.957 527.687 305.902 527.328 305.771C526.969 305.641 526.64 305.438 526.362 305.176C526.084 304.913 525.862 304.597 525.711 304.246C525.56 303.894 525.483 303.516 525.483 303.134ZM530.14 303.134C530.127 302.806 530.018 302.49 529.826 302.224C529.635 301.958 529.369 301.754 529.063 301.638C528.756 301.521 528.422 301.497 528.102 301.569C527.783 301.641 527.491 301.806 527.264 302.042C527.037 302.278 526.884 302.576 526.825 302.898C526.765 303.221 526.802 303.553 526.93 303.855C527.059 304.157 527.273 304.414 527.546 304.595C527.819 304.776 528.14 304.872 528.468 304.873C528.693 304.873 528.916 304.827 529.123 304.739C529.331 304.651 529.518 304.522 529.674 304.36C529.83 304.197 529.952 304.005 530.032 303.794C530.112 303.584 530.149 303.359 530.14 303.134Z" fill="white"/>
<path d="M540.356 300.433L538.584 305.842H537.238L536.051 302.181L534.822 305.842H533.484L531.695 300.433H532.991L534.22 304.237L535.491 300.433H536.653L537.89 304.262L539.144 300.433H540.356Z" fill="white"/>
<path d="M156.457 182.19H45.5117V244.221H156.457V182.19Z" fill="#FAFAFA"/>
<path d="M156.457 244.229C156.457 244.229 156.457 243.844 156.457 243.109C156.457 242.373 156.457 241.286 156.457 239.865C156.457 237.014 156.457 232.834 156.415 227.459C156.415 216.716 156.356 201.234 156.323 182.189L156.49 182.357L45.553 182.407L45.7703 182.189C45.7703 204.126 45.7703 225.11 45.7703 244.229L45.5697 244.028L125.341 244.12L148.272 244.179H154.392H155.972H156.515H155.997H154.434H148.364L125.483 244.229L45.5697 244.329H45.3105V244.129C45.3105 225.009 45.3105 204.001 45.3105 182.089V181.872H45.5363L156.473 181.93H156.641V182.089C156.641 201.175 156.574 216.7 156.549 227.459C156.549 232.818 156.549 236.989 156.507 239.832C156.507 241.236 156.507 242.34 156.507 243.042C156.507 243.744 156.457 244.229 156.457 244.229Z" fill="#263238"/>
<path d="M74.7537 196.978H59.0703V212.662H74.7537V196.978Z" fill="#455A64"/>
<path d="M96.2975 199.185C93.5778 199.401 90.8487 199.473 88.1214 199.403C85.3941 199.473 82.665 199.401 79.9453 199.185C82.6647 198.965 85.3941 198.893 88.1214 198.968C90.8487 198.893 93.5781 198.965 96.2975 199.185Z" fill="#912E31"/>
<path d="M148.523 204.82C148.523 204.946 133.174 205.037 114.247 205.037C95.3197 205.037 79.9707 204.946 79.9707 204.82C79.9707 204.695 95.3197 204.603 114.247 204.603C133.174 204.603 148.523 204.703 148.523 204.82Z" fill="#263238"/>
<path d="M125.449 211.149C125.449 211.266 115.367 211.366 102.919 211.366C90.4708 211.366 80.3887 211.266 80.3887 211.149C80.3887 211.032 90.4708 210.931 102.961 210.931C115.451 210.931 125.449 211.023 125.449 211.149Z" fill="#263238"/>
<path d="M140.029 221.465H64.2537C60.2368 221.465 56.9805 224.719 56.9805 228.734C56.9805 232.748 60.2368 236.003 64.2537 236.003H140.029C144.046 236.003 147.302 232.748 147.302 228.734C147.302 224.719 144.046 221.465 140.029 221.465Z" fill="#912E31"/>
<path d="M88.2134 229.758H86.3491L85.9896 230.594H85.0449L86.8256 226.581H87.7786L89.576 230.594H88.5979L88.2134 229.758ZM87.9208 229.056L87.2854 227.517L86.65 229.056H87.9208Z" fill="white"/>
<path d="M93.4309 228.061C93.4309 228.955 92.7621 229.507 91.692 229.507H90.856V230.619H89.9531V226.606H91.692C92.7955 226.606 93.4309 227.158 93.4309 228.061ZM92.4946 228.061C92.4946 227.618 92.202 227.359 91.6586 227.359H90.8978V228.755H91.6586C92.202 228.755 92.4946 228.496 92.4946 228.061Z" fill="white"/>
<path d="M97.5614 228.061C97.5614 228.955 96.8926 229.507 95.8226 229.507H94.9866V230.619H94.0586V226.606H95.7891C96.8926 226.606 97.5614 227.158 97.5614 228.061ZM96.6251 228.061C96.6251 227.618 96.3409 227.359 95.7891 227.359H95.0367V228.755H95.7891C96.3409 228.755 96.6251 228.496 96.6251 228.061Z" fill="white"/>
<path d="M98.2207 226.606H99.1487V229.9H101.155V230.661H98.2207V226.606Z" fill="white"/>
<path d="M103.187 229.198V230.619H102.259V229.181L100.713 226.606H101.691L102.769 228.387L103.84 226.606H104.751L103.187 229.198Z" fill="white"/>
<path d="M110.426 226.606V230.619H109.665L107.667 228.178V230.619H106.756V226.606H107.517L109.515 229.064V226.631L110.426 226.606Z" fill="white"/>
<path d="M111.128 228.613C111.105 228.175 111.213 227.741 111.439 227.366C111.665 226.99 111.998 226.691 112.396 226.508C112.794 226.324 113.237 226.263 113.669 226.334C114.102 226.405 114.503 226.604 114.821 226.905C115.139 227.206 115.36 227.596 115.454 228.023C115.549 228.451 115.513 228.897 115.351 229.305C115.189 229.712 114.909 230.061 114.547 230.307C114.184 230.553 113.757 230.685 113.318 230.686C113.037 230.702 112.754 230.66 112.489 230.563C112.224 230.466 111.981 230.316 111.776 230.122C111.571 229.928 111.408 229.694 111.296 229.434C111.185 229.175 111.128 228.895 111.128 228.613ZM114.572 228.613C114.568 228.366 114.49 228.126 114.349 227.923C114.208 227.72 114.011 227.563 113.781 227.472C113.552 227.381 113.3 227.36 113.059 227.411C112.817 227.462 112.596 227.584 112.423 227.76C112.25 227.936 112.133 228.16 112.087 228.402C112.041 228.645 112.067 228.896 112.163 229.123C112.258 229.351 112.419 229.545 112.624 229.682C112.83 229.819 113.072 229.892 113.318 229.892C113.486 229.895 113.653 229.864 113.808 229.801C113.964 229.738 114.105 229.643 114.222 229.523C114.34 229.404 114.431 229.261 114.492 229.104C114.552 228.948 114.579 228.78 114.572 228.613Z" fill="white"/>
<path d="M122.139 226.606L120.827 230.619H119.832L118.946 227.902L118.034 230.619H117.04L115.719 226.606H116.68L117.583 229.424L118.528 226.606H119.364L120.283 229.449L121.22 226.606H122.139Z" fill="white"/>
<path d="M560.22 73.8188H438.498V141.878H560.22V73.8188Z" fill="#FAFAFA"/>
<path d="M560.219 141.878C560.219 141.878 560.219 141.46 560.219 140.649C560.219 139.838 560.219 138.651 560.219 137.096C560.219 133.969 560.219 129.379 560.177 123.486C560.177 111.706 560.127 94.7106 560.094 73.8189L560.261 73.9861L438.548 74.0363L438.765 73.8189C438.765 97.8874 438.765 120.902 438.765 141.878L438.564 141.677L526.094 141.769L551.249 141.828H557.937H559.667H557.995H551.307L526.227 141.886L438.498 142.12H438.297V141.919C438.297 120.944 438.297 97.9292 438.297 73.8607V73.5681H438.523L560.236 73.6183H560.403V73.7855C560.361 94.6855 560.336 111.748 560.311 123.553C560.311 129.405 560.311 134.011 560.269 137.129C560.269 138.667 560.269 139.846 560.269 140.657C560.269 141.468 560.219 141.878 560.219 141.878Z" fill="#263238"/>
<path d="M470.576 90.0374H453.371V107.242H470.576V90.0374Z" fill="#455A64"/>
<path d="M494.218 92.4618C494.218 92.5788 490.197 92.6792 485.248 92.6792C480.298 92.6792 476.277 92.5788 476.277 92.4618C482.254 92.1608 488.241 92.1608 494.218 92.4618Z" fill="#912E31"/>
<path d="M551.517 98.648C551.517 98.7734 534.672 98.8737 513.897 98.8737C493.123 98.8737 476.277 98.7734 476.277 98.648C476.277 98.5226 493.114 98.4307 513.897 98.4307C534.68 98.4307 551.517 98.5226 551.517 98.648Z" fill="#263238"/>
<path d="M526.203 105.587C526.203 105.704 515.134 105.804 501.482 105.804C487.83 105.804 476.762 105.704 476.762 105.587C476.762 105.47 487.83 105.37 501.482 105.37C515.134 105.37 526.203 105.462 526.203 105.587Z" fill="#263238"/>
<path d="M542.196 132.857H459.056C456.94 132.857 454.912 132.017 453.416 130.521C451.92 129.025 451.08 126.997 451.08 124.882C451.08 122.766 451.92 120.738 453.416 119.242C454.912 117.747 456.94 116.906 459.056 116.906H542.196C544.311 116.906 546.34 117.747 547.835 119.242C549.331 120.738 550.171 122.766 550.171 124.882C550.171 126.997 549.331 129.025 547.835 130.521C546.34 132.017 544.311 132.857 542.196 132.857Z" fill="#912E31"/>
<path d="M485.339 126.002H483.299L482.914 126.938H481.869L483.825 122.549H484.829L486.793 126.938H485.715L485.339 126.002ZM485.021 125.225L484.327 123.553L483.625 125.225H485.021Z" fill="white"/>
<path d="M491.066 124.146C491.066 125.124 490.33 125.726 489.16 125.726H488.274V126.938H487.254V122.549H489.16C490.33 122.549 491.066 123.16 491.066 124.146ZM490.038 124.146C490.038 123.661 489.72 123.377 489.101 123.377H488.265V124.898H489.101C489.72 124.898 490.038 124.623 490.038 124.146Z" fill="white"/>
<path d="M495.597 124.146C495.597 125.124 494.869 125.726 493.691 125.726H492.804V126.938H491.793V122.549H493.691C494.911 122.549 495.597 123.16 495.597 124.146ZM494.568 124.146C494.568 123.661 494.259 123.377 493.632 123.377H492.796V124.898H493.632C494.259 124.898 494.568 124.623 494.568 124.146Z" fill="white"/>
<path d="M496.324 122.549H497.344V126.111H499.543V126.947H496.324V122.549Z" fill="white"/>
<path d="M501.775 125.4V126.955H500.764V125.4L499.092 122.574H500.17L501.341 124.522L502.519 122.574H503.514L501.775 125.4Z" fill="white"/>
<path d="M509.717 122.549V126.938H508.881L506.691 124.271V126.938H505.688V122.549H506.524L508.705 125.216V122.549H509.717Z" fill="white"/>
<path d="M510.487 124.748C510.458 124.266 510.575 123.787 510.822 123.373C511.069 122.959 511.435 122.628 511.872 122.424C512.309 122.22 512.798 122.152 513.274 122.229C513.75 122.306 514.192 122.524 514.543 122.855C514.894 123.187 515.137 123.615 515.241 124.087C515.345 124.558 515.305 125.049 515.127 125.497C514.948 125.945 514.639 126.33 514.239 126.6C513.84 126.87 513.368 127.014 512.886 127.014C512.577 127.032 512.268 126.987 511.978 126.881C511.687 126.775 511.421 126.611 511.197 126.399C510.972 126.187 510.793 125.931 510.671 125.647C510.549 125.363 510.486 125.057 510.487 124.748ZM514.265 124.748C514.26 124.476 514.175 124.212 514.021 123.989C513.866 123.765 513.649 123.592 513.397 123.492C513.144 123.391 512.868 123.367 512.602 123.423C512.336 123.479 512.092 123.613 511.902 123.807C511.712 124 511.583 124.246 511.531 124.513C511.48 124.78 511.509 125.056 511.614 125.307C511.719 125.557 511.896 125.771 512.122 125.922C512.349 126.072 512.614 126.152 512.886 126.153C513.071 126.157 513.254 126.124 513.425 126.055C513.596 125.986 513.752 125.882 513.881 125.75C514.01 125.618 514.111 125.461 514.177 125.289C514.243 125.117 514.273 124.933 514.265 124.748Z" fill="white"/>
<path d="M522.558 122.549L521.12 126.938H519.991L519.03 123.962L518.027 126.938H516.94L515.502 122.549H516.555L517.542 125.634L518.578 122.549H519.523L520.526 125.659L521.546 122.549H522.558Z" fill="white"/>
</svg>
