<svg width="15" height="15" viewBox="0 0 15 15" fill="none" xmlns="http://www.w3.org/2000/svg">
<g id="linkedin 1" clip-path="url(#clip0_1754_501)">
<path id="Vector" d="M14.127 14.2596V14.259H14.1304V9.26003C14.1304 6.8145 13.604 4.93066 10.745 4.93066C9.37057 4.93066 8.44825 5.68488 8.07171 6.39991H8.03195V5.15897H5.3212V14.259H8.14383V9.753C8.14383 8.56658 8.36874 7.41936 9.83798 7.41936C11.2856 7.41936 11.3072 8.77331 11.3072 9.8291V14.2596H14.127Z" fill="white"/>
<path id="Vector_2" d="M0.724884 5.15967H3.55093V14.2597H0.724884V5.15967Z" fill="white"/>
<path id="Vector_3" d="M2.13679 0.62915C1.2332 0.62915 0.5 1.36235 0.5 2.26594C0.5 3.16952 1.2332 3.91806 2.13679 3.91806C3.04037 3.91806 3.77358 3.16952 3.77358 2.26594C3.77301 1.36235 3.0398 0.62915 2.13679 0.62915V0.62915Z" fill="white"/>
</g>
<defs>
<clipPath id="clip0_1754_501">
<rect width="13.6304" height="13.6304" fill="white" transform="translate(0.5 0.62915)"/>
</clipPath>
</defs>
</svg>
