<svg width="3000" height="1818" viewBox="0 0 3000 1818" fill="none" xmlns="http://www.w3.org/2000/svg">
<rect width="3000" height="1818" fill="none"/>
<line x1="537" y1="1343" x2="3037" y2="1343" stroke="url(#paint0_linear_843_822)" stroke-width="2"/>
<path d="M1363.39 1425.76V1483H1351.91V1425.76H1363.39ZM1454.68 1425.76V1435.03H1439.43V1483H1427.95V1435.03H1412.7V1425.76H1454.68ZM1584.36 1483.57C1580.37 1483.57 1576.76 1482.89 1573.53 1481.52C1570.36 1480.16 1567.85 1478.19 1565.99 1475.62C1564.13 1473.05 1563.17 1470.02 1563.12 1466.52H1575.42C1575.58 1468.87 1576.4 1470.73 1577.88 1472.09C1579.41 1473.46 1581.49 1474.14 1584.11 1474.14C1586.79 1474.14 1588.89 1473.52 1590.42 1472.26C1591.96 1470.95 1592.72 1469.25 1592.72 1467.17C1592.72 1465.48 1592.2 1464.09 1591.16 1462.99C1590.12 1461.9 1588.81 1461.05 1587.23 1460.45C1585.7 1459.79 1583.56 1459.08 1580.83 1458.32C1577.11 1457.22 1574.08 1456.16 1571.73 1455.12C1569.43 1454.03 1567.44 1452.41 1565.74 1450.28C1564.1 1448.1 1563.28 1445.2 1563.28 1441.59C1563.28 1438.2 1564.13 1435.25 1565.82 1432.73C1567.52 1430.22 1569.9 1428.31 1572.96 1426.99C1576.02 1425.63 1579.52 1424.94 1583.45 1424.94C1589.36 1424.94 1594.14 1426.39 1597.8 1429.29C1601.52 1432.13 1603.57 1436.12 1603.95 1441.26H1591.33C1591.22 1439.29 1590.37 1437.68 1588.78 1436.42C1587.25 1435.11 1585.2 1434.46 1582.63 1434.46C1580.39 1434.46 1578.59 1435.03 1577.22 1436.18C1575.91 1437.33 1575.25 1438.99 1575.25 1441.18C1575.25 1442.71 1575.75 1444 1576.73 1445.03C1577.77 1446.02 1579.03 1446.84 1580.5 1447.49C1582.03 1448.1 1584.17 1448.81 1586.9 1449.63C1590.62 1450.72 1593.65 1451.81 1596 1452.91C1598.35 1454 1600.37 1455.64 1602.07 1457.83C1603.76 1460.01 1604.61 1462.88 1604.61 1466.44C1604.61 1469.5 1603.82 1472.34 1602.23 1474.96C1600.65 1477.59 1598.32 1479.69 1595.26 1481.28C1592.2 1482.81 1588.57 1483.57 1584.36 1483.57ZM1667.04 1435.03V1449.38H1686.31V1458.48H1667.04V1473.65H1688.77V1483H1655.56V1425.68H1688.77V1435.03H1667.04ZM1769.73 1483L1757.1 1460.7H1751.69V1483H1740.21V1425.76H1761.69C1766.12 1425.76 1769.89 1426.56 1773.01 1428.14C1776.12 1429.67 1778.45 1431.78 1779.98 1434.46C1781.56 1437.08 1782.35 1440.03 1782.35 1443.31C1782.35 1447.08 1781.26 1450.5 1779.07 1453.56C1776.89 1456.57 1773.63 1458.65 1769.32 1459.79L1783.01 1483H1769.73ZM1751.69 1452.09H1761.28C1764.4 1452.09 1766.72 1451.35 1768.25 1449.87C1769.78 1448.34 1770.55 1446.24 1770.55 1443.56C1770.55 1440.93 1769.78 1438.91 1768.25 1437.49C1766.72 1436.01 1764.4 1435.28 1761.28 1435.28H1751.69V1452.09ZM1885.15 1425.76L1864.16 1483H1850.22L1829.23 1425.76H1841.53L1857.27 1471.27L1872.93 1425.76H1885.15ZM1944.51 1425.76V1483H1933.03V1425.76H1944.51ZM1994.07 1454.3C1994.07 1448.67 1995.33 1443.64 1997.84 1439.21C2000.41 1434.73 2003.88 1431.26 2008.25 1428.8C2012.68 1426.28 2017.63 1425.03 2023.1 1425.03C2029.49 1425.03 2035.1 1426.67 2039.91 1429.95C2044.72 1433.23 2048.08 1437.76 2049.99 1443.56H2036.79C2035.48 1440.82 2033.62 1438.77 2031.21 1437.41C2028.86 1436.04 2026.13 1435.36 2023.01 1435.36C2019.68 1435.36 2016.7 1436.15 2014.08 1437.74C2011.51 1439.27 2009.48 1441.45 2008.01 1444.3C2006.59 1447.14 2005.88 1450.47 2005.88 1454.3C2005.88 1458.07 2006.59 1461.41 2008.01 1464.3C2009.48 1467.15 2011.51 1469.36 2014.08 1470.95C2016.7 1472.48 2019.68 1473.24 2023.01 1473.24C2026.13 1473.24 2028.86 1472.56 2031.21 1471.19C2033.62 1469.77 2035.48 1467.69 2036.79 1464.96H2049.99C2048.08 1470.81 2044.72 1475.37 2039.91 1478.65C2035.15 1481.88 2029.55 1483.49 2023.1 1483.49C2017.63 1483.49 2012.68 1482.26 2008.25 1479.8C2003.88 1477.29 2000.41 1473.82 1997.84 1469.39C1995.33 1464.96 1994.07 1459.93 1994.07 1454.3ZM2112.28 1435.03V1449.38H2131.55V1458.48H2112.28V1473.65H2134.01V1483H2100.8V1425.68H2134.01V1435.03H2112.28ZM2205.2 1483.57C2201.21 1483.57 2197.6 1482.89 2194.38 1481.52C2191.21 1480.16 2188.69 1478.19 2186.83 1475.62C2184.98 1473.05 2184.02 1470.02 2183.96 1466.52H2196.26C2196.43 1468.87 2197.25 1470.73 2198.72 1472.09C2200.25 1473.46 2202.33 1474.14 2204.96 1474.14C2207.63 1474.14 2209.74 1473.52 2211.27 1472.26C2212.8 1470.95 2213.57 1469.25 2213.57 1467.17C2213.57 1465.48 2213.05 1464.09 2212.01 1462.99C2210.97 1461.9 2209.66 1461.05 2208.07 1460.45C2206.54 1459.79 2204.41 1459.08 2201.68 1458.32C2197.96 1457.22 2194.92 1456.16 2192.57 1455.12C2190.28 1454.03 2188.28 1452.41 2186.59 1450.28C2184.95 1448.1 2184.13 1445.2 2184.13 1441.59C2184.13 1438.2 2184.98 1435.25 2186.67 1432.73C2188.36 1430.22 2190.74 1428.31 2193.8 1426.99C2196.87 1425.63 2200.36 1424.94 2204.3 1424.94C2210.2 1424.94 2214.99 1426.39 2218.65 1429.29C2222.37 1432.13 2224.42 1436.12 2224.8 1441.26H2212.17C2212.06 1439.29 2211.22 1437.68 2209.63 1436.42C2208.1 1435.11 2206.05 1434.46 2203.48 1434.46C2201.24 1434.46 2199.43 1435.03 2198.07 1436.18C2196.76 1437.33 2196.1 1438.99 2196.1 1441.18C2196.1 1442.71 2196.59 1444 2197.58 1445.03C2198.61 1446.02 2199.87 1446.84 2201.35 1447.49C2202.88 1448.1 2205.01 1448.81 2207.74 1449.63C2211.46 1450.72 2214.5 1451.81 2216.85 1452.91C2219.2 1454 2221.22 1455.64 2222.91 1457.83C2224.61 1460.01 2225.46 1462.88 2225.46 1466.44C2225.46 1469.5 2224.66 1472.34 2223.08 1474.96C2221.49 1477.59 2219.17 1479.69 2216.11 1481.28C2213.05 1482.81 2209.41 1483.57 2205.2 1483.57Z" fill="#922E31"/>
<path d="M1206.53 1232V925.6H1206.93L1356.13 1137.2L1508.93 925.6H1509.73V1232H1451.73V1091.6L1355.73 1228H1354.93L1262.53 1100.4V1232H1206.53ZM1552.63 1232L1685.43 926H1688.63L1821.43 1232H1754.23L1731.43 1174.4H1633.83L1609.83 1232H1552.63ZM1654.23 1125.6H1712.23L1683.83 1054L1654.23 1125.6ZM2127.94 1244L1921.94 1058L1923.14 1232H1864.34V926H1866.74L2072.34 1114.8L2071.14 937.6H2129.54V1244H2127.94ZM2185.36 937.6H2383.76V993.6H2312.16V1232H2254.16V993.6H2185.36V937.6ZM2528.93 937.6C2566 937.6 2594.4 946.667 2614.13 964.8C2634.13 982.667 2644.13 1006.67 2644.13 1036.8C2644.13 1053.6 2640.53 1070.13 2633.33 1086.4C2626.4 1102.67 2614.53 1115.6 2597.73 1125.2L2666.13 1232H2598.53L2536.53 1138.4H2497.73V1232H2439.73V937.6H2528.93ZM2538.93 1082.4C2550.67 1082.4 2559.73 1080 2566.13 1075.2C2572.8 1070.13 2577.47 1064.27 2580.13 1057.6C2582.8 1050.67 2584.13 1044.4 2584.13 1038.8C2584.13 1035.6 2583.6 1031.6 2582.53 1026.8C2581.73 1021.73 2579.87 1016.67 2576.93 1011.6C2574 1006.53 2569.47 1002.27 2563.33 998.8C2557.47 995.333 2549.47 993.6 2539.33 993.6H2497.73V1082.4H2538.93ZM2680.75 1232L2813.55 926H2816.75L2949.55 1232H2882.35L2859.55 1174.4H2761.95L2737.95 1232H2680.75ZM2782.35 1125.6H2840.35L2811.95 1054L2782.35 1125.6Z" fill="#2576BC"/>
<g filter="url(#filter0_d_843_822)">
<path fill-rule="evenodd" clip-rule="evenodd" d="M901.13 925.072C905.838 925.072 910.547 925.072 915.255 925.072C923.315 926.215 929.985 929.922 935.265 936.196C946.372 954.456 956.966 972.995 967.046 991.816C966.989 993.03 967.512 993.824 968.615 994.2C977.966 1010.22 987.121 1026.38 996.08 1042.67C996.023 1043.88 996.547 1044.68 997.65 1045.05C1000.98 1050.48 1004.12 1056.04 1007.07 1061.74C1007.01 1062.95 1007.53 1063.75 1008.64 1064.12C1026.11 1094.47 1043.37 1124.93 1060.43 1155.5C1060.32 1156.19 1060.59 1156.72 1061.21 1157.09C1062 1089.55 1062.26 1022.01 1062 954.471C1062 954.207 1062 953.942 1062 953.677C1063.11 952.076 1063.64 950.222 1063.57 948.115C1067.22 937.921 1074.02 930.637 1083.97 926.264C1085.73 925.488 1087.56 925.091 1089.46 925.072C1094.43 925.072 1099.4 925.072 1104.37 925.072C1120 929.245 1129.42 939.31 1132.62 955.266C1132.62 1038.17 1132.62 1121.07 1132.62 1203.97C1127.29 1233.31 1110.29 1251.32 1081.61 1258C1075.34 1258 1069.06 1258 1062.78 1258C1054.99 1256.34 1047.67 1253.43 1040.81 1249.26C1040.44 1248.14 1039.65 1247.61 1038.45 1247.67C1030.87 1242.77 1024.72 1236.41 1020.01 1228.6C982.949 1163.34 945.675 1098.19 908.192 1033.13C878.951 1083.61 849.916 1134.2 821.089 1184.9C820.663 1184.95 820.402 1185.21 820.305 1185.69C855.351 1186.49 890.401 1186.75 925.456 1186.49C937.332 1186.94 946.749 1191.97 953.706 1201.58C959.886 1213.03 960.802 1224.95 956.452 1237.34C950.824 1247.95 942.323 1254.83 930.949 1258C871.05 1258 811.149 1258 751.25 1258C736.174 1253.33 726.757 1243.26 723 1227.8C723 1224.1 723 1220.39 723 1216.68C724.133 1212.06 725.833 1207.56 728.101 1203.17C738.965 1184.35 749.82 1165.54 760.666 1146.76C761.77 1146.38 762.293 1145.59 762.236 1144.37C783.215 1106.92 804.402 1069.58 825.798 1032.34C826.901 1031.96 827.424 1031.17 827.367 1029.96C844.283 999.676 861.416 969.483 878.766 939.375C884.297 931.478 891.752 926.711 901.13 925.072Z" fill="#922E31"/>
<path fill-rule="evenodd" clip-rule="evenodd" d="M1098.52 848C1102.49 848 1106.46 848 1110.43 848C1122.92 851.33 1130.44 859.371 1133 872.121C1133 874.66 1133 877.199 1133 879.739C1127.49 899.991 1114.54 907.714 1094.13 902.908C1079.64 895.885 1073.9 884.353 1076.89 868.313C1080.41 857.452 1087.62 850.681 1098.52 848Z" fill="#922E31"/>
</g>
<path d="M1671.07 306.491L1554.99 422.571L1644.73 512.306L1734.46 601.629L1747.64 588.045C1755.04 580.636 1760.81 572.815 1760.81 570.757C1760.81 568.699 1744.75 550.587 1725 530.829L1688.77 494.606L1751.75 431.626L1814.32 369.059L1801.15 355.475L1787.56 342.303L1725 404.871L1662.02 467.85L1636.5 441.917L1610.56 416.396L1704.41 322.545C1786.33 240.219 1797.85 227.047 1797.85 215.933C1797.85 201.938 1794.56 190.001 1790.03 190.001C1788.8 190.001 1735.29 242.277 1671.07 306.491Z" fill="#922E31"/>
<path d="M1829.55 407.339L1740.23 497.074L1754.64 511.07L1769.04 525.065L1805.27 489.253C1825.02 469.495 1843.14 453.442 1845.19 453.442C1847.25 453.442 1876.89 481.432 1911.05 515.186L1973.21 576.93L1986.38 563.346L1999.55 549.763L1935.75 486.372L1871.95 422.57L1897.47 397.049L1922.99 371.116L2018.08 465.791C2105.34 552.644 2114.4 560.465 2127.16 560.465C2161.32 560.053 2160.5 558.819 2036.6 434.918L1919.29 317.604L1829.55 407.339Z" fill="#2576BC"/>
<path d="M1830.79 517.247L1816.79 531.654L1852.6 567.877C1872.36 587.636 1888.41 605.747 1888.41 607.805C1888.41 609.863 1860.42 639.501 1826.67 673.666L1764.51 735.822L1777.27 747.759L1790.04 759.696L1853.43 696.305L1917.23 632.503L1941.93 657.201C1955.51 670.784 1966.62 683.545 1966.62 685.603C1966.62 688.073 1925.05 731.705 1874.01 782.747C1788.8 868.366 1781.39 877.01 1781.39 889.771C1781.8 923.936 1783.04 923.113 1906.94 799.213L2024.25 681.898L1934.52 592.163L1844.78 502.84L1830.79 517.247Z" fill="#922E31"/>
<path d="M1594.1 539.882L1582.17 552.643L1644.74 615.21L1707.3 677.778L1680.55 704.534L1653.79 731.29L1559.94 637.438C1467.74 545.234 1466.09 543.999 1449.21 543.999C1439.74 543.999 1430.69 546.057 1429.04 548.527C1427.4 551.408 1474.32 601.215 1543.06 669.957L1659.97 786.859L1749.29 697.536L1839.02 608.213L1823.79 592.571L1808.56 576.929L1770.28 614.799L1732 653.08L1669.02 590.101L1606.04 527.122L1594.1 539.882Z" fill="#2576BC"/>
<defs>
<filter id="filter0_d_843_822" x="708" y="848" width="460" height="459.999" filterUnits="userSpaceOnUse" color-interpolation-filters="sRGB">
<feFlood flood-opacity="0" result="BackgroundImageFix"/>
<feColorMatrix in="SourceAlpha" type="matrix" values="0 0 0 0 0 0 0 0 0 0 0 0 0 0 0 0 0 0 127 0" result="hardAlpha"/>
<feOffset dx="10" dy="25"/>
<feGaussianBlur stdDeviation="12.5"/>
<feComposite in2="hardAlpha" operator="out"/>
<feColorMatrix type="matrix" values="0 0 0 0 0 0 0 0 0 0 0 0 0 0 0 0 0 0 0.1 0"/>
<feBlend mode="normal" in2="BackgroundImageFix" result="effect1_dropShadow_843_822"/>
<feBlend mode="normal" in="SourceGraphic" in2="effect1_dropShadow_843_822" result="shape"/>
</filter>
<linearGradient id="paint0_linear_843_822" x1="537" y1="1344" x2="3037" y2="1344" gradientUnits="userSpaceOnUse">
<stop stop-color="#003482" stop-opacity="0"/>
<stop offset="0.520833" stop-color="#003482"/>
<stop offset="1" stop-color="#003482" stop-opacity="0"/>
</linearGradient>
</defs>
</svg>
