<svg width="68" height="68" viewBox="0 0 68 68" fill="none" xmlns="http://www.w3.org/2000/svg">
<path d="M34 66.9375C52.1909 66.9375 66.9375 52.1909 66.9375 34C66.9375 15.8091 52.1909 1.0625 34 1.0625C15.8091 1.0625 1.0625 15.8091 1.0625 34C1.0625 52.1909 15.8091 66.9375 34 66.9375Z" fill="#2C97D3"/>
<path d="M60.5625 34C60.57 34.3547 60.5558 34.7096 60.52 35.0625C60.3212 40.1311 58.674 45.0365 55.7736 49.1979C52.8732 53.3593 48.8411 56.6024 44.1546 58.5431C39.4681 60.4839 34.3237 61.041 29.3303 60.1486C24.337 59.2562 19.7041 56.9515 15.98 53.5075C15.47 53.04 14.96 52.53 14.4925 52.02C10.1917 47.3948 7.70212 41.3744 7.48 35.0625C7.44418 34.7096 7.42999 34.3547 7.4375 34C7.42998 33.6453 7.44418 33.2905 7.48 32.9375C7.70218 26.6257 10.1918 20.6053 14.4925 15.98C14.96 15.47 15.47 14.96 15.98 14.4925C20.6053 10.1918 26.6256 7.70222 32.9375 7.48003C33.2905 7.44428 33.6453 7.43008 34 7.43753C34.3547 7.43008 34.7095 7.44428 35.0625 7.48003C41.3744 7.70222 47.3947 10.1918 52.02 14.4925C52.53 14.96 53.04 15.47 53.5075 15.98C57.8082 20.6053 60.2978 26.6257 60.52 32.9375C60.5558 33.2905 60.57 33.6453 60.5625 34Z" fill="#F2F2F2"/>
<path d="M18.105 53.5075C17.595 53.04 17.085 52.53 16.6175 52.02C12.3167 47.3948 9.82712 41.3744 9.605 35.0625C9.56918 34.7096 9.55499 34.3547 9.5625 34C9.55498 33.6453 9.56918 33.2905 9.605 32.9375C9.82718 26.6257 12.3168 20.6053 16.6175 15.98C17.085 15.47 17.595 14.96 18.105 14.4925C22.7303 10.1918 28.7506 7.70222 35.0625 7.48003C34.7095 7.44428 34.3547 7.43008 34 7.43753C33.6453 7.43008 33.2905 7.44428 32.9375 7.48003C26.6256 7.70222 20.6053 10.1918 15.98 14.4925C15.47 14.96 14.96 15.47 14.4925 15.98C10.1918 20.6053 7.70218 26.6257 7.48 32.9375C7.44418 33.2905 7.42998 33.6453 7.4375 34C7.42999 34.3547 7.44418 34.7096 7.48 35.0625C7.70212 41.3744 10.1917 47.3948 14.4925 52.02C14.96 52.53 15.47 53.04 15.98 53.5075C20.8813 58.0487 27.3183 60.5688 34 60.5625C34.3537 60.5625 34.6978 60.5245 35.0482 60.5108C28.7465 60.2694 22.7381 57.7859 18.105 53.5075Z" fill="#E0E0E2"/>
<path d="M12.75 34C12.7514 34.1399 12.7248 34.2787 12.6719 34.4082C12.619 34.5378 12.5408 34.6554 12.4419 34.7544C12.3429 34.8533 12.2253 34.9315 12.0957 34.9844C11.9662 35.0373 11.8274 35.0639 11.6875 35.0625H5.355C5.31918 34.7095 5.30499 34.3547 5.3125 34C5.30498 33.6453 5.31918 33.2905 5.355 32.9375H11.6875C11.8274 32.9361 11.9662 32.9626 12.0957 33.0155C12.2253 33.0685 12.343 33.1467 12.4419 33.2456C12.5408 33.3445 12.619 33.4622 12.6719 33.5918C12.7249 33.7213 12.7514 33.8601 12.75 34ZM62.6875 34C62.695 34.3547 62.6808 34.7095 62.645 35.0625H56.3125C56.0307 35.0625 55.7605 34.9506 55.5612 34.7513C55.3619 34.552 55.25 34.2818 55.25 34C55.25 33.7182 55.3619 33.448 55.5612 33.2487C55.7605 33.0494 56.0307 32.9375 56.3125 32.9375H62.645C62.6808 33.2905 62.695 33.6453 62.6875 34ZM34 12.75C33.8601 12.7514 33.7213 12.7248 33.5918 12.6719C33.4622 12.619 33.3446 12.5408 33.2456 12.4419C33.1467 12.3429 33.0685 12.2253 33.0156 12.0957C32.9627 11.9662 32.9361 11.8274 32.9375 11.6875V5.355C33.2905 5.31918 33.6453 5.30499 34 5.3125C34.3547 5.30498 34.7095 5.31918 35.0625 5.355V11.6875C35.0639 11.8274 35.0374 11.9662 34.9844 12.0957C34.9315 12.2253 34.8533 12.343 34.7544 12.4419C34.6555 12.5408 34.5378 12.619 34.4082 12.6719C34.2787 12.7249 34.1399 12.7514 34 12.75ZM34 62.6875C33.6453 62.695 33.2905 62.6808 32.9375 62.645V56.3125C32.9375 56.0307 33.0494 55.7605 33.2487 55.5612C33.448 55.3619 33.7182 55.25 34 55.25C34.2818 55.25 34.552 55.3619 34.7513 55.5612C34.9506 55.7605 35.0625 56.0307 35.0625 56.3125V62.645C34.7095 62.6808 34.3547 62.695 34 62.6875ZM49.026 18.974C48.9261 18.876 48.8467 18.7591 48.7926 18.6301C48.7384 18.5011 48.7105 18.3626 48.7105 18.2227C48.7105 18.0827 48.7384 17.9442 48.7926 17.8152C48.8467 17.6862 48.9261 17.5693 49.026 17.4714L53.5037 12.9937C53.7787 13.2179 54.0396 13.4588 54.2851 13.7149C54.5412 13.9604 54.7821 14.2213 55.0063 14.4963L50.5286 18.974C50.4307 19.0739 50.3138 19.1533 50.1848 19.2074C50.0558 19.2616 49.9172 19.2895 49.7773 19.2895C49.6374 19.2895 49.4989 19.2616 49.3699 19.2074C49.2409 19.1533 49.124 19.0739 49.026 18.974ZM13.7149 54.2851C13.4588 54.0396 13.2179 53.7787 12.9937 53.5037L17.4714 49.026C17.57 48.9274 17.6872 48.8491 17.8161 48.7957C17.945 48.7423 18.0831 48.7148 18.2227 48.7148C18.3622 48.7148 18.5004 48.7423 18.6293 48.7957C18.7582 48.8491 18.8753 48.9274 18.974 49.026C19.0726 49.1247 19.1509 49.2418 19.2043 49.3707C19.2577 49.4996 19.2852 49.6378 19.2852 49.7773C19.2852 49.9169 19.2577 50.055 19.2043 50.1839C19.1509 50.3128 19.0726 50.43 18.974 50.5286L14.4963 55.0063C14.2213 54.7821 13.9604 54.5412 13.7149 54.2851ZM49.026 49.026C49.124 48.9261 49.2409 48.8467 49.3699 48.7926C49.4989 48.7384 49.6374 48.7105 49.7773 48.7105C49.9173 48.7105 50.0558 48.7384 50.1848 48.7926C50.3138 48.8467 50.4307 48.9261 50.5286 49.026L55.0063 53.5037C54.5464 54.0439 54.0439 54.5464 53.5037 55.0063L49.026 50.5286C48.9261 50.4307 48.8467 50.3138 48.7925 50.1848C48.7384 50.0558 48.7104 49.9173 48.7104 49.7773C48.7104 49.6374 48.7384 49.4989 48.7925 49.3699C48.8467 49.2409 48.9261 49.124 49.026 49.026ZM13.7149 13.7149C13.9604 13.4588 14.2213 13.2179 14.4963 12.9937L18.974 17.4714C19.1732 17.6706 19.2852 17.9409 19.2852 18.2227C19.2852 18.5045 19.1732 18.7747 18.974 18.974C18.7747 19.1733 18.5045 19.2852 18.2227 19.2852C17.9409 19.2852 17.6706 19.1733 17.4714 18.974L12.9937 14.4963C13.2179 14.2213 13.4588 13.9604 13.7149 13.7149ZM34 32.9375C33.8604 32.9376 33.7222 32.9102 33.5933 32.8568C33.4644 32.8034 33.3472 32.7252 33.2485 32.6265C33.1498 32.5278 33.0716 32.4106 33.0182 32.2817C32.9648 32.1528 32.9374 32.0146 32.9375 31.875V18.0625C32.9375 17.7807 33.0494 17.5105 33.2487 17.3112C33.448 17.1119 33.7182 17 34 17C34.2818 17 34.552 17.1119 34.7513 17.3112C34.9506 17.5105 35.0625 17.7807 35.0625 18.0625V31.875C35.0626 32.0146 35.0352 32.1528 34.9818 32.2817C34.9284 32.4106 34.8502 32.5278 34.7515 32.6265C34.6528 32.7252 34.5356 32.8034 34.4067 32.8568C34.2778 32.9102 34.1396 32.9376 34 32.9375Z" fill="#3C3B41"/>
<path d="M34 1.0625C27.4856 1.0625 21.1175 2.99425 15.7009 6.61347C10.2844 10.2327 6.06269 15.3768 3.56973 21.3954C1.07677 27.4139 0.424499 34.0365 1.6954 40.4258C2.9663 46.815 6.10329 52.6839 10.7097 57.2903C15.3161 61.8967 21.185 65.0337 27.5742 66.3046C33.9635 67.5755 40.5861 66.9232 46.6047 64.4303C52.6232 61.9373 57.7673 57.7156 61.3865 52.2991C65.0058 46.8825 66.9375 40.5144 66.9375 34C66.9372 25.2645 63.4669 16.8869 57.29 10.71C51.1131 4.53309 42.7355 1.0628 34 1.0625ZM34 60.5625C27.3183 60.5688 20.8813 58.0486 15.98 53.5075C15.47 53.04 14.96 52.53 14.4925 52.02C10.1918 47.3948 7.70214 41.3744 7.48001 35.0625C7.4442 34.7095 7.43 34.3547 7.43751 34C7.43 33.6453 7.44419 33.2905 7.48001 32.9375C7.70219 26.6256 10.1918 20.6053 14.4925 15.98C14.96 15.47 15.47 14.96 15.98 14.4925C20.6053 10.1918 26.6256 7.70219 32.9375 7.48C33.2905 7.44425 33.6453 7.43005 34 7.4375C34.3547 7.43005 34.7095 7.44425 35.0625 7.48C41.3744 7.70219 47.3947 10.1918 52.02 14.4925C52.53 14.96 53.04 15.47 53.5075 15.98C57.8082 20.6053 60.2978 26.6256 60.52 32.9375C60.5558 33.2905 60.57 33.6453 60.5625 34C60.57 34.3547 60.5558 34.7095 60.52 35.0625C60.2519 41.9163 57.3405 48.4001 52.3962 53.1542C47.452 57.9082 40.8591 60.5633 34 60.5625Z" fill="#2C97D3"/>
<path d="M3.1875 34C3.19132 25.453 6.51961 17.2427 12.4684 11.1057C18.4171 4.96865 26.5198 1.38624 35.0625 1.1162C34.7066 1.10479 34.3587 1.0625 34 1.0625C25.2644 1.0625 16.8867 4.53269 10.7097 10.7097C4.53269 16.8867 1.0625 25.2644 1.0625 34C1.0625 42.7356 4.53269 51.1133 10.7097 57.2903C16.8867 63.4673 25.2644 66.9375 34 66.9375C34.3587 66.9375 34.7066 66.8952 35.0625 66.8838C26.5198 66.6138 18.4171 63.0314 12.4684 56.8943C6.51961 50.7573 3.19132 42.547 3.1875 34Z" fill="#2C97D3"/>
<path d="M31.875 35.0625H23.375C23.0932 35.0625 22.823 34.9506 22.6237 34.7513C22.4244 34.552 22.3125 34.2818 22.3125 34C22.3125 33.7182 22.4244 33.448 22.6237 33.2487C22.823 33.0494 23.0932 32.9375 23.375 32.9375H31.875C32.1568 32.9375 32.427 33.0494 32.6263 33.2487C32.8256 33.448 32.9375 33.7182 32.9375 34C32.9375 34.2818 32.8256 34.552 32.6263 34.7513C32.427 34.9506 32.1568 35.0625 31.875 35.0625Z" fill="#3C3B41"/>
<path d="M34 36.125C35.1736 36.125 36.125 35.1736 36.125 34C36.125 32.8264 35.1736 31.875 34 31.875C32.8264 31.875 31.875 32.8264 31.875 34C31.875 35.1736 32.8264 36.125 34 36.125Z" fill="#2C97D3"/>
<path d="M51 66.9375C59.802 66.9375 66.9375 59.802 66.9375 51C66.9375 42.198 59.802 35.0625 51 35.0625C42.198 35.0625 35.0625 42.198 35.0625 51C35.0625 59.802 42.198 66.9375 51 66.9375Z" fill="#37B678"/>
<path d="M37.1875 51C37.1893 46.9593 38.7269 43.0704 41.4889 40.1211C44.2509 37.1718 48.0306 35.3826 52.0625 35.1161C51.7097 35.0927 51.3587 35.0625 51 35.0625C46.7731 35.0625 42.7193 36.7416 39.7305 39.7305C36.7416 42.7193 35.0625 46.7731 35.0625 51C35.0625 55.2269 36.7416 59.2807 39.7305 62.2695C42.7193 65.2584 46.7731 66.9375 51 66.9375C51.3587 66.9375 51.7097 66.9073 52.0625 66.8839C48.0306 66.6174 44.2509 64.8282 41.4889 61.8789C38.7269 58.9296 37.1893 55.0407 37.1875 51Z" fill="#00A653"/>
<path d="M63.75 52.371V49.629L61.5093 49.2336C61.2907 48.197 60.8806 47.2103 60.3 46.3242L61.6074 44.4563L59.6686 42.5175L57.8007 43.8249C56.9146 43.2443 55.9279 42.8342 54.8913 42.6156L54.496 40.375H51.754L51.3586 42.6157C50.322 42.8343 49.3353 43.2444 48.4492 43.825L46.5813 42.5176L44.6425 44.4564L45.9499 46.3243C45.3693 47.2104 44.9592 48.1971 44.7406 49.2337L42.5 49.629V52.371L44.7407 52.7664C44.9593 53.803 45.3694 54.7897 45.95 55.6758L44.6426 57.5437L46.5814 59.4825L48.4493 58.1751C49.3354 58.7557 50.3221 59.1658 51.3587 59.3844L51.754 61.625H54.496L54.8914 59.3843C55.928 59.1657 56.9147 58.7556 57.8008 58.175L59.6687 59.4824L61.6075 57.5436L60.3001 55.6757C60.8807 54.7896 61.2908 53.8029 61.5094 52.7663L63.75 52.371Z" fill="#00A653"/>
<path d="M61.625 52.371V49.629L59.3843 49.2336C59.1657 48.197 58.7556 47.2103 58.175 46.3242L59.4824 44.4563L57.5436 42.5175L55.6757 43.8249C54.7896 43.2443 53.8029 42.8342 52.7663 42.6156L52.371 40.375H49.629L49.2336 42.6157C48.197 42.8343 47.2103 43.2444 46.3242 43.825L44.4563 42.5176L42.5175 44.4564L43.8249 46.3243C43.2443 47.2104 42.8342 48.1971 42.6156 49.2337L40.375 49.629V52.371L42.6157 52.7664C42.8343 53.803 43.2444 54.7897 43.825 55.6758L42.5176 57.5437L44.4564 59.4825L46.3243 58.1751C47.2104 58.7557 48.1971 59.1658 49.2337 59.3844L49.629 61.625H52.371L52.7664 59.3843C53.803 59.1657 54.7897 58.7556 55.6758 58.175L57.5437 59.4824L59.4825 57.5436L58.1751 55.6757C58.7557 54.7896 59.1658 53.8029 59.3844 52.7663L61.625 52.371Z" fill="white"/>
<path d="M51 54.1875C52.7604 54.1875 54.1875 52.7604 54.1875 51C54.1875 49.2396 52.7604 47.8125 51 47.8125C49.2396 47.8125 47.8125 49.2396 47.8125 51C47.8125 52.7604 49.2396 54.1875 51 54.1875Z" fill="#37B678"/>
<path d="M50.9999 54.1875C51.3627 54.184 51.7221 54.118 52.0624 53.9924C51.4415 53.7757 50.9035 53.3712 50.5227 52.8351C50.142 52.2989 49.9374 51.6576 49.9374 51C49.9374 50.3424 50.142 49.701 50.5227 49.1649C50.9035 48.6287 51.4415 48.2242 52.0624 48.0075C51.6253 47.8519 51.1595 47.7936 50.6976 47.837C50.2356 47.8803 49.7887 48.0241 49.3882 48.2583C48.9877 48.4926 48.6433 48.8115 48.379 49.1929C48.1148 49.5743 47.9371 50.0088 47.8585 50.4661C47.7799 50.9233 47.8022 51.3923 47.9239 51.84C48.0456 52.2877 48.2638 52.7034 48.563 53.0579C48.8623 53.4125 49.2355 53.6973 49.6565 53.8924C50.0774 54.0875 50.5359 54.1882 50.9999 54.1875Z" fill="#00A653"/>
</svg>
