<svg xmlns="http://www.w3.org/2000/svg" width="20" height="20" viewBox="0 0 20 20" fill="none">
  <g clip-path="url(#clip0_1754_519)">
    <path d="M12.44 4.39995C13.2214 4.5524 13.9395 4.93456 14.5025 5.4975C15.0654 6.06044 15.4476 6.77856 15.6 7.55995M12.44 1.19995C14.0634 1.3803 15.5773 2.10729 16.733 3.26156C17.8887 4.41582 18.6176 5.92876 18.8 7.55195M18 13.936V16.336C18.0009 16.5588 17.9553 16.7793 17.866 16.9834C17.7768 17.1876 17.6458 17.3708 17.4817 17.5214C17.3175 17.6721 17.1237 17.7867 16.9126 17.8581C16.7015 17.9295 16.4779 17.956 16.256 17.936C13.7943 17.6685 11.4296 16.8273 9.352 15.48C7.41906 14.2517 5.78027 12.6129 4.552 10.68C3.19998 8.59291 2.3586 6.21675 2.096 3.74395C2.07601 3.52272 2.1023 3.29976 2.1732 3.08925C2.2441 2.87874 2.35806 2.6853 2.50781 2.52125C2.65757 2.35719 2.83985 2.22612 3.04303 2.13637C3.24622 2.04662 3.46587 2.00016 3.688 1.99995H6.088C6.47625 1.99613 6.85264 2.13361 7.14701 2.38678C7.44139 2.63994 7.63366 2.99151 7.688 3.37595C7.7893 4.144 7.97716 4.89813 8.248 5.62395C8.35564 5.91029 8.37893 6.22148 8.31513 6.52066C8.25132 6.81983 8.10309 7.09444 7.888 7.31195L6.872 8.32795C8.01085 10.3308 9.66917 11.9891 11.672 13.128L12.688 12.112C12.9055 11.8969 13.1801 11.7486 13.4793 11.6848C13.7785 11.621 14.0897 11.6443 14.376 11.752C15.1018 12.0228 15.856 12.2107 16.624 12.312C17.0126 12.3668 17.3675 12.5625 17.6212 12.8619C17.8749 13.1614 18.0097 13.5436 18 13.936Z" stroke="white" stroke-width="2" stroke-linecap="round" stroke-linejoin="round"/>
  </g>
  <defs>
    <clipPath id="clip0_1754_519">
      <rect width="19.2" height="19.2" fill="white" transform="translate(0.399994 0.399902)"/>
    </clipPath>
  </defs>
</svg>