<svg width="68" height="70" viewBox="0 0 68 70" fill="none" xmlns="http://www.w3.org/2000/svg">
<path d="M15.9375 53.028V10.3892C15.9487 8.77225 16.5894 7.22596 17.7189 6.08972C18.8484 4.95349 20.3744 4.32018 21.9619 4.32882H46.75C48.159 4.32882 49.5102 4.89891 50.5065 5.91367C51.5028 6.92844 52.0625 8.30475 52.0625 9.73984V53.028H15.9375Z" fill="#F0F7FC"/>
<path d="M52.0625 46.5347C51.7807 46.5347 51.5105 46.6487 51.3112 46.8517C51.1119 47.0547 51 47.3299 51 47.6169V51.9457H17V29.2195C17 28.9325 16.8881 28.6572 16.6888 28.4542C16.4895 28.2513 16.2193 28.1373 15.9375 28.1373C15.6557 28.1373 15.3855 28.2513 15.1862 28.4542C14.9869 28.6572 14.875 28.9325 14.875 29.2195V58.8719C14.8862 60.7758 15.6389 62.5973 16.9676 63.9365C18.2964 65.2757 20.0926 66.023 21.9619 66.0144H46.0381C47.9074 66.023 49.7036 65.2757 51.0324 63.9365C52.3611 62.5973 53.1138 60.7758 53.125 58.8719V47.6169C53.125 47.3299 53.0131 47.0547 52.8138 46.8517C52.6145 46.6487 52.3443 46.5347 52.0625 46.5347Z" fill="url(#paint0_linear_174_5054)"/>
<path d="M46.75 3.2466H21.9619C20.0926 3.23796 18.2964 3.98529 16.9676 5.32447C15.6389 6.66365 14.8862 8.48521 14.875 10.3891V16.233C14.875 16.5201 14.9869 16.7953 15.1862 16.9983C15.3855 17.2012 15.6557 17.3152 15.9375 17.3152C16.2193 17.3152 16.4895 17.2012 16.6888 16.9983C16.8881 16.7953 17 16.5201 17 16.233V10.3891C17.0112 9.05925 17.54 7.78821 18.4702 6.85493C19.4004 5.92165 20.6562 5.40235 21.9619 5.411H25.5V8.65761C25.5 9.51867 25.8358 10.3445 26.4336 10.9533C27.0314 11.5622 27.8421 11.9042 28.6875 11.9042H39.3125C40.1579 11.9042 40.9686 11.5622 41.5664 10.9533C42.1642 10.3445 42.5 9.51867 42.5 8.65761V5.411H46.75C47.8772 5.411 48.9582 5.86707 49.7552 6.67888C50.5522 7.49069 51 8.59174 51 9.73982V34.6305C51 34.9175 51.1119 35.1928 51.3112 35.3957C51.5105 35.5987 51.7807 35.7127 52.0625 35.7127C52.3443 35.7127 52.6145 35.5987 52.8138 35.3957C53.0131 35.1928 53.125 34.9175 53.125 34.6305V9.73982C53.125 8.01771 52.4534 6.36613 51.2578 5.14842C50.0623 3.9307 48.4408 3.2466 46.75 3.2466Z" fill="url(#paint1_linear_174_5054)"/>
<path d="M36.125 16.233H6.375C5.20139 16.233 4.25 17.2021 4.25 18.3974V27.0551C4.25 28.2504 5.20139 29.2195 6.375 29.2195H36.125C37.2986 29.2195 38.25 28.2504 38.25 27.0551V18.3974C38.25 17.2021 37.2986 16.233 36.125 16.233Z" fill="url(#paint2_linear_174_5054)"/>
<path d="M61.625 34.6305H25.5C24.3264 34.6305 23.375 35.5995 23.375 36.7949V45.4525C23.375 46.6479 24.3264 47.6169 25.5 47.6169H61.625C62.7986 47.6169 63.75 46.6479 63.75 45.4525V36.7949C63.75 35.5995 62.7986 34.6305 61.625 34.6305Z" fill="url(#paint3_linear_174_5054)"/>
<path d="M18.0625 21.6441H8.5C8.21821 21.6441 7.94796 21.5301 7.7487 21.3271C7.54944 21.1242 7.4375 20.8489 7.4375 20.5619C7.4375 20.2749 7.54944 19.9996 7.7487 19.7966C7.94796 19.5937 8.21821 19.4797 8.5 19.4797H18.0625C18.3443 19.4797 18.6145 19.5937 18.8138 19.7966C19.0131 19.9996 19.125 20.2749 19.125 20.5619C19.125 20.8489 19.0131 21.1242 18.8138 21.3271C18.6145 21.5301 18.3443 21.6441 18.0625 21.6441Z" fill="url(#paint4_linear_174_5054)"/>
<path d="M26.5625 25.9729H8.5C8.21821 25.9729 7.94796 25.8589 7.7487 25.6559C7.54944 25.453 7.4375 25.1777 7.4375 24.8907C7.4375 24.6037 7.54944 24.3284 7.7487 24.1254C7.94796 23.9225 8.21821 23.8085 8.5 23.8085H26.5625C26.8443 23.8085 27.1145 23.9225 27.3138 24.1254C27.5131 24.3284 27.625 24.6037 27.625 24.8907C27.625 25.1777 27.5131 25.453 27.3138 25.6559C27.1145 25.8589 26.8443 25.9729 26.5625 25.9729Z" fill="url(#paint5_linear_174_5054)"/>
<path d="M37.1875 40.0415H27.625C27.3432 40.0415 27.073 39.9275 26.8737 39.7246C26.6744 39.5216 26.5625 39.2464 26.5625 38.9593C26.5625 38.6723 26.6744 38.3971 26.8737 38.1941C27.073 37.9912 27.3432 37.8771 27.625 37.8771H37.1875C37.4693 37.8771 37.7395 37.9912 37.9388 38.1941C38.1381 38.3971 38.25 38.6723 38.25 38.9593C38.25 39.2464 38.1381 39.5216 37.9388 39.7246C37.7395 39.9275 37.4693 40.0415 37.1875 40.0415Z" fill="url(#paint6_linear_174_5054)"/>
<path d="M43.5625 44.3703H27.625C27.3432 44.3703 27.073 44.2563 26.8737 44.0534C26.6744 43.8504 26.5625 43.5752 26.5625 43.2881C26.5625 43.0011 26.6744 42.7259 26.8737 42.5229C27.073 42.3199 27.3432 42.2059 27.625 42.2059H43.5625C43.8443 42.2059 44.1145 42.3199 44.3138 42.5229C44.5131 42.7259 44.625 43.0011 44.625 43.2881C44.625 43.5752 44.5131 43.8504 44.3138 44.0534C44.1145 44.2563 43.8443 44.3703 43.5625 44.3703Z" fill="url(#paint7_linear_174_5054)"/>
<path d="M55.25 44.3703H47.8125C47.5307 44.3703 47.2605 44.2563 47.0612 44.0534C46.8619 43.8504 46.75 43.5752 46.75 43.2881C46.75 43.0011 46.8619 42.7259 47.0612 42.5229C47.2605 42.3199 47.5307 42.2059 47.8125 42.2059H55.25C55.5318 42.2059 55.802 42.3199 56.0013 42.5229C56.2006 42.7259 56.3125 43.0011 56.3125 43.2881C56.3125 43.5752 56.2006 43.8504 56.0013 44.0534C55.802 44.2563 55.5318 44.3703 55.25 44.3703Z" fill="url(#paint8_linear_174_5054)"/>
<path d="M47.8125 40.0415H41.4375C41.1557 40.0415 40.8855 39.9275 40.6862 39.7246C40.4869 39.5216 40.375 39.2464 40.375 38.9593C40.375 38.6723 40.4869 38.3971 40.6862 38.1941C40.8855 37.9912 41.1557 37.8771 41.4375 37.8771H47.8125C48.0943 37.8771 48.3645 37.9912 48.5638 38.1941C48.7631 38.3971 48.875 38.6723 48.875 38.9593C48.875 39.2464 48.7631 39.5216 48.5638 39.7246C48.3645 39.9275 48.0943 40.0415 47.8125 40.0415Z" fill="url(#paint9_linear_174_5054)"/>
<path d="M35.0625 59.5212H32.9375C32.6557 59.5212 32.3855 59.4072 32.1862 59.2042C31.9869 59.0013 31.875 58.726 31.875 58.439C31.875 58.152 31.9869 57.8767 32.1862 57.6738C32.3855 57.4708 32.6557 57.3568 32.9375 57.3568H35.0625C35.3443 57.3568 35.6145 57.4708 35.8138 57.6738C36.0131 57.8767 36.125 58.152 36.125 58.439C36.125 58.726 36.0131 59.0013 35.8138 59.2042C35.6145 59.4072 35.3443 59.5212 35.0625 59.5212Z" fill="#F0F7FC"/>
<defs>
<linearGradient id="paint0_linear_174_5054" x1="34" y1="66.0144" x2="34" y2="28.1373" gradientUnits="userSpaceOnUse">
<stop stop-color="#54A5FF"/>
<stop offset="1" stop-color="#8AD3FE"/>
</linearGradient>
<linearGradient id="paint1_linear_174_5054" x1="-7.90965e-07" y1="35.7127" x2="1.10223" y2="3.24794" gradientUnits="userSpaceOnUse">
<stop stop-color="#54A5FF"/>
<stop offset="1" stop-color="#8AD3FE"/>
</linearGradient>
<linearGradient id="paint2_linear_174_5054" x1="21.25" y1="29.2195" x2="21.25" y2="16.233" gradientUnits="userSpaceOnUse">
<stop stop-color="#D3E6F5"/>
<stop offset="1" stop-color="#F0F7FC"/>
</linearGradient>
<linearGradient id="paint3_linear_174_5054" x1="30.9081" y1="54.0128" x2="56.6819" y2="28.7083" gradientUnits="userSpaceOnUse">
<stop stop-color="#D3E6F5"/>
<stop offset="1" stop-color="#F0F7FC"/>
</linearGradient>
<linearGradient id="paint4_linear_174_5054" x1="7.4375" y1="20.5619" x2="19.125" y2="20.5619" gradientUnits="userSpaceOnUse">
<stop stop-color="#FE9661"/>
<stop offset="1" stop-color="#FFB369"/>
</linearGradient>
<linearGradient id="paint5_linear_174_5054" x1="12.2613" y1="30.2584" x2="22.9949" y2="19.7202" gradientUnits="userSpaceOnUse">
<stop stop-color="#FE9661"/>
<stop offset="1" stop-color="#FFB369"/>
</linearGradient>
<linearGradient id="paint6_linear_174_5054" x1="26.5625" y1="38.9593" x2="38.25" y2="38.9593" gradientUnits="userSpaceOnUse">
<stop stop-color="#FE9661"/>
<stop offset="1" stop-color="#FFB369"/>
</linearGradient>
<linearGradient id="paint7_linear_174_5054" x1="30.855" y1="48.1148" x2="40.5066" y2="38.6389" gradientUnits="userSpaceOnUse">
<stop stop-color="#FE9661"/>
<stop offset="1" stop-color="#FFB369"/>
</linearGradient>
<linearGradient id="paint8_linear_174_5054" x1="51.5312" y1="44.3703" x2="51.5312" y2="42.2059" gradientUnits="userSpaceOnUse">
<stop stop-color="#FE9661"/>
<stop offset="1" stop-color="#FFB369"/>
</linearGradient>
<linearGradient id="paint9_linear_174_5054" x1="40.375" y1="38.9593" x2="48.875" y2="38.9593" gradientUnits="userSpaceOnUse">
<stop stop-color="#FE9661"/>
<stop offset="1" stop-color="#FFB369"/>
</linearGradient>
</defs>
</svg>
