<svg width="556" height="341" viewBox="0 0 556 341" fill="none" xmlns="http://www.w3.org/2000/svg">
<g clip-path="url(#clip0_111_4381)">
<path opacity="0.54" d="M61.3174 105.003H493.06" stroke="#ED422F" stroke-width="1.968" stroke-miterlimit="10"/>
<path opacity="0.54" d="M487.007 77.1424H67.3708C64.0276 77.1424 61.3174 79.8103 61.3174 83.1014V334.142C61.3174 337.433 64.0276 340.101 67.3708 340.101H487.007C490.35 340.101 493.06 337.433 493.06 334.142V83.1014C493.06 79.8103 490.35 77.1424 487.007 77.1424Z" stroke="#ED422F" stroke-width="1.968" stroke-miterlimit="10"/>
<path d="M89.77 91.3568C89.77 92.1256 89.5384 92.8772 89.1044 93.5165C88.6705 94.1558 88.0538 94.654 87.3322 94.9483C86.6106 95.2425 85.8166 95.3195 85.0506 95.1695C84.2846 95.0195 83.581 94.6492 83.0287 94.1056C82.4764 93.5619 82.1003 92.8693 81.9479 92.1152C81.7956 91.3611 81.8738 90.5795 82.1727 89.8692C82.4716 89.1588 82.9777 88.5517 83.6271 88.1246C84.2765 87.6974 85.04 87.4694 85.821 87.4694C86.8683 87.4694 87.8728 87.879 88.6133 88.608C89.3539 89.337 89.77 90.3258 89.77 91.3568Z" fill="#2576BC"/>
<path d="M105.119 91.3568C105.119 92.1256 104.887 92.8772 104.453 93.5165C104.019 94.1558 103.402 94.654 102.681 94.9483C101.959 95.2425 101.165 95.3195 100.399 95.1695C99.6332 95.0195 98.9296 94.6492 98.3773 94.1056C97.8251 93.5619 97.449 92.8693 97.2966 92.1152C97.1442 91.3611 97.2224 90.5795 97.5213 89.8692C97.8202 89.1588 98.3263 88.5517 98.9757 88.1246C99.6251 87.6974 100.389 87.4694 101.17 87.4694C102.217 87.4694 103.221 87.879 103.962 88.608C104.703 89.337 105.119 90.3258 105.119 91.3568Z" fill="#EAD254"/>
<path d="M120.466 91.3568C120.466 92.1256 120.235 92.8772 119.801 93.5165C119.367 94.1558 118.75 94.654 118.028 94.9483C117.307 95.2425 116.513 95.3195 115.747 95.1695C114.981 95.0195 114.277 94.6492 113.725 94.1056C113.173 93.5619 112.797 92.8693 112.644 92.1152C112.492 91.3611 112.57 90.5795 112.869 89.8692C113.168 89.1588 113.674 88.5517 114.323 88.1246C114.973 87.6974 115.736 87.4694 116.517 87.4694C117.565 87.4694 118.569 87.879 119.31 88.608C120.05 89.337 120.466 90.3258 120.466 91.3568Z" fill="black"/>
<path d="M548.766 96.2667H448.061C444.99 96.2667 442.5 98.7178 442.5 101.741V193.369C442.5 196.392 444.99 198.843 448.061 198.843H548.766C551.837 198.843 554.327 196.392 554.327 193.369V101.741C554.327 98.7178 551.837 96.2667 548.766 96.2667Z" fill="#EDEDED"/>
<path d="M548.766 96.2667H448.061C444.99 96.2667 442.5 98.7178 442.5 101.741V193.369C442.5 196.392 444.99 198.843 448.061 198.843H548.766C551.837 198.843 554.327 196.392 554.327 193.369V101.741C554.327 98.7178 551.837 96.2667 548.766 96.2667Z" stroke="#DED8D5" stroke-width="1.968" stroke-miterlimit="10"/>
<path d="M472.594 172.16H524.563C527.651 172.16 530.153 169.696 530.153 166.657V124.865C530.153 121.826 527.651 119.362 524.563 119.362H472.594C469.506 119.362 467.004 121.826 467.004 124.865V166.657C467.004 169.696 469.506 172.16 472.594 172.16Z" fill="#FD71AF"/>
<path d="M512.985 154.54H483.842V135.3H512.985V154.54Z" fill="#FD71AF" stroke="white" stroke-width="1.647" stroke-linecap="round" stroke-linejoin="round"/>
<path d="M483.842 135.3L498.416 146.604L512.99 135.3" fill="#FD71AF"/>
<path d="M483.842 135.3L498.416 146.604L512.99 135.3" stroke="white" stroke-width="1.647" stroke-linecap="round" stroke-linejoin="round"/>
<path d="M102.257 183.419H6.2164C3.28746 183.419 0.913086 185.756 0.913086 188.64V270.977C0.913086 273.86 3.28746 276.198 6.2164 276.198H102.257C105.186 276.198 107.561 273.86 107.561 270.977V188.64C107.561 185.756 105.186 183.419 102.257 183.419Z" fill="#EDEDED"/>
<path d="M102.257 183.419H6.2164C3.28746 183.419 0.913086 185.756 0.913086 188.64V270.977C0.913086 273.86 3.28746 276.198 6.2164 276.198H102.257C105.186 276.198 107.561 273.86 107.561 270.977V188.64C107.561 185.756 105.186 183.419 102.257 183.419Z" stroke="#DED8D5" stroke-width="1.968" stroke-miterlimit="10"/>
<path opacity="0.738" d="M78.6576 199.309H29.3153C25.9116 199.309 23.1523 202.026 23.1523 205.376V252.257C23.1523 255.607 25.9116 258.324 29.3153 258.324H78.6576C82.0612 258.324 84.8205 255.607 84.8205 252.257V205.376C84.8205 202.026 82.0612 199.309 78.6576 199.309Z" fill="#2576BC"/>
<path d="M42.0338 217.231C39.5952 219.632 37.9346 222.69 37.2618 226.019C36.589 229.349 36.9343 232.8 38.254 235.937C39.5737 239.073 41.8085 241.754 44.6758 243.64C47.5432 245.526 50.9143 246.532 54.3628 246.532C57.8114 246.532 61.1825 245.526 64.0498 243.64C66.9172 241.754 69.152 239.073 70.4717 235.937C71.7914 232.8 72.1366 229.349 71.4639 226.019C70.7911 222.69 69.1304 219.632 66.6919 217.231C63.4132 214.029 58.9816 212.232 54.3628 212.232C49.7441 212.232 45.3125 214.029 42.0338 217.231ZM66.652 219.698H61.0934C60.5145 217.926 59.7922 216.203 58.9333 214.544C61.9763 215.457 64.6673 217.256 66.652 219.703V219.698ZM47.9609 228.36C47.962 226.118 48.2391 223.883 48.7861 221.706H59.9395C60.487 223.883 60.7641 226.118 60.7648 228.36H47.9609ZM60.697 230.371C60.5324 232.624 60.1311 234.854 59.4995 237.025H49.2271C48.5947 234.854 48.1931 232.624 48.0286 230.371H60.697ZM54.3633 213.884C55.1879 213.883 56.0114 213.946 56.8261 214.072C57.8532 215.863 58.6998 217.749 59.3538 219.703H49.371C50.025 217.749 50.8716 215.863 51.8987 214.072C52.7137 213.946 53.5374 213.883 54.3624 213.884H54.3633ZM49.7915 214.548C48.9322 216.206 48.2098 217.93 47.6313 219.702H42.0746C44.0584 217.256 46.7485 215.458 49.7905 214.546L49.7915 214.548ZM40.6896 221.71H47.0539C46.5038 223.888 46.2049 226.12 46.1628 228.364H38.6659C38.8167 226.023 39.5085 223.747 40.6887 221.71H40.6896ZM40.6896 237.026C39.5093 234.989 38.8178 232.713 38.6678 230.372H46.1943C46.312 232.62 46.6679 234.85 47.2563 237.026H40.6896ZM42.0755 239.037H47.8569C48.4529 240.821 49.1708 242.564 50.0059 244.254C46.8776 243.364 44.1065 241.541 42.0746 239.037H42.0755ZM54.3633 244.857C53.6745 244.857 52.9864 244.813 52.3034 244.725C51.3613 242.885 50.5454 240.984 49.8611 239.037H58.8655C58.1819 240.984 57.3676 242.884 56.4278 244.724C55.7429 244.811 55.0529 244.854 54.3624 244.852L54.3633 244.857ZM58.7263 244.254C59.5596 242.565 60.2757 240.822 60.8697 239.037H66.652C64.6189 241.538 61.848 243.358 58.7207 244.245L58.7263 244.254ZM68.037 237.026H61.4712C62.0605 234.851 62.4165 232.62 62.5332 230.372H70.0597C69.9094 232.713 69.2175 234.989 68.037 237.026ZM70.0588 228.364H62.5638C62.5217 226.12 62.2228 223.888 61.6727 221.71H68.037C69.2168 223.747 69.9083 226.023 70.0588 228.364Z" fill="white"/>
<path d="M96.8536 52.877H9.18687C8.31705 52.877 7.48286 52.5368 6.86781 51.9314C6.25276 51.3259 5.90723 50.5047 5.90723 49.6485C5.90723 48.7922 6.25276 47.971 6.86781 47.3656C7.48286 46.7601 8.31705 46.42 9.18687 46.42H96.8545C97.2853 46.4198 97.7118 46.5033 98.1098 46.6655C98.5077 46.8277 98.8693 47.0655 99.1739 47.3653C99.4785 47.6651 99.72 48.0211 99.8848 48.4128C100.05 48.8046 100.134 49.2244 100.134 49.6485C100.134 50.0725 100.05 50.4925 99.8847 50.8843C99.7199 51.2761 99.4782 51.6321 99.1736 51.9319C98.8689 52.2318 98.5072 52.4696 98.1091 52.6317C97.7111 52.7939 97.2844 52.8772 96.8536 52.877Z" fill="#49CCF9"/>
<path d="M552.72 263.684H510.17C509.74 263.684 509.313 263.601 508.915 263.438C508.517 263.276 508.156 263.038 507.851 262.739C507.546 262.439 507.305 262.083 507.14 261.691C506.975 261.299 506.891 260.879 506.891 260.455C506.891 260.031 506.975 259.612 507.14 259.22C507.305 258.828 507.546 258.472 507.851 258.172C508.156 257.872 508.517 257.635 508.915 257.472C509.313 257.31 509.74 257.227 510.17 257.227H552.72C553.59 257.227 554.424 257.567 555.039 258.173C555.654 258.778 556 259.599 556 260.455C556 261.312 555.654 262.133 555.039 262.738C554.424 263.344 553.59 263.684 552.72 263.684Z" fill="#56DFED"/>
<path d="M522.737 291.348H517.902C516.435 291.348 515.246 292.518 515.246 293.962V298.409C515.246 299.853 516.435 301.023 517.902 301.023H522.737C524.204 301.023 525.393 299.853 525.393 298.409V293.962C525.393 292.518 524.204 291.348 522.737 291.348Z" fill="#C98BD2"/>
<path d="M29.8868 313.713H25.0513C23.5846 313.713 22.3955 314.883 22.3955 316.327V320.774C22.3955 322.218 23.5846 323.388 25.0513 323.388H29.8868C31.3536 323.388 32.5426 322.218 32.5426 320.774V316.327C32.5426 314.883 31.3536 313.713 29.8868 313.713Z" fill="#FFB1A5"/>
<path d="M427.82 23.6185H341.674C340.13 23.6185 338.878 24.8507 338.878 26.3709V46.7901C338.878 48.3102 340.13 49.5425 341.674 49.5425H427.82C429.364 49.5425 430.616 48.3102 430.616 46.7901V26.3709C430.616 24.8507 429.364 23.6185 427.82 23.6185Z" fill="#FFB1A5"/>
<path d="M351.374 32.8553H412.913" stroke="white" stroke-width="1.18" stroke-miterlimit="10"/>
<path d="M351.374 39.0729H376.44" stroke="white" stroke-width="1.18" stroke-miterlimit="10"/>
<path d="M348.871 46.6091V56.7123L361.774 46.6091H348.871Z" fill="#FFB1A5"/>
<path d="M172.162 0H215.007C216.597 0 218.123 0.621947 219.247 1.72902C220.372 2.83609 221.004 4.33761 221.004 5.90324V45.1817C221.004 46.7474 220.372 48.2489 219.247 49.356C218.123 50.463 216.597 51.085 215.007 51.085H174.075C171.977 51.085 169.965 50.2646 168.482 48.8043C166.998 47.3441 166.165 45.3635 166.165 43.2984V5.90324C166.165 4.33761 166.797 2.83609 167.921 1.72902C169.046 0.621947 170.571 0 172.162 0V0Z" fill="#49CCF9"/>
<path d="M206.382 29.3179L203.259 26.2438C203.009 25.9588 202.701 25.7285 202.355 25.5678C202.01 25.4071 201.633 25.3195 201.251 25.3108C200.49 25.332 199.769 25.6471 199.243 26.1881L197.457 27.9472L197.123 27.7827C196.932 27.7025 196.746 27.6109 196.566 27.5086C194.801 26.377 193.238 24.9677 191.937 23.337C191.354 22.654 190.866 21.897 190.487 21.0863C190.934 20.7025 191.323 20.2638 191.715 19.8791L192.216 19.3847C192.513 19.1335 192.752 18.8219 192.915 18.4715C193.079 18.121 193.163 17.7399 193.163 17.3542C193.163 16.9686 193.079 16.5875 192.915 16.237C192.752 15.8866 192.513 15.575 192.216 15.3238L190.656 13.7831C190.476 13.6127 190.308 13.4295 190.155 13.2348L189.095 12.1912C188.569 11.6502 187.848 11.335 187.088 11.3139C186.71 11.3172 186.337 11.3967 185.992 11.5476C185.646 11.6985 185.336 11.9175 185.08 12.1912L183.131 14.1102C182.401 14.834 181.948 15.7843 181.849 16.7996C181.785 18.2251 182.032 19.6476 182.574 20.9711C183.553 23.6152 185.028 26.0545 186.923 28.1619C189.373 31.0419 192.413 33.3802 195.845 35.0238C197.415 35.8076 199.115 36.3096 200.864 36.506H201.254C201.882 36.515 202.505 36.3924 203.081 36.1463C203.657 35.9002 204.173 35.5363 204.596 35.0786L204.651 35.0238C204.957 34.6678 205.293 34.3374 205.655 34.0359L206.38 33.3232C206.657 33.0658 206.878 32.7555 207.029 32.4112C207.18 32.0669 207.258 31.6959 207.258 31.3209C207.258 30.9459 207.18 30.5748 207.03 30.2304C206.879 29.886 206.658 29.5755 206.382 29.3179ZM205.099 32.1717L204.429 32.8306C204.04 33.1596 203.705 33.5443 203.315 33.9272C203.059 34.1962 202.748 34.4085 202.402 34.5503C202.056 34.6921 201.683 34.76 201.308 34.7496H201.03C199.507 34.5937 198.03 34.1461 196.681 33.4319C193.485 31.8884 190.654 29.7003 188.373 27.0096C186.656 25.0297 185.281 22.786 184.302 20.368C183.784 19.3093 183.554 18.1366 183.633 16.964C183.669 16.3526 183.95 15.7802 184.414 15.3722L186.307 13.5089C186.508 13.2866 186.787 13.1491 187.088 13.1251C187.238 13.1312 187.385 13.1685 187.52 13.2347C187.654 13.3009 187.773 13.3943 187.868 13.5089L188.871 14.4968C189.043 14.6931 189.229 14.8764 189.428 15.045L190.99 16.5821C191.206 16.7865 191.344 17.0579 191.38 17.3506C191.356 17.6468 191.216 17.9223 190.99 18.1191L190.488 18.6126L189.096 19.9833L189.04 20.0381C188.845 20.2028 188.708 20.424 188.647 20.6702C188.587 20.9163 188.608 21.1748 188.706 21.4088V21.4646C189.178 22.5312 189.797 23.5287 190.546 24.429C191.968 26.2153 193.683 27.7552 195.62 28.9853C195.85 29.1341 196.092 29.2625 196.345 29.3691C196.536 29.4495 196.722 29.541 196.902 29.6432L196.958 29.6981C197.211 29.8318 197.503 29.8774 197.787 29.8277C198.07 29.778 198.328 29.6357 198.519 29.4239L200.468 27.5049C200.554 27.3863 200.666 27.2895 200.797 27.2227C200.928 27.156 201.074 27.1211 201.221 27.1211C201.369 27.1211 201.514 27.156 201.645 27.2227C201.776 27.2895 201.889 27.3863 201.974 27.5049L205.096 30.579C205.215 30.6763 205.31 30.7981 205.376 30.9357C205.442 31.0734 205.476 31.2236 205.476 31.3756C205.476 31.5277 205.443 31.678 205.377 31.8159C205.312 31.9538 205.217 32.0759 205.099 32.1736V32.1717Z" fill="white"/>
<path d="M397.627 244.5L366.065 240.364L366.311 243.448L339.328 246.986C339.328 246.986 321.937 289.94 337.265 384.408H359.214L367.114 288.618H369.919L377.57 384.408H399.52C414.851 289.94 397.627 244.5 397.627 244.5Z" fill="#8E716C"/>
<path d="M357.083 288.618H379.983" stroke="#282828" stroke-width="1.233" stroke-linecap="round" stroke-linejoin="round"/>
<path d="M416.057 199.185C413.356 194.942 398.19 195.093 397.39 195C393.289 194.526 400.018 226.643 408.548 254.718C408.932 255.988 409.584 257.164 410.461 258.17C411.338 259.175 412.421 259.987 413.639 260.553C414.856 261.118 416.181 261.425 417.528 261.452C418.874 261.48 420.21 261.227 421.451 260.711L421.621 260.641C423.637 259.801 425.301 258.307 426.336 256.407C427.37 254.507 427.713 252.315 427.306 250.197C423.252 229.016 419.178 204.093 416.057 199.185Z" fill="#FFB1A5"/>
<path d="M419.671 210.802L400.308 218.198L398.492 209.151L418.543 204.228L419.671 210.802Z" fill="#F3978E"/>
<path d="M423.332 228.897C423.332 228.897 414.159 241.024 414.597 240.467C415.035 239.909 421.791 220.868 421.791 220.868L423.332 228.897Z" fill="#F3978E"/>
<path d="M436.443 212.594L410.15 246.13C409.333 247.172 408.745 248.368 408.422 249.644C408.099 250.92 408.048 252.249 408.272 253.545C408.497 254.842 408.992 256.079 409.726 257.177C410.461 258.276 411.418 259.213 412.539 259.929C413.658 260.644 414.915 261.123 416.231 261.337C417.547 261.55 418.894 261.493 420.187 261.169C421.48 260.846 422.691 260.262 423.743 259.455C424.796 258.648 425.667 257.636 426.303 256.481L448.189 216.73L436.443 212.594Z" fill="#FFB1A5"/>
<path d="M443.247 221.206C441.206 220.557 439.406 219.327 438.075 217.671C436.744 216.015 435.942 214.008 435.769 211.903C435.597 209.798 436.063 207.69 437.107 205.846C438.152 204.002 439.729 202.504 441.638 201.542C443.548 200.58 445.704 200.196 447.835 200.441C449.966 200.685 451.975 201.545 453.609 202.914C455.242 204.282 456.427 206.096 457.014 208.128C457.6 210.159 457.561 212.316 456.902 214.325C456.465 215.66 455.765 216.896 454.842 217.964C453.919 219.032 452.791 219.911 451.523 220.55C450.255 221.189 448.871 221.576 447.451 221.688C446.031 221.801 444.603 221.637 443.247 221.206Z" fill="#FFB1A5"/>
<path d="M454.49 204.629C454.49 204.629 457.461 201.595 452.193 199.468C446.925 197.342 440.417 197.83 436.261 207.764L454.49 204.629Z" fill="#FFB1A5"/>
<path d="M459.946 183.435L470.955 188.133C471.101 188.199 471.231 188.294 471.337 188.413C471.442 188.532 471.521 188.671 471.568 188.822C471.615 188.973 471.629 189.131 471.609 189.288C471.59 189.444 471.536 189.595 471.453 189.73L456.972 216.36C456.816 216.658 456.555 216.888 456.238 217.008C455.92 217.128 455.569 217.129 455.252 217.011L444.242 212.312C444.096 212.246 443.966 212.151 443.861 212.033C443.755 211.914 443.676 211.775 443.629 211.624C443.582 211.473 443.568 211.314 443.588 211.158C443.608 211.001 443.661 210.85 443.745 210.716L458.226 184.085C458.381 183.788 458.643 183.557 458.96 183.437C459.277 183.317 459.628 183.316 459.946 183.435Z" fill="#372F5F"/>
<path d="M458.894 182.963L469.904 187.662C470.049 187.728 470.179 187.823 470.285 187.941C470.391 188.06 470.469 188.199 470.516 188.35C470.563 188.501 470.577 188.66 470.558 188.816C470.538 188.973 470.485 189.124 470.401 189.258L455.92 215.889C455.764 216.186 455.503 216.416 455.186 216.536C454.869 216.656 454.519 216.657 454.201 216.539L443.191 211.841C443.046 211.775 442.915 211.68 442.81 211.561C442.704 211.442 442.625 211.303 442.578 211.152C442.531 211.001 442.517 210.843 442.537 210.686C442.557 210.529 442.61 210.379 442.694 210.244L457.175 183.614C457.331 183.317 457.592 183.086 457.909 182.966C458.226 182.846 458.576 182.845 458.894 182.963Z" fill="#261B43"/>
<path d="M457.652 185.673L467.326 189.801L455.522 211.505L445.849 207.377L457.652 185.673Z" fill="#E6E6E6"/>
<path d="M467.326 189.801L445.849 207.377L457.652 185.673L467.326 189.801Z" fill="white"/>
<path d="M449.033 198.584C450.662 198.931 452.233 199.505 453.698 200.288C454.173 200.549 454.549 200.957 454.767 201.448C454.985 201.94 455.033 202.488 454.904 203.009C454.784 203.486 454.52 203.916 454.147 204.242C453.774 204.568 453.309 204.775 452.814 204.837L447.09 205.548C447.09 205.548 444.104 210.614 440.202 211.184L443.782 202.287L449.033 198.584Z" fill="#FFB1A5"/>
<path d="M375.938 156.957C375.306 156.957 416.527 162.571 423.328 208.834L401.939 212.061L397.626 246.987H337.957L326.11 182.457C326.11 182.457 339.331 163.806 363.877 156.961L375.938 156.957Z" fill="black"/>
<path d="M401.939 212.061L403.796 191.861" stroke="#282828" stroke-width="1.233" stroke-linecap="round" stroke-linejoin="round"/>
<path d="M379.855 157.616V141.548H360.726V157.807C358.963 158.364 357.246 159.05 355.587 159.859L370.507 168.608L385.76 159.859C383.897 158.867 381.912 158.113 379.855 157.616Z" fill="#FFB1A5"/>
<path d="M360.549 143.512C360.549 143.512 363.984 152.492 373.155 151.716C381.585 151.003 380.242 138.557 380.242 138.557L360.549 143.512Z" fill="#282828"/>
<path d="M352.205 131.567C349.207 134.245 342.502 124.09 345.399 121.241C348.296 118.393 350.505 122.863 350.505 122.863L351.799 125.894L352.774 130L353.007 131.076L352.205 131.567Z" fill="#F3978E"/>
<path d="M346.8 124.836C346.8 124.836 349.069 123.831 351.086 127.07" stroke="#282828" stroke-width="0.993" stroke-linecap="round" stroke-linejoin="round"/>
<path d="M387.665 131.26C390.422 134.178 397.975 124.618 395.333 121.536C392.691 118.453 390.104 122.723 390.104 122.723L388.556 125.636L387.23 129.646L386.907 130.697L387.665 131.26Z" fill="#F3978E"/>
<path d="M393.63 125.003C393.63 125.003 391.455 123.815 389.167 126.872" stroke="#282828" stroke-width="0.993" stroke-linecap="round" stroke-linejoin="round"/>
<path d="M346.946 111.553C346.946 124.995 357.357 131.369 370.201 131.369C383.045 131.369 393.455 124.995 393.455 111.553C393.455 98.1108 383.044 88.9653 370.201 88.9653C357.358 88.9653 346.946 98.1108 346.946 111.553Z" fill="#282828"/>
<path d="M350.108 112.488C350.119 119.363 350.913 126.215 352.475 132.916C353.633 137.864 356.89 141.323 361.493 144.106L362.328 144.613C364.752 146.059 367.525 146.839 370.358 146.869C373.192 146.9 375.982 146.182 378.437 144.788C383.424 141.926 386.917 138.152 387.991 132.842C389.238 126.122 389.963 119.317 390.159 112.488C390.159 112.488 392.016 91.6529 370.418 92.0604C348.821 92.468 350.108 112.488 350.108 112.488Z" fill="#FFB1A5"/>
<path d="M368.824 124.377V127.263C368.824 127.429 368.855 127.593 368.917 127.748C369.046 128.031 369.274 128.258 369.56 128.388C369.846 128.519 370.17 128.543 370.473 128.456L371.816 128.105" stroke="#282828" stroke-width="1.232" stroke-linecap="round" stroke-linejoin="round"/>
<path d="M365.389 113.198L354.654 115.674C354.654 115.674 355.142 112.985 359.534 112.007C363.927 111.029 365.389 113.198 365.389 113.198Z" fill="#282828"/>
<path d="M374.921 113.198L385.287 115.675C385.287 115.675 384.816 112.986 380.575 112.008C376.335 111.03 374.921 113.198 374.921 113.198Z" fill="#282828"/>
<path d="M361.31 122.738C362.31 122.738 363.12 121.942 363.12 120.961C363.12 119.979 362.31 119.183 361.31 119.183C360.31 119.183 359.5 119.979 359.5 120.961C359.5 121.942 360.31 122.738 361.31 122.738Z" fill="#282828"/>
<path d="M380.285 120.962C380.286 121.314 380.181 121.659 379.982 121.953C379.784 122.246 379.501 122.475 379.171 122.611C378.84 122.746 378.476 122.782 378.124 122.713C377.773 122.645 377.45 122.476 377.197 122.227C376.943 121.978 376.77 121.66 376.7 121.314C376.63 120.969 376.666 120.61 376.802 120.284C376.939 119.958 377.171 119.68 377.469 119.484C377.767 119.288 378.117 119.183 378.475 119.183C378.713 119.183 378.948 119.229 379.168 119.318C379.387 119.407 379.587 119.538 379.755 119.703C379.923 119.868 380.056 120.064 380.147 120.28C380.238 120.496 380.285 120.728 380.285 120.962Z" fill="#282828"/>
<path d="M363.121 131.808H377.083C377.083 131.808 370.895 139.217 363.121 131.808Z" fill="white"/>
<path d="M365.994 127.011C369 124.051 369 119.252 365.994 116.292C362.987 113.332 358.112 113.332 355.105 116.292C352.099 119.252 352.099 124.051 355.105 127.011C358.112 129.971 362.987 129.971 365.994 127.011Z" stroke="#C98BD2" stroke-width="1.342" stroke-miterlimit="10"/>
<path d="M384.907 127.011C387.913 124.051 387.913 119.252 384.907 116.292C381.9 113.332 377.025 113.332 374.018 116.292C371.012 119.252 371.012 124.051 374.018 127.011C377.025 129.971 381.9 129.971 384.907 127.011Z" stroke="#C98BD2" stroke-width="1.342" stroke-miterlimit="10"/>
<path d="M368.248 121.652C368.717 121.198 369.348 120.943 370.006 120.943C370.663 120.943 371.295 121.198 371.763 121.652" stroke="#C98BD2" stroke-width="1.342" stroke-miterlimit="10"/>
<path d="M352.849 121.652L350.425 121.591" stroke="#C98BD2" stroke-width="1.342" stroke-miterlimit="10"/>
<path d="M387.161 121.652L389.601 121.591" stroke="#C98BD2" stroke-width="1.342" stroke-miterlimit="10"/>
<path d="M389.884 119.394C389.884 119.394 381.25 107.901 383.239 96.2576C385.332 97.475 387.136 99.1199 388.529 101.081C389.922 103.043 390.872 105.276 391.315 107.629C392.988 115.826 389.884 119.394 389.884 119.394Z" fill="#282828"/>
<path d="M350.092 120.173C350.092 120.173 360.125 107.119 358.133 95.4754C353.739 98.2459 350.638 102.615 349.505 107.629C347.835 115.826 350.092 120.173 350.092 120.173Z" fill="#282828"/>
<path d="M389.159 100.843C389.159 100.843 378.069 112.794 347.729 110.748C347.729 110.748 352.375 93.2109 367.079 91.3431C367.079 91.3431 384.056 89.3473 389.159 100.843Z" fill="#282828"/>
<path d="M402.683 89.1444C403.957 81.3689 398.588 74.0482 390.689 72.7932C382.791 71.5381 375.354 76.824 374.079 84.5995C372.804 92.375 378.174 99.6957 386.072 100.951C393.971 102.206 401.408 96.9199 402.683 89.1444Z" fill="#282828"/>
<path d="M211.537 244.469L184.555 240.932L184.801 237.847L153.239 241.984C153.239 241.984 136.014 287.423 151.343 381.889H173.293L180.943 286.099H183.749L191.649 381.889H213.598C228.93 287.423 211.537 244.469 211.537 244.469Z" fill="#282828"/>
<path d="M209.379 115.236C205.355 110.486 202.28 105.029 200.318 99.1526C197.651 91.7196 188.915 94.7416 188.915 94.7416C188.915 94.7416 181.637 85.523 170.683 88.7342C159.729 91.9453 155.923 99.6177 155.7 108.74C155.477 117.863 148.187 119.289 142.575 129.842C132.667 148.473 149.352 164.165 179.717 159.815L179.759 159.525C183.378 160.508 187.146 160.855 190.888 160.547C227.374 158.408 223.853 131.992 209.379 115.236Z" fill="#282828"/>
<path d="M197.441 129.051C200.439 131.727 207.144 121.573 204.247 118.725C201.35 115.876 199.141 120.347 199.141 120.347L197.848 123.378L196.873 127.484L196.64 128.558L197.441 129.051Z" fill="#F3978E"/>
<path d="M202.846 122.319C202.846 122.319 200.577 121.313 198.561 124.552" stroke="#282828" stroke-width="0.993" stroke-linecap="round" stroke-linejoin="round"/>
<path d="M161.981 128.746C159.224 131.662 151.671 122.103 154.313 119.02C156.955 115.937 159.542 120.208 159.542 120.208L161.09 123.12L162.416 127.13L162.739 128.182L161.981 128.746Z" fill="#F3978E"/>
<path d="M156.017 122.485C156.017 122.485 158.192 121.297 160.48 124.354" stroke="#282828" stroke-width="0.993" stroke-linecap="round" stroke-linejoin="round"/>
<path d="M202.7 109.035C202.7 122.478 192.289 128.852 179.446 128.852C166.603 128.852 156.192 122.478 156.192 109.035C156.192 95.5932 166.604 86.4487 179.446 86.4487C192.288 86.4487 202.7 95.5932 202.7 109.035Z" fill="#282828"/>
<path d="M188.921 139.031H169.792V163.416H188.921V139.031Z" fill="#FFB1A5"/>
<path d="M166.999 137.51C166.999 137.51 172.324 147.971 178.871 149.605C180.632 150.019 182.477 149.914 184.178 149.303C186.643 148.442 189.771 144.825 190.305 140.82L190.552 138.535C190.552 138.535 178.896 144.78 166.999 137.51Z" fill="#282828"/>
<path d="M199.539 109.97C199.529 116.845 198.735 123.697 197.172 130.398C196.015 135.346 192.757 138.805 188.155 141.588L187.319 142.095C184.896 143.541 182.123 144.32 179.289 144.351C176.456 144.382 173.666 143.664 171.211 142.271C166.223 139.409 162.731 135.635 161.656 130.325C160.409 123.604 159.684 116.799 159.488 109.97C159.488 109.97 157.632 89.1353 179.229 89.5429C200.827 89.9504 199.539 109.97 199.539 109.97Z" fill="#FFB1A5"/>
<path d="M178.003 122.987V124.699C178.002 124.865 178.034 125.029 178.096 125.183C178.225 125.465 178.454 125.692 178.74 125.821C179.026 125.951 179.349 125.975 179.652 125.888L180.995 125.538" stroke="#282828" stroke-width="1.23" stroke-linecap="round" stroke-linejoin="round"/>
<path d="M182.504 111.695L193.996 114.372C193.996 114.372 193.473 111.464 188.773 110.409C184.072 109.353 182.504 111.695 182.504 111.695Z" fill="#282828"/>
<path d="M176.47 111.695L164.83 114.372C164.83 114.372 165.359 111.464 170.121 110.409C174.883 109.353 176.47 111.695 176.47 111.695Z" fill="#282828"/>
<path d="M172.3 118.716C172.302 119.069 172.198 119.415 172 119.709C171.802 120.003 171.52 120.233 171.19 120.37C170.859 120.506 170.495 120.543 170.143 120.475C169.791 120.408 169.468 120.239 169.213 119.99C168.959 119.741 168.786 119.424 168.715 119.078C168.645 118.732 168.68 118.373 168.816 118.047C168.953 117.721 169.185 117.442 169.483 117.246C169.781 117.049 170.131 116.945 170.49 116.945C170.727 116.944 170.962 116.989 171.181 117.078C171.4 117.166 171.6 117.297 171.768 117.461C171.936 117.626 172.069 117.821 172.161 118.037C172.252 118.252 172.299 118.483 172.3 118.716Z" fill="#282828"/>
<path d="M189.464 118.716C189.466 119.069 189.362 119.415 189.164 119.709C188.966 120.003 188.684 120.233 188.354 120.37C188.023 120.506 187.659 120.543 187.307 120.475C186.955 120.408 186.632 120.239 186.378 119.99C186.123 119.741 185.95 119.424 185.879 119.078C185.809 118.732 185.844 118.373 185.981 118.047C186.117 117.721 186.349 117.442 186.647 117.246C186.945 117.049 187.295 116.945 187.654 116.945C187.891 116.944 188.126 116.989 188.345 117.078C188.564 117.166 188.764 117.297 188.932 117.461C189.1 117.626 189.234 117.821 189.325 118.037C189.416 118.252 189.463 118.483 189.464 118.716Z" fill="#282828"/>
<path d="M171.104 128.852H186.995C186.995 128.852 185.874 133.147 178.668 133.147C177.129 133.18 175.611 132.797 174.277 132.039C172.944 131.282 171.847 130.18 171.104 128.852Z" fill="white"/>
<path d="M159.764 116.877C159.764 116.877 168.397 105.383 166.408 93.7391C164.315 94.9568 162.511 96.6019 161.118 98.5636C159.725 100.525 158.775 102.758 158.332 105.112C156.658 113.308 159.764 116.877 159.764 116.877Z" fill="#282828"/>
<path d="M199.555 116.494C199.555 116.494 189.522 104.602 191.514 92.9578C195.907 95.7283 199.009 100.098 200.141 105.112C201.811 113.308 199.555 116.494 199.555 116.494Z" fill="#282828"/>
<path d="M160.487 98.3255C160.487 98.3255 170.397 111.438 200.738 109.392C200.738 109.392 197.272 90.6934 182.568 88.8255C182.568 88.8255 165.59 86.8298 160.487 98.3255Z" fill="#282828"/>
<path d="M132.83 302.146C132.389 302.83 158.079 192.096 150.455 193.768C149.758 193.922 136.398 195.139 134.413 199.117C128.657 210.638 124.528 301.306 124.528 301.306L132.83 302.146Z" fill="#FFB1A5"/>
<path d="M124.528 301.308C124.528 301.308 120.387 320.224 136.039 322.291C136.541 322.357 137.051 322.25 137.482 321.99C137.914 321.729 138.241 321.329 138.408 320.859L138.452 320.73C138.628 320.215 138.6 319.654 138.374 319.158C138.149 318.662 137.742 318.268 137.235 318.054C134.683 316.931 130.724 314.092 132.686 307.645C132.686 307.645 134.948 307.371 136.198 311.528C136.271 311.779 136.4 312.011 136.575 312.208C136.751 312.405 136.967 312.562 137.211 312.667C137.454 312.772 137.718 312.824 137.984 312.818C138.249 312.811 138.511 312.748 138.749 312.632C139.085 312.465 139.36 312.199 139.536 311.872C139.711 311.544 139.78 311.171 139.731 310.804C139.359 307.893 137.868 300.887 132.161 299.007L124.528 301.308Z" fill="#FFB1A5"/>
<path d="M129.797 225.723C129.797 225.723 144.601 246.247 144.679 245.85C144.757 245.452 149.856 217.042 149.856 217.042L131.892 209.381L129.797 225.723Z" fill="#F3978E"/>
<path d="M170.93 159.401C171.562 159.401 134.343 160.054 127.541 206.317L148.931 209.543L153.243 244.469H212.913L224.759 179.939C224.759 179.939 216.337 165.958 191.79 159.104L170.93 159.401Z" fill="#00857B"/>
<path d="M152.738 164.997C152.738 164.997 157.998 171.871 179.55 171.871C200.901 171.871 206.361 164.637 206.361 164.637C197.84 160.201 188.665 157.109 179.169 155.476C169.935 157.364 161.03 160.572 152.738 164.997Z" fill="#FFB1A5"/>
<path d="M225.966 311.555L226.017 403.818H272.383L275.947 311.555H225.966Z" fill="black"/>
<path d="M326.639 311.555L326.588 403.818H280.222L276.658 311.555H326.639Z" fill="black"/>
<path d="M301.316 311.555H253.375V343.609H301.316V311.555Z" fill="black"/>
<path d="M355.93 231.038C358.807 262.302 355.773 285.082 356.611 342.61L328.937 343.751L324.813 236.068L355.93 231.038Z" fill="#FFB1A5"/>
<path d="M328.227 255.435C328.227 255.435 345.365 253.891 357.08 246.282L356.771 239.587L328.217 243.418L328.227 255.435Z" fill="#F3978E"/>
<path d="M300.734 159.057C300.734 159.057 355.167 172.533 365.031 240.547C365.031 240.547 338.389 251.917 311.691 247.027L317.697 224.278L300.734 159.057Z" fill="#2576BC"/>
<path d="M138.142 187.338L178.672 234.455L166.269 268.834C166.269 268.834 135.464 226.674 121.618 194.084L138.142 187.338Z" fill="#FFB1A5"/>
<path d="M139.474 189.038C139.474 189.038 125.242 196.954 121.622 194.091C115.296 189.087 110.068 170.772 110.068 170.772C110.068 170.772 136.681 160.895 136.432 161.28C136.182 161.665 139.474 189.038 139.474 189.038Z" fill="#FFB1A5"/>
<path d="M139.474 189.038C139.223 187.627 144.751 172.412 146.648 166.706C146.746 166.367 146.771 166.01 146.721 165.661C146.67 165.311 146.545 164.976 146.354 164.677C146.163 164.378 145.911 164.121 145.613 163.925C145.315 163.728 144.978 163.595 144.624 163.535C144.003 163.374 143.346 163.417 142.752 163.657C142.158 163.896 141.659 164.32 141.332 164.864L134.656 176.095L139.474 189.038Z" fill="#FFB1A5"/>
<path d="M138.985 172.589L134.402 150.143C134.258 149.416 133.829 148.774 133.209 148.355C132.588 147.936 131.825 147.774 131.084 147.903C130.459 148.01 129.899 148.35 129.521 148.852C129.144 149.355 128.977 149.981 129.055 150.601L131.052 167.315L138.985 172.589Z" fill="#FFB1A5"/>
<path d="M129.873 164.31L123.654 148.282C123.401 147.604 122.893 147.047 122.234 146.728C121.576 146.409 120.818 146.352 120.118 146.568C119.529 146.757 119.034 147.158 118.732 147.691C118.43 148.224 118.344 148.85 118.49 149.443L123.109 167.964L129.873 164.31Z" fill="#FFB1A5"/>
<path d="M123.183 169.034L115.309 153.284C114.962 152.58 114.355 152.032 113.613 151.752C112.871 151.472 112.048 151.48 111.311 151.775C110.982 151.917 110.684 152.121 110.435 152.375C110.186 152.63 109.99 152.931 109.86 153.261C109.729 153.59 109.666 153.942 109.673 154.295C109.681 154.649 109.76 154.998 109.905 155.321L116.183 170.19L123.183 169.034Z" fill="#FFB1A5"/>
<path d="M110.068 170.771L103.889 161.122C103.765 160.861 103.693 160.579 103.68 160.291C103.667 160.003 103.712 159.716 103.812 159.445C103.912 159.174 104.066 158.926 104.265 158.714C104.464 158.502 104.703 158.331 104.969 158.211C105.508 157.983 106.111 157.947 106.674 158.108C107.238 158.27 107.727 158.619 108.057 159.096L116.183 170.193L110.068 170.771Z" fill="#FFB1A5"/>
<path d="M137.741 170.903C137.741 170.903 128.458 169.945 127.508 182.12" stroke="#282828" stroke-width="1.532" stroke-linecap="round" stroke-linejoin="round"/>
<path d="M158.049 252.757C158.049 252.757 165.672 278.727 180.862 275.274C196.051 271.821 219.725 239.884 219.725 239.884L214.427 185.351L171.792 237.006L158.049 252.757Z" fill="#FFB1A5"/>
<path d="M185.017 220.96C185.017 220.96 199.411 242.334 211.69 249.871L219.726 239.884L188.721 216.273L185.017 220.96Z" fill="#F3978E"/>
<path d="M247.994 157.875C247.994 157.875 205.733 167.252 183.213 215.602C183.213 215.602 196.82 235.784 218.634 244.752L233.238 227.142L247.994 157.875Z" fill="#2576BC"/>
<path d="M247.995 157.728C238.05 162.753 228.977 169.298 221.112 177.118L224.361 318.452H328.397L328.06 177.848C328.06 177.848 314.947 165.216 300.735 159.057C288.663 153.825 259.729 151.803 247.995 157.728Z" fill="#2576BC"/>
<path d="M282.752 198.107H311.691V212.351C311.691 216.129 310.167 219.752 307.453 222.423C304.74 225.094 301.06 226.595 297.222 226.595V226.595C293.385 226.595 289.704 225.094 286.99 222.423C284.277 219.752 282.752 216.129 282.752 212.351V198.107Z" stroke="#282828" stroke-width="1.397" stroke-linecap="round" stroke-linejoin="round"/>
<path d="M328.228 247.551L329.577 201.317" stroke="#282828" stroke-width="1.397" stroke-linecap="round" stroke-linejoin="round"/>
<path d="M222.706 239.845L220.459 199.768" stroke="#282828" stroke-width="1.397" stroke-linecap="round" stroke-linejoin="round"/>
<path d="M249.215 106.107L244.878 84.9866C244.633 83.2668 243.956 80.6122 244.785 78.1175C246.159 73.9907 251.207 66.0652 259.834 69.6939L261.7 78.0553C261.7 78.0553 252.739 79.8354 249.145 91.3751L249.215 106.107Z" fill="#282828"/>
<path d="M259.2 74.0537C259.043 76.8281 256.555 88.9699 247.807 93.3937C247.807 93.3937 240.144 77.2183 259.2 74.0537Z" fill="#282828"/>
<path d="M289.885 153.839V117.976H256.301V153.839L246.305 158.325C246.305 158.325 248.65 173.188 273.446 173.518C298.243 173.848 300.738 159.056 300.738 159.056L289.885 153.839Z" fill="#FFB1A5"/>
<path d="M259.835 69.6939C259.835 69.6939 265.999 53.6875 285.005 62.2006C296.508 67.3509 299.73 74.2566 301.101 79.1482C301.554 81.016 301.726 82.9389 301.614 84.8559L297.017 106.11L279.068 76.7029L261.703 78.0553L259.835 69.6939Z" fill="#282828"/>
<path d="M297.017 106.107C297.017 106.107 299.282 102.562 303.952 104.305C308.622 106.047 306.509 117.213 299.504 118.635C298.717 118.772 297.909 118.74 297.136 118.541C296.363 118.342 295.642 117.981 295.024 117.482C295.024 117.482 296.745 109.236 297.017 106.107Z" fill="#F3978E"/>
<path d="M303.025 108.244C303.025 108.244 299.113 106.959 296.337 112.63" stroke="#282828" stroke-width="1.397" stroke-linecap="round" stroke-linejoin="round"/>
<path d="M249.213 106.107C249.213 106.107 246.949 102.562 242.279 104.305C237.609 106.047 239.722 117.213 246.727 118.635C247.514 118.772 248.321 118.74 249.095 118.541C249.868 118.342 250.588 117.981 251.206 117.482C251.206 117.482 249.484 109.236 249.213 106.107Z" fill="#F3978E"/>
<path d="M243.205 108.244C243.205 108.244 247.117 106.959 249.893 112.63" stroke="#282828" stroke-width="1.397" stroke-linecap="round" stroke-linejoin="round"/>
<path d="M297.484 95.5147C297.484 102.245 296.815 116.326 292.613 124.684C288.666 132.531 282.139 136.754 273.583 137.005C265.027 137.255 258.651 134.01 253.543 123.826C248.434 113.641 248.678 95.6398 248.678 95.6398C248.678 95.6398 248.678 71.5974 272.813 71.5974C298.239 71.5946 297.484 95.5147 297.484 95.5147Z" fill="#FFB1A5"/>
<path d="M256.556 128.842C256.556 128.842 259.368 142.89 271.787 144.503C286.083 146.361 289.889 129.199 289.889 129.199C289.889 129.199 283.576 136.99 273.584 137.002C270.306 136.986 267.073 136.245 264.125 134.832C261.178 133.42 258.591 131.373 256.556 128.842Z" fill="#282828"/>
<path d="M271.359 105.494V111.059C271.359 111.291 271.404 111.521 271.492 111.737C271.671 112.132 271.989 112.45 272.388 112.632C272.787 112.814 273.239 112.848 273.662 112.727L275.536 112.237" stroke="#282828" stroke-width="1.397" stroke-linecap="round" stroke-linejoin="round"/>
<path d="M264.23 102.837C264.23 103.265 264.101 103.683 263.86 104.039C263.618 104.395 263.275 104.672 262.873 104.836C262.472 105 262.03 105.043 261.603 104.959C261.177 104.876 260.785 104.67 260.478 104.367C260.17 104.065 259.961 103.679 259.876 103.259C259.791 102.839 259.835 102.404 260.001 102.009C260.168 101.614 260.449 101.276 260.811 101.038C261.172 100.8 261.597 100.673 262.032 100.673C262.321 100.673 262.607 100.729 262.874 100.838C263.14 100.946 263.383 101.106 263.587 101.307C263.791 101.508 263.953 101.746 264.063 102.009C264.174 102.271 264.23 102.553 264.23 102.837Z" fill="#282828"/>
<path d="M284.832 102.837C284.832 103.265 284.703 103.683 284.461 104.039C284.22 104.394 283.876 104.671 283.475 104.835C283.073 104.998 282.632 105.041 282.206 104.957C281.779 104.874 281.388 104.668 281.081 104.365C280.774 104.063 280.564 103.677 280.48 103.258C280.395 102.838 280.439 102.403 280.605 102.008C280.771 101.613 281.053 101.275 281.414 101.038C281.775 100.8 282.2 100.673 282.635 100.673C282.923 100.673 283.209 100.729 283.476 100.838C283.742 100.947 283.985 101.106 284.189 101.307C284.393 101.508 284.555 101.746 284.665 102.009C284.775 102.272 284.832 102.553 284.832 102.837Z" fill="#282828"/>
<path d="M277.011 92.0751L291.785 95.8317C291.785 95.8317 291.113 91.7525 285.069 90.2703C279.025 88.7881 277.011 92.0751 277.011 92.0751Z" fill="#282828"/>
<path d="M267.83 92.0751L253.056 95.8317C253.056 95.8317 253.728 91.7525 259.772 90.2703C265.816 88.7881 267.83 92.0751 267.83 92.0751Z" fill="#282828"/>
<path d="M264.891 116.665C264.891 116.665 267.07 118.31 272.802 118.31C275.713 118.374 278.603 117.812 281.27 116.665" stroke="#282828" stroke-width="1.397" stroke-linecap="round" stroke-linejoin="round"/>
<path d="M261.441 112.661C266.598 112.661 270.779 108.546 270.779 103.469C270.779 98.3928 266.598 94.2774 261.441 94.2774C256.284 94.2774 252.104 98.3928 252.104 103.469C252.104 108.546 256.284 112.661 261.441 112.661Z" stroke="white" stroke-width="1.951" stroke-miterlimit="10"/>
<path d="M284.381 112.661C289.538 112.661 293.718 108.546 293.718 103.469C293.718 98.3928 289.538 94.2774 284.381 94.2774C279.224 94.2774 275.043 98.3928 275.043 103.469C275.043 108.546 279.224 112.661 284.381 112.661Z" stroke="white" stroke-width="1.951" stroke-miterlimit="10"/>
<path d="M270.779 103.468C270.779 103.468 272.99 101.435 275.044 103.468" stroke="white" stroke-width="1.951" stroke-miterlimit="10"/>
<path d="M252.104 103.469L248.973 103.392" stroke="white" stroke-width="1.951" stroke-miterlimit="10"/>
<path d="M293.718 103.47L297.213 103.414" stroke="white" stroke-width="1.951" stroke-miterlimit="10"/>
<path d="M256.556 74.602C256.556 74.602 261.04 87.1432 281.275 86.7557C295.024 86.4944 298.31 96.2887 298.31 96.2887C298.31 96.2887 295.917 74.3927 295.289 74.5993C294.66 74.8058 274.366 69.269 274.366 69.269L256.556 74.602Z" fill="#282828"/>
</g>
<defs>
<clipPath id="clip0_111_4381">
<rect width="556" height="341" fill="white"/>
</clipPath>
</defs>
</svg>
