<svg width="17" height="17" viewBox="0 0 17 17" fill="none" xmlns="http://www.w3.org/2000/svg">
<g id="twitter 1" clip-path="url(#clip0_1754_494)">
<g id="Group">
<g id="Group_2">
<path id="Vector" d="M16.4131 3.68886C15.8141 3.95163 15.1758 4.12581 14.5103 4.21038C15.1949 3.80162 15.7174 3.15929 15.9631 2.38506C15.3248 2.76563 14.62 3.03444 13.8689 3.18446C13.2629 2.5391 12.399 2.1394 11.4567 2.1394C9.62833 2.1394 8.1564 3.62342 8.1564 5.44269C8.1564 5.70446 8.17855 5.95616 8.23291 6.19578C5.48739 6.06187 3.05799 4.74599 1.42598 2.74147C1.14106 3.2358 0.973931 3.80162 0.973931 4.41073C0.973931 5.55445 1.5629 6.56829 2.44083 7.15525C1.91025 7.14518 1.38974 6.99114 0.948761 6.74851C0.948761 6.75857 0.948761 6.77166 0.948761 6.78475C0.948761 8.38958 2.09348 9.72257 3.59461 10.0296C3.3258 10.1031 3.03282 10.1384 2.72877 10.1384C2.51735 10.1384 2.3039 10.1263 2.10355 10.082C2.53144 11.3898 3.74563 12.3513 5.18938 12.3825C4.06579 13.2615 2.63917 13.791 1.09475 13.791C0.823918 13.791 0.564166 13.7789 0.304413 13.7457C1.76728 14.6891 3.50098 15.2277 5.3706 15.2277C11.4476 15.2277 14.77 10.1938 14.77 5.83031C14.77 5.68432 14.765 5.54337 14.7579 5.40343C15.4134 4.93829 15.9641 4.35737 16.4131 3.68886Z" fill="white"/>
</g>
</g>
</g>
<defs>
<clipPath id="clip0_1754_494">
<rect width="16.1087" height="16.1087" fill="white" transform="translate(0.304413 0.62915)"/>
</clipPath>
</defs>
</svg>
